<svg width="136" height="846" viewBox="0 0 136 846" fill="none" xmlns="http://www.w3.org/2000/svg">
<rect width="45" height="47" fill="white"/>
<rect x="45" y="47" width="45" height="47" fill="white"/>
<rect x="90" width="46" height="47" fill="white"/>
<rect y="282" width="45" height="47" fill="white"/>
<rect x="45" y="329" width="45" height="47" fill="white"/>
<rect x="90" y="282" width="46" height="47" fill="white"/>
<rect y="188" width="45" height="47" fill="white"/>
<rect x="45" y="235" width="45" height="47" fill="white"/>
<rect x="90" y="188" width="46" height="47" fill="white"/>
<rect y="94" width="45" height="47" fill="white"/>
<rect x="45" y="141" width="45" height="47" fill="white"/>
<rect x="90" y="94" width="46" height="47" fill="white"/>
<rect y="376" width="45" height="47" fill="white"/>
<rect x="45" y="423" width="45" height="47" fill="white"/>
<rect x="90" y="376" width="46" height="47" fill="white"/>
<rect y="470" width="45" height="47" fill="white"/>
<rect x="45" y="517" width="45" height="47" fill="white"/>
<rect x="90" y="470" width="46" height="47" fill="white"/>
<rect y="564" width="45" height="47" fill="white"/>
<rect x="45" y="611" width="45" height="47" fill="white"/>
<rect x="90" y="564" width="46" height="47" fill="white"/>
<rect y="658" width="45" height="47" fill="white"/>
<rect x="45" y="705" width="45" height="47" fill="white"/>
<rect x="90" y="658" width="46" height="47" fill="white"/>
<rect y="752" width="45" height="47" fill="white"/>
<rect x="45" y="799" width="45" height="47" fill="white"/>
<rect x="90" y="752" width="46" height="47" fill="white"/>
</svg>
