<svg width="122" height="991" viewBox="0 0 122 991" fill="none" xmlns="http://www.w3.org/2000/svg">
<g clip-path="url(#clip0_187_9)">
<rect width="122" height="991" fill="black"/>
<rect width="40.3676" height="38.1389" fill="white"/>
<rect x="40.3682" y="38.1389" width="40.3676" height="38.1389" fill="white"/>
<rect x="80.7349" width="41.2647" height="38.1389" fill="white"/>
<rect y="228.833" width="40.3676" height="38.1389" fill="white"/>
<rect x="40.3682" y="266.972" width="40.3676" height="38.1389" fill="white"/>
<rect x="80.7349" y="228.833" width="41.2647" height="38.1389" fill="white"/>
<rect y="152.556" width="40.3676" height="38.1389" fill="white"/>
<rect x="40.3682" y="190.694" width="40.3676" height="38.1389" fill="white"/>
<rect x="80.7349" y="152.556" width="41.2647" height="38.1389" fill="white"/>
<rect y="76.2781" width="40.3676" height="38.1389" fill="white"/>
<rect x="40.3682" y="114.417" width="40.3676" height="38.1389" fill="white"/>
<rect x="80.7349" y="76.2781" width="41.2647" height="38.1389" fill="white"/>
<rect y="305.111" width="40.3676" height="38.1389" fill="white"/>
<rect x="40.3682" y="343.25" width="40.3676" height="38.1389" fill="white"/>
<rect x="80.7349" y="305.111" width="41.2647" height="38.1389" fill="white"/>
<rect y="381.389" width="40.3676" height="38.1389" fill="white"/>
<rect x="40.3682" y="419.528" width="40.3676" height="38.1389" fill="white"/>
<rect x="80.7349" y="381.389" width="41.2647" height="38.1389" fill="white"/>
<rect y="457.667" width="40.3676" height="38.1389" fill="white"/>
<rect x="40.3682" y="495.805" width="40.3676" height="38.1389" fill="white"/>
<rect x="80.7349" y="457.667" width="41.2647" height="38.1389" fill="white"/>
<rect y="533.945" width="40.3676" height="38.1389" fill="white"/>
<rect x="40.3682" y="572.083" width="40.3676" height="38.1389" fill="white"/>
<rect x="80.7349" y="533.945" width="41.2647" height="38.1389" fill="white"/>
<rect y="610.222" width="40.3676" height="38.1389" fill="white"/>
<rect x="40.3682" y="648.361" width="40.3676" height="38.1389" fill="white"/>
<rect x="80.7349" y="610.222" width="41.2647" height="38.1389" fill="white"/>
<rect y="686.5" width="40.3676" height="38.1389" fill="white"/>
<rect x="40.3682" y="724.639" width="40.3676" height="38.1389" fill="white"/>
<rect x="80.7349" y="686.5" width="41.2647" height="38.1389" fill="white"/>
<rect y="915.333" width="40.3676" height="38.1389" fill="white"/>
<rect x="40.3682" y="953.472" width="40.3676" height="38.1389" fill="white"/>
<rect x="80.7349" y="915.333" width="41.2647" height="38.1389" fill="white"/>
<rect y="839.056" width="40.3676" height="38.1389" fill="white"/>
<rect x="40.3682" y="877.194" width="40.3676" height="38.1389" fill="white"/>
<rect x="80.7349" y="839.056" width="41.2647" height="38.1389" fill="white"/>
<rect y="762.778" width="40.3676" height="38.1389" fill="white"/>
<rect x="40.3682" y="800.917" width="40.3676" height="38.1389" fill="white"/>
<rect x="80.7349" y="762.778" width="41.2647" height="38.1389" fill="white"/>
</g>
<defs>
<clipPath id="clip0_187_9">
<rect width="122" height="991" fill="white"/>
</clipPath>
</defs>
</svg>
