<svg width="122" height="991" viewBox="0 0 122 991" fill="none" xmlns="http://www.w3.org/2000/svg">
<g clip-path="url(#clip0_187_66)">
<rect width="122" height="991" fill="black"/>
<rect x="0.282715" y="0.147339" width="121.651" height="494.921" fill="#FF029C"/>
<path d="M122.5 99.9702L4.32422 199.762H122.5V99.9702Z" fill="black"/>
<path d="M122.5 0L4.32422 99.7922H122.5V0Z" fill="black"/>
<path d="M122.5 396.457L0 496.249H122.5V396.457Z" fill="black"/>
<path d="M122.5 299.226L4.32422 399.018H122.5V299.226Z" fill="black"/>
<path d="M122.5 199.256L4.32422 299.048H122.5V199.256Z" fill="black"/>
<rect x="-0.717285" y="495.147" width="121.651" height="494.921" fill="#FF029C"/>
<path d="M121.5 594.97L3.32422 694.762H121.5V594.97Z" fill="black"/>
<path d="M121.5 495L3.32422 594.792H121.5V495Z" fill="black"/>
<path d="M121.5 891.457L-1 991.249H121.5V891.457Z" fill="black"/>
<path d="M121.5 794.226L3.32422 894.018H121.5V794.226Z" fill="black"/>
<path d="M121.5 694.256L3.32422 794.048H121.5V694.256Z" fill="black"/>
</g>
<defs>
<clipPath id="clip0_187_66">
<rect width="122" height="991" fill="white"/>
</clipPath>
</defs>
</svg>
