<svg width="67" height="66" viewBox="0 0 67 66" fill="none" xmlns="http://www.w3.org/2000/svg">
<path d="M34 66C51.6731 66 66 51.6731 66 34C66 16.3269 51.6731 2 34 2C16.3269 2 2 16.3269 2 34C2 51.6731 16.3269 66 34 66Z" fill="white"/>
<path d="M33 44C38.5229 44 43 39.5228 43 34C43 28.4771 38.5229 24 33 24C27.4772 24 23 28.4771 23 34C23 39.5228 27.4772 44 33 44Z" fill="black" stroke="#12100B" stroke-miterlimit="10"/>
<path d="M1 32C2.69967 15.6574 15.0264 2.90913 29.6964 1.19592C46.7261 -0.786021 63.6073 12.4745 66 31.6557" fill="black"/>
<path d="M1 32C2.69967 15.6574 15.0264 2.90913 29.6964 1.19592C46.7261 -0.786021 63.6073 12.4745 66 31.6557" stroke="black" stroke-miterlimit="10"/>
</svg>
