<svg width="709" height="602" viewBox="0 0 709 602" fill="none" xmlns="http://www.w3.org/2000/svg">
<rect x="675" y="602" width="46" height="34" transform="rotate(-90 675 602)" fill="#F1F0F0"/>
<rect x="675" y="144" width="44" height="34" transform="rotate(-90 675 144)" fill="#F1F0F0"/>
<rect x="675" y="234" width="44" height="34" transform="rotate(-90 675 234)" fill="#F1F0F0"/>
<rect x="675" y="326" width="46" height="34" transform="rotate(-90 675 326)" fill="#F1F0F0"/>
<rect x="45" y="602" width="46" height="45" transform="rotate(-90 45 602)" fill="#F1F0F0"/>
<rect x="135" y="602" width="46" height="45" transform="rotate(-90 135 602)" fill="#F1F0F0"/>
<rect x="225" y="602" width="46" height="45" transform="rotate(-90 225 602)" fill="#F1F0F0"/>
<rect x="405" y="602" width="46" height="45" transform="rotate(-90 405 602)" fill="#F1F0F0"/>
<rect x="585" y="602" width="46" height="45" transform="rotate(-90 585 602)" fill="#F1F0F0"/>
<rect x="495" y="602" width="46" height="45" transform="rotate(-90 495 602)" fill="#F1F0F0"/>
<rect x="315" y="602" width="46" height="45" transform="rotate(-90 315 602)" fill="#F1F0F0"/>
<rect x="450" y="100" width="46" height="45" transform="rotate(-90 450 100)" fill="#F1F0F0"/>
<rect x="405.05" y="146.051" width="46" height="45" transform="rotate(-90 405.05 146.051)" fill="#F1F0F0"/>
<rect x="450.102" y="192" width="46" height="45" transform="rotate(-90 450.102 192)" fill="#F1F0F0"/>
<rect y="146" width="46" height="45" transform="rotate(-90 0 146)" fill="#C4C4C4"/>
<rect x="135" y="100" width="46" height="45" transform="rotate(-90 135 100)" fill="#C4C4C4"/>
<rect x="45" y="100" width="46" height="45" transform="rotate(-90 45 100)" fill="#C4C4C4"/>
<rect x="90" y="146" width="46" height="45" transform="rotate(-90 90 146)" fill="#C4C4C4"/>
<rect x="45" y="192" width="46" height="45" transform="rotate(-90 45 192)" fill="#C4C4C4"/>
<rect x="495" y="146" width="46" height="45" transform="rotate(-90 495 146)" fill="#F1F0F0"/>
<rect x="180" y="100.305" width="46" height="45" transform="rotate(-90 180 100.305)" fill="#F1F0F0"/>
<rect x="135" y="146" width="46" height="45" transform="rotate(-90 135 146)" fill="#F1F0F0"/>
<rect x="180" y="192" width="46" height="45" transform="rotate(-90 180 192)" fill="#F1F0F0"/>
<rect x="270" y="100.203" width="46" height="45" transform="rotate(-90 270 100.203)" fill="#F1F0F0"/>
<rect x="225" y="146" width="46" height="45" transform="rotate(-90 225 146)" fill="#F1F0F0"/>
<rect x="270" y="192" width="46" height="45" transform="rotate(-90 270 192)" fill="#F1F0F0"/>
<rect x="353" y="100" width="46" height="52" transform="rotate(-90 353 100)" fill="#F1F0F0"/>
<rect x="315" y="146" width="46" height="45" transform="rotate(-90 315 146)" fill="#F1F0F0"/>
<rect x="360" y="192" width="46" height="45" transform="rotate(-90 360 192)" fill="#F1F0F0"/>
<rect x="90" y="100" width="46" height="45" transform="rotate(-90 90 100)" fill="#F1F0F0"/>
<rect x="45" y="146" width="46" height="45" transform="rotate(-90 45 146)" fill="#F1F0F0"/>
<rect x="90" y="192" width="46" height="45" transform="rotate(-90 90 192)" fill="#F1F0F0"/>
<rect y="100" width="46" height="45" transform="rotate(-90 0 100)" fill="#F1F0F0"/>
<rect y="192" width="46" height="45" transform="rotate(-90 0 192)" fill="#F1F0F0"/>
<rect x="180" y="146" width="46" height="45" transform="rotate(-90 180 146)" fill="#C4C4C4"/>
<rect x="225" y="100" width="46" height="45" transform="rotate(-90 225 100)" fill="#C4C4C4"/>
<rect x="270" y="146" width="46" height="45" transform="rotate(-90 270 146)" fill="#C4C4C4"/>
<rect x="360" y="146" width="46" height="46" transform="rotate(-90 360 146)" fill="#C4C4C4"/>
<rect x="495" y="192" width="46" height="45" transform="rotate(-90 495 192)" fill="#C4C4C4"/>
<rect x="405" y="192" width="46" height="45" transform="rotate(-90 405 192)" fill="#C4C4C4"/>
<rect x="450" y="146" width="46" height="45" transform="rotate(-90 450 146)" fill="#C4C4C4"/>
<rect x="540" y="144" width="44" height="45" transform="rotate(-90 540 144)" fill="#C4C4C4"/>
<rect x="315" y="192" width="46" height="45" transform="rotate(-90 315 192)" fill="#C4C4C4"/>
<rect x="495" y="100" width="46" height="45" transform="rotate(-90 495 100)" fill="#C4C4C4"/>
<rect x="585" y="100" width="46" height="45" transform="rotate(-90 585 100)" fill="#C4C4C4"/>
<rect x="405" y="100" width="46" height="45" transform="rotate(-90 405 100)" fill="#C4C4C4"/>
<rect x="315" y="100" width="46" height="45" transform="rotate(-90 315 100)" fill="#C4C4C4"/>
<rect x="135" y="192" width="46" height="45" transform="rotate(-90 135 192)" fill="#C4C4C4"/>
<rect x="225" y="192" width="46" height="45" transform="rotate(-90 225 192)" fill="#C4C4C4"/>
<rect x="450" y="190" width="46" height="45" transform="rotate(-90 450 190)" fill="#F1F0F0"/>
<rect x="405.05" y="236.051" width="46" height="45" transform="rotate(-90 405.05 236.051)" fill="#F1F0F0"/>
<rect x="450.102" y="282" width="46" height="45" transform="rotate(-90 450.102 282)" fill="#F1F0F0"/>
<rect y="236" width="46" height="45" transform="rotate(-90 0 236)" fill="#C4C4C4"/>
<rect x="135" y="190" width="46" height="45" transform="rotate(-90 135 190)" fill="#C4C4C4"/>
<rect x="45" y="190" width="46" height="45" transform="rotate(-90 45 190)" fill="#C4C4C4"/>
<rect x="90" y="236" width="46" height="45" transform="rotate(-90 90 236)" fill="#C4C4C4"/>
<rect x="45" y="282" width="46" height="45" transform="rotate(-90 45 282)" fill="#C4C4C4"/>
<rect x="495" y="236" width="46" height="45" transform="rotate(-90 495 236)" fill="#F1F0F0"/>
<rect x="180" y="190.305" width="46" height="45" transform="rotate(-90 180 190.305)" fill="#F1F0F0"/>
<rect x="135" y="236" width="46" height="45" transform="rotate(-90 135 236)" fill="#F1F0F0"/>
<rect x="180" y="282" width="46" height="45" transform="rotate(-90 180 282)" fill="#F1F0F0"/>
<rect x="270" y="190.203" width="46" height="45" transform="rotate(-90 270 190.203)" fill="#F1F0F0"/>
<rect x="225" y="236" width="46" height="45" transform="rotate(-90 225 236)" fill="#F1F0F0"/>
<rect x="270" y="282" width="46" height="45" transform="rotate(-90 270 282)" fill="#F1F0F0"/>
<rect x="353" y="190" width="46" height="52" transform="rotate(-90 353 190)" fill="#F1F0F0"/>
<rect x="315" y="236" width="46" height="45" transform="rotate(-90 315 236)" fill="#F1F0F0"/>
<rect x="360" y="282" width="46" height="45" transform="rotate(-90 360 282)" fill="#F1F0F0"/>
<rect x="90" y="190" width="46" height="45" transform="rotate(-90 90 190)" fill="#F1F0F0"/>
<rect x="45" y="236" width="46" height="45" transform="rotate(-90 45 236)" fill="#F1F0F0"/>
<rect x="90" y="282" width="46" height="45" transform="rotate(-90 90 282)" fill="#F1F0F0"/>
<rect y="190" width="46" height="45" transform="rotate(-90 0 190)" fill="#F1F0F0"/>
<rect y="282" width="46" height="45" transform="rotate(-90 0 282)" fill="#F1F0F0"/>
<rect x="180" y="236" width="46" height="45" transform="rotate(-90 180 236)" fill="#C4C4C4"/>
<rect x="225" y="190" width="46" height="45" transform="rotate(-90 225 190)" fill="#C4C4C4"/>
<rect x="270" y="236" width="46" height="45" transform="rotate(-90 270 236)" fill="#C4C4C4"/>
<rect x="360" y="236" width="46" height="46" transform="rotate(-90 360 236)" fill="#C4C4C4"/>
<rect x="495" y="282" width="46" height="45" transform="rotate(-90 495 282)" fill="#C4C4C4"/>
<rect x="405" y="282" width="46" height="45" transform="rotate(-90 405 282)" fill="#C4C4C4"/>
<rect x="450" y="236" width="46" height="45" transform="rotate(-90 450 236)" fill="#C4C4C4"/>
<rect x="315" y="282" width="46" height="45" transform="rotate(-90 315 282)" fill="#C4C4C4"/>
<rect x="495" y="190" width="46" height="45" transform="rotate(-90 495 190)" fill="#C4C4C4"/>
<rect x="405" y="190" width="46" height="45" transform="rotate(-90 405 190)" fill="#C4C4C4"/>
<rect x="315" y="190" width="46" height="45" transform="rotate(-90 315 190)" fill="#C4C4C4"/>
<rect x="135" y="282" width="46" height="45" transform="rotate(-90 135 282)" fill="#C4C4C4"/>
<rect x="225" y="282" width="46" height="45" transform="rotate(-90 225 282)" fill="#C4C4C4"/>
<rect x="540" y="190" width="46" height="45" transform="rotate(-90 540 190)" fill="#F1F0F0"/>
<rect x="630" y="190" width="46" height="45" transform="rotate(-90 630 190)" fill="#F1F0F0"/>
<rect x="540" y="100" width="46" height="45" transform="rotate(-90 540 100)" fill="#F1F0F0"/>
<rect x="630" y="100" width="46" height="45" transform="rotate(-90 630 100)" fill="#F1F0F0"/>
<rect x="450" y="280" width="46" height="45" transform="rotate(-90 450 280)" fill="#F1F0F0"/>
<rect x="405.05" y="326.051" width="46" height="45" transform="rotate(-90 405.05 326.051)" fill="#F1F0F0"/>
<rect x="450.102" y="372" width="46" height="45" transform="rotate(-90 450.102 372)" fill="#F1F0F0"/>
<rect y="326" width="46" height="45" transform="rotate(-90 0 326)" fill="#C4C4C4"/>
<rect x="135" y="280" width="46" height="45" transform="rotate(-90 135 280)" fill="#C4C4C4"/>
<rect x="45" y="280" width="46" height="45" transform="rotate(-90 45 280)" fill="#C4C4C4"/>
<rect x="90" y="326" width="46" height="45" transform="rotate(-90 90 326)" fill="#C4C4C4"/>
<rect x="45" y="372" width="46" height="45" transform="rotate(-90 45 372)" fill="#C4C4C4"/>
<rect x="495" y="326" width="46" height="45" transform="rotate(-90 495 326)" fill="#F1F0F0"/>
<rect x="180" y="280.305" width="46" height="45" transform="rotate(-90 180 280.305)" fill="#F1F0F0"/>
<rect x="135" y="326" width="46" height="45" transform="rotate(-90 135 326)" fill="#F1F0F0"/>
<rect x="180" y="372" width="46" height="45" transform="rotate(-90 180 372)" fill="#F1F0F0"/>
<rect x="270" y="280.203" width="46" height="45" transform="rotate(-90 270 280.203)" fill="#F1F0F0"/>
<rect x="225" y="326" width="46" height="45" transform="rotate(-90 225 326)" fill="#F1F0F0"/>
<rect x="270" y="372" width="46" height="45" transform="rotate(-90 270 372)" fill="#F1F0F0"/>
<rect x="353" y="280" width="46" height="52" transform="rotate(-90 353 280)" fill="#F1F0F0"/>
<rect x="315" y="326" width="46" height="45" transform="rotate(-90 315 326)" fill="#F1F0F0"/>
<rect x="360" y="372" width="46" height="45" transform="rotate(-90 360 372)" fill="#F1F0F0"/>
<rect x="90" y="280" width="46" height="45" transform="rotate(-90 90 280)" fill="#F1F0F0"/>
<rect x="45" y="326" width="46" height="45" transform="rotate(-90 45 326)" fill="#F1F0F0"/>
<rect x="90" y="372" width="46" height="45" transform="rotate(-90 90 372)" fill="#F1F0F0"/>
<rect y="280" width="46" height="45" transform="rotate(-90 0 280)" fill="#F1F0F0"/>
<rect y="372" width="46" height="45" transform="rotate(-90 0 372)" fill="#F1F0F0"/>
<rect x="180" y="326" width="46" height="45" transform="rotate(-90 180 326)" fill="#C4C4C4"/>
<rect x="225" y="280" width="46" height="45" transform="rotate(-90 225 280)" fill="#C4C4C4"/>
<rect x="270" y="326" width="46" height="45" transform="rotate(-90 270 326)" fill="#C4C4C4"/>
<rect x="360" y="326" width="46" height="46" transform="rotate(-90 360 326)" fill="#C4C4C4"/>
<rect x="495" y="372" width="46" height="45" transform="rotate(-90 495 372)" fill="#C4C4C4"/>
<rect x="405" y="372" width="46" height="45" transform="rotate(-90 405 372)" fill="#C4C4C4"/>
<rect x="450" y="326" width="46" height="45" transform="rotate(-90 450 326)" fill="#C4C4C4"/>
<rect x="315" y="372" width="46" height="45" transform="rotate(-90 315 372)" fill="#C4C4C4"/>
<rect x="495" y="280" width="46" height="45" transform="rotate(-90 495 280)" fill="#C4C4C4"/>
<rect x="405" y="280" width="46" height="45" transform="rotate(-90 405 280)" fill="#C4C4C4"/>
<rect x="315" y="280" width="46" height="45" transform="rotate(-90 315 280)" fill="#C4C4C4"/>
<rect x="135" y="372" width="46" height="45" transform="rotate(-90 135 372)" fill="#C4C4C4"/>
<rect x="225" y="372" width="46" height="45" transform="rotate(-90 225 372)" fill="#C4C4C4"/>
<rect x="450" y="372" width="46" height="45" transform="rotate(-90 450 372)" fill="#F1F0F0"/>
<rect x="405.05" y="418.051" width="46" height="45" transform="rotate(-90 405.05 418.051)" fill="#F1F0F0"/>
<rect x="450.102" y="464" width="46" height="45" transform="rotate(-90 450.102 464)" fill="#F1F0F0"/>
<rect y="418" width="46" height="45" transform="rotate(-90 0 418)" fill="#C4C4C4"/>
<rect x="135" y="372" width="46" height="45" transform="rotate(-90 135 372)" fill="#C4C4C4"/>
<rect x="45" y="372" width="46" height="45" transform="rotate(-90 45 372)" fill="#C4C4C4"/>
<rect x="90" y="418" width="46" height="45" transform="rotate(-90 90 418)" fill="#C4C4C4"/>
<rect x="45" y="464" width="46" height="45" transform="rotate(-90 45 464)" fill="#C4C4C4"/>
<rect x="495" y="418" width="46" height="45" transform="rotate(-90 495 418)" fill="#F1F0F0"/>
<rect x="180" y="372.305" width="46" height="45" transform="rotate(-90 180 372.305)" fill="#F1F0F0"/>
<rect x="135" y="418" width="46" height="45" transform="rotate(-90 135 418)" fill="#F1F0F0"/>
<rect x="180" y="464" width="46" height="45" transform="rotate(-90 180 464)" fill="#F1F0F0"/>
<rect x="270" y="372.203" width="46" height="45" transform="rotate(-90 270 372.203)" fill="#F1F0F0"/>
<rect x="225" y="418" width="46" height="45" transform="rotate(-90 225 418)" fill="#F1F0F0"/>
<rect x="270" y="464" width="46" height="45" transform="rotate(-90 270 464)" fill="#F1F0F0"/>
<rect x="353" y="372" width="46" height="52" transform="rotate(-90 353 372)" fill="#F1F0F0"/>
<rect x="315" y="418" width="46" height="45" transform="rotate(-90 315 418)" fill="#F1F0F0"/>
<rect x="360" y="464" width="46" height="45" transform="rotate(-90 360 464)" fill="#F1F0F0"/>
<rect x="90" y="372" width="46" height="45" transform="rotate(-90 90 372)" fill="#F1F0F0"/>
<rect x="45" y="418" width="46" height="45" transform="rotate(-90 45 418)" fill="#F1F0F0"/>
<rect x="90" y="464" width="46" height="45" transform="rotate(-90 90 464)" fill="#F1F0F0"/>
<rect y="372" width="46" height="45" transform="rotate(-90 0 372)" fill="#F1F0F0"/>
<rect y="464" width="46" height="45" transform="rotate(-90 0 464)" fill="#F1F0F0"/>
<rect x="180" y="418" width="46" height="45" transform="rotate(-90 180 418)" fill="#C4C4C4"/>
<rect x="225" y="372" width="46" height="45" transform="rotate(-90 225 372)" fill="#C4C4C4"/>
<rect x="270" y="418" width="46" height="45" transform="rotate(-90 270 418)" fill="#C4C4C4"/>
<rect x="360" y="418" width="46" height="46" transform="rotate(-90 360 418)" fill="#C4C4C4"/>
<rect x="495" y="464" width="46" height="45" transform="rotate(-90 495 464)" fill="#C4C4C4"/>
<rect x="405" y="464" width="46" height="45" transform="rotate(-90 405 464)" fill="#C4C4C4"/>
<rect x="450" y="418" width="46" height="45" transform="rotate(-90 450 418)" fill="#C4C4C4"/>
<rect x="315" y="464" width="46" height="45" transform="rotate(-90 315 464)" fill="#C4C4C4"/>
<rect x="495" y="372" width="46" height="45" transform="rotate(-90 495 372)" fill="#C4C4C4"/>
<rect x="405" y="372" width="46" height="45" transform="rotate(-90 405 372)" fill="#C4C4C4"/>
<rect x="315" y="372" width="46" height="45" transform="rotate(-90 315 372)" fill="#C4C4C4"/>
<rect x="135" y="464" width="46" height="45" transform="rotate(-90 135 464)" fill="#C4C4C4"/>
<rect x="225" y="464" width="46" height="45" transform="rotate(-90 225 464)" fill="#C4C4C4"/>
<rect x="90" y="602" width="46" height="45" transform="rotate(-90 90 602)" fill="#C4C4C4"/>
<rect y="602" width="46" height="45" transform="rotate(-90 0 602)" fill="#C4C4C4"/>
<rect x="450" y="464" width="46" height="45" transform="rotate(-90 450 464)" fill="#F1F0F0"/>
<rect x="405.05" y="510.051" width="46" height="45" transform="rotate(-90 405.05 510.051)" fill="#F1F0F0"/>
<rect x="448" y="556" width="46" height="47" transform="rotate(-90 448 556)" fill="#F1F0F0"/>
<rect y="510" width="46" height="45" transform="rotate(-90 0 510)" fill="#C4C4C4"/>
<rect x="135" y="464" width="46" height="45" transform="rotate(-90 135 464)" fill="#C4C4C4"/>
<rect x="45" y="464" width="46" height="45" transform="rotate(-90 45 464)" fill="#C4C4C4"/>
<rect x="90" y="510" width="46" height="45" transform="rotate(-90 90 510)" fill="#C4C4C4"/>
<rect x="45" y="556" width="46" height="45" transform="rotate(-90 45 556)" fill="#C4C4C4"/>
<rect x="495" y="510" width="46" height="45" transform="rotate(-90 495 510)" fill="#F1F0F0"/>
<rect x="180" y="464.305" width="46" height="45" transform="rotate(-90 180 464.305)" fill="#F1F0F0"/>
<rect x="135" y="510" width="46" height="45" transform="rotate(-90 135 510)" fill="#F1F0F0"/>
<rect x="180" y="556" width="46" height="45" transform="rotate(-90 180 556)" fill="#F1F0F0"/>
<rect x="270" y="464.203" width="46" height="45" transform="rotate(-90 270 464.203)" fill="#F1F0F0"/>
<rect x="225" y="510" width="46" height="45" transform="rotate(-90 225 510)" fill="#F1F0F0"/>
<rect x="270" y="556" width="46" height="45" transform="rotate(-90 270 556)" fill="#F1F0F0"/>
<rect x="353" y="464" width="46" height="52" transform="rotate(-90 353 464)" fill="#F1F0F0"/>
<rect x="315" y="510" width="46" height="45" transform="rotate(-90 315 510)" fill="#F1F0F0"/>
<rect x="360" y="556" width="46" height="45" transform="rotate(-90 360 556)" fill="#F1F0F0"/>
<rect x="90" y="464" width="46" height="45" transform="rotate(-90 90 464)" fill="#F1F0F0"/>
<rect x="45" y="510" width="46" height="45" transform="rotate(-90 45 510)" fill="#F1F0F0"/>
<rect x="90" y="556" width="46" height="45" transform="rotate(-90 90 556)" fill="#F1F0F0"/>
<rect y="464" width="46" height="45" transform="rotate(-90 0 464)" fill="#F1F0F0"/>
<rect y="556" width="46" height="45" transform="rotate(-90 0 556)" fill="#F1F0F0"/>
<rect x="180" y="510" width="46" height="45" transform="rotate(-90 180 510)" fill="#C4C4C4"/>
<rect x="225" y="464" width="46" height="45" transform="rotate(-90 225 464)" fill="#C4C4C4"/>
<rect x="270" y="510" width="46" height="45" transform="rotate(-90 270 510)" fill="#C4C4C4"/>
<rect x="360" y="510" width="46" height="46" transform="rotate(-90 360 510)" fill="#C4C4C4"/>
<rect x="495" y="556" width="46" height="45" transform="rotate(-90 495 556)" fill="#C4C4C4"/>
<rect x="405" y="556" width="46" height="45" transform="rotate(-90 405 556)" fill="#C4C4C4"/>
<rect x="450" y="510" width="46" height="45" transform="rotate(-90 450 510)" fill="#C4C4C4"/>
<rect x="315" y="556" width="46" height="45" transform="rotate(-90 315 556)" fill="#C4C4C4"/>
<rect x="495" y="464" width="46" height="45" transform="rotate(-90 495 464)" fill="#C4C4C4"/>
<rect x="405" y="464" width="46" height="45" transform="rotate(-90 405 464)" fill="#C4C4C4"/>
<rect x="315" y="464" width="46" height="45" transform="rotate(-90 315 464)" fill="#C4C4C4"/>
<rect x="135" y="556" width="46" height="45" transform="rotate(-90 135 556)" fill="#C4C4C4"/>
<rect x="225" y="556" width="46" height="45" transform="rotate(-90 225 556)" fill="#C4C4C4"/>
<rect x="585" y="464" width="46" height="45" transform="rotate(-90 585 464)" fill="#C4C4C4"/>
<rect x="180" y="602" width="46" height="45" transform="rotate(-90 180 602)" fill="#C4C4C4"/>
<rect x="540" y="280" width="46" height="45" transform="rotate(-90 540 280)" fill="#F1F0F0"/>
<rect x="540" y="372" width="46" height="45" transform="rotate(-90 540 372)" fill="#F1F0F0"/>
<rect x="540" y="464" width="46" height="45" transform="rotate(-90 540 464)" fill="#F1F0F0"/>
<rect x="540" y="556" width="46" height="45" transform="rotate(-90 540 556)" fill="#F1F0F0"/>
<rect x="630" y="556" width="46" height="45" transform="rotate(-90 630 556)" fill="#F1F0F0"/>
<rect x="585" y="510" width="46" height="45" transform="rotate(-90 585 510)" fill="#F1F0F0"/>
<rect x="585" y="418" width="46" height="45" transform="rotate(-90 585 418)" fill="#F1F0F0"/>
<rect x="585" y="326" width="46" height="45" transform="rotate(-90 585 326)" fill="#F1F0F0"/>
<rect x="630" y="464" width="46" height="45" transform="rotate(-90 630 464)" fill="#F1F0F0"/>
<rect x="630" y="372" width="46" height="45" transform="rotate(-90 630 372)" fill="#F1F0F0"/>
<rect x="630" y="280" width="46" height="45" transform="rotate(-90 630 280)" fill="#F1F0F0"/>
<rect x="585" y="234" width="44" height="45" transform="rotate(-90 585 234)" fill="#F1F0F0"/>
<rect x="585" y="144" width="44" height="45" transform="rotate(-90 585 144)" fill="#F1F0F0"/>
<rect x="675" y="418" width="46" height="34" transform="rotate(-90 675 418)" fill="#F1F0F0"/>
<rect x="675" y="510" width="46" height="34" transform="rotate(-90 675 510)" fill="#F1F0F0"/>
<rect x="675" y="100" width="46" height="34" transform="rotate(-90 675 100)" fill="#C4C4C4"/>
<rect x="675" y="190" width="46" height="34" transform="rotate(-90 675 190)" fill="#C4C4C4"/>
<rect x="675" y="280" width="46" height="34" transform="rotate(-90 675 280)" fill="#C4C4C4"/>
<rect x="675" y="372" width="46" height="34" transform="rotate(-90 675 372)" fill="#C4C4C4"/>
<rect x="675" y="464" width="46" height="34" transform="rotate(-90 675 464)" fill="#C4C4C4"/>
<rect x="675" y="556" width="46" height="34" transform="rotate(-90 675 556)" fill="#C4C4C4"/>
<rect x="270" y="602" width="46" height="45" transform="rotate(-90 270 602)" fill="#C4C4C4"/>
<rect x="360" y="602" width="46" height="45" transform="rotate(-90 360 602)" fill="#C4C4C4"/>
<rect x="450" y="602" width="46" height="45" transform="rotate(-90 450 602)" fill="#C4C4C4"/>
<rect x="540" y="602" width="46" height="45" transform="rotate(-90 540 602)" fill="#C4C4C4"/>
<rect x="630" y="602" width="46" height="45" transform="rotate(-90 630 602)" fill="#C4C4C4"/>
<rect x="540" y="326" width="46" height="45" transform="rotate(-90 540 326)" fill="#C4C4C4"/>
<rect x="540" y="510" width="46" height="45" transform="rotate(-90 540 510)" fill="#C4C4C4"/>
<rect x="630" y="418" width="46" height="45" transform="rotate(-90 630 418)" fill="#C4C4C4"/>
<rect x="540" y="418" width="46" height="45" transform="rotate(-90 540 418)" fill="#C4C4C4"/>
<rect x="585" y="372" width="46" height="45" transform="rotate(-90 585 372)" fill="#C4C4C4"/>
<rect x="630" y="326" width="46" height="45" transform="rotate(-90 630 326)" fill="#C4C4C4"/>
<rect x="585" y="280" width="46" height="45" transform="rotate(-90 585 280)" fill="#C4C4C4"/>
<rect x="540" y="234" width="44" height="45" transform="rotate(-90 540 234)" fill="#C4C4C4"/>
<rect x="630" y="234" width="44" height="45" transform="rotate(-90 630 234)" fill="#C4C4C4"/>
<rect x="585" y="190" width="46" height="45" transform="rotate(-90 585 190)" fill="#C4C4C4"/>
<rect x="630" y="144" width="44" height="45" transform="rotate(-90 630 144)" fill="#C4C4C4"/>
<rect x="585" y="556" width="46" height="45" transform="rotate(-90 585 556)" fill="#C4C4C4"/>
<rect x="630" y="510" width="46" height="45" transform="rotate(-90 630 510)" fill="#C4C4C4"/>
<rect x="50" y="15" width="28" height="29" stroke="white" stroke-width="2"/>
<line x1="12.6402" y1="18.2318" x2="42.6402" y2="43.2318" stroke="white" stroke-width="2"/>
<line y1="-1" x2="39.0513" y2="-1" transform="matrix(-0.768221 0.640184 0.640184 0.768221 43 19)" stroke="white" stroke-width="2"/>
<path d="M128.904 19.384V29.68H138.552V19.384H141.936V43H138.552V32.74H128.904V43H125.52V19.384H128.904ZM154.273 43.432C151.993 43.432 150.169 42.772 148.801 41.452C147.433 40.132 146.749 38.38 146.749 36.196V31.984C146.749 29.776 147.433 28.012 148.801 26.692C150.169 25.372 151.993 24.712 154.273 24.712C156.577 24.712 158.413 25.372 159.781 26.692C161.173 28.012 161.869 29.776 161.869 31.984V36.196C161.869 38.38 161.173 40.132 159.781 41.452C158.413 42.772 156.577 43.432 154.273 43.432ZM154.309 40.372C155.629 40.372 156.673 39.988 157.441 39.22C158.233 38.452 158.629 37.42 158.629 36.124V32.092C158.629 30.748 158.245 29.692 157.477 28.924C156.709 28.156 155.653 27.772 154.309 27.772C152.989 27.772 151.933 28.156 151.141 28.924C150.373 29.692 149.989 30.748 149.989 32.092V36.124C149.989 37.444 150.373 38.488 151.141 39.256C151.933 40 152.989 40.372 154.309 40.372ZM185.074 24.712C187.162 24.712 188.794 25.324 189.97 26.548C191.17 27.772 191.77 29.476 191.77 31.66V43H188.53V31.912C188.53 30.64 188.17 29.632 187.45 28.888C186.754 28.144 185.818 27.772 184.642 27.772C183.802 27.772 183.022 27.964 182.302 28.348C181.582 28.732 181.006 29.26 180.574 29.932C180.67 30.412 180.718 30.988 180.718 31.66V43H177.478V31.912C177.478 30.64 177.118 29.632 176.398 28.888C175.702 28.144 174.766 27.772 173.59 27.772C172.774 27.772 172.018 27.952 171.322 28.312C170.65 28.672 170.098 29.164 169.666 29.788V43H166.426V25.144H169.342L169.45 26.548C170.722 25.324 172.342 24.712 174.31 24.712C175.414 24.712 176.41 24.928 177.298 25.36C178.186 25.768 178.906 26.368 179.458 27.16C180.106 26.368 180.898 25.768 181.834 25.36C182.794 24.928 183.874 24.712 185.074 24.712ZM199.374 35.26V36.124C199.374 37.468 199.758 38.524 200.526 39.292C201.318 40.036 202.398 40.408 203.766 40.408C204.918 40.408 205.878 40.12 206.646 39.544C207.438 38.968 207.846 38.26 207.87 37.42H211.11C211.014 39.196 210.294 40.648 208.95 41.776C207.606 42.88 205.878 43.432 203.766 43.432C201.462 43.432 199.614 42.784 198.222 41.488C196.83 40.168 196.134 38.416 196.134 36.232V31.948C196.134 30.508 196.446 29.248 197.07 28.168C197.694 27.064 198.582 26.212 199.734 25.612C200.886 25.012 202.206 24.712 203.694 24.712C205.95 24.712 207.75 25.372 209.094 26.692C210.438 28.012 211.11 29.752 211.11 31.912V35.26H199.374ZM203.694 27.736C202.374 27.736 201.318 28.132 200.526 28.924C199.758 29.692 199.374 30.736 199.374 32.056V32.56H207.87V32.056C207.87 30.736 207.486 29.692 206.718 28.924C205.974 28.132 204.966 27.736 203.694 27.736ZM235.948 19.384C238.228 19.384 240.028 19.984 241.348 21.184C242.668 22.36 243.328 23.98 243.328 26.044V26.584C243.328 28.648 242.668 30.28 241.348 31.48C240.028 32.656 238.228 33.244 235.948 33.244H229.936V43H226.552V19.384H235.948ZM235.876 30.22C237.22 30.22 238.24 29.908 238.936 29.284C239.632 28.66 239.98 27.76 239.98 26.584V26.044C239.98 24.892 239.62 24.004 238.9 23.38C238.204 22.756 237.196 22.444 235.876 22.444H229.936V30.22H235.876ZM261.565 25.144V43H258.649L258.505 41.38C257.209 42.748 255.529 43.432 253.465 43.432C251.449 43.432 249.853 42.808 248.677 41.56C247.501 40.312 246.913 38.608 246.913 36.448V25.144H250.189V36.196C250.189 37.468 250.537 38.488 251.233 39.256C251.929 40 252.877 40.372 254.077 40.372C255.013 40.372 255.853 40.168 256.597 39.76C257.341 39.328 257.917 38.752 258.325 38.032V25.144H261.565ZM274.963 24.712C276.979 24.712 278.575 25.336 279.751 26.584C280.927 27.832 281.515 29.524 281.515 31.66V43H278.239V31.912C278.239 30.64 277.879 29.632 277.159 28.888C276.463 28.144 275.527 27.772 274.351 27.772C273.415 27.772 272.575 27.988 271.831 28.42C271.087 28.828 270.511 29.392 270.103 30.112V43H266.863V25.144H269.779L269.923 26.764C271.219 25.396 272.899 24.712 274.963 24.712ZM302.077 42.496V43H298.621L293.149 35.116L289.909 38.644V43H286.669V17.944H289.909V34.036L298.225 25.18H301.789V25.684L295.309 32.74L302.077 42.496Z" fill="white"/>
<line x1="86" y1="43" x2="115" y2="43" stroke="white" stroke-width="2"/>
</svg>
