<svg width="129" height="579" viewBox="0 0 129 579" fill="none" xmlns="http://www.w3.org/2000/svg">
<path d="M104.971 103.468L75.1892 85.7011L64.0607 117L53.4854 85.5285L23.3865 102.828L36.9798 72.3848L2 67.589L33.3842 52.4177L9.89893 27.7697L44.3988 34.967L43.3901 2L64.8579 28.2011L86.7976 2.34513L85.195 35.2834L119.817 28.6325L95.8842 52.9066L127 68.5668L91.9388 72.8162L104.971 103.468Z" fill="#FF029C" stroke="black" stroke-miterlimit="10"/>
<path d="M104.971 218.468L75.1892 200.701L64.0607 232L53.4854 200.529L23.3865 217.828L36.9798 187.385L2 182.589L33.3842 167.418L9.89893 142.77L44.3988 149.967L43.3901 117L64.8579 143.201L86.7976 117.345L85.195 150.283L119.817 143.632L95.8842 167.907L127 183.567L91.9388 187.816L104.971 218.468Z" fill="#FF029C" stroke="black" stroke-miterlimit="10"/>
<path d="M104.971 333.468L75.1892 315.701L64.0607 347L53.4854 315.529L23.3865 332.828L36.9798 302.385L2 297.589L33.3842 282.418L9.89893 257.77L44.3988 264.967L43.3901 232L64.8579 258.201L86.7976 232.345L85.195 265.283L119.817 258.632L95.8842 282.907L127 298.567L91.9388 302.816L104.971 333.468Z" fill="#FF029C" stroke="black" stroke-miterlimit="10"/>
<path d="M104.971 448.468L75.1892 430.701L64.0607 462L53.4854 430.529L23.3865 447.828L36.9798 417.385L2 412.589L33.3842 397.418L9.89893 372.77L44.3988 379.967L43.3901 347L64.8579 373.201L86.7976 347.345L85.195 380.283L119.817 373.632L95.8842 397.907L127 413.567L91.9388 417.816L104.971 448.468Z" fill="#FF029C" stroke="black" stroke-miterlimit="10"/>
<path d="M104.971 563.468L75.1892 545.701L64.0607 577L53.4854 545.529L23.3865 562.828L36.9798 532.385L2 527.589L33.3842 512.418L9.89893 487.77L44.3988 494.967L43.3901 462L64.8579 488.201L86.7976 462.345L85.195 495.283L119.817 488.632L95.8842 512.907L127 528.567L91.9388 532.816L104.971 563.468Z" fill="#FF029C" stroke="black" stroke-miterlimit="10"/>
</svg>
