<svg width="696" height="203" viewBox="0 0 696 203" fill="none" xmlns="http://www.w3.org/2000/svg">
<path d="M108.632 105.4L29.5468 188.987L26.9864 23.4417L108.632 105.4Z" fill="#FF029C"/>
<path d="M192.781 101.578L106.762 185.236L104.202 19.6903L192.781 101.578Z" fill="#FF029C"/>
<path d="M279.634 100.642L193.615 184.3L191.054 18.7542L279.634 100.642Z" fill="#FF029C"/>
<path d="M609.947 99.3995L530.861 182.987L528.301 17.4417L609.947 99.3995Z" fill="#FF029C"/>
<path d="M694.096 95.5778L608.077 179.236L605.516 13.6903L694.096 95.5778Z" fill="#FF029C"/>
<path d="M359.289 101.4L280.204 184.987L277.644 19.4417L359.289 101.4Z" fill="#FF029C"/>
<path d="M443.439 97.5778L357.419 181.236L354.859 15.6903L443.439 97.5778Z" fill="#FF029C"/>
<path d="M530.291 96.6417L444.272 180.3L441.711 14.7542L530.291 96.6417Z" fill="#FF029C"/>
</svg>
