<svg width="830" height="798" viewBox="0 0 830 798" fill="none" xmlns="http://www.w3.org/2000/svg">
<path d="M420.882 394.589L335.063 478.177L332.284 312.632L420.882 394.589Z" fill="#FF029C"/>
<path d="M0.943359 0.0117188H277.059V265.679H0.943359V0.0117188Z" fill="#FF029C"/>
<path d="M553.175 265.678H829.291V531.345H553.175V265.678Z" fill="black"/>
<path d="M269 0.0117188H553V266.012H269V0.0117188Z" fill="black"/>
<path d="M0.943359 265.678H277.059V531.345H0.943359V265.678Z" fill="black"/>
<path d="M277.06 531.345H553.175V797.012H277.06V531.345Z" fill="black"/>
<path d="M553.175 531.345H829.291V797.012H553.175V531.345Z" fill="#FF029C"/>
<path d="M0.943359 531.345H277.059V797.012H0.943359V531.345Z" fill="#FF029C"/>
<path d="M553.175 0.0117188H829.291V265.679H553.175V0.0117188Z" fill="#FF029C"/>
<path d="M277.06 265.678H553.175V531.345H277.06V265.678Z" fill="#FF029C"/>
<path d="M96.8828 123.565L9.67307 205.701V40.1324L96.8828 123.565Z" fill="black"/>
<path d="M181.883 124.565L94.6731 206.701V41.1324L181.883 124.565Z" fill="black"/>
<path d="M268.883 126.565L181.673 208.701V43.1324L268.883 126.565Z" fill="black"/>
<path d="M706.604 669.589L780.71 753.068L783.488 587.522L706.604 669.589Z" fill="black"/>
<path d="M628.604 670.589L704.937 754.088L707.715 588.543L628.604 670.589Z" fill="black"/>
<path d="M554.604 670.589L628.614 754.067L631.392 588.521L554.604 670.589Z" fill="black"/>
<path d="M672.495 91.2568L590.15 7.06416L756.282 7.06416L672.495 91.2568Z" fill="black"/>
<path d="M674.495 175.257L592.15 91.0644L758.282 91.0644L674.495 175.257Z" fill="black"/>
<path d="M674.495 259.257L592.15 175.064L758.282 175.064L674.495 259.257Z" fill="black"/>
<path d="M139.374 701.766L57.0287 785.959H223.16L139.374 701.766Z" fill="black"/>
<path d="M135.935 617.87L53.5902 702.063H219.722L135.935 617.87Z" fill="black"/>
<path d="M133.495 533L51.1498 617.193H217.282L133.495 533Z" fill="black"/>
<path d="M414.011 57.4116C428.278 57.4116 441.278 60.945 453.011 68.0116C464.878 74.9449 474.278 84.2783 481.211 96.0116C488.278 107.745 491.811 120.812 491.811 135.212C491.811 149.478 488.278 162.545 481.211 174.412C474.278 186.145 464.878 195.545 453.011 202.612C441.278 209.545 428.278 213.012 414.011 213.012C399.611 213.012 386.544 209.545 374.811 202.612C363.078 195.545 353.678 186.145 346.611 174.412C339.678 162.545 336.211 149.478 336.211 135.212C336.211 120.812 339.678 107.745 346.611 96.0116C353.678 84.2783 363.078 74.9449 374.811 68.0116C386.544 60.945 399.611 57.4116 414.011 57.4116ZM427.811 167.612C427.811 167.612 427.211 166.278 426.011 163.612C424.944 160.945 423.878 157.212 422.811 152.412C421.744 147.478 421.211 141.745 421.211 135.212C421.211 128.545 421.744 122.812 422.811 118.012C423.878 113.078 424.944 109.278 426.011 106.612C427.211 103.945 427.811 102.612 427.811 102.612C427.811 102.612 427.344 102.945 426.411 103.612C425.611 104.278 424.544 105.078 423.211 106.012C421.878 106.812 420.411 107.545 418.811 108.212C417.211 108.878 415.611 109.212 414.011 109.212C412.278 109.212 410.611 108.878 409.011 108.212C407.411 107.545 405.944 106.812 404.611 106.012C403.278 105.078 402.211 104.278 401.411 103.612C400.611 102.945 400.211 102.612 400.211 102.612C400.211 102.612 400.744 103.945 401.811 106.612C402.878 109.278 403.944 113.078 405.011 118.012C406.211 122.812 406.811 128.545 406.811 135.212C406.811 141.745 406.211 147.478 405.011 152.412C403.944 157.212 402.878 160.945 401.811 163.612C400.744 166.278 400.211 167.612 400.211 167.612C400.211 167.612 400.544 167.278 401.211 166.612C402.011 165.945 403.078 165.212 404.411 164.412C405.744 163.478 407.211 162.678 408.811 162.012C410.411 161.345 412.144 161.012 414.011 161.012C415.744 161.012 417.411 161.345 419.011 162.012C420.611 162.678 422.078 163.478 423.411 164.412C424.744 165.212 425.811 165.945 426.611 166.612C427.411 167.278 427.811 167.612 427.811 167.612Z" fill="white"/>
<path d="M154.941 314.212H222.941V464.012H154.941C154.941 452.812 155.474 442.945 156.541 434.412C157.607 425.878 158.674 419.212 159.741 414.412C160.807 409.612 161.341 407.212 161.341 407.212C161.341 407.212 160.941 407.545 160.141 408.212C159.474 408.745 158.474 409.478 157.141 410.412C155.941 411.212 154.541 411.945 152.941 412.612C151.341 413.278 149.674 413.612 147.941 413.612C146.341 413.612 144.741 413.278 143.141 412.612C141.541 411.945 140.074 411.212 138.741 410.412C137.541 409.478 136.541 408.745 135.741 408.212C135.074 407.545 134.741 407.212 134.741 407.212C134.741 407.212 135.274 409.612 136.341 414.412C137.407 419.212 138.474 425.878 139.541 434.412C140.607 442.945 141.141 452.812 141.141 464.012H73.1406V314.212H141.141C141.141 325.412 140.607 335.345 139.541 344.012C138.474 352.545 137.407 359.212 136.341 364.012C135.274 368.812 134.741 371.212 134.741 371.212C134.741 371.212 135.074 370.878 135.741 370.212C136.541 369.545 137.541 368.812 138.741 368.012C140.074 367.212 141.541 366.478 143.141 365.812C144.741 365.145 146.341 364.812 147.941 364.812C149.674 364.812 151.341 365.145 152.941 365.812C154.541 366.478 155.941 367.212 157.141 368.012C158.474 368.812 159.474 369.545 160.141 370.212C160.941 370.878 161.341 371.212 161.341 371.212C161.341 371.212 160.807 368.812 159.741 364.012C158.674 359.212 157.607 352.545 156.541 344.012C155.474 335.345 154.941 325.412 154.941 314.212Z" fill="white"/>
<path d="M339.141 590.212H488.941V626.812C488.941 626.812 487.474 627.345 484.541 628.412C481.741 629.478 477.141 630.545 470.741 631.612C464.341 632.678 455.874 633.212 445.341 633.212C434.941 633.212 426.541 632.678 420.141 631.612C413.741 630.545 409.074 629.478 406.141 628.412C403.341 627.345 401.941 626.812 401.941 626.812C401.941 626.812 402.274 627.212 402.941 628.012C403.607 628.812 404.341 629.812 405.141 631.012C405.941 632.212 406.674 633.612 407.341 635.212C408.007 636.812 408.341 638.478 408.341 640.212C408.341 641.812 408.007 643.412 407.341 645.012C406.674 646.612 405.941 648.078 405.141 649.412C404.341 650.612 403.607 651.612 402.941 652.412C402.274 653.078 401.941 653.412 401.941 653.412C401.941 653.412 403.341 652.878 406.141 651.812C409.074 650.745 413.741 649.678 420.141 648.612C426.541 647.545 434.941 647.012 445.341 647.012C451.474 647.012 456.807 647.278 461.341 647.812C460.674 648.612 459.674 650.478 458.341 653.412C457.141 656.345 456.541 660.278 456.541 665.212C456.541 670.145 457.141 674.078 458.341 677.012C459.674 679.812 460.674 681.678 461.341 682.612C456.807 683.012 451.474 683.212 445.341 683.212C434.941 683.212 426.541 682.678 420.141 681.612C413.741 680.545 409.074 679.478 406.141 678.412C403.341 677.345 401.941 676.812 401.941 676.812C401.941 676.812 402.274 677.212 402.941 678.012C403.607 678.678 404.341 679.678 405.141 681.012C405.941 682.212 406.674 683.612 407.341 685.212C408.007 686.812 408.341 688.478 408.341 690.212C408.341 691.812 408.007 693.412 407.341 695.012C406.674 696.612 405.941 698.078 405.141 699.412C404.341 700.612 403.607 701.612 402.941 702.412C402.274 703.078 401.941 703.412 401.941 703.412C401.941 703.412 403.341 702.878 406.141 701.812C409.074 700.745 413.741 699.678 420.141 698.612C426.541 697.545 434.941 697.012 445.341 697.012C455.874 697.012 464.341 697.545 470.741 698.612C477.141 699.678 481.741 700.745 484.541 701.812C487.474 702.878 488.941 703.412 488.941 703.412V740.012H339.141V590.212Z" fill="white"/>
<path d="M754.898 327.212H779.098V402.012V477.012H722.898H718.098C718.098 477.012 718.098 476.945 718.098 476.812H718.698C718.698 476.812 718.432 475.612 717.898 473.212C717.498 470.812 717.232 466.678 717.098 460.812C716.965 454.812 717.365 446.612 718.298 436.212C720.032 421.412 722.832 410.012 726.698 402.012C730.565 393.878 732.498 389.812 732.498 389.812C732.498 389.812 732.098 390.145 731.298 390.812C730.498 391.478 729.498 392.278 728.298 393.212C727.098 394.012 725.698 394.745 724.098 395.412C722.498 395.945 720.832 396.212 719.098 396.212C717.498 396.212 715.898 395.945 714.298 395.412C712.698 394.745 711.232 394.012 709.898 393.212C708.698 392.278 707.698 391.478 706.898 390.812C706.232 390.145 705.898 389.812 705.898 389.812C705.898 389.812 706.365 391.878 707.298 396.012C708.365 400.012 709.032 405.745 709.298 413.212C709.565 420.545 708.632 429.345 706.498 439.612C705.298 444.812 704.098 449.345 702.898 453.212C699.565 452.545 695.698 452.012 691.298 451.612C686.898 451.212 683.432 451.012 680.898 451.012C678.498 451.012 675.098 451.212 670.698 451.612C666.298 452.012 662.365 452.545 658.898 453.212C657.832 449.345 656.698 444.812 655.498 439.612C653.365 429.345 652.432 420.545 652.698 413.212C652.965 405.745 653.565 400.012 654.498 396.012C655.565 391.878 656.098 389.812 656.098 389.812C656.098 389.812 655.698 390.145 654.898 390.812C654.232 391.478 653.232 392.278 651.898 393.212C650.698 394.012 649.298 394.745 647.698 395.412C646.098 395.945 644.498 396.212 642.898 396.212C641.165 396.212 639.498 395.945 637.898 395.412C636.298 394.745 634.832 394.012 633.498 393.212C632.298 392.278 631.298 391.478 630.498 390.812C629.832 390.145 629.498 389.812 629.498 389.812C629.498 389.812 631.432 393.878 635.298 402.012C639.165 410.012 641.965 421.412 643.698 436.212C644.632 446.612 645.032 454.812 644.898 460.812C644.765 466.678 644.432 470.812 643.898 473.212C643.498 475.612 643.298 476.812 643.298 476.812H643.898C643.898 476.945 643.832 477.012 643.698 477.012H639.098H582.898V402.012V327.212H607.098H639.098H654.298C662.165 332.012 668.232 338.345 672.498 346.212C676.898 353.945 679.698 360.212 680.898 365.012C682.232 360.212 685.032 353.945 689.298 346.212C693.565 338.345 699.698 332.012 707.698 327.212H722.898H754.898Z" fill="white"/>
<path d="M470.312 466.557L431.459 442.285L416.942 485.012L403.156 442.053L363.879 465.671L381.592 424.1L336 417.55L376.933 396.822L346.281 363.187L391.296 373.012L389.948 328.012L417.981 363.765L446.592 328.474L444.513 373.436L489.643 364.382L458.452 397.516L499 418.898L453.292 424.677L470.312 466.557Z" fill="white"/>
<path fill-rule="evenodd" clip-rule="evenodd" d="M389.403 326.506L417.988 362.963L447.162 326.977L445.042 372.82L491.081 363.583L459.267 397.38L500.636 419.196L454 425.092L471.357 467.799L431.729 443.043L416.928 486.606L402.873 442.807L362.814 466.895L380.877 424.502L334.361 417.82L376.121 396.673L344.855 362.364L390.777 372.387L389.403 326.506ZM390.494 329.518L391.815 373.637L347.708 364.011L377.745 396.971L337.639 417.28L382.307 423.697L364.944 464.447L403.439 441.3L416.955 483.418L431.188 441.526L469.268 465.315L452.584 424.263L497.365 418.601L457.638 397.651L488.204 365.18L443.984 374.052L446.022 329.971L417.975 364.567L390.494 329.518Z" fill="white"/>
</svg>
