<svg width="651" height="797" viewBox="0 0 651 797" fill="none" xmlns="http://www.w3.org/2000/svg">
<rect y="37" width="651" height="760" fill="#FF029C"/>
<rect width="650" height="211" fill="black"/>
<path d="M49.9507 310.411L40.4205 304.386L36.8594 315L33.4753 304.327L23.8437 310.194L28.1935 299.87L17 298.243L27.043 293.098L19.5277 284.739L30.5676 287.18L30.2448 276L37.1145 284.886L44.1352 276.117L43.6224 287.287L54.7014 285.032L47.043 293.264L57 298.575L45.7804 300.016L49.9507 310.411Z" fill="black" stroke="black" stroke-miterlimit="10"/>
<path d="M49.9507 449.411L40.4205 443.386L36.8594 454L33.4753 443.327L23.8437 449.194L28.1935 438.87L17 437.243L27.043 432.098L19.5277 423.739L30.5676 426.18L30.2448 415L37.1145 423.886L44.1352 415.117L43.6224 426.287L54.7014 424.032L47.043 432.264L57 437.575L45.7804 439.016L49.9507 449.411Z" fill="black" stroke="black" stroke-miterlimit="10"/>
<path d="M49.9507 588.411L40.4205 582.386L36.8594 593L33.4753 582.327L23.8437 588.194L28.1935 577.87L17 576.243L27.043 571.098L19.5277 562.739L30.5676 565.18L30.2448 554L37.1145 562.886L44.1352 554.117L43.6224 565.287L54.7014 563.032L47.043 571.264L57 576.575L45.7804 578.016L49.9507 588.411Z" fill="black" stroke="black" stroke-miterlimit="10"/>
<rect x="47" y="15" width="25" height="29" stroke="white" stroke-width="2"/>
<line y1="-1" x2="37.4302" y2="-1" transform="matrix(0.744242 0.66791 -0.611983 0.790871 11.1428 19)" stroke="white" stroke-width="2"/>
<line y1="-1" x2="37.4302" y2="-1" transform="matrix(-0.744242 0.66791 0.611983 0.790871 39.9286 19)" stroke="white" stroke-width="2"/>
<path d="M120.232 20.072V30.94H130.416V20.072H133.988V45H130.416V34.17H120.232V45H116.66V20.072H120.232ZM147.011 45.456C144.604 45.456 142.679 44.7593 141.235 43.366C139.791 41.9727 139.069 40.1233 139.069 37.818V33.372C139.069 31.0413 139.791 29.1793 141.235 27.786C142.679 26.3927 144.604 25.696 147.011 25.696C149.443 25.696 151.381 26.3927 152.825 27.786C154.294 29.1793 155.029 31.0413 155.029 33.372V37.818C155.029 40.1233 154.294 41.9727 152.825 43.366C151.381 44.7593 149.443 45.456 147.011 45.456ZM147.049 42.226C148.442 42.226 149.544 41.8207 150.355 41.01C151.191 40.1993 151.609 39.11 151.609 37.742V33.486C151.609 32.0673 151.203 30.9527 150.393 30.142C149.582 29.3313 148.467 28.926 147.049 28.926C145.655 28.926 144.541 29.3313 143.705 30.142C142.894 30.9527 142.489 32.0673 142.489 33.486V37.742C142.489 39.1353 142.894 40.2373 143.705 41.048C144.541 41.8333 145.655 42.226 147.049 42.226ZM179.523 25.696C181.727 25.696 183.449 26.342 184.691 27.634C185.957 28.926 186.591 30.7247 186.591 33.03V45H183.171V33.296C183.171 31.9533 182.791 30.8893 182.031 30.104C181.296 29.3187 180.308 28.926 179.067 28.926C178.18 28.926 177.357 29.1287 176.597 29.534C175.837 29.9393 175.229 30.4967 174.773 31.206C174.874 31.7127 174.925 32.3207 174.925 33.03V45H171.505V33.296C171.505 31.9533 171.125 30.8893 170.365 30.104C169.63 29.3187 168.642 28.926 167.401 28.926C166.539 28.926 165.741 29.116 165.007 29.496C164.297 29.876 163.715 30.3953 163.259 31.054V45H159.839V26.152H162.917L163.031 27.634C164.373 26.342 166.083 25.696 168.161 25.696C169.326 25.696 170.377 25.924 171.315 26.38C172.252 26.8107 173.012 27.444 173.595 28.28C174.279 27.444 175.115 26.8107 176.103 26.38C177.116 25.924 178.256 25.696 179.523 25.696ZM194.617 36.83V37.742C194.617 39.1607 195.022 40.2753 195.833 41.086C196.669 41.8713 197.809 42.264 199.253 42.264C200.469 42.264 201.482 41.96 202.293 41.352C203.129 40.744 203.56 39.9967 203.585 39.11H207.005C206.904 40.9847 206.144 42.5173 204.725 43.708C203.306 44.8733 201.482 45.456 199.253 45.456C196.821 45.456 194.87 44.772 193.401 43.404C191.932 42.0107 191.197 40.1613 191.197 37.856V33.334C191.197 31.814 191.526 30.484 192.185 29.344C192.844 28.1787 193.781 27.2793 194.997 26.646C196.213 26.0127 197.606 25.696 199.177 25.696C201.558 25.696 203.458 26.3927 204.877 27.786C206.296 29.1793 207.005 31.016 207.005 33.296V36.83H194.617ZM199.177 28.888C197.784 28.888 196.669 29.306 195.833 30.142C195.022 30.9527 194.617 32.0547 194.617 33.448V33.98H203.585V33.448C203.585 32.0547 203.18 30.9527 202.369 30.142C201.584 29.306 200.52 28.888 199.177 28.888ZM233.223 20.072C235.63 20.072 237.53 20.7053 238.923 21.972C240.316 23.2133 241.013 24.9233 241.013 27.102V27.672C241.013 29.8507 240.316 31.5733 238.923 32.84C237.53 34.0813 235.63 34.702 233.223 34.702H226.877V45H223.305V20.072H233.223ZM233.147 31.51C234.566 31.51 235.642 31.1807 236.377 30.522C237.112 29.8633 237.479 28.9133 237.479 27.672V27.102C237.479 25.886 237.099 24.9487 236.339 24.29C235.604 23.6313 234.54 23.302 233.147 23.302H226.877V31.51H233.147ZM260.263 26.152V45H257.185L257.033 43.29C255.665 44.734 253.892 45.456 251.713 45.456C249.585 45.456 247.901 44.7973 246.659 43.48C245.418 42.1627 244.797 40.364 244.797 38.084V26.152H248.255V37.818C248.255 39.1607 248.623 40.2373 249.357 41.048C250.092 41.8333 251.093 42.226 252.359 42.226C253.347 42.226 254.234 42.0107 255.019 41.58C255.805 41.124 256.413 40.516 256.843 39.756V26.152H260.263ZM274.405 25.696C276.533 25.696 278.218 26.3547 279.459 27.672C280.701 28.9893 281.321 30.7753 281.321 33.03V45H277.863V33.296C277.863 31.9533 277.483 30.8893 276.723 30.104C275.989 29.3187 275.001 28.926 273.759 28.926C272.771 28.926 271.885 29.154 271.099 29.61C270.314 30.0407 269.706 30.636 269.275 31.396V45H265.855V26.152H268.933L269.085 27.862C270.453 26.418 272.227 25.696 274.405 25.696ZM303.025 44.468V45H299.377L293.601 36.678L290.181 40.402V45H286.761V18.552H290.181V35.538L298.959 26.19H302.721V26.722L295.881 34.17L303.025 44.468Z" fill="white"/>
<line x1="80" y1="43" x2="107" y2="43" stroke="white" stroke-width="2"/>
</svg>
