<svg width="522" height="794" viewBox="0 0 522 794" fill="none" xmlns="http://www.w3.org/2000/svg">
<rect y="40" width="522" height="260" fill="#DFDFDF"/>
<rect y="440" width="522" height="354" fill="#FF029C"/>
<path d="M38.0005 498C45.1802 498 51.0005 492.404 51.0005 485.5C51.0005 478.596 45.1802 473 38.0005 473C30.8208 473 25.0005 478.596 25.0005 485.5C25.0005 492.404 30.8208 498 38.0005 498Z" fill="#12100B" stroke="#12100B" stroke-miterlimit="10"/>
<path d="M50.5005 523C72.868 523 91.0005 505.091 91.0005 483C91.0005 460.909 72.868 443 50.5005 443C28.133 443 10.0005 460.909 10.0005 483C10.0005 505.091 28.133 523 50.5005 523Z" fill="white"/>
<path d="M38.0005 581C45.1802 581 51.0005 575.404 51.0005 568.5C51.0005 561.596 45.1802 556 38.0005 556C30.8208 556 25.0005 561.596 25.0005 568.5C25.0005 575.404 30.8208 581 38.0005 581Z" fill="#12100B" stroke="#12100B" stroke-miterlimit="10"/>
<path d="M50.5005 607C72.868 607 91.0005 589.091 91.0005 567C91.0005 544.909 72.868 527 50.5005 527C28.133 527 10.0005 544.909 10.0005 567C10.0005 589.091 28.133 607 50.5005 607Z" fill="white"/>
<path d="M48.5005 690C70.868 690 89.0005 672.315 89.0005 650.5C89.0005 628.685 70.868 611 48.5005 611C26.133 611 8.00049 628.685 8.00049 650.5C8.00049 672.315 26.133 690 48.5005 690Z" fill="white"/>
<path d="M50.0005 774C72.6442 774 91.0005 756.091 91.0005 734C91.0005 711.909 72.6442 694 50.0005 694C27.3568 694 9.00049 711.909 9.00049 734C9.00049 756.091 27.3568 774 50.0005 774Z" fill="white"/>
<path d="M134 525C156.644 525 175 507.091 175 485C175 462.909 156.644 445 134 445C111.357 445 93.0005 462.909 93.0005 485C93.0005 507.091 111.357 525 134 525Z" fill="white"/>
<path d="M134 609C156.644 609 175 591.091 175 569C175 546.909 156.644 529 134 529C111.357 529 93.0005 546.909 93.0005 569C93.0005 591.091 111.357 609 134 609Z" fill="white"/>
<path d="M132 692C154.644 692 173 674.315 173 652.5C173 630.685 154.644 613 132 613C109.357 613 91.0005 630.685 91.0005 652.5C91.0005 674.315 109.357 692 132 692Z" fill="white"/>
<path d="M200 669C207.18 669 213 663.404 213 656.5C213 649.596 207.18 644 200 644C192.821 644 187 649.596 187 656.5C187 663.404 192.821 669 200 669Z" fill="#12100B" stroke="#12100B" stroke-miterlimit="10"/>
<path d="M134 776C156.644 776 175 758.091 175 736C175 713.909 156.644 696 134 696C111.357 696 93.0005 713.909 93.0005 736C93.0005 758.091 111.357 776 134 776Z" fill="white"/>
<path d="M201.501 753C208.404 753 214 747.404 214 740.5C214 733.596 208.404 728 201.501 728C194.597 728 189 733.596 189 740.5C189 747.404 194.597 753 201.501 753Z" fill="#231F20" stroke="#12100B" stroke-miterlimit="10"/>
<path d="M202.001 504C209.18 504 215 498.404 215 491.5C215 484.596 209.18 479 202.001 479C194.821 479 189 484.596 189 491.5C189 498.404 194.821 504 202.001 504Z" fill="#12100B" stroke="#12100B" stroke-miterlimit="10"/>
<path d="M221 523C243.644 523 262 505.091 262 483C262 460.909 243.644 443 221 443C198.357 443 180 460.909 180 483C180 505.091 198.357 523 221 523Z" fill="white"/>
<path d="M306.5 523C328.868 523 347 505.091 347 483C347 460.909 328.868 443 306.5 443C284.133 443 266 460.909 266 483C266 505.091 284.133 523 306.5 523Z" fill="white"/>
<path d="M221 607C243.644 607 262 589.091 262 567C262 544.909 243.644 527 221 527C198.357 527 180 544.909 180 567C180 589.091 198.357 607 221 607Z" fill="white"/>
<path d="M306.5 607C328.868 607 347 589.091 347 567C347 544.909 328.868 527 306.5 527C284.133 527 266 544.909 266 567C266 589.091 284.133 607 306.5 607Z" fill="white"/>
<path d="M219 690C241.644 690 260 672.315 260 650.5C260 628.685 241.644 611 219 611C196.357 611 178 628.685 178 650.5C178 672.315 196.357 690 219 690Z" fill="white"/>
<path d="M304.5 690C326.868 690 345 672.315 345 650.5C345 628.685 326.868 611 304.5 611C282.133 611 264 628.685 264 650.5C264 672.315 282.133 690 304.5 690Z" fill="white"/>
<path d="M220.5 774C242.868 774 261 756.091 261 734C261 711.909 242.868 694 220.5 694C198.133 694 180 711.909 180 734C180 756.091 198.133 774 220.5 774Z" fill="white"/>
<path d="M306 774C328.644 774 347 756.091 347 734C347 711.909 328.644 694 306 694C283.357 694 265 711.909 265 734C265 756.091 283.357 774 306 774Z" fill="white"/>
<path d="M390 525C412.644 525 431 507.091 431 485C431 462.909 412.644 445 390 445C367.357 445 349 462.909 349 485C349 507.091 367.357 525 390 525Z" fill="white"/>
<path d="M476 525C498.644 525 517 507.091 517 485C517 462.909 498.644 445 476 445C453.357 445 435 462.909 435 485C435 507.091 453.357 525 476 525Z" fill="white"/>
<path d="M390 609C412.644 609 431 591.091 431 569C431 546.909 412.644 529 390 529C367.357 529 349 546.909 349 569C349 591.091 367.357 609 390 609Z" fill="white"/>
<path d="M476 609C498.644 609 517 591.091 517 569C517 546.909 498.644 529 476 529C453.357 529 435 546.909 435 569C435 591.091 453.357 609 476 609Z" fill="white"/>
<path d="M388 692C410.644 692 429 674.315 429 652.5C429 630.685 410.644 613 388 613C365.357 613 347 630.685 347 652.5C347 674.315 365.357 692 388 692Z" fill="white"/>
<path d="M474 692C496.644 692 515 674.315 515 652.5C515 630.685 496.644 613 474 613C451.357 613 433 630.685 433 652.5C433 674.315 451.357 692 474 692Z" fill="white"/>
<path d="M390 776C412.644 776 431 758.091 431 736C431 713.909 412.644 696 390 696C367.357 696 349 713.909 349 736C349 758.091 367.357 776 390 776Z" fill="white"/>
<path d="M475.5 776C497.868 776 516 758.091 516 736C516 713.909 497.868 696 475.5 696C453.133 696 435 713.909 435 736C435 758.091 453.133 776 475.5 776Z" fill="white"/>
<rect x="44" y="5" width="25" height="27" stroke="white" stroke-width="2"/>
<line y1="-1" x2="35.41" y2="-1" transform="matrix(0.756739 0.653718 -0.626539 0.77939 10 8.59265)" stroke="white" stroke-width="2"/>
<line y1="-1" x2="35.41" y2="-1" transform="matrix(-0.756739 0.653718 0.626539 0.77939 37.6895 8.59265)" stroke="white" stroke-width="2"/>
<path d="M120.232 7.072V17.94H130.416V7.072H133.988V32H130.416V21.17H120.232V32H116.66V7.072H120.232ZM147.011 32.456C144.604 32.456 142.679 31.7593 141.235 30.366C139.791 28.9727 139.069 27.1233 139.069 24.818V20.372C139.069 18.0413 139.791 16.1793 141.235 14.786C142.679 13.3927 144.604 12.696 147.011 12.696C149.443 12.696 151.381 13.3927 152.825 14.786C154.294 16.1793 155.029 18.0413 155.029 20.372V24.818C155.029 27.1233 154.294 28.9727 152.825 30.366C151.381 31.7593 149.443 32.456 147.011 32.456ZM147.049 29.226C148.442 29.226 149.544 28.8207 150.355 28.01C151.191 27.1993 151.609 26.11 151.609 24.742V20.486C151.609 19.0673 151.203 17.9527 150.393 17.142C149.582 16.3313 148.467 15.926 147.049 15.926C145.655 15.926 144.541 16.3313 143.705 17.142C142.894 17.9527 142.489 19.0673 142.489 20.486V24.742C142.489 26.1353 142.894 27.2373 143.705 28.048C144.541 28.8333 145.655 29.226 147.049 29.226ZM179.523 12.696C181.727 12.696 183.449 13.342 184.691 14.634C185.957 15.926 186.591 17.7247 186.591 20.03V32H183.171V20.296C183.171 18.9533 182.791 17.8893 182.031 17.104C181.296 16.3187 180.308 15.926 179.067 15.926C178.18 15.926 177.357 16.1287 176.597 16.534C175.837 16.9393 175.229 17.4967 174.773 18.206C174.874 18.7127 174.925 19.3207 174.925 20.03V32H171.505V20.296C171.505 18.9533 171.125 17.8893 170.365 17.104C169.63 16.3187 168.642 15.926 167.401 15.926C166.539 15.926 165.741 16.116 165.007 16.496C164.297 16.876 163.715 17.3953 163.259 18.054V32H159.839V13.152H162.917L163.031 14.634C164.373 13.342 166.083 12.696 168.161 12.696C169.326 12.696 170.377 12.924 171.315 13.38C172.252 13.8107 173.012 14.444 173.595 15.28C174.279 14.444 175.115 13.8107 176.103 13.38C177.116 12.924 178.256 12.696 179.523 12.696ZM194.617 23.83V24.742C194.617 26.1607 195.022 27.2753 195.833 28.086C196.669 28.8713 197.809 29.264 199.253 29.264C200.469 29.264 201.482 28.96 202.293 28.352C203.129 27.744 203.56 26.9967 203.585 26.11H207.005C206.904 27.9847 206.144 29.5173 204.725 30.708C203.306 31.8733 201.482 32.456 199.253 32.456C196.821 32.456 194.87 31.772 193.401 30.404C191.932 29.0107 191.197 27.1613 191.197 24.856V20.334C191.197 18.814 191.526 17.484 192.185 16.344C192.844 15.1787 193.781 14.2793 194.997 13.646C196.213 13.0127 197.606 12.696 199.177 12.696C201.558 12.696 203.458 13.3927 204.877 14.786C206.296 16.1793 207.005 18.016 207.005 20.296V23.83H194.617ZM199.177 15.888C197.784 15.888 196.669 16.306 195.833 17.142C195.022 17.9527 194.617 19.0547 194.617 20.448V20.98H203.585V20.448C203.585 19.0547 203.18 17.9527 202.369 17.142C201.584 16.306 200.52 15.888 199.177 15.888ZM233.223 7.072C235.63 7.072 237.53 7.70533 238.923 8.972C240.316 10.2133 241.013 11.9233 241.013 14.102V14.672C241.013 16.8507 240.316 18.5733 238.923 19.84C237.53 21.0813 235.63 21.702 233.223 21.702H226.877V32H223.305V7.072H233.223ZM233.147 18.51C234.566 18.51 235.642 18.1807 236.377 17.522C237.112 16.8633 237.479 15.9133 237.479 14.672V14.102C237.479 12.886 237.099 11.9487 236.339 11.29C235.604 10.6313 234.54 10.302 233.147 10.302H226.877V18.51H233.147ZM260.263 13.152V32H257.185L257.033 30.29C255.665 31.734 253.892 32.456 251.713 32.456C249.585 32.456 247.901 31.7973 246.659 30.48C245.418 29.1627 244.797 27.364 244.797 25.084V13.152H248.255V24.818C248.255 26.1607 248.623 27.2373 249.357 28.048C250.092 28.8333 251.093 29.226 252.359 29.226C253.347 29.226 254.234 29.0107 255.019 28.58C255.805 28.124 256.413 27.516 256.843 26.756V13.152H260.263ZM274.405 12.696C276.533 12.696 278.218 13.3547 279.459 14.672C280.701 15.9893 281.321 17.7753 281.321 20.03V32H277.863V20.296C277.863 18.9533 277.483 17.8893 276.723 17.104C275.989 16.3187 275.001 15.926 273.759 15.926C272.771 15.926 271.885 16.154 271.099 16.61C270.314 17.0407 269.706 17.636 269.275 18.396V32H265.855V13.152H268.933L269.085 14.862C270.453 13.418 272.227 12.696 274.405 12.696ZM303.025 31.468V32H299.377L293.601 23.678L290.181 27.402V32H286.761V5.552H290.181V22.538L298.959 13.19H302.721V13.722L295.881 21.17L303.025 31.468Z" fill="white"/>
<line x1="76" y1="31" x2="102" y2="31" stroke="white" stroke-width="2"/>
<rect y="300" width="19.9237" height="20" fill="white"/>
<rect x="19.9238" y="320" width="19.9237" height="20" fill="white"/>
<rect x="39.8472" y="300" width="19.9237" height="20" fill="white"/>
<rect y="340" width="19.9237" height="20" fill="white"/>
<rect x="19.9238" y="360" width="19.9237" height="20" fill="white"/>
<rect x="39.8472" y="340" width="19.9237" height="20" fill="white"/>
<rect y="380" width="19.9237" height="20" fill="white"/>
<rect x="19.9238" y="400" width="19.9237" height="20" fill="white"/>
<rect x="39.8472" y="380" width="19.9237" height="20" fill="white"/>
<rect y="420" width="19.9237" height="20" fill="white"/>
<rect x="39.8472" y="420" width="19.9237" height="20" fill="white"/>
<rect x="39.8472" y="300" width="19.9237" height="20" fill="white"/>
<rect x="59.771" y="320" width="19.9237" height="20" fill="white"/>
<rect x="79.6948" y="300" width="19.9237" height="20" fill="white"/>
<rect x="39.8472" y="340" width="19.9237" height="20" fill="white"/>
<rect x="59.771" y="360" width="19.9237" height="20" fill="white"/>
<rect x="79.6948" y="340" width="19.9237" height="20" fill="white"/>
<rect x="39.8472" y="380" width="19.9237" height="20" fill="white"/>
<rect x="59.771" y="400" width="19.9237" height="20" fill="white"/>
<rect x="79.6948" y="380" width="19.9237" height="20" fill="white"/>
<rect x="39.8472" y="420" width="19.9237" height="20" fill="white"/>
<rect x="79.6948" y="420" width="19.9237" height="20" fill="white"/>
<rect x="318.779" y="300" width="19.9237" height="20" fill="white"/>
<rect x="338.702" y="320" width="19.9237" height="20" fill="white"/>
<rect x="358.626" y="300" width="19.9237" height="20" fill="white"/>
<rect x="318.779" y="340" width="19.9237" height="20" fill="white"/>
<rect x="338.702" y="360" width="19.9237" height="20" fill="white"/>
<rect x="358.626" y="340" width="19.9237" height="20" fill="white"/>
<rect x="318.779" y="380" width="19.9237" height="20" fill="white"/>
<rect x="338.702" y="400" width="19.9237" height="20" fill="white"/>
<rect x="358.626" y="380" width="19.9237" height="20" fill="white"/>
<rect x="318.779" y="420" width="19.9237" height="20" fill="white"/>
<rect x="358.626" y="420" width="19.9237" height="20" fill="white"/>
<rect x="358.626" y="300" width="19.9237" height="20" fill="white"/>
<rect x="378.55" y="320" width="19.9237" height="20" fill="white"/>
<rect x="398.473" y="300" width="19.9237" height="20" fill="white"/>
<rect x="358.626" y="340" width="19.9237" height="20" fill="white"/>
<rect x="378.55" y="360" width="19.9237" height="20" fill="white"/>
<rect x="398.473" y="340" width="19.9237" height="20" fill="white"/>
<rect x="358.626" y="380" width="19.9237" height="20" fill="white"/>
<rect x="378.55" y="400" width="19.9237" height="20" fill="white"/>
<rect x="398.473" y="380" width="19.9237" height="20" fill="white"/>
<rect x="358.626" y="420" width="19.9237" height="20" fill="white"/>
<rect x="398.473" y="420" width="19.9237" height="20" fill="white"/>
<rect x="159.389" y="300" width="19.9237" height="20" fill="white"/>
<rect x="179.313" y="320" width="19.9237" height="20" fill="white"/>
<rect x="199.237" y="300" width="19.9237" height="20" fill="white"/>
<rect x="159.389" y="340" width="19.9237" height="20" fill="white"/>
<rect x="179.313" y="360" width="19.9237" height="20" fill="white"/>
<rect x="199.237" y="340" width="19.9237" height="20" fill="white"/>
<rect x="159.389" y="380" width="19.9237" height="20" fill="white"/>
<rect x="179.313" y="400" width="19.9237" height="20" fill="white"/>
<rect x="199.237" y="380" width="19.9237" height="20" fill="white"/>
<rect x="159.389" y="420" width="19.9237" height="20" fill="white"/>
<rect x="199.237" y="420" width="19.9237" height="20" fill="white"/>
<rect x="199.237" y="300" width="19.9237" height="20" fill="white"/>
<rect x="219.16" y="320" width="19.9237" height="20" fill="white"/>
<rect x="239.084" y="300" width="19.9237" height="20" fill="white"/>
<rect x="199.237" y="340" width="19.9237" height="20" fill="white"/>
<rect x="219.16" y="360" width="19.9237" height="20" fill="white"/>
<rect x="239.084" y="340" width="19.9237" height="20" fill="white"/>
<rect x="199.237" y="380" width="19.9237" height="20" fill="white"/>
<rect x="219.16" y="400" width="19.9237" height="20" fill="white"/>
<rect x="239.084" y="380" width="19.9237" height="20" fill="white"/>
<rect x="199.237" y="420" width="19.9237" height="20" fill="white"/>
<rect x="239.084" y="420" width="19.9237" height="20" fill="white"/>
<rect x="79.6948" y="300" width="19.9237" height="20" fill="white"/>
<rect x="99.6182" y="320" width="19.9237" height="20" fill="white"/>
<rect x="119.542" y="300" width="19.9237" height="20" fill="white"/>
<rect x="79.6948" y="340" width="19.9237" height="20" fill="white"/>
<rect x="99.6182" y="360" width="19.9237" height="20" fill="white"/>
<rect x="119.542" y="340" width="19.9237" height="20" fill="white"/>
<rect x="79.6948" y="380" width="19.9237" height="20" fill="white"/>
<rect x="99.6182" y="400" width="19.9237" height="20" fill="white"/>
<rect x="119.542" y="380" width="19.9237" height="20" fill="white"/>
<rect x="79.6948" y="420" width="19.9237" height="20" fill="white"/>
<rect x="119.542" y="420" width="19.9237" height="20" fill="white"/>
<rect x="119.542" y="300" width="19.9237" height="20" fill="white"/>
<rect x="139.466" y="320" width="19.9237" height="20" fill="white"/>
<rect x="159.389" y="300" width="19.9237" height="20" fill="white"/>
<rect x="119.542" y="340" width="19.9237" height="20" fill="white"/>
<rect x="139.466" y="360" width="19.9237" height="20" fill="white"/>
<rect x="159.389" y="340" width="19.9237" height="20" fill="white"/>
<rect x="119.542" y="380" width="19.9237" height="20" fill="white"/>
<rect x="139.466" y="400" width="19.9237" height="20" fill="white"/>
<rect x="159.389" y="380" width="19.9237" height="20" fill="white"/>
<rect x="119.542" y="420" width="19.9237" height="20" fill="white"/>
<rect x="159.389" y="420" width="19.9237" height="20" fill="white"/>
<rect x="239.084" y="300" width="19.9237" height="20" fill="white"/>
<rect x="259.008" y="320" width="19.9237" height="20" fill="white"/>
<rect x="278.931" y="300" width="19.9237" height="20" fill="white"/>
<rect x="239.084" y="340" width="19.9237" height="20" fill="white"/>
<rect x="259.008" y="360" width="19.9237" height="20" fill="white"/>
<rect x="278.931" y="340" width="19.9237" height="20" fill="white"/>
<rect x="239.084" y="380" width="19.9237" height="20" fill="white"/>
<rect x="259.008" y="400" width="19.9237" height="20" fill="white"/>
<rect x="278.931" y="380" width="19.9237" height="20" fill="white"/>
<rect x="239.084" y="420" width="19.9237" height="20" fill="white"/>
<rect x="278.931" y="420" width="19.9237" height="20" fill="white"/>
<rect x="278.931" y="300" width="19.9237" height="20" fill="white"/>
<rect x="298.855" y="320" width="19.9237" height="20" fill="white"/>
<rect x="318.779" y="300" width="19.9237" height="20" fill="white"/>
<rect x="278.931" y="340" width="19.9237" height="20" fill="white"/>
<rect x="298.855" y="360" width="19.9237" height="20" fill="white"/>
<rect x="318.779" y="340" width="19.9237" height="20" fill="white"/>
<rect x="278.931" y="380" width="19.9237" height="20" fill="white"/>
<rect x="298.855" y="400" width="19.9237" height="20" fill="white"/>
<rect x="318.779" y="380" width="19.9237" height="20" fill="white"/>
<rect x="278.931" y="420" width="19.9237" height="20" fill="white"/>
<rect x="318.779" y="420" width="19.9237" height="20" fill="white"/>
<rect x="398.473" y="300" width="19.9237" height="20" fill="white"/>
<rect x="418.397" y="320" width="19.9237" height="20" fill="white"/>
<rect x="438.321" y="300" width="19.9237" height="20" fill="white"/>
<rect x="398.473" y="340" width="19.9237" height="20" fill="white"/>
<rect x="418.397" y="360" width="19.9237" height="20" fill="white"/>
<rect x="438.321" y="340" width="19.9237" height="20" fill="white"/>
<rect x="398.473" y="380" width="19.9237" height="20" fill="white"/>
<rect x="418.397" y="400" width="19.9237" height="20" fill="white"/>
<rect x="438.321" y="380" width="19.9237" height="20" fill="white"/>
<rect x="398.473" y="420" width="19.9237" height="20" fill="white"/>
<rect x="438.321" y="420" width="19.9237" height="20" fill="white"/>
<rect x="438.321" y="300" width="19.9237" height="20" fill="white"/>
<rect x="458.244" y="320" width="19.9237" height="20" fill="white"/>
<rect x="478.168" y="300" width="19.9237" height="20" fill="white"/>
<rect x="438.321" y="340" width="19.9237" height="20" fill="white"/>
<rect x="458.244" y="360" width="19.9237" height="20" fill="white"/>
<rect x="478.168" y="340" width="19.9237" height="20" fill="white"/>
<rect x="438.321" y="380" width="19.9237" height="20" fill="white"/>
<rect x="458.244" y="400" width="19.9237" height="20" fill="white"/>
<rect x="478.168" y="380" width="19.9237" height="20" fill="white"/>
<rect x="498.092" y="320" width="23.9084" height="20" fill="white"/>
<rect x="438.321" y="420" width="19.9237" height="20" fill="white"/>
<rect x="478.168" y="420" width="19.9237" height="20" fill="white"/>
<rect x="498.092" y="400" width="23.9084" height="20" fill="white"/>
<rect x="498.092" y="360" width="23.9084" height="20" fill="white"/>
</svg>
