<svg width="593" height="532" viewBox="0 0 593 532" fill="none" xmlns="http://www.w3.org/2000/svg">
<rect y="40" width="593" height="492" fill="#7B7B7B"/>
<rect x="50" y="2" width="28" height="29" stroke="white" stroke-width="2"/>
<line x1="12.6402" y1="5.23178" x2="42.6402" y2="30.2318" stroke="white" stroke-width="2"/>
<line y1="-1" x2="39.0513" y2="-1" transform="matrix(-0.768221 0.640184 0.640184 0.768221 43 6)" stroke="white" stroke-width="2"/>
<path d="M129.232 7.072V17.94H139.416V7.072H142.988V32H139.416V21.17H129.232V32H125.66V7.072H129.232ZM156.011 32.456C153.604 32.456 151.679 31.7593 150.235 30.366C148.791 28.9727 148.069 27.1233 148.069 24.818V20.372C148.069 18.0413 148.791 16.1793 150.235 14.786C151.679 13.3927 153.604 12.696 156.011 12.696C158.443 12.696 160.381 13.3927 161.825 14.786C163.294 16.1793 164.029 18.0413 164.029 20.372V24.818C164.029 27.1233 163.294 28.9727 161.825 30.366C160.381 31.7593 158.443 32.456 156.011 32.456ZM156.049 29.226C157.442 29.226 158.544 28.8207 159.355 28.01C160.191 27.1993 160.609 26.11 160.609 24.742V20.486C160.609 19.0673 160.203 17.9527 159.393 17.142C158.582 16.3313 157.467 15.926 156.049 15.926C154.655 15.926 153.541 16.3313 152.705 17.142C151.894 17.9527 151.489 19.0673 151.489 20.486V24.742C151.489 26.1353 151.894 27.2373 152.705 28.048C153.541 28.8333 154.655 29.226 156.049 29.226ZM188.523 12.696C190.727 12.696 192.449 13.342 193.691 14.634C194.957 15.926 195.591 17.7247 195.591 20.03V32H192.171V20.296C192.171 18.9533 191.791 17.8893 191.031 17.104C190.296 16.3187 189.308 15.926 188.067 15.926C187.18 15.926 186.357 16.1287 185.597 16.534C184.837 16.9393 184.229 17.4967 183.773 18.206C183.874 18.7127 183.925 19.3207 183.925 20.03V32H180.505V20.296C180.505 18.9533 180.125 17.8893 179.365 17.104C178.63 16.3187 177.642 15.926 176.401 15.926C175.539 15.926 174.741 16.116 174.007 16.496C173.297 16.876 172.715 17.3953 172.259 18.054V32H168.839V13.152H171.917L172.031 14.634C173.373 13.342 175.083 12.696 177.161 12.696C178.326 12.696 179.377 12.924 180.315 13.38C181.252 13.8107 182.012 14.444 182.595 15.28C183.279 14.444 184.115 13.8107 185.103 13.38C186.116 12.924 187.256 12.696 188.523 12.696ZM203.617 23.83V24.742C203.617 26.1607 204.022 27.2753 204.833 28.086C205.669 28.8713 206.809 29.264 208.253 29.264C209.469 29.264 210.482 28.96 211.293 28.352C212.129 27.744 212.56 26.9967 212.585 26.11H216.005C215.904 27.9847 215.144 29.5173 213.725 30.708C212.306 31.8733 210.482 32.456 208.253 32.456C205.821 32.456 203.87 31.772 202.401 30.404C200.932 29.0107 200.197 27.1613 200.197 24.856V20.334C200.197 18.814 200.526 17.484 201.185 16.344C201.844 15.1787 202.781 14.2793 203.997 13.646C205.213 13.0127 206.606 12.696 208.177 12.696C210.558 12.696 212.458 13.3927 213.877 14.786C215.296 16.1793 216.005 18.016 216.005 20.296V23.83H203.617ZM208.177 15.888C206.784 15.888 205.669 16.306 204.833 17.142C204.022 17.9527 203.617 19.0547 203.617 20.448V20.98H212.585V20.448C212.585 19.0547 212.18 17.9527 211.369 17.142C210.584 16.306 209.52 15.888 208.177 15.888ZM242.223 7.072C244.63 7.072 246.53 7.70533 247.923 8.972C249.316 10.2133 250.013 11.9233 250.013 14.102V14.672C250.013 16.8507 249.316 18.5733 247.923 19.84C246.53 21.0813 244.63 21.702 242.223 21.702H235.877V32H232.305V7.072H242.223ZM242.147 18.51C243.566 18.51 244.642 18.1807 245.377 17.522C246.112 16.8633 246.479 15.9133 246.479 14.672V14.102C246.479 12.886 246.099 11.9487 245.339 11.29C244.604 10.6313 243.54 10.302 242.147 10.302H235.877V18.51H242.147ZM269.263 13.152V32H266.185L266.033 30.29C264.665 31.734 262.892 32.456 260.713 32.456C258.585 32.456 256.901 31.7973 255.659 30.48C254.418 29.1627 253.797 27.364 253.797 25.084V13.152H257.255V24.818C257.255 26.1607 257.623 27.2373 258.357 28.048C259.092 28.8333 260.093 29.226 261.359 29.226C262.347 29.226 263.234 29.0107 264.019 28.58C264.805 28.124 265.413 27.516 265.843 26.756V13.152H269.263ZM283.405 12.696C285.533 12.696 287.218 13.3547 288.459 14.672C289.701 15.9893 290.321 17.7753 290.321 20.03V32H286.863V20.296C286.863 18.9533 286.483 17.8893 285.723 17.104C284.989 16.3187 284.001 15.926 282.759 15.926C281.771 15.926 280.885 16.154 280.099 16.61C279.314 17.0407 278.706 17.636 278.275 18.396V32H274.855V13.152H277.933L278.085 14.862C279.453 13.418 281.227 12.696 283.405 12.696ZM312.025 31.468V32H308.377L302.601 23.678L299.181 27.402V32H295.761V5.552H299.181V22.538L307.959 13.19H311.721V13.722L304.881 21.17L312.025 31.468Z" fill="white"/>
<line x1="86" y1="30" x2="115" y2="30" stroke="white" stroke-width="2"/>
<rect x="450" y="86" width="46" height="45" transform="rotate(-90 450 86)" fill="white"/>
<rect x="405.05" y="132.051" width="46" height="45" transform="rotate(-90 405.05 132.051)" fill="white"/>
<rect x="450.102" y="178" width="46" height="45" transform="rotate(-90 450.102 178)" fill="white"/>
<rect y="132" width="46" height="45" transform="rotate(-90 0 132)" fill="black"/>
<rect x="135" y="86" width="46" height="45" transform="rotate(-90 135 86)" fill="black"/>
<rect x="45" y="86" width="46" height="45" transform="rotate(-90 45 86)" fill="black"/>
<rect x="90" y="132" width="46" height="45" transform="rotate(-90 90 132)" fill="black"/>
<rect x="45" y="178" width="46" height="45" transform="rotate(-90 45 178)" fill="black"/>
<rect x="540" y="178" width="46" height="53" transform="rotate(-90 540 178)" fill="white"/>
<rect x="540" y="86" width="46" height="53" transform="rotate(-90 540 86)" fill="white"/>
<rect x="495" y="132" width="46" height="45" transform="rotate(-90 495 132)" fill="white"/>
<rect x="180" y="86.3047" width="46" height="45" transform="rotate(-90 180 86.3047)" fill="white"/>
<rect x="135" y="132" width="46" height="45" transform="rotate(-90 135 132)" fill="white"/>
<rect x="180" y="178" width="46" height="45" transform="rotate(-90 180 178)" fill="white"/>
<rect x="270" y="86.2031" width="46" height="45" transform="rotate(-90 270 86.2031)" fill="white"/>
<rect x="225" y="132" width="46" height="45" transform="rotate(-90 225 132)" fill="white"/>
<rect x="270" y="178" width="46" height="45" transform="rotate(-90 270 178)" fill="white"/>
<rect x="360" y="86.1016" width="46" height="45" transform="rotate(-90 360 86.1016)" fill="white"/>
<rect x="315" y="132" width="46" height="45" transform="rotate(-90 315 132)" fill="white"/>
<rect x="360" y="178" width="46" height="45" transform="rotate(-90 360 178)" fill="white"/>
<rect x="90" y="86" width="46" height="45" transform="rotate(-90 90 86)" fill="white"/>
<rect x="45" y="132" width="46" height="45" transform="rotate(-90 45 132)" fill="white"/>
<rect x="90" y="178" width="46" height="45" transform="rotate(-90 90 178)" fill="white"/>
<rect y="86" width="46" height="45" transform="rotate(-90 0 86)" fill="white"/>
<rect y="178" width="46" height="45" transform="rotate(-90 0 178)" fill="white"/>
<rect x="180" y="132" width="46" height="45" transform="rotate(-90 180 132)" fill="black"/>
<rect x="225" y="86" width="46" height="45" transform="rotate(-90 225 86)" fill="black"/>
<rect x="270" y="132" width="46" height="45" transform="rotate(-90 270 132)" fill="black"/>
<rect x="360" y="132" width="46" height="45" transform="rotate(-90 360 132)" fill="black"/>
<rect x="540" y="132" width="46" height="53" transform="rotate(-90 540 132)" fill="black"/>
<rect x="495" y="178" width="46" height="45" transform="rotate(-90 495 178)" fill="black"/>
<rect x="405" y="178" width="46" height="45" transform="rotate(-90 405 178)" fill="black"/>
<rect x="450" y="132" width="46" height="45" transform="rotate(-90 450 132)" fill="black"/>
<rect x="315" y="178" width="46" height="45" transform="rotate(-90 315 178)" fill="black"/>
<rect x="495" y="86" width="46" height="45" transform="rotate(-90 495 86)" fill="black"/>
<rect x="405" y="86" width="46" height="45" transform="rotate(-90 405 86)" fill="black"/>
<rect x="315" y="86" width="46" height="45" transform="rotate(-90 315 86)" fill="black"/>
<rect x="135" y="178" width="46" height="45" transform="rotate(-90 135 178)" fill="black"/>
<rect x="225" y="178" width="46" height="45" transform="rotate(-90 225 178)" fill="black"/>
</svg>
