<svg width="709" height="548" viewBox="0 0 709 548" fill="none" xmlns="http://www.w3.org/2000/svg">
<rect x="675" y="548" width="46" height="34" transform="rotate(-90 675 548)" fill="#F1F0F0"/>
<rect x="675" y="90" width="44" height="34" transform="rotate(-90 675 90)" fill="#F1F0F0"/>
<rect x="675" y="180" width="44" height="34" transform="rotate(-90 675 180)" fill="#F1F0F0"/>
<rect x="675" y="272" width="46" height="34" transform="rotate(-90 675 272)" fill="#F1F0F0"/>
<rect x="45" y="548" width="46" height="45" transform="rotate(-90 45 548)" fill="#F1F0F0"/>
<rect x="135" y="548" width="46" height="45" transform="rotate(-90 135 548)" fill="#F1F0F0"/>
<rect x="225" y="548" width="46" height="45" transform="rotate(-90 225 548)" fill="#F1F0F0"/>
<rect x="405" y="548" width="46" height="45" transform="rotate(-90 405 548)" fill="#F1F0F0"/>
<rect x="585" y="548" width="46" height="45" transform="rotate(-90 585 548)" fill="#F1F0F0"/>
<rect x="495" y="548" width="46" height="45" transform="rotate(-90 495 548)" fill="#F1F0F0"/>
<rect x="315" y="548" width="46" height="45" transform="rotate(-90 315 548)" fill="#F1F0F0"/>
<rect x="450" y="46" width="46" height="45" transform="rotate(-90 450 46)" fill="#F1F0F0"/>
<rect x="405.05" y="92.0508" width="46" height="45" transform="rotate(-90 405.05 92.0508)" fill="#F1F0F0"/>
<rect x="450.102" y="138" width="46" height="45" transform="rotate(-90 450.102 138)" fill="#F1F0F0"/>
<rect y="92" width="46" height="45" transform="rotate(-90 0 92)" fill="#C4C4C4"/>
<rect x="135" y="46" width="46" height="45" transform="rotate(-90 135 46)" fill="#C4C4C4"/>
<rect x="45" y="46" width="46" height="45" transform="rotate(-90 45 46)" fill="#C4C4C4"/>
<rect x="90" y="92" width="46" height="45" transform="rotate(-90 90 92)" fill="#C4C4C4"/>
<rect x="45" y="138" width="46" height="45" transform="rotate(-90 45 138)" fill="#C4C4C4"/>
<rect x="495" y="92" width="46" height="45" transform="rotate(-90 495 92)" fill="#F1F0F0"/>
<rect x="180" y="46.3047" width="46" height="45" transform="rotate(-90 180 46.3047)" fill="#F1F0F0"/>
<rect x="135" y="92" width="46" height="45" transform="rotate(-90 135 92)" fill="#F1F0F0"/>
<rect x="180" y="138" width="46" height="45" transform="rotate(-90 180 138)" fill="#F1F0F0"/>
<rect x="270" y="46.2031" width="46" height="45" transform="rotate(-90 270 46.2031)" fill="#F1F0F0"/>
<rect x="225" y="92" width="46" height="45" transform="rotate(-90 225 92)" fill="#F1F0F0"/>
<rect x="270" y="138" width="46" height="45" transform="rotate(-90 270 138)" fill="#F1F0F0"/>
<rect x="353" y="46" width="46" height="52" transform="rotate(-90 353 46)" fill="#F1F0F0"/>
<rect x="315" y="92" width="46" height="45" transform="rotate(-90 315 92)" fill="#F1F0F0"/>
<rect x="360" y="138" width="46" height="45" transform="rotate(-90 360 138)" fill="#F1F0F0"/>
<rect x="90" y="46" width="46" height="45" transform="rotate(-90 90 46)" fill="#F1F0F0"/>
<rect x="45" y="92" width="46" height="45" transform="rotate(-90 45 92)" fill="#F1F0F0"/>
<rect x="90" y="138" width="46" height="45" transform="rotate(-90 90 138)" fill="#F1F0F0"/>
<rect y="46" width="46" height="45" transform="rotate(-90 0 46)" fill="#F1F0F0"/>
<rect y="138" width="46" height="45" transform="rotate(-90 0 138)" fill="#F1F0F0"/>
<rect x="180" y="92" width="46" height="45" transform="rotate(-90 180 92)" fill="#C4C4C4"/>
<rect x="225" y="46" width="46" height="45" transform="rotate(-90 225 46)" fill="#C4C4C4"/>
<rect x="270" y="92" width="46" height="45" transform="rotate(-90 270 92)" fill="#C4C4C4"/>
<rect x="360" y="92" width="46" height="46" transform="rotate(-90 360 92)" fill="#C4C4C4"/>
<rect x="495" y="138" width="46" height="45" transform="rotate(-90 495 138)" fill="#C4C4C4"/>
<rect x="405" y="138" width="46" height="45" transform="rotate(-90 405 138)" fill="#C4C4C4"/>
<rect x="450" y="92" width="46" height="45" transform="rotate(-90 450 92)" fill="#C4C4C4"/>
<rect x="540" y="90" width="44" height="45" transform="rotate(-90 540 90)" fill="#C4C4C4"/>
<rect x="315" y="138" width="46" height="45" transform="rotate(-90 315 138)" fill="#C4C4C4"/>
<rect x="495" y="46" width="46" height="45" transform="rotate(-90 495 46)" fill="#C4C4C4"/>
<rect x="585" y="46" width="46" height="45" transform="rotate(-90 585 46)" fill="#C4C4C4"/>
<rect x="405" y="46" width="46" height="45" transform="rotate(-90 405 46)" fill="#C4C4C4"/>
<rect x="315" y="46" width="46" height="45" transform="rotate(-90 315 46)" fill="#C4C4C4"/>
<rect x="135" y="138" width="46" height="45" transform="rotate(-90 135 138)" fill="#C4C4C4"/>
<rect x="225" y="138" width="46" height="45" transform="rotate(-90 225 138)" fill="#C4C4C4"/>
<rect x="450" y="136" width="46" height="45" transform="rotate(-90 450 136)" fill="#F1F0F0"/>
<rect x="405.05" y="182.051" width="46" height="45" transform="rotate(-90 405.05 182.051)" fill="#F1F0F0"/>
<rect x="450.102" y="228" width="46" height="45" transform="rotate(-90 450.102 228)" fill="#F1F0F0"/>
<rect y="182" width="46" height="45" transform="rotate(-90 0 182)" fill="#C4C4C4"/>
<rect x="135" y="136" width="46" height="45" transform="rotate(-90 135 136)" fill="#C4C4C4"/>
<rect x="45" y="136" width="46" height="45" transform="rotate(-90 45 136)" fill="#C4C4C4"/>
<rect x="90" y="182" width="46" height="45" transform="rotate(-90 90 182)" fill="#C4C4C4"/>
<rect x="45" y="228" width="46" height="45" transform="rotate(-90 45 228)" fill="#C4C4C4"/>
<rect x="495" y="182" width="46" height="45" transform="rotate(-90 495 182)" fill="#F1F0F0"/>
<rect x="180" y="136.305" width="46" height="45" transform="rotate(-90 180 136.305)" fill="#F1F0F0"/>
<rect x="135" y="182" width="46" height="45" transform="rotate(-90 135 182)" fill="#F1F0F0"/>
<rect x="180" y="228" width="46" height="45" transform="rotate(-90 180 228)" fill="#F1F0F0"/>
<rect x="270" y="136.203" width="46" height="45" transform="rotate(-90 270 136.203)" fill="#F1F0F0"/>
<rect x="225" y="182" width="46" height="45" transform="rotate(-90 225 182)" fill="#F1F0F0"/>
<rect x="270" y="228" width="46" height="45" transform="rotate(-90 270 228)" fill="#F1F0F0"/>
<rect x="353" y="136" width="46" height="52" transform="rotate(-90 353 136)" fill="#F1F0F0"/>
<rect x="315" y="182" width="46" height="45" transform="rotate(-90 315 182)" fill="#F1F0F0"/>
<rect x="360" y="228" width="46" height="45" transform="rotate(-90 360 228)" fill="#F1F0F0"/>
<rect x="90" y="136" width="46" height="45" transform="rotate(-90 90 136)" fill="#F1F0F0"/>
<rect x="45" y="182" width="46" height="45" transform="rotate(-90 45 182)" fill="#F1F0F0"/>
<rect x="90" y="228" width="46" height="45" transform="rotate(-90 90 228)" fill="#F1F0F0"/>
<rect y="136" width="46" height="45" transform="rotate(-90 0 136)" fill="#F1F0F0"/>
<rect y="228" width="46" height="45" transform="rotate(-90 0 228)" fill="#F1F0F0"/>
<rect x="180" y="182" width="46" height="45" transform="rotate(-90 180 182)" fill="#C4C4C4"/>
<rect x="225" y="136" width="46" height="45" transform="rotate(-90 225 136)" fill="#C4C4C4"/>
<rect x="270" y="182" width="46" height="45" transform="rotate(-90 270 182)" fill="#C4C4C4"/>
<rect x="360" y="182" width="46" height="46" transform="rotate(-90 360 182)" fill="#C4C4C4"/>
<rect x="495" y="228" width="46" height="45" transform="rotate(-90 495 228)" fill="#C4C4C4"/>
<rect x="405" y="228" width="46" height="45" transform="rotate(-90 405 228)" fill="#C4C4C4"/>
<rect x="450" y="182" width="46" height="45" transform="rotate(-90 450 182)" fill="#C4C4C4"/>
<rect x="315" y="228" width="46" height="45" transform="rotate(-90 315 228)" fill="#C4C4C4"/>
<rect x="495" y="136" width="46" height="45" transform="rotate(-90 495 136)" fill="#C4C4C4"/>
<rect x="405" y="136" width="46" height="45" transform="rotate(-90 405 136)" fill="#C4C4C4"/>
<rect x="315" y="136" width="46" height="45" transform="rotate(-90 315 136)" fill="#C4C4C4"/>
<rect x="135" y="228" width="46" height="45" transform="rotate(-90 135 228)" fill="#C4C4C4"/>
<rect x="225" y="228" width="46" height="45" transform="rotate(-90 225 228)" fill="#C4C4C4"/>
<rect x="540" y="136" width="46" height="45" transform="rotate(-90 540 136)" fill="#F1F0F0"/>
<rect x="630" y="136" width="46" height="45" transform="rotate(-90 630 136)" fill="#F1F0F0"/>
<rect x="540" y="46" width="46" height="45" transform="rotate(-90 540 46)" fill="#F1F0F0"/>
<rect x="630" y="46" width="46" height="45" transform="rotate(-90 630 46)" fill="#F1F0F0"/>
<rect x="450" y="226" width="46" height="45" transform="rotate(-90 450 226)" fill="#F1F0F0"/>
<rect x="405.05" y="272.051" width="46" height="45" transform="rotate(-90 405.05 272.051)" fill="#F1F0F0"/>
<rect x="450.102" y="318" width="46" height="45" transform="rotate(-90 450.102 318)" fill="#F1F0F0"/>
<rect y="272" width="46" height="45" transform="rotate(-90 0 272)" fill="#C4C4C4"/>
<rect x="135" y="226" width="46" height="45" transform="rotate(-90 135 226)" fill="#C4C4C4"/>
<rect x="45" y="226" width="46" height="45" transform="rotate(-90 45 226)" fill="#C4C4C4"/>
<rect x="90" y="272" width="46" height="45" transform="rotate(-90 90 272)" fill="#C4C4C4"/>
<rect x="45" y="318" width="46" height="45" transform="rotate(-90 45 318)" fill="#C4C4C4"/>
<rect x="495" y="272" width="46" height="45" transform="rotate(-90 495 272)" fill="#F1F0F0"/>
<rect x="180" y="226.305" width="46" height="45" transform="rotate(-90 180 226.305)" fill="#F1F0F0"/>
<rect x="135" y="272" width="46" height="45" transform="rotate(-90 135 272)" fill="#F1F0F0"/>
<rect x="180" y="318" width="46" height="45" transform="rotate(-90 180 318)" fill="#F1F0F0"/>
<rect x="270" y="226.203" width="46" height="45" transform="rotate(-90 270 226.203)" fill="#F1F0F0"/>
<rect x="225" y="272" width="46" height="45" transform="rotate(-90 225 272)" fill="#F1F0F0"/>
<rect x="270" y="318" width="46" height="45" transform="rotate(-90 270 318)" fill="#F1F0F0"/>
<rect x="353" y="226" width="46" height="52" transform="rotate(-90 353 226)" fill="#F1F0F0"/>
<rect x="315" y="272" width="46" height="45" transform="rotate(-90 315 272)" fill="#F1F0F0"/>
<rect x="360" y="318" width="46" height="45" transform="rotate(-90 360 318)" fill="#F1F0F0"/>
<rect x="90" y="226" width="46" height="45" transform="rotate(-90 90 226)" fill="#F1F0F0"/>
<rect x="45" y="272" width="46" height="45" transform="rotate(-90 45 272)" fill="#F1F0F0"/>
<rect x="90" y="318" width="46" height="45" transform="rotate(-90 90 318)" fill="#F1F0F0"/>
<rect y="226" width="46" height="45" transform="rotate(-90 0 226)" fill="#F1F0F0"/>
<rect y="318" width="46" height="45" transform="rotate(-90 0 318)" fill="#F1F0F0"/>
<rect x="180" y="272" width="46" height="45" transform="rotate(-90 180 272)" fill="#C4C4C4"/>
<rect x="225" y="226" width="46" height="45" transform="rotate(-90 225 226)" fill="#C4C4C4"/>
<rect x="270" y="272" width="46" height="45" transform="rotate(-90 270 272)" fill="#C4C4C4"/>
<rect x="360" y="272" width="46" height="46" transform="rotate(-90 360 272)" fill="#C4C4C4"/>
<rect x="495" y="318" width="46" height="45" transform="rotate(-90 495 318)" fill="#C4C4C4"/>
<rect x="405" y="318" width="46" height="45" transform="rotate(-90 405 318)" fill="#C4C4C4"/>
<rect x="450" y="272" width="46" height="45" transform="rotate(-90 450 272)" fill="#C4C4C4"/>
<rect x="315" y="318" width="46" height="45" transform="rotate(-90 315 318)" fill="#C4C4C4"/>
<rect x="495" y="226" width="46" height="45" transform="rotate(-90 495 226)" fill="#C4C4C4"/>
<rect x="405" y="226" width="46" height="45" transform="rotate(-90 405 226)" fill="#C4C4C4"/>
<rect x="315" y="226" width="46" height="45" transform="rotate(-90 315 226)" fill="#C4C4C4"/>
<rect x="135" y="318" width="46" height="45" transform="rotate(-90 135 318)" fill="#C4C4C4"/>
<rect x="225" y="318" width="46" height="45" transform="rotate(-90 225 318)" fill="#C4C4C4"/>
<rect x="450" y="318" width="46" height="45" transform="rotate(-90 450 318)" fill="#F1F0F0"/>
<rect x="405.05" y="364.051" width="46" height="45" transform="rotate(-90 405.05 364.051)" fill="#F1F0F0"/>
<rect x="450.102" y="410" width="46" height="45" transform="rotate(-90 450.102 410)" fill="#F1F0F0"/>
<rect y="364" width="46" height="45" transform="rotate(-90 0 364)" fill="#C4C4C4"/>
<rect x="135" y="318" width="46" height="45" transform="rotate(-90 135 318)" fill="#C4C4C4"/>
<rect x="45" y="318" width="46" height="45" transform="rotate(-90 45 318)" fill="#C4C4C4"/>
<rect x="90" y="364" width="46" height="45" transform="rotate(-90 90 364)" fill="#C4C4C4"/>
<rect x="45" y="410" width="46" height="45" transform="rotate(-90 45 410)" fill="#C4C4C4"/>
<rect x="495" y="364" width="46" height="45" transform="rotate(-90 495 364)" fill="#F1F0F0"/>
<rect x="180" y="318.305" width="46" height="45" transform="rotate(-90 180 318.305)" fill="#F1F0F0"/>
<rect x="135" y="364" width="46" height="45" transform="rotate(-90 135 364)" fill="#F1F0F0"/>
<rect x="180" y="410" width="46" height="45" transform="rotate(-90 180 410)" fill="#F1F0F0"/>
<rect x="270" y="318.203" width="46" height="45" transform="rotate(-90 270 318.203)" fill="#F1F0F0"/>
<rect x="225" y="364" width="46" height="45" transform="rotate(-90 225 364)" fill="#F1F0F0"/>
<rect x="270" y="410" width="46" height="45" transform="rotate(-90 270 410)" fill="#F1F0F0"/>
<rect x="353" y="318" width="46" height="52" transform="rotate(-90 353 318)" fill="#F1F0F0"/>
<rect x="315" y="364" width="46" height="45" transform="rotate(-90 315 364)" fill="#F1F0F0"/>
<rect x="360" y="410" width="46" height="45" transform="rotate(-90 360 410)" fill="#F1F0F0"/>
<rect x="90" y="318" width="46" height="45" transform="rotate(-90 90 318)" fill="#F1F0F0"/>
<rect x="45" y="364" width="46" height="45" transform="rotate(-90 45 364)" fill="#F1F0F0"/>
<rect x="90" y="410" width="46" height="45" transform="rotate(-90 90 410)" fill="#F1F0F0"/>
<rect y="318" width="46" height="45" transform="rotate(-90 0 318)" fill="#F1F0F0"/>
<rect y="410" width="46" height="45" transform="rotate(-90 0 410)" fill="#F1F0F0"/>
<rect x="180" y="364" width="46" height="45" transform="rotate(-90 180 364)" fill="#C4C4C4"/>
<rect x="225" y="318" width="46" height="45" transform="rotate(-90 225 318)" fill="#C4C4C4"/>
<rect x="270" y="364" width="46" height="45" transform="rotate(-90 270 364)" fill="#C4C4C4"/>
<rect x="360" y="364" width="46" height="46" transform="rotate(-90 360 364)" fill="#C4C4C4"/>
<rect x="495" y="410" width="46" height="45" transform="rotate(-90 495 410)" fill="#C4C4C4"/>
<rect x="405" y="410" width="46" height="45" transform="rotate(-90 405 410)" fill="#C4C4C4"/>
<rect x="450" y="364" width="46" height="45" transform="rotate(-90 450 364)" fill="#C4C4C4"/>
<rect x="315" y="410" width="46" height="45" transform="rotate(-90 315 410)" fill="#C4C4C4"/>
<rect x="495" y="318" width="46" height="45" transform="rotate(-90 495 318)" fill="#C4C4C4"/>
<rect x="405" y="318" width="46" height="45" transform="rotate(-90 405 318)" fill="#C4C4C4"/>
<rect x="315" y="318" width="46" height="45" transform="rotate(-90 315 318)" fill="#C4C4C4"/>
<rect x="135" y="410" width="46" height="45" transform="rotate(-90 135 410)" fill="#C4C4C4"/>
<rect x="225" y="410" width="46" height="45" transform="rotate(-90 225 410)" fill="#C4C4C4"/>
<rect x="90" y="548" width="46" height="45" transform="rotate(-90 90 548)" fill="#C4C4C4"/>
<rect y="548" width="46" height="45" transform="rotate(-90 0 548)" fill="#C4C4C4"/>
<rect x="450" y="410" width="46" height="45" transform="rotate(-90 450 410)" fill="#F1F0F0"/>
<rect x="405.05" y="456.051" width="46" height="45" transform="rotate(-90 405.05 456.051)" fill="#F1F0F0"/>
<rect x="448" y="502" width="46" height="47" transform="rotate(-90 448 502)" fill="#F1F0F0"/>
<rect y="456" width="46" height="45" transform="rotate(-90 0 456)" fill="#C4C4C4"/>
<rect x="135" y="410" width="46" height="45" transform="rotate(-90 135 410)" fill="#C4C4C4"/>
<rect x="45" y="410" width="46" height="45" transform="rotate(-90 45 410)" fill="#C4C4C4"/>
<rect x="90" y="456" width="46" height="45" transform="rotate(-90 90 456)" fill="#C4C4C4"/>
<rect x="45" y="502" width="46" height="45" transform="rotate(-90 45 502)" fill="#C4C4C4"/>
<rect x="495" y="456" width="46" height="45" transform="rotate(-90 495 456)" fill="#F1F0F0"/>
<rect x="180" y="410.305" width="46" height="45" transform="rotate(-90 180 410.305)" fill="#F1F0F0"/>
<rect x="135" y="456" width="46" height="45" transform="rotate(-90 135 456)" fill="#F1F0F0"/>
<rect x="180" y="502" width="46" height="45" transform="rotate(-90 180 502)" fill="#F1F0F0"/>
<rect x="270" y="410.203" width="46" height="45" transform="rotate(-90 270 410.203)" fill="#F1F0F0"/>
<rect x="225" y="456" width="46" height="45" transform="rotate(-90 225 456)" fill="#F1F0F0"/>
<rect x="270" y="502" width="46" height="45" transform="rotate(-90 270 502)" fill="#F1F0F0"/>
<rect x="353" y="410" width="46" height="52" transform="rotate(-90 353 410)" fill="#F1F0F0"/>
<rect x="315" y="456" width="46" height="45" transform="rotate(-90 315 456)" fill="#F1F0F0"/>
<rect x="360" y="502" width="46" height="45" transform="rotate(-90 360 502)" fill="#F1F0F0"/>
<rect x="90" y="410" width="46" height="45" transform="rotate(-90 90 410)" fill="#F1F0F0"/>
<rect x="45" y="456" width="46" height="45" transform="rotate(-90 45 456)" fill="#F1F0F0"/>
<rect x="90" y="502" width="46" height="45" transform="rotate(-90 90 502)" fill="#F1F0F0"/>
<rect y="410" width="46" height="45" transform="rotate(-90 0 410)" fill="#F1F0F0"/>
<rect y="502" width="46" height="45" transform="rotate(-90 0 502)" fill="#F1F0F0"/>
<rect x="180" y="456" width="46" height="45" transform="rotate(-90 180 456)" fill="#C4C4C4"/>
<rect x="225" y="410" width="46" height="45" transform="rotate(-90 225 410)" fill="#C4C4C4"/>
<rect x="270" y="456" width="46" height="45" transform="rotate(-90 270 456)" fill="#C4C4C4"/>
<rect x="360" y="456" width="46" height="46" transform="rotate(-90 360 456)" fill="#C4C4C4"/>
<rect x="495" y="502" width="46" height="45" transform="rotate(-90 495 502)" fill="#C4C4C4"/>
<rect x="405" y="502" width="46" height="45" transform="rotate(-90 405 502)" fill="#C4C4C4"/>
<rect x="450" y="456" width="46" height="45" transform="rotate(-90 450 456)" fill="#C4C4C4"/>
<rect x="315" y="502" width="46" height="45" transform="rotate(-90 315 502)" fill="#C4C4C4"/>
<rect x="495" y="410" width="46" height="45" transform="rotate(-90 495 410)" fill="#C4C4C4"/>
<rect x="405" y="410" width="46" height="45" transform="rotate(-90 405 410)" fill="#C4C4C4"/>
<rect x="315" y="410" width="46" height="45" transform="rotate(-90 315 410)" fill="#C4C4C4"/>
<rect x="135" y="502" width="46" height="45" transform="rotate(-90 135 502)" fill="#C4C4C4"/>
<rect x="225" y="502" width="46" height="45" transform="rotate(-90 225 502)" fill="#C4C4C4"/>
<rect x="585" y="410" width="46" height="45" transform="rotate(-90 585 410)" fill="#C4C4C4"/>
<rect x="180" y="548" width="46" height="45" transform="rotate(-90 180 548)" fill="#C4C4C4"/>
<rect x="540" y="226" width="46" height="45" transform="rotate(-90 540 226)" fill="#F1F0F0"/>
<rect x="540" y="318" width="46" height="45" transform="rotate(-90 540 318)" fill="#F1F0F0"/>
<rect x="540" y="410" width="46" height="45" transform="rotate(-90 540 410)" fill="#F1F0F0"/>
<rect x="540" y="502" width="46" height="45" transform="rotate(-90 540 502)" fill="#F1F0F0"/>
<rect x="630" y="502" width="46" height="45" transform="rotate(-90 630 502)" fill="#F1F0F0"/>
<rect x="585" y="456" width="46" height="45" transform="rotate(-90 585 456)" fill="#F1F0F0"/>
<rect x="585" y="364" width="46" height="45" transform="rotate(-90 585 364)" fill="#F1F0F0"/>
<rect x="585" y="272" width="46" height="45" transform="rotate(-90 585 272)" fill="#F1F0F0"/>
<rect x="630" y="410" width="46" height="45" transform="rotate(-90 630 410)" fill="#F1F0F0"/>
<rect x="630" y="318" width="46" height="45" transform="rotate(-90 630 318)" fill="#F1F0F0"/>
<rect x="630" y="226" width="46" height="45" transform="rotate(-90 630 226)" fill="#F1F0F0"/>
<rect x="585" y="180" width="44" height="45" transform="rotate(-90 585 180)" fill="#F1F0F0"/>
<rect x="585" y="90" width="44" height="45" transform="rotate(-90 585 90)" fill="#F1F0F0"/>
<rect x="675" y="364" width="46" height="34" transform="rotate(-90 675 364)" fill="#F1F0F0"/>
<rect x="675" y="456" width="46" height="34" transform="rotate(-90 675 456)" fill="#F1F0F0"/>
<rect x="675" y="46" width="46" height="34" transform="rotate(-90 675 46)" fill="#C4C4C4"/>
<rect x="675" y="136" width="46" height="34" transform="rotate(-90 675 136)" fill="#C4C4C4"/>
<rect x="675" y="226" width="46" height="34" transform="rotate(-90 675 226)" fill="#C4C4C4"/>
<rect x="675" y="318" width="46" height="34" transform="rotate(-90 675 318)" fill="#C4C4C4"/>
<rect x="675" y="410" width="46" height="34" transform="rotate(-90 675 410)" fill="#C4C4C4"/>
<rect x="675" y="502" width="46" height="34" transform="rotate(-90 675 502)" fill="#C4C4C4"/>
<rect x="270" y="548" width="46" height="45" transform="rotate(-90 270 548)" fill="#C4C4C4"/>
<rect x="360" y="548" width="46" height="45" transform="rotate(-90 360 548)" fill="#C4C4C4"/>
<rect x="450" y="548" width="46" height="45" transform="rotate(-90 450 548)" fill="#C4C4C4"/>
<rect x="540" y="548" width="46" height="45" transform="rotate(-90 540 548)" fill="#C4C4C4"/>
<rect x="630" y="548" width="46" height="45" transform="rotate(-90 630 548)" fill="#C4C4C4"/>
<rect x="540" y="272" width="46" height="45" transform="rotate(-90 540 272)" fill="#C4C4C4"/>
<rect x="540" y="456" width="46" height="45" transform="rotate(-90 540 456)" fill="#C4C4C4"/>
<rect x="630" y="364" width="46" height="45" transform="rotate(-90 630 364)" fill="#C4C4C4"/>
<rect x="540" y="364" width="46" height="45" transform="rotate(-90 540 364)" fill="#C4C4C4"/>
<rect x="585" y="318" width="46" height="45" transform="rotate(-90 585 318)" fill="#C4C4C4"/>
<rect x="630" y="272" width="46" height="45" transform="rotate(-90 630 272)" fill="#C4C4C4"/>
<rect x="585" y="226" width="46" height="45" transform="rotate(-90 585 226)" fill="#C4C4C4"/>
<rect x="540" y="180" width="44" height="45" transform="rotate(-90 540 180)" fill="#C4C4C4"/>
<rect x="630" y="180" width="44" height="45" transform="rotate(-90 630 180)" fill="#C4C4C4"/>
<rect x="585" y="136" width="46" height="45" transform="rotate(-90 585 136)" fill="#C4C4C4"/>
<rect x="630" y="90" width="44" height="45" transform="rotate(-90 630 90)" fill="#C4C4C4"/>
<rect x="585" y="502" width="46" height="45" transform="rotate(-90 585 502)" fill="#C4C4C4"/>
<rect x="630" y="456" width="46" height="45" transform="rotate(-90 630 456)" fill="#C4C4C4"/>
</svg>
