<?xml version="1.0" encoding="utf-8"?>
<!-- Generator: Adobe Illustrator 23.1.1, SVG Export Plug-In . SVG Version: 6.00 Build 0)  -->
<svg version="1.1" id="Слой_1" xmlns="http://www.w3.org/2000/svg" xmlns:xlink="http://www.w3.org/1999/xlink" x="0px" y="0px"
	 viewBox="0 0 651 797" style="enable-background:new 0 0 651 797;" xml:space="preserve">
<style type="text/css">
	.st0{fill:#FF029C;}
	.st1{stroke:#000000;stroke-miterlimit:10;}
	.st2{fill:none;stroke:#FFFFFF;stroke-width:2;}
	.st3{fill:#FFFFFF;}
</style>
<rect x="11.2" y="37" class="st0" width="671.6" height="760"/>
<rect x="11.2" width="670.6" height="211"/>
<path d="M131,318v-44.9h-20.4V318H131z M164.6,273c4.2,0,7.9,1,11.3,3.1c3.4,2,6.1,4.8,8.1,8.2c2,3.4,3.1,7.2,3.1,11.3
	c0,4.2-1,7.9-3.1,11.3c-2,3.4-4.7,6.1-8.1,8.2c-3.4,2-7.2,3-11.3,3h-22.4v-45H164.6z M168.6,304.9c0,0-0.2-0.4-0.5-1.1
	c-0.3-0.8-0.6-1.8-1-3.2c-0.3-1.4-0.5-3.1-0.5-5s0.2-3.6,0.5-5c0.3-1.4,0.6-2.5,1-3.2c0.3-0.8,0.5-1.1,0.5-1.1s-0.1,0.1-0.4,0.3
	c-0.2,0.2-0.6,0.4-1,0.7c-0.4,0.2-0.8,0.5-1.3,0.7c-0.5,0.2-1,0.2-1.4,0.2c-0.4,0-0.9-0.1-1.4-0.2c-0.5-0.2-0.9-0.4-1.3-0.7
	c-0.4-0.3-0.7-0.5-0.9-0.7c-0.2-0.2-0.4-0.3-0.4-0.3s0.2,0.4,0.5,1.1c0.3,0.8,0.6,1.8,1,3.2c0.3,1.4,0.5,3.1,0.5,5s-0.2,3.6-0.5,5
	c-0.3,1.4-0.6,2.5-1,3.2c-0.3,0.8-0.5,1.1-0.5,1.1s0.1-0.1,0.3-0.2c0.2-0.2,0.5-0.4,0.9-0.7c0.4-0.3,0.8-0.5,1.3-0.7
	c0.5-0.2,1-0.3,1.4-0.3c0.5,0,1,0.1,1.5,0.3c0.5,0.2,0.9,0.4,1.3,0.7c0.4,0.2,0.7,0.5,0.9,0.7C168.5,304.8,168.6,304.9,168.6,304.9z
	 M224.4,305.1c2.2,0,4,0.1,5.6,0.3V318h-37.5v-44.9h20.7c0,8.2-0.2,14.7-0.5,19.7c-0.3,5-0.6,8.6-0.9,10.9c-0.3,2.2-0.4,3.4-0.4,3.4
	s0.4-0.2,1.3-0.5c0.9-0.3,2.3-0.6,4.2-1C218.8,305.3,221.3,305.1,224.4,305.1z M236.1,273.1H281v11c0,0-0.4,0.2-1.3,0.5
	c-0.8,0.3-2.2,0.6-4.1,1c-1.9,0.3-4.5,0.5-7.6,0.5c-3.1,0-5.6-0.2-7.6-0.5c-1.9-0.3-3.3-0.6-4.2-1c-0.8-0.3-1.3-0.5-1.3-0.5
	s0.1,0.1,0.3,0.4c0.2,0.2,0.4,0.5,0.7,0.9c0.2,0.4,0.5,0.8,0.7,1.3s0.3,1,0.3,1.5c0,0.5-0.1,1-0.3,1.4s-0.4,0.9-0.7,1.3
	c-0.2,0.4-0.5,0.7-0.7,0.9c-0.2,0.2-0.3,0.3-0.3,0.3s0.4-0.2,1.3-0.5c0.9-0.3,2.3-0.6,4.2-1c1.9-0.3,4.4-0.5,7.6-0.5
	c1.8,0,3.4,0.1,4.8,0.2c-0.2,0.2-0.5,0.8-0.9,1.7c-0.4,0.9-0.5,2.1-0.5,3.5s0.2,2.7,0.5,3.5c0.4,0.8,0.7,1.4,0.9,1.7
	c-1.4,0.1-3,0.2-4.8,0.2c-3.1,0-5.6-0.2-7.6-0.5c-1.9-0.3-3.3-0.6-4.2-1c-0.8-0.3-1.3-0.5-1.3-0.5s0.1,0.1,0.3,0.4
	c0.2,0.2,0.4,0.5,0.7,0.9c0.2,0.4,0.5,0.8,0.7,1.3s0.3,1,0.3,1.5c0,0.5-0.1,1-0.3,1.4s-0.4,0.9-0.7,1.3c-0.2,0.4-0.5,0.7-0.7,0.9
	c-0.2,0.2-0.3,0.3-0.3,0.3s0.4-0.2,1.3-0.5c0.9-0.3,2.3-0.6,4.2-1c1.9-0.3,4.4-0.5,7.6-0.5c3.2,0,5.7,0.2,7.6,0.5
	c1.9,0.3,3.3,0.6,4.1,1c0.9,0.3,1.3,0.5,1.3,0.5v11h-44.9V273.1z M326.5,295.3c1.2,2.1,1.9,4.3,1.9,6.6c0.1,2.2-0.2,4.2-1,5.9
	c-2,3.8-4.8,6.6-8.5,8.3c-3.7,1.7-7.9,2.5-12.5,2.5c-3.2,0-6.5-0.2-9.9-0.7c-3.4-0.5-6.5-1.7-9.4-3.5c1.8-3,2.8-6.5,3.1-10.6
	c2.3-0.3,5.1-0.3,8.3,0c2,0.2,3.8,0.6,5.5,1.1c1.7,0.5,3.1,0.9,4.2,1.4s1.6,0.7,1.6,0.7s-0.1-0.1-0.3-0.4c-0.2-0.2-0.4-0.6-0.7-1
	c-0.2-0.4-0.5-0.8-0.7-1.3c-0.2-0.5-0.3-1-0.3-1.6c0-0.5,0.1-1,0.3-1.5c0.2-0.5,0.4-0.9,0.7-1.3c0.3-0.4,0.5-0.7,0.7-1
	c0.2-0.2,0.3-0.4,0.3-0.4s-0.5,0.2-1.6,0.7c-1,0.4-2.4,0.9-4.1,1.3c-1.7,0.4-3.6,0.6-5.6,0.7c-2,0-4-0.4-5.9-1.1
	c-2.8-1.2-4.7-2.8-5.9-4.9c-1.2-2.1-1.9-4.2-2-6.5c0-2.3,0.3-4.3,1-5.9c2-3.8,4.8-6.6,8.5-8.3c3.7-1.7,7.9-2.6,12.5-2.6
	c3.2,0,6.5,0.3,9.9,0.8c3.4,0.5,6.6,1.7,9.4,3.5c-1.7,3-2.7,6.5-3.1,10.6c-2.3,0.3-5.1,0.3-8.3,0c-2-0.2-3.9-0.6-5.6-1.1
	c-1.7-0.5-3.1-1-4.1-1.4s-1.6-0.7-1.6-0.7s0.1,0.1,0.3,0.4c0.2,0.2,0.4,0.6,0.7,1c0.3,0.4,0.5,0.8,0.7,1.3c0.2,0.5,0.3,1,0.3,1.5
	c0,0.6-0.1,1.1-0.3,1.6c-0.2,0.5-0.4,0.9-0.7,1.3c-0.2,0.4-0.5,0.7-0.7,1c-0.2,0.2-0.3,0.3-0.3,0.3s0.5-0.2,1.6-0.6
	c1.1-0.4,2.5-0.9,4.1-1.3c1.7-0.4,3.6-0.6,5.6-0.6c2,0,4,0.3,5.9,1C323.3,291.7,325.3,293.3,326.5,295.3z"/>
<path d="M388.9,336.1c3.4,0,6.5,0.8,9.4,2.5c2.8,1.7,5.1,3.9,6.8,6.7c1.7,2.8,2.5,6,2.5,9.4c0,3.4-0.8,6.6-2.5,9.4
	c-1.7,2.8-3.9,5.1-6.8,6.8c-2.8,1.7-5.9,2.5-9.4,2.5c-3.5,0-6.6-0.8-9.4-2.5c-2.8-1.7-5.1-4-6.8-6.8c-1.7-2.8-2.5-6-2.5-9.4
	c0-3.5,0.8-6.6,2.5-9.4c1.7-2.8,4-5.1,6.8-6.7C382.3,337,385.5,336.1,388.9,336.1z M392.2,362.6c0,0-0.1-0.3-0.4-1
	c-0.3-0.6-0.5-1.5-0.8-2.7c-0.3-1.2-0.4-2.6-0.4-4.1c0-1.6,0.1-3,0.4-4.1c0.3-1.2,0.5-2.1,0.8-2.7c0.3-0.6,0.4-1,0.4-1
	s-0.1,0.1-0.3,0.2c-0.2,0.2-0.4,0.4-0.8,0.6c-0.3,0.2-0.7,0.4-1.1,0.5c-0.4,0.2-0.8,0.2-1.2,0.2c-0.4,0-0.8-0.1-1.2-0.2
	s-0.7-0.3-1.1-0.5c-0.3-0.2-0.6-0.4-0.8-0.6c-0.2-0.2-0.3-0.2-0.3-0.2s0.1,0.3,0.4,1c0.3,0.6,0.5,1.6,0.8,2.7
	c0.3,1.2,0.4,2.5,0.4,4.1c0,1.6-0.1,2.9-0.4,4.1c-0.3,1.2-0.5,2-0.8,2.7c-0.3,0.6-0.4,1-0.4,1s0.1-0.1,0.2-0.2
	c0.2-0.2,0.4-0.3,0.8-0.5c0.3-0.2,0.7-0.4,1.1-0.6c0.4-0.2,0.8-0.2,1.2-0.2c0.4,0,0.8,0.1,1.2,0.2c0.4,0.2,0.7,0.4,1.1,0.6
	c0.3,0.2,0.6,0.4,0.8,0.5S392.2,362.6,392.2,362.6z M430.1,350.6c5.5-0.5,10,0.2,13.4,2.1c3.5,1.9,5.2,5,5,9.4
	c-0.4,3.2-2.3,6-5.7,8.2c-3.4,2.2-7.7,3.3-12.8,3.3c-8.1,0-14-2.6-17.5-7.8c0,0,0,0,0,0c0-0.1,0-0.1,0-0.1c0,0,0-0.1,0-0.1
	c0,0,0,0,0,0c0,0,0-0.1,0-0.1c-1.3-2.6-1.9-5.8-1.9-9.6c0.1-3.8,1-7.3,2.6-10.6c3.8-5.8,9.3-8.6,16.6-8.6c5,0,10.1,1.1,15.3,3.4
	c-1.6,2.7-2.6,5.7-3,9.3c-2.3,0.4-6.2,0.4-11.6,0c-2.6-0.4-4.7-0.9-6.1-1.6c-1.4-0.7-2.2-1.1-2.2-1.1s0.1,0.3,0.3,0.8
	c0.2,0.5,0.4,1.1,0.6,1.9c0.2,0.8,0.3,1.6,0.3,2.5C425.5,351.2,427.8,350.8,430.1,350.6z M432.6,364.4c0,0-0.1-0.2-0.4-0.5
	s-0.5-0.8-0.8-1.4c-0.3-0.6-0.4-1.4-0.4-2.3c0-0.8,0.1-1.6,0.4-2.2c0.3-0.6,0.6-1.1,0.8-1.5c0.3-0.4,0.4-0.5,0.4-0.5
	s-0.2,0.1-0.5,0.2c-0.3,0.1-0.7,0.3-1.2,0.4c-0.5,0.1-1,0.2-1.5,0.2c-0.6,0-1.1-0.1-1.6-0.2c-0.5-0.2-0.9-0.3-1.2-0.4
	c-0.3-0.2-0.5-0.2-0.5-0.2s0.1,0.2,0.4,0.5c0.3,0.4,0.6,0.8,0.8,1.5c0.3,0.6,0.4,1.3,0.4,2.2c0,0.9-0.1,1.6-0.4,2.3
	c-0.3,0.6-0.5,1.1-0.8,1.4c-0.3,0.4-0.4,0.5-0.4,0.5s0.2-0.1,0.5-0.2c0.4-0.2,0.8-0.3,1.2-0.4c0.5-0.2,1-0.2,1.6-0.2
	c0.5,0,1,0.1,1.5,0.2c0.5,0.1,0.9,0.3,1.2,0.4C432.5,364.3,432.6,364.4,432.6,364.4z M460.1,368.9c0,1.2-0.4,2.1-1.2,2.9
	c-0.8,0.8-1.8,1.2-2.9,1.2c-1.2,0-2.1-0.4-3-1.2c-0.8-0.8-1.2-1.8-1.2-2.9c0-1.2,0.4-2.1,1.2-2.9c0.8-0.8,1.8-1.2,3-1.2
	c1.1,0,2.1,0.4,2.9,1.2C459.6,366.7,460.1,367.7,460.1,368.9z M471.5,337h16.3v36h-16.3v-19.4c0.9-0.6,1.6-1.2,2.2-1.8
	c0.5-0.6,0.9-1.2,1.1-1.7c0.2-0.5,0.4-0.9,0.4-1.2c0-0.3,0-0.5,0-0.5c-0.5,0.7-1.1,1.3-1.7,1.8c-0.5,0.5-1,0.9-1.4,1.2
	c-0.4,0.3-0.5,0.4-0.6,0.5v0c-1.1,0.8-1.9,1.3-2.5,1.5c-0.6,0.3-0.9,0.4-0.9,0.4l-5.1-7.6c1.6-1,3.1-2.2,4.4-3.6
	c1.3-1.4,2.3-2.7,3-3.8C471.1,337.6,471.5,337,471.5,337z M518.8,358.4c-1.5,0.6-3.2,0.9-4.9,1c-1.8,0.1-3.4,0-5-0.2
	c-1.6-0.2-2.9-0.5-4-0.7c-1-0.3-1.5-0.4-1.5-0.4s0.1,0.1,0.2,0.3c0.2,0.2,0.3,0.4,0.5,0.7c0.2,0.3,0.4,0.7,0.5,1.1
	c0.2,0.4,0.2,0.8,0.2,1.2c0,0.4-0.1,0.8-0.2,1.2c-0.1,0.4-0.3,0.7-0.5,1.1c-0.2,0.3-0.4,0.6-0.5,0.8c-0.1,0.2-0.2,0.2-0.2,0.2
	s0.5-0.2,1.4-0.5c1-0.4,2.2-0.8,3.6-1.2c1.5-0.4,3-0.7,4.5-0.9c1.5-0.2,2.9-0.2,4.3-0.2c1.4,0,3.1,0.2,5.2,0.5V373c0,0-0.8,0-2.5,0
	c-1.6,0-3.5,0-5.7,0c-2.2,0-4.2,0-6,0c-2.4,0-4.7,0-7,0c-2.3,0-4.2,0-5.8,0c-1.5,0-2.3,0-2.4,0c-1.1-1.5-1.8-3.6-2-6.4
	c-0.2-2.8,0.3-5.6,1.3-8.3c1.1-2.8,3-4.8,5.7-6.2c2-0.8,3.9-1.2,5.8-1.2c1.9,0,3.5,0.2,4.8,0.6c1.3,0.4,1.9,0.5,1.9,0.5
	s-0.1-0.1-0.2-0.3c-0.2-0.2-0.3-0.4-0.5-0.7c-0.2-0.3-0.4-0.7-0.5-1.1c-0.2-0.4-0.2-0.8-0.2-1.2c0-0.4,0.1-0.8,0.2-1.2
	c0.2-0.4,0.3-0.8,0.5-1.1c0.2-0.3,0.4-0.6,0.5-0.7c0.2-0.2,0.2-0.3,0.2-0.3s-0.4,0.2-1.2,0.5c-0.8,0.3-1.9,0.7-3.2,1.1
	c-1.3,0.4-2.7,0.7-4.3,0.9c-2.5,0.3-4.6,0.3-6.4,0c-0.2-3.2-1-6-2.4-8.3c2.2-1.4,4.6-2.4,7.2-2.7c2.6-0.4,5.2-0.6,7.6-0.6
	c3.6,0,6.8,0.7,9.6,2c2.8,1.3,5,3.5,6.5,6.6c0.6,1.3,0.8,2.9,0.8,4.7c0,1.8-0.5,3.5-1.5,5.1C522.4,356.2,520.9,357.4,518.8,358.4z"
	/>
<path d="M387.8,478h16.3v36h-16.3v-19.4c0.9-0.6,1.6-1.2,2.2-1.8c0.5-0.6,0.9-1.2,1.1-1.7c0.2-0.5,0.4-0.9,0.4-1.2
	c0-0.3,0-0.5,0-0.5c-0.5,0.7-1.1,1.3-1.7,1.8c-0.5,0.5-1,0.9-1.4,1.2c-0.4,0.3-0.5,0.4-0.6,0.5v0c-1.1,0.8-1.9,1.3-2.5,1.5
	c-0.6,0.3-0.9,0.4-0.9,0.4l-5.1-7.6c1.6-1,3.1-2.2,4.4-3.6c1.3-1.4,2.3-2.7,3-3.8C387.4,478.6,387.8,478,387.8,478z M425.1,478h13.1
	v36h-14.8c0,0,0-0.7,0.1-2c0.1-1.3,0.2-3.1,0.4-5.3H407v-10c0,0,0.6-1.5,1.8-4.5c1.2-3,1.9-7.8,1.9-14.3h12.7c0,0,0,0.6,0,1.8
	s0,2.7-0.2,4.4c-0.2,1.7-0.5,3.5-1,5.4c-0.5,1.9-1.2,3.5-2.3,4.9v2.1h4.4C424.9,489.3,425.1,483.1,425.1,478z M449.4,509.9
	c0,1.2-0.4,2.1-1.2,2.9c-0.8,0.8-1.8,1.2-2.9,1.2c-1.2,0-2.1-0.4-3-1.2c-0.8-0.8-1.2-1.8-1.2-2.9c0-1.2,0.4-2.1,1.2-2.9
	c0.8-0.8,1.8-1.2,3-1.2c1.1,0,2.1,0.4,2.9,1.2C449,507.7,449.4,508.7,449.4,509.9z M470.9,477.1c3.4,0,6.5,0.8,9.4,2.5
	c2.8,1.7,5.1,3.9,6.8,6.7c1.7,2.8,2.5,6,2.5,9.4c0,3.4-0.8,6.6-2.5,9.4c-1.7,2.8-3.9,5.1-6.8,6.8c-2.8,1.7-5.9,2.5-9.4,2.5
	c-3.5,0-6.6-0.8-9.4-2.5c-2.8-1.7-5.1-4-6.8-6.8c-1.7-2.8-2.5-6-2.5-9.4c0-3.5,0.8-6.6,2.5-9.4c1.7-2.8,4-5.1,6.8-6.7
	C464.4,478,467.5,477.1,470.9,477.1z M474.3,503.6c0,0-0.1-0.3-0.4-1c-0.3-0.6-0.5-1.5-0.8-2.7c-0.3-1.2-0.4-2.6-0.4-4.1
	c0-1.6,0.1-3,0.4-4.1c0.3-1.2,0.5-2.1,0.8-2.7c0.3-0.6,0.4-1,0.4-1s-0.1,0.1-0.3,0.2c-0.2,0.2-0.4,0.4-0.8,0.6
	c-0.3,0.2-0.7,0.4-1.1,0.5s-0.8,0.2-1.2,0.2c-0.4,0-0.8-0.1-1.2-0.2c-0.4-0.2-0.7-0.3-1.1-0.5c-0.3-0.2-0.6-0.4-0.8-0.6
	c-0.2-0.2-0.3-0.2-0.3-0.2s0.1,0.3,0.4,1c0.3,0.6,0.5,1.6,0.8,2.7c0.3,1.2,0.4,2.5,0.4,4.1c0,1.6-0.1,2.9-0.4,4.1
	c-0.3,1.2-0.5,2-0.8,2.7c-0.3,0.6-0.4,1-0.4,1s0.1-0.1,0.2-0.2c0.2-0.2,0.4-0.3,0.8-0.5c0.3-0.2,0.7-0.4,1.1-0.6
	c0.4-0.2,0.8-0.2,1.2-0.2c0.4,0,0.8,0.1,1.2,0.2c0.4,0.2,0.7,0.4,1.1,0.6c0.3,0.2,0.6,0.4,0.8,0.5S474.3,503.6,474.3,503.6z
	 M501,478h16.3v36H501v-19.4c0.9-0.6,1.6-1.2,2.2-1.8c0.5-0.6,0.9-1.2,1.1-1.7c0.2-0.5,0.4-0.9,0.4-1.2c0-0.3,0-0.5,0-0.5
	c-0.5,0.7-1.1,1.3-1.7,1.8c-0.5,0.5-1,0.9-1.4,1.2c-0.4,0.3-0.5,0.4-0.6,0.5v0c-1.1,0.8-1.9,1.3-2.5,1.5c-0.6,0.3-0.9,0.4-0.9,0.4
	l-5.1-7.6c1.6-1,3.1-2.2,4.4-3.6c1.3-1.4,2.3-2.7,3-3.8C500.7,478.6,501,478,501,478z"/>
<path d="M405.3,636.4c-1.5,0.6-3.2,0.9-4.9,1c-1.8,0.1-3.4,0-5-0.2c-1.6-0.2-2.9-0.5-4-0.7c-1-0.3-1.5-0.4-1.5-0.4s0.1,0.1,0.2,0.3
	c0.2,0.2,0.3,0.4,0.5,0.7c0.2,0.3,0.4,0.7,0.5,1.1c0.2,0.4,0.2,0.8,0.2,1.2s-0.1,0.8-0.2,1.2c-0.1,0.4-0.3,0.7-0.5,1.1
	c-0.2,0.3-0.4,0.6-0.5,0.8c-0.1,0.2-0.2,0.2-0.2,0.2s0.5-0.2,1.4-0.5c1-0.4,2.2-0.8,3.6-1.2c1.5-0.4,3-0.7,4.5-0.9
	c1.5-0.2,2.9-0.2,4.3-0.2c1.4,0,3.1,0.2,5.2,0.5V651c0,0-0.8,0-2.5,0c-1.6,0-3.5,0-5.7,0c-2.2,0-4.2,0-6,0c-2.4,0-4.7,0-7,0
	c-2.3,0-4.2,0-5.8,0c-1.5,0-2.3,0-2.4,0c-1.1-1.5-1.8-3.6-2-6.4c-0.2-2.8,0.3-5.6,1.3-8.3c1.1-2.8,3-4.8,5.7-6.2
	c2-0.8,3.9-1.2,5.8-1.2s3.5,0.2,4.8,0.6c1.3,0.4,1.9,0.5,1.9,0.5s-0.1-0.1-0.2-0.3s-0.3-0.4-0.5-0.7c-0.2-0.3-0.4-0.7-0.5-1.1
	c-0.2-0.4-0.2-0.8-0.2-1.2c0-0.4,0.1-0.8,0.2-1.2c0.2-0.4,0.3-0.8,0.5-1.1c0.2-0.3,0.4-0.6,0.5-0.7c0.2-0.2,0.2-0.3,0.2-0.3
	s-0.4,0.2-1.2,0.5c-0.8,0.3-1.9,0.7-3.2,1.1c-1.3,0.4-2.7,0.7-4.3,0.9c-2.5,0.3-4.6,0.3-6.4,0c-0.2-3.2-1-6-2.4-8.3
	c2.2-1.4,4.6-2.4,7.2-2.7c2.6-0.4,5.2-0.6,7.6-0.6c3.6,0,6.8,0.7,9.6,2c2.8,1.3,5,3.5,6.5,6.6c0.6,1.3,0.8,2.9,0.8,4.7
	c0,1.8-0.5,3.5-1.5,5.1C409,634.2,407.4,635.4,405.3,636.4z M433,614.1c3.4,0,6.5,0.8,9.4,2.5c2.8,1.7,5.1,3.9,6.8,6.7
	c1.7,2.8,2.5,6,2.5,9.4c0,3.4-0.8,6.6-2.5,9.4c-1.7,2.8-3.9,5.1-6.8,6.8c-2.8,1.7-5.9,2.5-9.4,2.5c-3.5,0-6.6-0.8-9.4-2.5
	c-2.8-1.7-5.1-4-6.8-6.8c-1.7-2.8-2.5-6-2.5-9.4c0-3.5,0.8-6.6,2.5-9.4c1.7-2.8,4-5.1,6.8-6.7C426.4,615,429.6,614.1,433,614.1z
	 M436.4,640.6c0,0-0.1-0.3-0.4-1c-0.3-0.6-0.5-1.5-0.8-2.7c-0.3-1.2-0.4-2.6-0.4-4.1c0-1.6,0.1-3,0.4-4.1c0.3-1.2,0.5-2.1,0.8-2.7
	c0.3-0.6,0.4-1,0.4-1s-0.1,0.1-0.3,0.2c-0.2,0.2-0.4,0.4-0.8,0.6c-0.3,0.2-0.7,0.4-1.1,0.5c-0.4,0.2-0.8,0.2-1.2,0.2
	c-0.4,0-0.8-0.1-1.2-0.2s-0.7-0.3-1.1-0.5c-0.3-0.2-0.6-0.4-0.8-0.6c-0.2-0.2-0.3-0.2-0.3-0.2s0.1,0.3,0.4,1
	c0.3,0.6,0.5,1.6,0.8,2.7c0.3,1.2,0.4,2.5,0.4,4.1c0,1.6-0.1,2.9-0.4,4.1c-0.3,1.2-0.5,2-0.8,2.7c-0.3,0.6-0.4,1-0.4,1
	s0.1-0.1,0.2-0.2c0.2-0.2,0.4-0.3,0.8-0.5c0.3-0.2,0.7-0.4,1.1-0.6c0.4-0.2,0.8-0.2,1.2-0.2c0.4,0,0.8,0.1,1.2,0.2
	c0.4,0.2,0.7,0.4,1.1,0.6c0.3,0.2,0.6,0.4,0.8,0.5C436.3,640.5,436.4,640.6,436.4,640.6z M462.9,646.9c0,1.2-0.4,2.1-1.2,2.9
	c-0.8,0.8-1.8,1.2-2.9,1.2c-1.2,0-2.1-0.4-3-1.2c-0.8-0.8-1.2-1.8-1.2-2.9c0-1.2,0.4-2.1,1.2-2.9c0.8-0.8,1.8-1.2,3-1.2
	c1.1,0,2.1,0.4,2.9,1.2C462.5,644.7,462.9,645.7,462.9,646.9z M484.5,614.1c3.4,0,6.5,0.8,9.4,2.5c2.8,1.7,5.1,3.9,6.8,6.7
	c1.7,2.8,2.5,6,2.5,9.4c0,3.4-0.8,6.6-2.5,9.4c-1.7,2.8-3.9,5.1-6.8,6.8c-2.8,1.7-5.9,2.5-9.4,2.5c-3.5,0-6.6-0.8-9.4-2.5
	c-2.8-1.7-5.1-4-6.8-6.8c-1.7-2.8-2.5-6-2.5-9.4c0-3.5,0.8-6.6,2.5-9.4c1.7-2.8,4-5.1,6.8-6.7C477.9,615,481,614.1,484.5,614.1z
	 M487.8,640.6c0,0-0.1-0.3-0.4-1c-0.3-0.6-0.5-1.5-0.8-2.7c-0.3-1.2-0.4-2.6-0.4-4.1c0-1.6,0.1-3,0.4-4.1c0.3-1.2,0.5-2.1,0.8-2.7
	c0.3-0.6,0.4-1,0.4-1s-0.1,0.1-0.3,0.2c-0.2,0.2-0.4,0.4-0.8,0.6c-0.3,0.2-0.7,0.4-1.1,0.5c-0.4,0.2-0.8,0.2-1.2,0.2
	c-0.4,0-0.8-0.1-1.2-0.2s-0.7-0.3-1.1-0.5c-0.3-0.2-0.6-0.4-0.8-0.6c-0.2-0.2-0.3-0.2-0.3-0.2s0.1,0.3,0.4,1
	c0.3,0.6,0.5,1.6,0.8,2.7c0.3,1.2,0.4,2.5,0.4,4.1c0,1.6-0.1,2.9-0.4,4.1c-0.3,1.2-0.5,2-0.8,2.7c-0.3,0.6-0.4,1-0.4,1
	s0.1-0.1,0.2-0.2c0.2-0.2,0.4-0.3,0.8-0.5c0.3-0.2,0.7-0.4,1.1-0.6c0.4-0.2,0.8-0.2,1.2-0.2c0.4,0,0.8,0.1,1.2,0.2
	c0.4,0.2,0.7,0.4,1.1,0.6c0.3,0.2,0.6,0.4,0.8,0.5C487.7,640.5,487.8,640.6,487.8,640.6z M534.1,636.4c-1.5,0.6-3.2,0.9-4.9,1
	c-1.8,0.1-3.4,0-5-0.2c-1.6-0.2-2.9-0.5-4-0.7c-1-0.3-1.5-0.4-1.5-0.4s0.1,0.1,0.2,0.3c0.2,0.2,0.3,0.4,0.5,0.7
	c0.2,0.3,0.4,0.7,0.5,1.1c0.2,0.4,0.2,0.8,0.2,1.2s-0.1,0.8-0.2,1.2c-0.1,0.4-0.3,0.7-0.5,1.1c-0.2,0.3-0.4,0.6-0.5,0.8
	c-0.1,0.2-0.2,0.2-0.2,0.2s0.5-0.2,1.4-0.5c1-0.4,2.2-0.8,3.6-1.2c1.5-0.4,3-0.7,4.5-0.9c1.5-0.2,2.9-0.2,4.3-0.2
	c1.4,0,3.1,0.2,5.2,0.5V651c0,0-0.8,0-2.5,0c-1.6,0-3.5,0-5.7,0c-2.2,0-4.2,0-6,0c-2.4,0-4.7,0-7,0c-2.3,0-4.2,0-5.8,0
	c-1.5,0-2.3,0-2.4,0c-1.1-1.5-1.8-3.6-2-6.4c-0.2-2.8,0.3-5.6,1.3-8.3c1.1-2.8,3-4.8,5.7-6.2c2-0.8,3.9-1.2,5.8-1.2s3.5,0.2,4.8,0.6
	s1.9,0.5,1.9,0.5s-0.1-0.1-0.2-0.3c-0.2-0.2-0.3-0.4-0.5-0.7c-0.2-0.3-0.4-0.7-0.5-1.1c-0.2-0.4-0.2-0.8-0.2-1.2
	c0-0.4,0.1-0.8,0.2-1.2c0.2-0.4,0.3-0.8,0.5-1.1c0.2-0.3,0.4-0.6,0.5-0.7c0.2-0.2,0.2-0.3,0.2-0.3s-0.4,0.2-1.2,0.5
	c-0.8,0.3-1.9,0.7-3.2,1.1c-1.3,0.4-2.7,0.7-4.3,0.9c-2.5,0.3-4.6,0.3-6.4,0c-0.2-3.2-1-6-2.4-8.3c2.2-1.4,4.6-2.4,7.2-2.7
	c2.6-0.4,5.2-0.6,7.6-0.6c3.6,0,6.8,0.7,9.6,2c2.8,1.3,5,3.5,6.5,6.6c0.6,1.3,0.8,2.9,0.8,4.7c0,1.8-0.5,3.5-1.5,5.1
	C537.7,634.2,536.2,635.4,534.1,636.4z"/>
<path d="M113.8,337h16.3v36h-16.3v-19.4c0.9-0.6,1.6-1.2,2.2-1.8c0.5-0.6,0.9-1.2,1.1-1.7c0.2-0.5,0.4-0.9,0.4-1.2
	c0-0.3,0-0.5,0-0.5c-0.5,0.7-1.1,1.3-1.7,1.8c-0.5,0.5-1,0.9-1.4,1.2c-0.4,0.3-0.5,0.4-0.6,0.5v0c-1.1,0.8-1.9,1.3-2.5,1.5
	c-0.6,0.3-0.9,0.4-0.9,0.4l-5.1-7.6c1.6-1,3.1-2.2,4.4-3.6c1.3-1.4,2.3-2.7,3-3.8C113.4,337.6,113.8,337,113.8,337z M151.8,359.4
	c-5.5,0.5-10-0.2-13.5-2.1c-3.5-1.9-5.2-5-5-9.4c0.4-3.2,2.2-6,5.7-8.2c3.5-2.2,7.7-3.3,12.9-3.3c8.1,0,14,2.6,17.5,7.8
	c0,0,0,0.1,0,0.1c0,0,0,0.1,0,0.1c0,0,0,0,0,0c0,0,0,0.1,0,0.1c1.3,2.7,1.9,5.9,1.8,9.7c-0.1,3.8-0.9,7.3-2.5,10.6
	c-3.8,5.8-9.3,8.6-16.7,8.6c-5,0-10.1-1.1-15.3-3.4c1.6-2.7,2.6-5.7,3-9.3c2.3-0.4,6.2-0.4,11.6,0c2.6,0.4,4.7,0.9,6.1,1.6
	s2.2,1.1,2.2,1.1s-0.1-0.2-0.3-0.7c-0.2-0.5-0.4-1.2-0.6-1.9c-0.2-0.8-0.3-1.6-0.3-2.5C156.4,358.8,154.1,359.2,151.8,359.4z
	 M149.2,345.6c0,0,0.1,0.2,0.4,0.5c0.3,0.4,0.6,0.8,0.8,1.5c0.3,0.6,0.4,1.3,0.4,2.2c0,0.8-0.1,1.6-0.4,2.2
	c-0.3,0.6-0.5,1.1-0.8,1.4c-0.3,0.4-0.4,0.5-0.4,0.5s0.2-0.1,0.5-0.2c0.3-0.2,0.7-0.3,1.2-0.4c0.5-0.2,1-0.2,1.6-0.2
	s1.1,0.1,1.5,0.2c0.5,0.1,0.9,0.3,1.2,0.4c0.3,0.1,0.5,0.2,0.5,0.2s-0.1-0.2-0.4-0.5c-0.3-0.4-0.5-0.8-0.8-1.4
	c-0.3-0.6-0.4-1.4-0.4-2.2c0-0.9,0.1-1.6,0.4-2.2c0.3-0.6,0.5-1.1,0.8-1.5c0.3-0.4,0.4-0.5,0.4-0.5s-0.2,0.1-0.5,0.2
	c-0.3,0.1-0.7,0.3-1.2,0.4c-0.5,0.1-1,0.2-1.5,0.2s-1-0.1-1.5-0.2c-0.5-0.2-0.9-0.3-1.3-0.4C149.4,345.7,149.2,345.6,149.2,345.6z
	 M182.6,368.9c0,1.2-0.4,2.1-1.2,2.9c-0.8,0.8-1.8,1.2-2.9,1.2c-1.2,0-2.1-0.4-3-1.2c-0.8-0.8-1.2-1.8-1.2-2.9
	c0-1.2,0.4-2.1,1.2-2.9c0.8-0.8,1.8-1.2,3-1.2c1.1,0,2.1,0.4,2.9,1.2C182.2,366.7,182.6,367.7,182.6,368.9z M182.6,350.6
	c0,1.2-0.4,2.1-1.2,3c-0.8,0.8-1.8,1.2-2.9,1.2c-1.2,0-2.1-0.4-3-1.2c-0.8-0.8-1.2-1.8-1.2-3c0-1.2,0.4-2.1,1.2-2.9
	c0.8-0.8,1.8-1.2,3-1.2c1.1,0,2.1,0.4,2.9,1.2C182.2,348.5,182.6,349.5,182.6,350.6z M204.2,336.1c3.4,0,6.5,0.8,9.4,2.5
	c2.8,1.7,5.1,3.9,6.8,6.7c1.7,2.8,2.5,6,2.5,9.4c0,3.4-0.8,6.6-2.5,9.4c-1.7,2.8-3.9,5.1-6.8,6.8c-2.8,1.7-5.9,2.5-9.4,2.5
	c-3.5,0-6.6-0.8-9.4-2.5c-2.8-1.7-5.1-4-6.8-6.8c-1.7-2.8-2.5-6-2.5-9.4c0-3.5,0.8-6.6,2.5-9.4c1.7-2.8,4-5.1,6.8-6.7
	C197.6,337,200.8,336.1,204.2,336.1z M207.5,362.6c0,0-0.1-0.3-0.4-1c-0.3-0.6-0.5-1.5-0.8-2.7c-0.3-1.2-0.4-2.6-0.4-4.1
	c0-1.6,0.1-3,0.4-4.1c0.3-1.2,0.5-2.1,0.8-2.7c0.3-0.6,0.4-1,0.4-1s-0.1,0.1-0.3,0.2c-0.2,0.2-0.4,0.4-0.8,0.6
	c-0.3,0.2-0.7,0.4-1.1,0.5s-0.8,0.2-1.2,0.2c-0.4,0-0.8-0.1-1.2-0.2s-0.7-0.3-1.1-0.5c-0.3-0.2-0.6-0.4-0.8-0.6s-0.3-0.2-0.3-0.2
	s0.1,0.3,0.4,1s0.5,1.6,0.8,2.7c0.3,1.2,0.4,2.5,0.4,4.1c0,1.6-0.1,2.9-0.4,4.1c-0.3,1.2-0.5,2-0.8,2.7c-0.3,0.6-0.4,1-0.4,1
	s0.1-0.1,0.2-0.2c0.2-0.2,0.4-0.3,0.8-0.5c0.3-0.2,0.7-0.4,1.1-0.6s0.8-0.2,1.2-0.2c0.4,0,0.8,0.1,1.2,0.2c0.4,0.2,0.7,0.4,1.1,0.6
	c0.3,0.2,0.6,0.4,0.8,0.5S207.5,362.6,207.5,362.6z M244.4,336.1c3.4,0,6.5,0.8,9.4,2.5c2.8,1.7,5.1,3.9,6.8,6.7
	c1.7,2.8,2.5,6,2.5,9.4c0,3.4-0.8,6.6-2.5,9.4c-1.7,2.8-3.9,5.1-6.8,6.8c-2.8,1.7-5.9,2.5-9.4,2.5c-3.5,0-6.6-0.8-9.4-2.5
	c-2.8-1.7-5.1-4-6.8-6.8c-1.7-2.8-2.5-6-2.5-9.4c0-3.5,0.8-6.6,2.5-9.4c1.7-2.8,4-5.1,6.8-6.7C237.8,337,241,336.1,244.4,336.1z
	 M247.7,362.6c0,0-0.1-0.3-0.4-1c-0.3-0.6-0.5-1.5-0.8-2.7c-0.3-1.2-0.4-2.6-0.4-4.1c0-1.6,0.1-3,0.4-4.1c0.3-1.2,0.5-2.1,0.8-2.7
	c0.3-0.6,0.4-1,0.4-1s-0.1,0.1-0.3,0.2c-0.2,0.2-0.4,0.4-0.8,0.6c-0.3,0.2-0.7,0.4-1.1,0.5s-0.8,0.2-1.2,0.2c-0.4,0-0.8-0.1-1.2-0.2
	c-0.4-0.2-0.7-0.3-1.1-0.5c-0.3-0.2-0.6-0.4-0.8-0.6s-0.3-0.2-0.3-0.2s0.1,0.3,0.4,1s0.5,1.6,0.8,2.7c0.3,1.2,0.4,2.5,0.4,4.1
	c0,1.6-0.1,2.9-0.4,4.1c-0.3,1.2-0.5,2-0.8,2.7c-0.3,0.6-0.4,1-0.4,1s0.1-0.1,0.2-0.2c0.2-0.2,0.4-0.3,0.8-0.5
	c0.3-0.2,0.7-0.4,1.1-0.6s0.8-0.2,1.2-0.2c0.4,0,0.8,0.1,1.2,0.2s0.7,0.4,1.1,0.6c0.3,0.2,0.6,0.4,0.8,0.5
	C247.6,362.5,247.7,362.6,247.7,362.6z"/>
<path d="M137.3,504.4c-1.5,0.6-3.2,0.9-4.9,1c-1.8,0.1-3.4,0-5-0.2c-1.6-0.2-2.9-0.5-4-0.7c-1-0.3-1.5-0.4-1.5-0.4s0.1,0.1,0.2,0.3
	c0.2,0.2,0.3,0.4,0.5,0.7c0.2,0.3,0.4,0.7,0.5,1.1c0.2,0.4,0.2,0.8,0.2,1.2c0,0.4-0.1,0.8-0.2,1.2c-0.1,0.4-0.3,0.7-0.5,1.1
	c-0.2,0.3-0.4,0.6-0.5,0.8c-0.1,0.2-0.2,0.2-0.2,0.2s0.5-0.2,1.4-0.5c1-0.4,2.2-0.8,3.6-1.2c1.5-0.4,3-0.7,4.5-0.9
	c1.5-0.2,2.9-0.2,4.3-0.2c1.4,0,3.1,0.2,5.2,0.5V519c0,0-0.8,0-2.5,0c-1.6,0-3.5,0-5.7,0s-4.2,0-6,0c-2.4,0-4.7,0-7,0s-4.2,0-5.8,0
	c-1.5,0-2.3,0-2.4,0c-1.1-1.5-1.8-3.6-2-6.4c-0.2-2.8,0.3-5.6,1.3-8.3c1.1-2.8,3-4.8,5.7-6.2c2-0.8,3.9-1.2,5.8-1.2
	c1.9,0,3.5,0.2,4.8,0.6c1.3,0.4,1.9,0.5,1.9,0.5s-0.1-0.1-0.2-0.3c-0.2-0.2-0.3-0.4-0.5-0.7c-0.2-0.3-0.4-0.7-0.5-1.1
	c-0.2-0.4-0.2-0.8-0.2-1.2c0-0.4,0.1-0.8,0.2-1.2c0.2-0.4,0.3-0.8,0.5-1.1c0.2-0.3,0.4-0.6,0.5-0.7c0.2-0.2,0.2-0.3,0.2-0.3
	s-0.4,0.2-1.2,0.5c-0.8,0.3-1.9,0.7-3.2,1.1c-1.3,0.4-2.7,0.7-4.3,0.9c-2.5,0.3-4.6,0.3-6.4,0c-0.2-3.2-1-6-2.4-8.3
	c2.2-1.4,4.6-2.4,7.2-2.7c2.6-0.4,5.2-0.6,7.6-0.6c3.6,0,6.8,0.7,9.6,2c2.8,1.3,5,3.5,6.5,6.6c0.6,1.3,0.8,2.9,0.8,4.7
	c0,1.8-0.5,3.5-1.5,5.1C141,502.2,139.4,503.4,137.3,504.4z M165,482.1c3.4,0,6.5,0.8,9.4,2.5c2.8,1.7,5.1,3.9,6.8,6.7
	c1.7,2.8,2.5,6,2.5,9.4c0,3.4-0.8,6.6-2.5,9.4c-1.7,2.8-3.9,5.1-6.8,6.8c-2.8,1.7-5.9,2.5-9.4,2.5c-3.5,0-6.6-0.8-9.4-2.5
	c-2.8-1.7-5.1-4-6.8-6.8c-1.7-2.8-2.5-6-2.5-9.4c0-3.5,0.8-6.6,2.5-9.4c1.7-2.8,4-5.1,6.8-6.7C158.4,483,161.6,482.1,165,482.1z
	 M168.4,508.6c0,0-0.1-0.3-0.4-1c-0.3-0.6-0.5-1.5-0.8-2.7c-0.3-1.2-0.4-2.6-0.4-4.1c0-1.6,0.1-3,0.4-4.1c0.3-1.2,0.5-2.1,0.8-2.7
	c0.3-0.6,0.4-1,0.4-1s-0.1,0.1-0.3,0.2c-0.2,0.2-0.4,0.4-0.8,0.6c-0.3,0.2-0.7,0.4-1.1,0.5c-0.4,0.2-0.8,0.2-1.2,0.2
	c-0.4,0-0.8-0.1-1.2-0.2s-0.7-0.3-1.1-0.5c-0.3-0.2-0.6-0.4-0.8-0.6s-0.3-0.2-0.3-0.2s0.1,0.3,0.4,1c0.3,0.6,0.5,1.6,0.8,2.7
	c0.3,1.2,0.4,2.5,0.4,4.1c0,1.6-0.1,2.9-0.4,4.1c-0.3,1.2-0.5,2-0.8,2.7c-0.3,0.6-0.4,1-0.4,1s0.1-0.1,0.2-0.2
	c0.2-0.2,0.4-0.3,0.8-0.5c0.3-0.2,0.7-0.4,1.1-0.6s0.8-0.2,1.2-0.2c0.4,0,0.8,0.1,1.2,0.2s0.7,0.4,1.1,0.6c0.3,0.2,0.6,0.4,0.8,0.5
	S168.4,508.6,168.4,508.6z M194.9,514.9c0,1.2-0.4,2.1-1.2,2.9c-0.8,0.8-1.8,1.2-2.9,1.2c-1.2,0-2.1-0.4-3-1.2
	c-0.8-0.8-1.2-1.8-1.2-2.9c0-1.2,0.4-2.1,1.2-2.9c0.8-0.8,1.8-1.2,3-1.2c1.1,0,2.1,0.4,2.9,1.2C194.5,512.7,194.9,513.7,194.9,514.9
	z M194.9,496.6c0,1.2-0.4,2.1-1.2,3c-0.8,0.8-1.8,1.2-2.9,1.2c-1.2,0-2.1-0.4-3-1.2c-0.8-0.8-1.2-1.8-1.2-3c0-1.2,0.4-2.1,1.2-2.9
	c0.8-0.8,1.8-1.2,3-1.2c1.1,0,2.1,0.4,2.9,1.2C194.5,494.5,194.9,495.5,194.9,496.6z M216.5,482.1c3.4,0,6.5,0.8,9.4,2.5
	c2.8,1.7,5.1,3.9,6.8,6.7c1.7,2.8,2.5,6,2.5,9.4c0,3.4-0.8,6.6-2.5,9.4c-1.7,2.8-3.9,5.1-6.8,6.8c-2.8,1.7-5.9,2.5-9.4,2.5
	c-3.5,0-6.6-0.8-9.4-2.5c-2.8-1.7-5.1-4-6.8-6.8c-1.7-2.8-2.5-6-2.5-9.4c0-3.5,0.8-6.6,2.5-9.4c1.7-2.8,4-5.1,6.8-6.7
	C209.9,483,213,482.1,216.5,482.1z M219.8,508.6c0,0-0.1-0.3-0.4-1c-0.3-0.6-0.5-1.5-0.8-2.7c-0.3-1.2-0.4-2.6-0.4-4.1
	c0-1.6,0.1-3,0.4-4.1c0.3-1.2,0.5-2.1,0.8-2.7c0.3-0.6,0.4-1,0.4-1s-0.1,0.1-0.3,0.2c-0.2,0.2-0.4,0.4-0.8,0.6
	c-0.3,0.2-0.7,0.4-1.1,0.5s-0.8,0.2-1.2,0.2c-0.4,0-0.8-0.1-1.2-0.2s-0.7-0.3-1.1-0.5c-0.3-0.2-0.6-0.4-0.8-0.6s-0.3-0.2-0.3-0.2
	s0.1,0.3,0.4,1s0.5,1.6,0.8,2.7c0.3,1.2,0.4,2.5,0.4,4.1c0,1.6-0.1,2.9-0.4,4.1c-0.3,1.2-0.5,2-0.8,2.7c-0.3,0.6-0.4,1-0.4,1
	s0.1-0.1,0.2-0.2c0.2-0.2,0.4-0.3,0.8-0.5c0.3-0.2,0.7-0.4,1.1-0.6s0.8-0.2,1.2-0.2c0.4,0,0.8,0.1,1.2,0.2c0.4,0.2,0.7,0.4,1.1,0.6
	c0.3,0.2,0.6,0.4,0.8,0.5S219.8,508.6,219.8,508.6z M256.7,482.1c3.4,0,6.5,0.8,9.4,2.5c2.8,1.7,5.1,3.9,6.8,6.7
	c1.7,2.8,2.5,6,2.5,9.4c0,3.4-0.8,6.6-2.5,9.4c-1.7,2.8-3.9,5.1-6.8,6.8c-2.8,1.7-5.9,2.5-9.4,2.5c-3.5,0-6.6-0.8-9.4-2.5
	c-2.8-1.7-5.1-4-6.8-6.8c-1.7-2.8-2.5-6-2.5-9.4c0-3.5,0.8-6.6,2.5-9.4c1.7-2.8,4-5.1,6.8-6.7C250.1,483,253.2,482.1,256.7,482.1z
	 M260,508.6c0,0-0.1-0.3-0.4-1c-0.3-0.6-0.5-1.5-0.8-2.7c-0.3-1.2-0.4-2.6-0.4-4.1c0-1.6,0.1-3,0.4-4.1c0.3-1.2,0.5-2.1,0.8-2.7
	c0.3-0.6,0.4-1,0.4-1s-0.1,0.1-0.3,0.2c-0.2,0.2-0.4,0.4-0.8,0.6c-0.3,0.2-0.7,0.4-1.1,0.5c-0.4,0.2-0.8,0.2-1.2,0.2
	c-0.4,0-0.8-0.1-1.2-0.2c-0.4-0.2-0.7-0.3-1.1-0.5c-0.3-0.2-0.6-0.4-0.8-0.6s-0.3-0.2-0.3-0.2s0.1,0.3,0.4,1s0.5,1.6,0.8,2.7
	c0.3,1.2,0.4,2.5,0.4,4.1c0,1.6-0.1,2.9-0.4,4.1c-0.3,1.2-0.5,2-0.8,2.7c-0.3,0.6-0.4,1-0.4,1s0.1-0.1,0.2-0.2
	c0.2-0.2,0.4-0.3,0.8-0.5c0.3-0.2,0.7-0.4,1.1-0.6s0.8-0.2,1.2-0.2c0.4,0,0.8,0.1,1.2,0.2c0.4,0.2,0.7,0.4,1.1,0.6
	c0.3,0.2,0.6,0.4,0.8,0.5C259.9,508.5,260,508.6,260,508.6z"/>
<path d="M110.8,615h16.3v36h-16.3v-19.4c0.9-0.6,1.6-1.2,2.2-1.8c0.5-0.6,0.9-1.2,1.1-1.7c0.2-0.5,0.4-0.9,0.4-1.2
	c0-0.3,0-0.5,0-0.5c-0.5,0.7-1.1,1.3-1.7,1.8c-0.5,0.5-1,0.9-1.4,1.2c-0.4,0.3-0.5,0.4-0.6,0.5v0c-1.1,0.8-1.9,1.3-2.5,1.5
	c-0.6,0.3-0.9,0.4-0.9,0.4l-5.1-7.6c1.6-1,3.1-2.2,4.4-3.6c1.3-1.4,2.3-2.7,3-3.8C110.4,615.6,110.8,615,110.8,615z M162.4,631.8
	c3,2.6,4.5,5.5,4.5,8.5c0,3.4-1.8,6.1-5.3,8.1c-3.5,2-7.9,3-13.1,3.1c0,0,0,0,0,0c-5.2,0-9.6-1.1-13.2-3.1c-3.5-2-5.3-4.7-5.3-8.1
	c0-3.1,1.5-5.9,4.5-8.5c-2.1-2.3-3.1-4.8-3-7.5c1.2-6.4,6.9-9.6,16.9-9.7c0,0,0,0,0,0c10,0.1,15.6,3.3,16.9,9.7
	C165.5,627,164.5,629.5,162.4,631.8z M145.4,621.6c0.3,0.3,0.5,0.7,0.7,1.4c0.3,0.7,0.4,1.3,0.4,2c0,0.6-0.1,1.3-0.4,2
	c-0.2,0.7-0.5,1.2-0.8,1.4c0.4-0.2,0.8-0.4,1.4-0.6c0.5-0.2,1.1-0.3,1.7-0.3c0.6,0,1.1,0.1,1.7,0.3c0.5,0.2,1,0.4,1.3,0.6
	c-0.3-0.3-0.5-0.7-0.8-1.4c-0.3-0.7-0.4-1.4-0.4-2c0-0.7,0.1-1.3,0.3-2c0.3-0.7,0.5-1.2,0.8-1.4c-0.4,0.2-0.8,0.4-1.3,0.6
	c-0.5,0.2-1.1,0.2-1.7,0.2c-0.6,0-1.1-0.1-1.7-0.2C146.2,622,145.8,621.8,145.4,621.6z M151.7,642.4c0,0-0.1-0.2-0.4-0.5
	c-0.3-0.4-0.5-0.8-0.8-1.4c-0.3-0.6-0.4-1.4-0.4-2.3c0-0.8,0.1-1.6,0.4-2.2c0.3-0.6,0.5-1.1,0.8-1.5c0.3-0.4,0.4-0.5,0.4-0.5
	s-0.2,0.1-0.5,0.2c-0.3,0.1-0.7,0.3-1.2,0.4c-0.5,0.1-1,0.2-1.5,0.2s-1.1-0.1-1.6-0.2c-0.5-0.2-0.9-0.3-1.2-0.4
	c-0.3-0.2-0.4-0.2-0.4-0.2s0.1,0.2,0.4,0.5c0.3,0.4,0.5,0.8,0.8,1.5c0.3,0.6,0.4,1.3,0.4,2.2c0,0.9-0.1,1.6-0.4,2.3
	c-0.3,0.6-0.5,1.1-0.8,1.4c-0.3,0.3-0.4,0.5-0.4,0.5s0.2-0.1,0.5-0.2c0.3-0.1,0.7-0.3,1.2-0.4c0.5-0.2,1-0.2,1.5-0.2s1,0.1,1.5,0.2
	c0.5,0.1,0.9,0.3,1.2,0.4C151.6,642.3,151.7,642.4,151.7,642.4z M178.1,646.9c0,1.2-0.4,2.1-1.2,2.9c-0.8,0.8-1.8,1.2-2.9,1.2
	c-1.2,0-2.1-0.4-3-1.2c-0.8-0.8-1.2-1.8-1.2-2.9c0-1.2,0.4-2.1,1.2-2.9c0.8-0.8,1.8-1.2,3-1.2c1.1,0,2.1,0.4,2.9,1.2
	C177.7,644.7,178.1,645.7,178.1,646.9z M178.1,628.6c0,1.2-0.4,2.1-1.2,3c-0.8,0.8-1.8,1.2-2.9,1.2c-1.2,0-2.1-0.4-3-1.2
	c-0.8-0.8-1.2-1.8-1.2-3c0-1.2,0.4-2.1,1.2-2.9c0.8-0.8,1.8-1.2,3-1.2c1.1,0,2.1,0.4,2.9,1.2C177.7,626.5,178.1,627.5,178.1,628.6z
	 M199.7,614.1c3.4,0,6.5,0.8,9.4,2.5c2.8,1.7,5.1,3.9,6.8,6.7c1.7,2.8,2.5,6,2.5,9.4c0,3.4-0.8,6.6-2.5,9.4
	c-1.7,2.8-3.9,5.1-6.8,6.8c-2.8,1.7-5.9,2.5-9.4,2.5c-3.5,0-6.6-0.8-9.4-2.5c-2.8-1.7-5.1-4-6.8-6.8c-1.7-2.8-2.5-6-2.5-9.4
	c0-3.5,0.8-6.6,2.5-9.4c1.7-2.8,4-5.1,6.8-6.7C193.1,615,196.2,614.1,199.7,614.1z M203,640.6c0,0-0.1-0.3-0.4-1
	c-0.3-0.6-0.5-1.5-0.8-2.7c-0.3-1.2-0.4-2.6-0.4-4.1c0-1.6,0.1-3,0.4-4.1c0.3-1.2,0.5-2.1,0.8-2.7c0.3-0.6,0.4-1,0.4-1
	s-0.1,0.1-0.3,0.2c-0.2,0.2-0.4,0.4-0.8,0.6c-0.3,0.2-0.7,0.4-1.1,0.5c-0.4,0.2-0.8,0.2-1.2,0.2c-0.4,0-0.8-0.1-1.2-0.2
	s-0.7-0.3-1.1-0.5c-0.3-0.2-0.6-0.4-0.8-0.6s-0.3-0.2-0.3-0.2s0.1,0.3,0.4,1c0.3,0.6,0.5,1.6,0.8,2.7c0.3,1.2,0.4,2.5,0.4,4.1
	c0,1.6-0.1,2.9-0.4,4.1c-0.3,1.2-0.5,2-0.8,2.7c-0.3,0.6-0.4,1-0.4,1s0.1-0.1,0.2-0.2c0.2-0.2,0.4-0.3,0.8-0.5
	c0.3-0.2,0.7-0.4,1.1-0.6c0.4-0.2,0.8-0.2,1.2-0.2c0.4,0,0.8,0.1,1.2,0.2c0.4,0.2,0.7,0.4,1.1,0.6c0.3,0.2,0.6,0.4,0.8,0.5
	C202.9,640.5,203,640.6,203,640.6z M239.9,614.1c3.4,0,6.5,0.8,9.4,2.5c2.8,1.7,5.1,3.9,6.8,6.7c1.7,2.8,2.5,6,2.5,9.4
	c0,3.4-0.8,6.6-2.5,9.4c-1.7,2.8-3.9,5.1-6.8,6.8c-2.8,1.7-5.9,2.5-9.4,2.5c-3.5,0-6.6-0.8-9.4-2.5c-2.8-1.7-5.1-4-6.8-6.8
	c-1.7-2.8-2.5-6-2.5-9.4c0-3.5,0.8-6.6,2.5-9.4c1.7-2.8,4-5.1,6.8-6.7C233.3,615,236.4,614.1,239.9,614.1z M243.2,640.6
	c0,0-0.1-0.3-0.4-1c-0.3-0.6-0.5-1.5-0.8-2.7c-0.3-1.2-0.4-2.6-0.4-4.1c0-1.6,0.1-3,0.4-4.1c0.3-1.2,0.5-2.1,0.8-2.7
	c0.3-0.6,0.4-1,0.4-1s-0.1,0.1-0.3,0.2c-0.2,0.2-0.4,0.4-0.8,0.6c-0.3,0.2-0.7,0.4-1.1,0.5s-0.8,0.2-1.2,0.2c-0.4,0-0.8-0.1-1.2-0.2
	s-0.7-0.3-1.1-0.5c-0.3-0.2-0.6-0.4-0.8-0.6c-0.2-0.2-0.3-0.2-0.3-0.2s0.1,0.3,0.4,1c0.3,0.6,0.5,1.6,0.8,2.7
	c0.3,1.2,0.4,2.5,0.4,4.1c0,1.6-0.1,2.9-0.4,4.1c-0.3,1.2-0.5,2-0.8,2.7c-0.3,0.6-0.4,1-0.4,1s0.1-0.1,0.2-0.2
	c0.2-0.2,0.4-0.3,0.8-0.5c0.3-0.2,0.7-0.4,1.1-0.6c0.4-0.2,0.8-0.2,1.2-0.2c0.4,0,0.8,0.1,1.2,0.2c0.4,0.2,0.7,0.4,1.1,0.6
	c0.3,0.2,0.6,0.4,0.8,0.5C243.1,640.5,243.2,640.6,243.2,640.6z"/>
<path d="M137.3,571.4c2.6,0,4.7,0.1,6.5,0.4c1.8,0.2,3.2,0.4,4.3,0.7c-0.9,5.8-3.5,10.6-7.9,14.4c-4.3,3.8-9.4,5.7-15.2,5.7
	c-4.3,0-8.2-1-11.8-3.1c-3.5-2.1-6.3-4.9-8.5-8.5c-2.1-3.5-3.1-7.4-3.1-11.8c0-4.3,1-8.2,3.1-11.7c2.1-3.6,4.9-6.4,8.5-8.5
	c3.5-2.1,7.4-3.2,11.8-3.2c5.9,0,11,1.9,15.2,5.7c4.3,3.8,6.9,8.6,7.9,14.4c-1.1,0.3-2.5,0.5-4.3,0.8c-1.8,0.2-3.9,0.3-6.5,0.3
	c-2.3,0-4.3-0.1-5.9-0.2c-1.6-0.2-3-0.4-4.1-0.7c0.3-2.1,0.6-3.7,1.1-4.9c0.5-1.2,0.7-1.8,0.7-1.8s-0.1,0.1-0.4,0.3
	c-0.2,0.2-0.6,0.4-1,0.7c-0.4,0.2-0.8,0.5-1.3,0.7c-0.5,0.2-1,0.3-1.4,0.3c-0.5,0-1-0.1-1.5-0.3c-0.5-0.2-0.9-0.4-1.3-0.7
	c-0.4-0.3-0.7-0.5-1-0.7c-0.2-0.2-0.4-0.3-0.4-0.3s0.2,0.4,0.5,1.2s0.6,1.9,1,3.4c0.4,1.4,0.5,3.1,0.5,5.1c0,2-0.2,3.7-0.5,5.2
	c-0.3,1.4-0.6,2.6-1,3.4c-0.3,0.8-0.5,1.2-0.5,1.2s0.1-0.1,0.3-0.3c0.2-0.2,0.6-0.5,1-0.7s0.8-0.5,1.3-0.7c0.5-0.2,1-0.4,1.6-0.4
	c0.5,0,1,0.1,1.5,0.4c0.5,0.2,1,0.4,1.3,0.7c0.4,0.2,0.7,0.5,1,0.7c0.2,0.2,0.4,0.3,0.4,0.3s-0.2-0.6-0.7-1.8
	c-0.4-1.2-0.8-2.8-1.1-4.9c1.1-0.2,2.4-0.4,4.1-0.6C133,571.5,135,571.4,137.3,571.4z M183.2,547l10.6,45h-20.4c0,0,0,0,0-0.1
	c0-1.9,0.2-3.5,0.5-4.9c0.3-1.4,0.6-2.5,1-3.3c0.3-0.8,0.5-1.1,0.5-1.1s-0.1,0.1-0.4,0.3s-0.6,0.4-1,0.7c-0.4,0.2-0.8,0.5-1.3,0.7
	c-0.4,0.2-0.9,0.3-1.4,0.3c-0.5,0-1-0.1-1.4-0.3c-0.5-0.2-0.9-0.4-1.3-0.7c-0.4-0.2-0.7-0.5-0.9-0.7c-0.2-0.2-0.4-0.3-0.4-0.3
	s0.2,0.4,0.5,1.1c0.3,0.8,0.6,1.9,1,3.3c0.3,1.4,0.5,3,0.5,4.9c0,0,0,0.1,0,0.1h-20.4l10.6-45H183.2z M175.3,578.1
	c0,0-0.2-0.4-0.5-1.1c-0.3-0.8-0.6-1.8-1-3.2c-0.3-1.4-0.5-3.1-0.5-5c0-1.9,0.2-3.6,0.5-5c0.3-1.4,0.6-2.5,1-3.2
	c0.3-0.8,0.5-1.2,0.5-1.2s-0.1,0.1-0.4,0.3c-0.2,0.2-0.6,0.4-1,0.7c-0.4,0.2-0.8,0.5-1.3,0.7c-0.4,0.2-0.9,0.3-1.4,0.3
	c-0.5,0-1-0.1-1.4-0.3c-0.5-0.2-0.9-0.4-1.3-0.7c-0.4-0.2-0.7-0.5-0.9-0.7c-0.2-0.2-0.4-0.3-0.4-0.3s0.2,0.4,0.5,1.2
	c0.3,0.8,0.6,1.8,1,3.2c0.3,1.4,0.5,3.1,0.5,5c0,1.9-0.2,3.5-0.5,5c-0.3,1.4-0.6,2.5-1,3.2c-0.3,0.8-0.5,1.1-0.5,1.1
	s0.1-0.1,0.3-0.3c0.2-0.2,0.5-0.4,0.9-0.7c0.4-0.2,0.8-0.5,1.3-0.7c0.5-0.2,1-0.3,1.5-0.3c0.5,0,1,0.1,1.4,0.3
	c0.5,0.2,0.9,0.4,1.3,0.7c0.4,0.2,0.7,0.5,0.9,0.7C175.2,578,175.3,578.1,175.3,578.1z M242.5,576.5c0.2,3.6-0.6,6.6-2.4,8.9
	c-1.8,2.3-4.2,4-7.3,5c-3.1,1-6.5,1.6-10.2,1.6c-0.4,0-1.9,0-4.4,0c-2.5,0-5.4,0-8.5,0s-5.9,0-8.3,0c-2.3,0-3.6,0-3.8,0v-44.9h20.3
	c3.2,0,6,0.2,8.4,0.5c2.4,0.4,4.5,1,6.1,2c1.6,1,2.9,2.5,3.7,4.4c0.9,2.6,1,4.7,0.3,6.3c-0.7,1.6-1.7,2.9-3.1,3.8
	c-1.5-0.2-2.7-0.2-3.5,0.1c-0.9,0.2-1.5,0.5-1.8,1c3.2-0.1,6.4,0.6,9.4,2.2C240.3,569,242,572,242.5,576.5z M216.4,555.6
	c0.3,0.3,0.6,0.9,0.9,1.7c0.3,0.8,0.5,1.6,0.5,2.4c0,0.8-0.2,1.6-0.5,2.5c-0.3,0.8-0.6,1.4-1,1.7c0.4-0.2,1-0.4,1.7-0.7
	c0.7-0.2,1.4-0.4,2-0.4c0.7,0,1.4,0.1,2,0.4c0.7,0.2,1.2,0.5,1.7,0.7c-0.4-0.3-0.7-0.8-1-1.7c-0.3-0.9-0.4-1.7-0.4-2.5
	c0-0.8,0.1-1.6,0.4-2.4c0.3-0.9,0.6-1.5,1-1.7c-0.4,0.2-1,0.5-1.6,0.7c-0.6,0.2-1.3,0.3-2,0.3s-1.4-0.1-2.1-0.3
	C217.3,556.1,216.8,555.8,216.4,555.6z M224,578.9c0,0-0.2-0.2-0.5-0.6c-0.3-0.4-0.6-1-0.9-1.8c-0.3-0.8-0.5-1.7-0.5-2.7
	s0.2-1.9,0.5-2.7c0.3-0.8,0.6-1.3,0.9-1.7c0.3-0.4,0.5-0.7,0.5-0.7s-0.2,0.1-0.6,0.3c-0.4,0.2-0.8,0.3-1.4,0.5
	c-0.6,0.2-1.2,0.2-1.9,0.2c-0.7,0-1.3-0.1-1.9-0.2c-0.6-0.2-1.1-0.4-1.5-0.5c-0.4-0.2-0.6-0.3-0.6-0.3s0.2,0.2,0.5,0.7
	c0.3,0.4,0.6,1,1,1.7c0.3,0.8,0.5,1.7,0.5,2.7s-0.2,1.9-0.5,2.7c-0.3,0.8-0.6,1.4-1,1.8c-0.3,0.4-0.5,0.6-0.5,0.6s0.2-0.1,0.6-0.2
	c0.4-0.2,1-0.4,1.6-0.5c0.6-0.2,1.2-0.2,1.9-0.2s1.3,0.1,1.9,0.2c0.6,0.2,1.1,0.3,1.5,0.5C223.8,578.8,224,578.9,224,578.9z
	 M292.6,576.5c0.2,3.6-0.6,6.6-2.4,8.9c-1.8,2.3-4.2,4-7.3,5c-3.1,1-6.5,1.6-10.2,1.6c-0.4,0-1.9,0-4.4,0c-2.5,0-5.4,0-8.5,0
	c-3.2,0-5.9,0-8.3,0c-2.3,0-3.6,0-3.8,0v-44.9H268c3.2,0,6,0.2,8.4,0.5c2.4,0.4,4.5,1,6.1,2c1.6,1,2.9,2.5,3.7,4.4
	c0.9,2.6,1,4.7,0.3,6.3c-0.7,1.6-1.7,2.9-3.1,3.8c-1.5-0.2-2.7-0.2-3.5,0.1c-0.9,0.2-1.5,0.5-1.8,1c3.2-0.1,6.4,0.6,9.4,2.2
	C290.4,569,292.1,572,292.6,576.5z M266.5,555.6c0.3,0.3,0.6,0.9,0.9,1.7c0.3,0.8,0.5,1.6,0.5,2.4c0,0.8-0.2,1.6-0.5,2.5
	c-0.3,0.8-0.6,1.4-1,1.7c0.4-0.2,1-0.4,1.7-0.7c0.7-0.2,1.4-0.4,2-0.4s1.4,0.1,2,0.4c0.7,0.2,1.2,0.5,1.7,0.7
	c-0.4-0.3-0.7-0.8-1-1.7c-0.3-0.9-0.4-1.7-0.4-2.5c0-0.8,0.1-1.6,0.4-2.4c0.3-0.9,0.6-1.5,1-1.7c-0.4,0.2-1,0.5-1.6,0.7
	c-0.6,0.2-1.3,0.3-2,0.3s-1.4-0.1-2.1-0.3C267.4,556.1,266.9,555.8,266.5,555.6z M274.1,578.9c0,0-0.2-0.2-0.5-0.6
	c-0.3-0.4-0.6-1-0.9-1.8s-0.5-1.7-0.5-2.7s0.2-1.9,0.5-2.7s0.6-1.3,0.9-1.7c0.3-0.4,0.5-0.7,0.5-0.7s-0.2,0.1-0.6,0.3
	c-0.4,0.2-0.8,0.3-1.4,0.5c-0.6,0.2-1.2,0.2-1.9,0.2s-1.3-0.1-1.9-0.2c-0.6-0.2-1.1-0.4-1.5-0.5c-0.4-0.2-0.6-0.3-0.6-0.3
	s0.2,0.2,0.5,0.7c0.3,0.4,0.6,1,1,1.7c0.3,0.8,0.5,1.7,0.5,2.7s-0.2,1.9-0.5,2.7c-0.3,0.8-0.6,1.4-1,1.8c-0.3,0.4-0.5,0.6-0.5,0.6
	s0.2-0.1,0.6-0.2c0.4-0.2,1-0.4,1.6-0.5c0.6-0.2,1.2-0.2,1.9-0.2s1.3,0.1,1.9,0.2c0.6,0.2,1.1,0.3,1.5,0.5
	C273.9,578.8,274.1,578.9,274.1,578.9z M329,547l10.6,45h-20.4c0,0,0,0,0-0.1c0-1.9,0.2-3.5,0.5-4.9c0.3-1.4,0.6-2.5,1-3.3
	c0.3-0.8,0.5-1.1,0.5-1.1s-0.1,0.1-0.4,0.3c-0.2,0.2-0.6,0.4-1,0.7c-0.4,0.2-0.8,0.5-1.3,0.7c-0.4,0.2-0.9,0.3-1.4,0.3
	s-1-0.1-1.4-0.3s-0.9-0.4-1.3-0.7c-0.4-0.2-0.7-0.5-0.9-0.7c-0.2-0.2-0.4-0.3-0.4-0.3s0.2,0.4,0.5,1.1c0.3,0.8,0.6,1.9,1,3.3
	c0.3,1.4,0.5,3,0.5,4.9c0,0,0,0.1,0,0.1h-20.4l10.6-45H329z M321.1,578.1c0,0-0.2-0.4-0.5-1.1s-0.6-1.8-1-3.2
	c-0.3-1.4-0.5-3.1-0.5-5c0-1.9,0.2-3.6,0.5-5c0.3-1.4,0.6-2.5,1-3.2c0.3-0.8,0.5-1.2,0.5-1.2s-0.1,0.1-0.4,0.3
	c-0.2,0.2-0.6,0.4-1,0.7c-0.4,0.2-0.8,0.5-1.3,0.7c-0.4,0.2-0.9,0.3-1.4,0.3s-1-0.1-1.4-0.3s-0.9-0.4-1.3-0.7
	c-0.4-0.2-0.7-0.5-0.9-0.7c-0.2-0.2-0.4-0.3-0.4-0.3s0.2,0.4,0.5,1.2c0.3,0.8,0.6,1.8,1,3.2c0.3,1.4,0.5,3.1,0.5,5
	c0,1.9-0.2,3.5-0.5,5c-0.3,1.4-0.6,2.5-1,3.2s-0.5,1.1-0.5,1.1s0.1-0.1,0.3-0.3c0.2-0.2,0.5-0.4,0.9-0.7c0.4-0.2,0.8-0.5,1.3-0.7
	c0.5-0.2,1-0.3,1.5-0.3c0.5,0,1,0.1,1.4,0.3c0.5,0.2,0.9,0.4,1.3,0.7c0.4,0.2,0.7,0.5,0.9,0.7C320.9,578,321.1,578.1,321.1,578.1z
	 M377,569.3c4.7,1,8,2.1,9.8,3.1c0.1,0,0.2,0.1,0.3,0.1c-0.9,5.8-3.5,10.7-7.9,14.5c-4.3,3.8-9.4,5.7-15.2,5.7
	c-4.3,0-8.2-1-11.8-3.1c-3.5-2.1-6.3-4.9-8.5-8.5c-2.1-3.6-3.1-7.5-3.1-11.8c0-4.3,1-8.2,3.1-11.8c2.1-3.5,4.9-6.3,8.5-8.4
	c3.5-2.1,7.4-3.2,11.8-3.2c5.9,0,11,1.9,15.2,5.7c4.3,3.8,6.9,8.6,7.9,14.4c-1.1,0.3-2.5,0.5-4.3,0.8c-1.8,0.2-3.9,0.3-6.5,0.3
	c-2.3,0-4.3-0.1-5.9-0.2c-1.6-0.2-3-0.4-4.1-0.7c0.3-2.1,0.6-3.7,1.1-4.9c0.5-1.2,0.7-1.8,0.7-1.8s-0.1,0.1-0.4,0.3
	c-0.2,0.2-0.6,0.4-1,0.7c-0.4,0.2-0.8,0.5-1.3,0.7c-0.5,0.2-1,0.3-1.4,0.3s-1-0.1-1.5-0.3c-0.5-0.2-0.9-0.4-1.3-0.7
	c-0.4-0.3-0.7-0.5-1-0.7c-0.2-0.2-0.4-0.3-0.4-0.3s0.2,0.4,0.5,1.2c0.3,0.8,0.6,1.9,1,3.4c0.4,1.4,0.5,3.2,0.5,5.2
	c0,2-0.2,3.7-0.5,5.2c-0.3,1.4-0.6,2.6-1,3.4c-0.3,0.8-0.5,1.2-0.5,1.2s0.1-0.1,0.3-0.3c0.2-0.2,0.6-0.4,1-0.7
	c0.4-0.3,0.8-0.5,1.3-0.7c0.5-0.2,1-0.3,1.6-0.3s1,0.1,1.5,0.3c0.5,0.2,1,0.4,1.3,0.7c0.4,0.2,0.7,0.5,1,0.7
	c0.2,0.2,0.4,0.3,0.4,0.3s0-0.1-0.1-0.4c0-0.3-0.1-0.6-0.2-1c-0.1-0.4-0.4-0.8-0.7-1.2c-0.4-0.4-0.9-0.7-1.6-1
	c-0.7-0.3-1.6-0.5-2.6-0.6c0,0,0.1-0.3,0.2-0.8c0.2-0.6,0.3-1.3,0.5-2.2c0.2-0.9,0.2-1.9,0.2-3.1C368.4,568.3,372.8,568.5,377,569.3
	z M392.5,547.1h44.9v11c0,0-0.4,0.2-1.3,0.5c-0.8,0.3-2.2,0.6-4.1,1s-4.5,0.5-7.6,0.5c-3.1,0-5.6-0.2-7.6-0.5
	c-1.9-0.3-3.3-0.6-4.2-1c-0.8-0.3-1.3-0.5-1.3-0.5s0.1,0.1,0.3,0.4c0.2,0.2,0.4,0.5,0.7,0.9s0.5,0.8,0.7,1.3s0.3,1,0.3,1.5
	c0,0.5-0.1,1-0.3,1.4s-0.4,0.9-0.7,1.3c-0.2,0.4-0.5,0.7-0.7,0.9c-0.2,0.2-0.3,0.3-0.3,0.3s0.4-0.2,1.3-0.5c0.9-0.3,2.3-0.6,4.2-1
	c1.9-0.3,4.4-0.5,7.6-0.5c1.8,0,3.4,0.1,4.8,0.2c-0.2,0.2-0.5,0.8-0.9,1.7c-0.4,0.9-0.5,2.1-0.5,3.5s0.2,2.7,0.5,3.5
	c0.4,0.8,0.7,1.4,0.9,1.7c-1.4,0.1-3,0.2-4.8,0.2c-3.1,0-5.6-0.2-7.6-0.5c-1.9-0.3-3.3-0.6-4.2-1c-0.8-0.3-1.3-0.5-1.3-0.5
	s0.1,0.1,0.3,0.4c0.2,0.2,0.4,0.5,0.7,0.9c0.2,0.4,0.5,0.8,0.7,1.3s0.3,1,0.3,1.5c0,0.5-0.1,1-0.3,1.4s-0.4,0.9-0.7,1.3
	c-0.2,0.4-0.5,0.7-0.7,0.9c-0.2,0.2-0.3,0.3-0.3,0.3s0.4-0.2,1.3-0.5c0.9-0.3,2.3-0.6,4.2-1c1.9-0.3,4.4-0.5,7.6-0.5
	c3.2,0,5.7,0.2,7.6,0.5s3.3,0.6,4.1,1c0.9,0.3,1.3,0.5,1.3,0.5v11h-44.9V547.1z"/>
<path class="st1" d="M81.8,310.4l-9.5-6L68.7,315l-3.4-10.7l-9.6,5.9l4.3-10.3l-11.2-1.6l10-5.1l-7.5-8.4l11,2.4L62,276l6.9,8.9
	l7-8.8l-0.5,11.2l11.1-2.3l-7.7,8.2l10,5.3L77.6,300L81.8,310.4z"/>
<path class="st1" d="M81.8,449.4l-9.5-6L68.7,454l-3.4-10.7l-9.6,5.9l4.3-10.3l-11.2-1.6l10-5.1l-7.5-8.4l11,2.4L62,415l6.9,8.9
	l7-8.8l-0.5,11.2l11.1-2.3l-7.7,8.2l10,5.3L77.6,439L81.8,449.4z"/>
<path class="st1" d="M81.8,588.4l-9.5-6L68.7,593l-3.4-10.7l-9.6,5.9l4.3-10.3l-11.2-1.6l10-5.1l-7.5-8.4l11,2.4L62,554l6.9,8.9
	l7-8.8l-0.5,11.2l11.1-2.3l-7.7,8.2l10,5.3L77.6,578L81.8,588.4z"/>
<path d="M132.1,413.1h20.4V458h-20.4c0-3.4,0.2-6.3,0.5-8.9c0.3-2.6,0.6-4.6,1-6s0.5-2.2,0.5-2.2s-0.1,0.1-0.4,0.3
	c-0.2,0.2-0.5,0.4-0.9,0.7c-0.4,0.2-0.8,0.5-1.3,0.7c-0.5,0.2-1,0.3-1.5,0.3c-0.5,0-1-0.1-1.4-0.3c-0.5-0.2-0.9-0.4-1.3-0.7
	c-0.4-0.3-0.7-0.5-0.9-0.7c-0.2-0.2-0.3-0.3-0.3-0.3s0.2,0.7,0.5,2.2s0.6,3.4,1,6s0.5,5.5,0.5,8.9h-20.4v-44.9H128
	c0,3.4-0.2,6.3-0.5,8.9c-0.3,2.6-0.6,4.6-1,6s-0.5,2.2-0.5,2.2s0.1-0.1,0.3-0.3c0.2-0.2,0.5-0.4,0.9-0.7c0.4-0.2,0.8-0.5,1.3-0.7
	c0.5-0.2,1-0.3,1.4-0.3c0.5,0,1,0.1,1.5,0.3c0.5,0.2,0.9,0.4,1.3,0.7c0.4,0.2,0.7,0.5,0.9,0.7c0.2,0.2,0.4,0.3,0.4,0.3
	s-0.2-0.7-0.5-2.2s-0.6-3.4-1-6C132.3,419.4,132.1,416.4,132.1,413.1z M215.2,413.1h7.3v22.4V458h-16.9h-1.4c0,0,0,0,0-0.1h0.2
	c0,0-0.1-0.4-0.2-1.1c-0.1-0.7-0.2-2-0.2-3.7c0-1.8,0.1-4.3,0.4-7.4c0.5-4.4,1.4-7.9,2.5-10.3c1.2-2.4,1.7-3.7,1.7-3.7
	s-0.1,0.1-0.4,0.3c-0.2,0.2-0.5,0.4-0.9,0.7c-0.4,0.2-0.8,0.5-1.3,0.7c-0.5,0.2-1,0.2-1.5,0.2c-0.5,0-1-0.1-1.4-0.2
	c-0.5-0.2-0.9-0.4-1.3-0.7c-0.4-0.3-0.7-0.5-0.9-0.7c-0.2-0.2-0.3-0.3-0.3-0.3s0.1,0.6,0.4,1.9c0.3,1.2,0.5,2.9,0.6,5.2
	c0.1,2.2-0.2,4.8-0.8,7.9c-0.4,1.6-0.7,2.9-1.1,4.1c-1-0.2-2.2-0.4-3.5-0.5c-1.3-0.1-2.4-0.2-3.1-0.2c-0.7,0-1.7,0.1-3.1,0.2
	c-1.3,0.1-2.5,0.3-3.5,0.5c-0.3-1.2-0.7-2.5-1-4.1c-0.6-3.1-0.9-5.7-0.8-7.9c0.1-2.2,0.3-4,0.5-5.2c0.3-1.2,0.5-1.9,0.5-1.9
	s-0.1,0.1-0.4,0.3c-0.2,0.2-0.5,0.4-0.9,0.7c-0.4,0.2-0.8,0.5-1.3,0.7c-0.5,0.2-1,0.2-1.4,0.2c-0.5,0-1-0.1-1.5-0.2
	c-0.5-0.2-0.9-0.4-1.3-0.7c-0.4-0.3-0.7-0.5-0.9-0.7c-0.2-0.2-0.3-0.3-0.3-0.3s0.6,1.2,1.7,3.7c1.2,2.4,2,5.8,2.5,10.3
	c0.3,3.1,0.4,5.6,0.4,7.4c0,1.8-0.1,3-0.3,3.7c-0.1,0.7-0.2,1.1-0.2,1.1h0.2c0,0,0,0.1-0.1,0.1h-1.4h-16.9v-22.5v-22.4h7.3h9.6h4.6
	c2.4,1.4,4.2,3.3,5.5,5.7c1.3,2.3,2.2,4.2,2.5,5.6c0.4-1.4,1.2-3.3,2.5-5.6c1.3-2.4,3.1-4.3,5.5-5.7h4.6H215.2z M265.5,445.1
	c2.2,0,4,0.1,5.6,0.3V458h-37.5v-44.9h20.7c0,8.2-0.2,14.7-0.5,19.7c-0.3,5-0.6,8.6-0.9,10.9c-0.3,2.2-0.4,3.4-0.4,3.4
	s0.4-0.2,1.3-0.5c0.9-0.3,2.3-0.6,4.2-1C259.9,445.3,262.4,445.1,265.5,445.1z M277.5,458L277.5,458c0-0.3,0-1.6,0.1-4
	c0-2.6,0.1-5.8,0.2-9.4c0.2-3.6,0.5-9.2,0.9-16.6c1.4-1,2.3-2,2.8-2.8c0.3-0.6,0.5-0.9,0.7-1.1c0,0,0-0.1,0.1-0.1V424h-0.1l-0.1,0.1
	c-0.2,0-0.8,0.2-1.6,0.4c-1.2,0.4-3,0.7-5.5,1.1c-2.5,0.3-5.8,0.5-9.8,0.5v-13h44.5v13c-4,0-7.3-0.2-9.8-0.5
	c-2.5-0.4-4.4-0.7-5.5-1.1c-0.8-0.2-1.4-0.4-1.6-0.4l-0.1-0.1v0.1c0.1,0.2,0.4,0.5,0.7,1.1c0.5,0.8,1.4,1.7,2.8,2.8
	c0.4,7.4,0.7,13,0.8,16.6c0.2,3.6,0.3,6.7,0.4,9.4c0,2.4,0.1,3.7,0.1,4v0.1H277.5z M337.8,413c4.2,0,7.9,1,11.3,3.1
	c3.4,2,6.1,4.8,8.1,8.2c2,3.4,3.1,7.2,3.1,11.3c0,4.2-1,7.9-3.1,11.3c-2,3.4-4.7,6.1-8.1,8.2c-3.4,2-7.2,3-11.3,3h-22.4v-45H337.8z
	 M341.8,444.9c0,0-0.2-0.4-0.5-1.1s-0.6-1.8-1-3.2c-0.3-1.4-0.5-3.1-0.5-5s0.2-3.6,0.5-5c0.3-1.4,0.6-2.5,1-3.2s0.5-1.1,0.5-1.1
	s-0.1,0.1-0.4,0.3c-0.2,0.2-0.6,0.4-1,0.7c-0.4,0.2-0.8,0.5-1.3,0.7c-0.5,0.2-1,0.2-1.4,0.2c-0.4,0-0.9-0.1-1.4-0.2
	c-0.5-0.2-0.9-0.4-1.3-0.7c-0.4-0.3-0.7-0.5-0.9-0.7c-0.2-0.2-0.4-0.3-0.4-0.3s0.2,0.4,0.5,1.1c0.3,0.8,0.6,1.8,1,3.2
	c0.3,1.4,0.5,3.1,0.5,5s-0.2,3.6-0.5,5c-0.3,1.4-0.6,2.5-1,3.2c-0.3,0.8-0.5,1.1-0.5,1.1s0.1-0.1,0.3-0.2c0.2-0.2,0.5-0.4,0.9-0.7
	c0.4-0.3,0.8-0.5,1.3-0.7c0.5-0.2,1-0.3,1.4-0.3c0.5,0,1,0.1,1.5,0.3c0.5,0.2,0.9,0.4,1.3,0.7c0.4,0.2,0.7,0.5,0.9,0.7
	C341.7,444.8,341.8,444.9,341.8,444.9z"/>
<rect x="78.8" y="15" class="st2" width="25" height="29"/>
<line class="st2" x1="43.6" y1="18.2" x2="71.4" y2="43.2"/>
<line class="st2" x1="71.1" y1="18.2" x2="43.3" y2="43.2"/>
<path class="st3" d="M152,20.1v10.9h10.2V20.1h3.6V45h-3.6V34.2H152V45h-3.6V20.1H152z M178.8,45.5c-2.4,0-4.3-0.7-5.8-2.1
	c-1.4-1.4-2.2-3.2-2.2-5.5v-4.4c0-2.3,0.7-4.2,2.2-5.6c1.4-1.4,3.4-2.1,5.8-2.1c2.4,0,4.4,0.7,5.8,2.1c1.5,1.4,2.2,3.3,2.2,5.6v4.4
	c0,2.3-0.7,4.2-2.2,5.5C183.2,44.8,181.2,45.5,178.8,45.5z M178.9,42.2c1.4,0,2.5-0.4,3.3-1.2c0.8-0.8,1.3-1.9,1.3-3.3v-4.3
	c0-1.4-0.4-2.5-1.2-3.3c-0.8-0.8-1.9-1.2-3.3-1.2c-1.4,0-2.5,0.4-3.3,1.2c-0.8,0.8-1.2,1.9-1.2,3.3v4.3c0,1.4,0.4,2.5,1.2,3.3
	C176.3,41.8,177.5,42.2,178.9,42.2z M211.3,25.7c2.2,0,3.9,0.6,5.2,1.9c1.3,1.3,1.9,3.1,1.9,5.4v12H215V33.3c0-1.3-0.4-2.4-1.1-3.2
	c-0.7-0.8-1.7-1.2-3-1.2c-0.9,0-1.7,0.2-2.5,0.6s-1.4,1-1.8,1.7c0.1,0.5,0.2,1.1,0.2,1.8v12h-3.4V33.3c0-1.3-0.4-2.4-1.1-3.2
	c-0.7-0.8-1.7-1.2-3-1.2c-0.9,0-1.7,0.2-2.4,0.6c-0.7,0.4-1.3,0.9-1.7,1.6V45h-3.4V26.2h3.1l0.1,1.5c1.3-1.3,3.1-1.9,5.1-1.9
	c1.2,0,2.2,0.2,3.2,0.7c0.9,0.4,1.7,1.1,2.3,1.9c0.7-0.8,1.5-1.5,2.5-1.9C208.9,25.9,210.1,25.7,211.3,25.7z M226.4,36.8v0.9
	c0,1.4,0.4,2.5,1.2,3.3c0.8,0.8,2,1.2,3.4,1.2c1.2,0,2.2-0.3,3-0.9c0.8-0.6,1.3-1.4,1.3-2.2h3.4c-0.1,1.9-0.9,3.4-2.3,4.6
	c-1.4,1.2-3.2,1.7-5.5,1.7c-2.4,0-4.4-0.7-5.9-2.1c-1.5-1.4-2.2-3.2-2.2-5.5v-4.5c0-1.5,0.3-2.9,1-4c0.7-1.2,1.6-2.1,2.8-2.7
	c1.2-0.6,2.6-1,4.2-1c2.4,0,4.3,0.7,5.7,2.1c1.4,1.4,2.1,3.2,2.1,5.5v3.5H226.4z M231,28.9c-1.4,0-2.5,0.4-3.3,1.3
	c-0.8,0.8-1.2,1.9-1.2,3.3V34h9v-0.5c0-1.4-0.4-2.5-1.2-3.3C233.4,29.3,232.3,28.9,231,28.9z M265,20.1c2.4,0,4.3,0.6,5.7,1.9
	c1.4,1.2,2.1,3,2.1,5.1v0.6c0,2.2-0.7,3.9-2.1,5.2c-1.4,1.2-3.3,1.9-5.7,1.9h-6.3V45h-3.6V20.1H265z M264.9,31.5
	c1.4,0,2.5-0.3,3.2-1c0.7-0.7,1.1-1.6,1.1-2.8v-0.6c0-1.2-0.4-2.2-1.1-2.8c-0.7-0.7-1.8-1-3.2-1h-6.3v8.2H264.9z M292.1,26.2V45H289
	l-0.2-1.7c-1.4,1.4-3.1,2.2-5.3,2.2c-2.1,0-3.8-0.7-5.1-2c-1.2-1.3-1.9-3.1-1.9-5.4V26.2h3.5v11.7c0,1.3,0.4,2.4,1.1,3.2
	c0.7,0.8,1.7,1.2,3,1.2c1,0,1.9-0.2,2.7-0.6c0.8-0.5,1.4-1.1,1.8-1.8V26.2H292.1z M306.2,25.7c2.1,0,3.8,0.7,5.1,2
	c1.2,1.3,1.9,3.1,1.9,5.4v12h-3.5V33.3c0-1.3-0.4-2.4-1.1-3.2c-0.7-0.8-1.7-1.2-3-1.2c-1,0-1.9,0.2-2.7,0.7c-0.8,0.4-1.4,1-1.8,1.8
	V45h-3.4V26.2h3.1l0.2,1.7C302.3,26.4,304,25.7,306.2,25.7z M334.8,44.5V45h-3.6l-5.8-8.3l-3.4,3.7V45h-3.4V18.6h3.4v17l8.8-9.3h3.8
	v0.5l-6.8,7.4L334.8,44.5z"/>
<line class="st2" x1="111.8" y1="43" x2="138.8" y2="43"/>
</svg>
