<svg width="414" height="526" viewBox="0 0 414 526" fill="none" xmlns="http://www.w3.org/2000/svg">
<path d="M223.114 202.528L30.2228 50.6095L416.269 50.9449L223.114 202.528Z" fill="#FF029C"/>
<path d="M229.897 361.516L37.0174 196.504L423.064 196.84L229.897 361.516Z" fill="#FF029C"/>
<path d="M229.884 525.519L37.0037 360.507L423.05 360.843L229.884 525.519Z" fill="#FF029C"/>
<path d="M28 0H414V54H28V0Z" fill="#141313"/>
<rect x="78" y="15" width="28" height="29" stroke="white" stroke-width="2"/>
<line x1="40.6402" y1="18.2318" x2="70.6402" y2="43.2318" stroke="white" stroke-width="2"/>
<line y1="-1" x2="39.0513" y2="-1" transform="matrix(-0.768221 0.640184 0.640184 0.768221 71 19)" stroke="white" stroke-width="2"/>
<path d="M157.232 20.072V30.94H167.416V20.072H170.988V45H167.416V34.17H157.232V45H153.66V20.072H157.232ZM184.011 45.456C181.604 45.456 179.679 44.7593 178.235 43.366C176.791 41.9727 176.069 40.1233 176.069 37.818V33.372C176.069 31.0413 176.791 29.1793 178.235 27.786C179.679 26.3927 181.604 25.696 184.011 25.696C186.443 25.696 188.381 26.3927 189.825 27.786C191.294 29.1793 192.029 31.0413 192.029 33.372V37.818C192.029 40.1233 191.294 41.9727 189.825 43.366C188.381 44.7593 186.443 45.456 184.011 45.456ZM184.049 42.226C185.442 42.226 186.544 41.8207 187.355 41.01C188.191 40.1993 188.609 39.11 188.609 37.742V33.486C188.609 32.0673 188.203 30.9527 187.393 30.142C186.582 29.3313 185.467 28.926 184.049 28.926C182.655 28.926 181.541 29.3313 180.705 30.142C179.894 30.9527 179.489 32.0673 179.489 33.486V37.742C179.489 39.1353 179.894 40.2373 180.705 41.048C181.541 41.8333 182.655 42.226 184.049 42.226ZM216.523 25.696C218.727 25.696 220.449 26.342 221.691 27.634C222.957 28.926 223.591 30.7247 223.591 33.03V45H220.171V33.296C220.171 31.9533 219.791 30.8893 219.031 30.104C218.296 29.3187 217.308 28.926 216.067 28.926C215.18 28.926 214.357 29.1287 213.597 29.534C212.837 29.9393 212.229 30.4967 211.773 31.206C211.874 31.7127 211.925 32.3207 211.925 33.03V45H208.505V33.296C208.505 31.9533 208.125 30.8893 207.365 30.104C206.63 29.3187 205.642 28.926 204.401 28.926C203.539 28.926 202.741 29.116 202.007 29.496C201.297 29.876 200.715 30.3953 200.259 31.054V45H196.839V26.152H199.917L200.031 27.634C201.373 26.342 203.083 25.696 205.161 25.696C206.326 25.696 207.377 25.924 208.315 26.38C209.252 26.8107 210.012 27.444 210.595 28.28C211.279 27.444 212.115 26.8107 213.103 26.38C214.116 25.924 215.256 25.696 216.523 25.696ZM231.617 36.83V37.742C231.617 39.1607 232.022 40.2753 232.833 41.086C233.669 41.8713 234.809 42.264 236.253 42.264C237.469 42.264 238.482 41.96 239.293 41.352C240.129 40.744 240.56 39.9967 240.585 39.11H244.005C243.904 40.9847 243.144 42.5173 241.725 43.708C240.306 44.8733 238.482 45.456 236.253 45.456C233.821 45.456 231.87 44.772 230.401 43.404C228.932 42.0107 228.197 40.1613 228.197 37.856V33.334C228.197 31.814 228.526 30.484 229.185 29.344C229.844 28.1787 230.781 27.2793 231.997 26.646C233.213 26.0127 234.606 25.696 236.177 25.696C238.558 25.696 240.458 26.3927 241.877 27.786C243.296 29.1793 244.005 31.016 244.005 33.296V36.83H231.617ZM236.177 28.888C234.784 28.888 233.669 29.306 232.833 30.142C232.022 30.9527 231.617 32.0547 231.617 33.448V33.98H240.585V33.448C240.585 32.0547 240.18 30.9527 239.369 30.142C238.584 29.306 237.52 28.888 236.177 28.888ZM270.223 20.072C272.63 20.072 274.53 20.7053 275.923 21.972C277.316 23.2133 278.013 24.9233 278.013 27.102V27.672C278.013 29.8507 277.316 31.5733 275.923 32.84C274.53 34.0813 272.63 34.702 270.223 34.702H263.877V45H260.305V20.072H270.223ZM270.147 31.51C271.566 31.51 272.642 31.1807 273.377 30.522C274.112 29.8633 274.479 28.9133 274.479 27.672V27.102C274.479 25.886 274.099 24.9487 273.339 24.29C272.604 23.6313 271.54 23.302 270.147 23.302H263.877V31.51H270.147ZM297.263 26.152V45H294.185L294.033 43.29C292.665 44.734 290.892 45.456 288.713 45.456C286.585 45.456 284.901 44.7973 283.659 43.48C282.418 42.1627 281.797 40.364 281.797 38.084V26.152H285.255V37.818C285.255 39.1607 285.623 40.2373 286.357 41.048C287.092 41.8333 288.093 42.226 289.359 42.226C290.347 42.226 291.234 42.0107 292.019 41.58C292.805 41.124 293.413 40.516 293.843 39.756V26.152H297.263ZM311.405 25.696C313.533 25.696 315.218 26.3547 316.459 27.672C317.701 28.9893 318.321 30.7753 318.321 33.03V45H314.863V33.296C314.863 31.9533 314.483 30.8893 313.723 30.104C312.989 29.3187 312.001 28.926 310.759 28.926C309.771 28.926 308.885 29.154 308.099 29.61C307.314 30.0407 306.706 30.636 306.275 31.396V45H302.855V26.152H305.933L306.085 27.862C307.453 26.418 309.227 25.696 311.405 25.696ZM340.025 44.468V45H336.377L330.601 36.678L327.181 40.402V45H323.761V18.552H327.181V35.538L335.959 26.19H339.721V26.722L332.881 34.17L340.025 44.468Z" fill="white"/>
<line x1="114" y1="43" x2="143" y2="43" stroke="white" stroke-width="2"/>
</svg>
