<svg width="701" height="270" viewBox="0 0 701 270" fill="none" xmlns="http://www.w3.org/2000/svg">
<rect x="408" y="270" width="270" height="293" transform="rotate(-90 408 270)" fill="#FF029C"/>
<path d="M664 138C664 81.6669 616.766 36 558.5 36C500.234 36 453 81.6669 453 138C453 194.333 500.234 240 558.5 240C616.766 240 664 194.333 664 138Z" fill="white"/>
<rect y="270" width="270" height="272" transform="rotate(-90 0 270)" fill="#FF029C"/>
<path d="M244 138C244 81.6669 196.766 36 138.5 36C80.234 36 33 81.6669 33 138C33 194.333 80.234 240 138.5 240C196.766 240 244 194.333 244 138Z" fill="white"/>
<rect x="272" width="45" height="45" fill="white"/>
<rect x="317" y="45" width="45" height="45" fill="white"/>
<rect x="317" y="225" width="45" height="45" fill="white"/>
<rect x="362" y="180" width="46" height="45" fill="white"/>
<rect x="272" y="180" width="45" height="45" fill="white"/>
<rect x="317" y="135" width="45" height="45" fill="white"/>
<rect x="362" width="46" height="45" fill="white"/>
<rect x="272" y="90" width="45" height="45" fill="white"/>
<rect x="362" y="90" width="46" height="45" fill="white"/>
</svg>
