<svg width="522" height="354" viewBox="0 0 522 354" fill="none" xmlns="http://www.w3.org/2000/svg">
<rect width="522" height="354" fill="#FF029C"/>
<path d="M38.0005 58C45.1802 58 51.0005 52.4036 51.0005 45.5C51.0005 38.5964 45.1802 33 38.0005 33C30.8208 33 25.0005 38.5964 25.0005 45.5C25.0005 52.4036 30.8208 58 38.0005 58Z" fill="#12100B" stroke="#12100B" stroke-miterlimit="10"/>
<path d="M50.5005 83C72.868 83 91.0005 65.0914 91.0005 43C91.0005 20.9086 72.868 3 50.5005 3C28.133 3 10.0005 20.9086 10.0005 43C10.0005 65.0914 28.133 83 50.5005 83Z" fill="white"/>
<path d="M38.0005 141C45.1802 141 51.0005 135.404 51.0005 128.5C51.0005 121.596 45.1802 116 38.0005 116C30.8208 116 25.0005 121.596 25.0005 128.5C25.0005 135.404 30.8208 141 38.0005 141Z" fill="#12100B" stroke="#12100B" stroke-miterlimit="10"/>
<path d="M50.5005 167C72.868 167 91.0005 149.091 91.0005 127C91.0005 104.909 72.868 87 50.5005 87C28.133 87 10.0005 104.909 10.0005 127C10.0005 149.091 28.133 167 50.5005 167Z" fill="white"/>
<path d="M48.5005 250C70.868 250 89.0005 232.315 89.0005 210.5C89.0005 188.685 70.868 171 48.5005 171C26.133 171 8.00049 188.685 8.00049 210.5C8.00049 232.315 26.133 250 48.5005 250Z" fill="white"/>
<path d="M50.0005 334C72.6442 334 91.0005 316.091 91.0005 294C91.0005 271.909 72.6442 254 50.0005 254C27.3568 254 9.00049 271.909 9.00049 294C9.00049 316.091 27.3568 334 50.0005 334Z" fill="white"/>
<path d="M134 85C156.644 85 175 67.0914 175 45C175 22.9086 156.644 5 134 5C111.357 5 93.0005 22.9086 93.0005 45C93.0005 67.0914 111.357 85 134 85Z" fill="white"/>
<path d="M134 169C156.644 169 175 151.091 175 129C175 106.909 156.644 89 134 89C111.357 89 93.0005 106.909 93.0005 129C93.0005 151.091 111.357 169 134 169Z" fill="white"/>
<path d="M132 252C154.644 252 173 234.315 173 212.5C173 190.685 154.644 173 132 173C109.357 173 91.0005 190.685 91.0005 212.5C91.0005 234.315 109.357 252 132 252Z" fill="white"/>
<path d="M200 229C207.18 229 213 223.404 213 216.5C213 209.596 207.18 204 200 204C192.821 204 187 209.596 187 216.5C187 223.404 192.821 229 200 229Z" fill="#12100B" stroke="#12100B" stroke-miterlimit="10"/>
<path d="M134 336C156.644 336 175 318.091 175 296C175 273.909 156.644 256 134 256C111.357 256 93.0005 273.909 93.0005 296C93.0005 318.091 111.357 336 134 336Z" fill="white"/>
<path d="M201.501 313C208.404 313 214 307.404 214 300.5C214 293.596 208.404 288 201.501 288C194.597 288 189 293.596 189 300.5C189 307.404 194.597 313 201.501 313Z" fill="#231F20" stroke="#12100B" stroke-miterlimit="10"/>
<path d="M202.001 64C209.18 64 215 58.4036 215 51.5C215 44.5964 209.18 39 202.001 39C194.821 39 189 44.5964 189 51.5C189 58.4036 194.821 64 202.001 64Z" fill="#12100B" stroke="#12100B" stroke-miterlimit="10"/>
<path d="M221 83C243.644 83 262 65.0914 262 43C262 20.9086 243.644 3 221 3C198.357 3 180 20.9086 180 43C180 65.0914 198.357 83 221 83Z" fill="white"/>
<path d="M306.5 83C328.868 83 347 65.0914 347 43C347 20.9086 328.868 3 306.5 3C284.133 3 266 20.9086 266 43C266 65.0914 284.133 83 306.5 83Z" fill="white"/>
<path d="M221 167C243.644 167 262 149.091 262 127C262 104.909 243.644 87 221 87C198.357 87 180 104.909 180 127C180 149.091 198.357 167 221 167Z" fill="white"/>
<path d="M306.5 167C328.868 167 347 149.091 347 127C347 104.909 328.868 87 306.5 87C284.133 87 266 104.909 266 127C266 149.091 284.133 167 306.5 167Z" fill="white"/>
<path d="M219 250C241.644 250 260 232.315 260 210.5C260 188.685 241.644 171 219 171C196.357 171 178 188.685 178 210.5C178 232.315 196.357 250 219 250Z" fill="white"/>
<path d="M304.5 250C326.868 250 345 232.315 345 210.5C345 188.685 326.868 171 304.5 171C282.133 171 264 188.685 264 210.5C264 232.315 282.133 250 304.5 250Z" fill="white"/>
<path d="M220.5 334C242.868 334 261 316.091 261 294C261 271.909 242.868 254 220.5 254C198.133 254 180 271.909 180 294C180 316.091 198.133 334 220.5 334Z" fill="white"/>
<path d="M306 334C328.644 334 347 316.091 347 294C347 271.909 328.644 254 306 254C283.357 254 265 271.909 265 294C265 316.091 283.357 334 306 334Z" fill="white"/>
<path d="M390 85C412.644 85 431 67.0914 431 45C431 22.9086 412.644 5 390 5C367.357 5 349 22.9086 349 45C349 67.0914 367.357 85 390 85Z" fill="white"/>
<path d="M476 85C498.644 85 517 67.0914 517 45C517 22.9086 498.644 5 476 5C453.357 5 435 22.9086 435 45C435 67.0914 453.357 85 476 85Z" fill="white"/>
<path d="M390 169C412.644 169 431 151.091 431 129C431 106.909 412.644 89 390 89C367.357 89 349 106.909 349 129C349 151.091 367.357 169 390 169Z" fill="white"/>
<path d="M476 169C498.644 169 517 151.091 517 129C517 106.909 498.644 89 476 89C453.357 89 435 106.909 435 129C435 151.091 453.357 169 476 169Z" fill="white"/>
<path d="M388 252C410.644 252 429 234.315 429 212.5C429 190.685 410.644 173 388 173C365.357 173 347 190.685 347 212.5C347 234.315 365.357 252 388 252Z" fill="white"/>
<path d="M474 252C496.644 252 515 234.315 515 212.5C515 190.685 496.644 173 474 173C451.357 173 433 190.685 433 212.5C433 234.315 451.357 252 474 252Z" fill="white"/>
<path d="M390 336C412.644 336 431 318.091 431 296C431 273.909 412.644 256 390 256C367.357 256 349 273.909 349 296C349 318.091 367.357 336 390 336Z" fill="white"/>
<path d="M475.5 336C497.868 336 516 318.091 516 296C516 273.909 497.868 256 475.5 256C453.133 256 435 273.909 435 296C435 318.091 453.133 336 475.5 336Z" fill="white"/>
</svg>
