<?xml version="1.0" encoding="utf-8"?>
<!-- Generator: Adobe Illustrator 24.3.0, SVG Export Plug-In . SVG Version: 6.00 Build 0)  -->
<svg version="1.1" id="Layer_1" xmlns="http://www.w3.org/2000/svg" xmlns:xlink="http://www.w3.org/1999/xlink" x="0px" y="0px"
	 viewBox="0 0 414 526" style="enable-background:new 0 0 414 526;" xml:space="preserve">
<style type="text/css">
	.st0{fill:#FF029C;}
	.st1{fill:#141313;}
	.st2{fill:none;stroke:#FFFFFF;stroke-width:2;}
	.st3{fill:none;stroke:#FFFFFF;stroke-width:2;stroke-miterlimit:4;}
	.st4{fill:#FFFFFF;}
</style>
<g>
	<path class="st0" d="M206.25,135.6L77.1,33.88l258.46,0.22L206.25,135.6z"/>
	<path class="st1" d="M76.46-2h258.43v36.15H76.46V-2z"/>
	<rect x="109.94" y="10.04" class="st2" width="18.75" height="19.42"/>
	<line class="st2" x1="84.92" y1="12.21" x2="105.01" y2="28.94"/>
	<line class="st3" x1="104.82" y1="12.21" x2="84.73" y2="28.94"/>
	<path class="st4" d="M162.98,13.44v7.28h6.82v-7.28h2.39v16.69h-2.39v-7.25h-6.82v7.25h-2.39V13.44H162.98z M180.91,30.43
		c-1.61,0-2.9-0.47-3.87-1.4c-0.97-0.93-1.45-2.17-1.45-3.71v-2.98c0-1.56,0.48-2.81,1.45-3.74c0.97-0.93,2.26-1.4,3.87-1.4
		c1.63,0,2.93,0.47,3.89,1.4c0.98,0.93,1.48,2.18,1.48,3.74v2.98c0,1.54-0.49,2.78-1.48,3.71
		C183.84,29.97,182.54,30.43,180.91,30.43z M180.94,28.27c0.93,0,1.67-0.27,2.21-0.81c0.56-0.54,0.84-1.27,0.84-2.19v-2.85
		c0-0.95-0.27-1.7-0.81-2.24c-0.54-0.54-1.29-0.81-2.24-0.81c-0.93,0-1.68,0.27-2.24,0.81c-0.54,0.54-0.81,1.29-0.81,2.24v2.85
		c0,0.93,0.27,1.67,0.81,2.21C179.26,28.01,180,28.27,180.94,28.27z M202.68,17.2c1.48,0,2.63,0.43,3.46,1.3
		c0.85,0.87,1.27,2.07,1.27,3.61v8.01h-2.29v-7.84c0-0.9-0.25-1.61-0.76-2.14c-0.49-0.53-1.15-0.79-1.98-0.79
		c-0.59,0-1.14,0.14-1.65,0.41c-0.51,0.27-0.92,0.64-1.22,1.12c0.07,0.34,0.1,0.75,0.1,1.22v8.01h-2.29v-7.84
		c0-0.9-0.25-1.61-0.76-2.14c-0.49-0.53-1.15-0.79-1.98-0.79c-0.58,0-1.11,0.13-1.6,0.38c-0.48,0.25-0.87,0.6-1.17,1.04v9.34h-2.29
		V17.51h2.06l0.08,0.99c0.9-0.87,2.04-1.3,3.43-1.3c0.78,0,1.48,0.15,2.11,0.46c0.63,0.29,1.14,0.71,1.53,1.27
		c0.46-0.56,1.02-0.98,1.68-1.27C201.07,17.36,201.83,17.2,202.68,17.2z M212.78,24.66v0.61c0,0.95,0.27,1.7,0.81,2.24
		c0.56,0.53,1.32,0.79,2.29,0.79c0.81,0,1.49-0.2,2.04-0.61c0.56-0.41,0.85-0.91,0.87-1.5h2.29c-0.07,1.26-0.58,2.28-1.53,3.08
		c-0.95,0.78-2.17,1.17-3.66,1.17c-1.63,0-2.93-0.46-3.92-1.37c-0.98-0.93-1.48-2.17-1.48-3.71v-3.03c0-1.02,0.22-1.91,0.66-2.67
		c0.44-0.78,1.07-1.38,1.88-1.81c0.81-0.42,1.75-0.64,2.8-0.64c1.59,0,2.87,0.47,3.82,1.4s1.42,2.16,1.42,3.69v2.37H212.78z
		 M215.84,19.34c-0.93,0-1.68,0.28-2.24,0.84c-0.54,0.54-0.81,1.28-0.81,2.21v0.36h6v-0.36c0-0.93-0.27-1.67-0.81-2.21
		C217.45,19.62,216.74,19.34,215.84,19.34z M238.63,13.44c1.61,0,2.88,0.42,3.82,1.27c0.93,0.83,1.4,1.98,1.4,3.43v0.38
		c0,1.46-0.47,2.61-1.4,3.46c-0.93,0.83-2.2,1.25-3.82,1.25h-4.25v6.89h-2.39V13.44H238.63z M238.58,21.1
		c0.95,0,1.67-0.22,2.16-0.66c0.49-0.44,0.74-1.08,0.74-1.91v-0.38c0-0.81-0.25-1.44-0.76-1.88c-0.49-0.44-1.2-0.66-2.14-0.66h-4.2
		v5.5H238.58z M256.74,17.51v12.62h-2.06l-0.1-1.14c-0.92,0.97-2.1,1.45-3.56,1.45c-1.42,0-2.55-0.44-3.38-1.32
		c-0.83-0.88-1.25-2.09-1.25-3.61v-7.99h2.32v7.81c0,0.9,0.25,1.62,0.74,2.16c0.49,0.53,1.16,0.79,2.01,0.79
		c0.66,0,1.26-0.14,1.78-0.43c0.53-0.31,0.93-0.71,1.22-1.22v-9.11H256.74z M266.2,17.2c1.42,0,2.55,0.44,3.38,1.32
		c0.83,0.88,1.25,2.08,1.25,3.59v8.01h-2.32v-7.84c0-0.9-0.25-1.61-0.76-2.14c-0.49-0.53-1.15-0.79-1.98-0.79
		c-0.66,0-1.25,0.15-1.78,0.46c-0.53,0.29-0.93,0.69-1.22,1.2v9.11h-2.29V17.51h2.06l0.1,1.14C263.56,17.69,264.75,17.2,266.2,17.2z
		 M285.37,29.77v0.36h-2.44l-3.87-5.57l-2.29,2.49v3.08h-2.29V12.42h2.29v11.37l5.88-6.26h2.52v0.36l-4.58,4.99L285.37,29.77z"/>
	<line class="st2" x1="134.04" y1="28.79" x2="153.45" y2="28.79"/>
	<path class="st0" d="M206.25,237.31L77.1,135.6l258.46,0.22L206.25,237.31z"/>
	<path class="st0" d="M206.25,339.02L77.1,237.31l258.46,0.22L206.25,339.02z"/>
</g>
</svg>
