<?xml version="1.0" encoding="utf-8"?>
<!-- Generator: Adobe Illustrator 23.1.1, SVG Export Plug-In . SVG Version: 6.00 Build 0)  -->
<svg version="1.1" id="Слой_1" xmlns="http://www.w3.org/2000/svg" xmlns:xlink="http://www.w3.org/1999/xlink" x="0px" y="0px"
	 viewBox="0 0 830 818" style="enable-background:new 0 0 830 818;" xml:space="preserve">
<style type="text/css">
	.st0{fill:#FF029C;}
	.st1{fill:#FFFFFF;}
	.st2{fill:#12100B;}
	.st3{fill-rule:evenodd;clip-rule:evenodd;fill:#12100B;}
</style>
<path class="st0" d="M420.9,405l-85.8,85.8l-2.8-169.9L420.9,405z"/>
<path class="st1" d="M0.9,0h276.1v272.7H0.9V0z"/>
<path d="M553.2,272.7h276.1v272.7H553.2V272.7z"/>
<path d="M269,0h284v273H269V0z"/>
<path d="M0.9,272.7h276.1v272.7H0.9V272.7z"/>
<path d="M277.1,545.3h276.1V818H277.1V545.3z"/>
<path class="st1" d="M553.2,545.3h276.1V818H553.2V545.3z"/>
<path class="st1" d="M0.9,545.3h276.1V818H0.9V545.3z"/>
<path class="st1" d="M553.2,0h276.1v272.7H553.2V0z"/>
<path class="st1" d="M277.1,272.7h276.1v272.7H277.1V272.7z"/>
<path class="st0" d="M96.9,126.8L9.7,211.1V41.2L96.9,126.8z"/>
<path class="st0" d="M181.9,127.8l-87.2,84.3V42.2L181.9,127.8z"/>
<path class="st0" d="M268.9,129.9l-87.2,84.3V44.3L268.9,129.9z"/>
<path class="st0" d="M706.6,687.2l74.1,85.7l2.8-169.9L706.6,687.2z"/>
<path class="st0" d="M628.6,688.2l76.3,85.7l2.8-169.9L628.6,688.2z"/>
<path class="st0" d="M554.6,688.2l74,85.7l2.8-169.9L554.6,688.2z"/>
<path class="st0" d="M674.5,179.9l-82.3-86.4h166.1L674.5,179.9z"/>
<path class="st0" d="M674.5,266.1l-82.3-86.4h166.1L674.5,266.1z"/>
<path class="st0" d="M139.4,720.2L57,806.7h166.1L139.4,720.2z"/>
<path class="st0" d="M135.9,634.1l-82.3,86.4h166.1L135.9,634.1z"/>
<path class="st0" d="M133.5,547l-82.3,86.4h166.1L133.5,547z"/>
<path class="st0" d="M427.3,62.6h61.6v78.2c0,14.4-3.4,27.4-10.2,39.2c-6.7,11.8-15.7,21.2-27,28.3c-11.3,7-23.9,10.5-37.8,10.5
	c-13.7,0-26.3-3.5-37.6-10.5c-11.3-7.1-20.4-16.6-27.2-28.3c-6.7-11.8-10-24.8-10-39.2V62.6h61.6c0,0,0.5,2.3,1.6,7
	c1.1,4.5,2.1,11.1,3.2,19.7c1.1,8.5,1.6,18.7,1.6,30.6c0,13.3-0.5,23.8-1.6,31.6c-1.1,7.8-2.1,13.4-3.2,16.8
	c-1.1,3.3-1.6,4.9-1.6,4.9s0.3-0.3,1-0.8c0.8-0.7,1.8-1.4,3-2.3c1.3-1,2.8-1.8,4.4-2.5c1.6-0.7,3.2-1,4.8-1c1.7,0,3.4,0.3,5,1
	c1.6,0.7,3,1.5,4.2,2.5c1.3,0.8,2.3,1.6,3,2.3c0.8,0.5,1.2,0.8,1.2,0.8s-0.5-1.6-1.6-4.9c-1.1-3.4-2.1-9-3.2-16.8
	c-1.1-7.8-1.6-18.3-1.6-31.6c0-11.9,0.5-22.1,1.6-30.6c1.1-8.6,2.1-15.2,3.2-19.7C426.8,64.9,427.3,62.6,427.3,62.6z"/>
<path class="st0" d="M156.6,322.5c18.3,0,33.9,6.6,46.8,19.9c13.1,13.3,19.6,29.4,19.6,48.2c0,18.7-6.5,34.8-19.6,48
	c-12.9,13.3-28.5,19.9-46.8,19.9c-4.7,0-8.7-0.7-12-2.1c-3.2-1.4-5.7-2.7-7.4-4.1c-1.6-1.4-2.4-2.1-2.4-2.1s0.8,2.3,2.4,7
	c1.7,4.5,2.9,10.8,3.6,18.9H73V322.5c0,0,3.9,0,11.6,0c7.9,0,17.1,0,27.6,0s20,0,28.4,0C149.2,322.5,154.5,322.5,156.6,322.5z
	 M161.4,420.8c0,0-0.5-1.3-1.6-3.9c-1.1-2.6-2.1-6.3-3.2-11.1c-1.1-4.8-1.6-10.5-1.6-17c0-6.6,0.5-12.2,1.6-17
	c1.1-4.8,2.1-8.5,3.2-11.1c1.1-2.6,1.6-3.9,1.6-3.9s-0.4,0.3-1.2,1c-0.8,0.5-1.9,1.3-3.2,2.3c-1.3,0.8-2.8,1.6-4.4,2.3
	c-1.5,0.5-3,0.8-4.6,0.8s-3.2-0.3-4.8-0.8c-1.5-0.7-2.9-1.4-4.2-2.3c-1.3-1-2.4-1.7-3.2-2.3c-0.7-0.7-1-1-1-1s0.5,1.3,1.4,3.9
	c1.1,2.6,2.1,6.3,3.2,11.1c1.1,4.8,1.6,10.5,1.6,17c0,6.6-0.5,12.2-1.6,17c-1.1,4.8-2.1,8.5-3.2,11.1c-0.9,2.6-1.4,3.9-1.4,3.9
	s0.3-0.3,1-0.8c0.8-0.7,1.8-1.4,3-2.3c1.3-1,2.7-1.7,4.2-2.3c1.6-0.7,3.3-1,5-1s3.3,0.3,4.8,1c1.6,0.5,3,1.3,4.2,2.3
	c1.3,0.8,2.4,1.6,3.2,2.3C161,420.5,161.4,420.8,161.4,420.8z"/>
<path class="st0" d="M457.2,682.7c8.7,7.3,15.1,14.8,19.4,22.8c4.3,7.9,7.1,16.4,8.4,25.5c1.3,8.9,2,18.4,2,28.5h-72
	c0,0-0.1-1.3-0.2-3.9c0-2.7,0.3-6.2,1-10.3c0.7-4.1,2-8.4,4-12.9c0,0,0.9-0.1,2.8-0.2s4.1-0.5,6.6-1c2.5-0.7,5-1.8,7.4-3.3
	c2.5-1.6,4.5-3.9,5.8-6.8c0,0-1,0.5-3,1.4c-2,0.8-4.7,1.6-8.2,2.3c-3.3,0.5-7.1,0.5-11.2,0c-4.1-0.7-8.3-2.5-12.6-5.5
	c1.1,11.9,1.6,25.3,1.6,40.2h-68v-76.8v-77h68c0,14-0.4,26-1.2,36.1c-0.7,10.1-1.5,18.4-2.4,24.8c0,0,0.9-0.8,2.6-2.5
	c1.9-1.8,3.9-4.9,6-9.2c2.3-4.5,4.3-10.7,6-18.7c1.9-7.9,2.8-18.1,2.8-30.6h63c-0.9,12.7-3,24.6-6.2,35.7
	c-3.1,10.9-6.2,19.9-9.4,26.9c-3.1,6.8-4.6,10.3-4.6,10.3s-0.8-0.5-2.4-1.4c-1.5-1.1-3.5-2.2-6-3.3c-2.5-1.2-5.3-2.1-8.4-2.7
	c-3.1-0.5-6.3-0.4-9.6,0.4C445.2,674,451.2,677.7,457.2,682.7z"/>
<path class="st0" d="M705.4,335.8H756v153.7h-72.6c-0.3,0-1.1-1-2.6-3.1c-1.5-2.1-3.3-5.8-5.4-11.3c-2-5.5-4.2-13.3-6.6-23.6
	c-2.1-10.5-3.1-19.6-2.8-27.3c0.3-7.7,0.9-13.5,1.8-17.7c1.1-4.1,1.6-6.2,1.6-6.2s-0.4,0.3-1.2,1c-0.7,0.7-1.7,1.4-3,2.3
	c-1.2,0.8-2.6,1.6-4.2,2.3c-1.6,0.7-3.2,1-4.8,1c-1.7,0-3.4-0.3-5-1c-1.6-0.7-3.1-1.4-4.4-2.3c-1.2-0.8-2.2-1.6-3-2.3
	c-0.7-0.7-1-1-1-1s1.9,4.2,5.8,12.5c3.9,8.2,6.7,19.9,8.4,35.1c1.2,15.2,1.5,25.9,0.8,32.2c-0.5,6.2-0.9,9.2-1.2,9.2H606V335.8h72.8
	c0.5,0.3,1.5,1.6,3,3.9c1.5,2.2,3.2,6,5.2,11.5c2,5.3,4.1,12.9,6.2,22.6c2.1,10.5,3.1,19.6,2.8,27.3c-0.1,7.5-0.7,13.4-1.8,17.7
	c-1.1,4.1-1.6,6.2-1.6,6.2s0.3-0.3,1-1c0.8-0.7,1.8-1.4,3-2.3c1.3-0.8,2.8-1.6,4.4-2.3c1.6-0.7,3.3-1,5-1c1.6,0,3.2,0.3,4.8,1
	c1.6,0.7,3,1.4,4.2,2.3c1.3,0.8,2.3,1.6,3,2.3c0.8,0.7,1.2,1,1.2,1s-1.9-4.1-5.8-12.3c-3.9-8.3-6.7-20.1-8.4-35.3
	c-1.2-14.5-1.5-24.9-1-31.2C704.6,339.8,705,336.4,705.4,335.8z"/>
<path class="st2" d="M470.3,478.8l-38.9-24.9l-14.5,43.9l-13.8-44.1l-39.3,24.2l17.7-42.7l-45.6-6.7l40.9-21.3l-30.7-34.5l45,10.1
	l-1.3-46.2l28,36.7l28.6-36.2l-2.1,46.1l45.1-9.3l-31.2,34l40.5,21.9l-45.7,5.9L470.3,478.8z"/>
<path class="st3" d="M389.4,335.1l28.6,37.4l29.2-36.9l-2.1,47l46-9.5l-31.8,34.7l41.4,22.4l-46.6,6.1l17.4,43.8l-39.6-25.4
	l-14.8,44.7l-14.1-45l-40.1,24.7l18.1-43.5l-46.5-6.9l41.8-21.7l-31.3-35.2l45.9,10.3L389.4,335.1z M390.5,338.2l1.3,45.3l-44.1-9.9
	l30,33.8l-40.1,20.8l44.7,6.6l-17.4,41.8l38.5-23.8l13.5,43.2l14.2-43l38.1,24.4l-16.7-42.1l44.8-5.8l-39.7-21.5l30.6-33.3
	l-44.2,9.1l2-45.2l-28,35.5L390.5,338.2z"/>
<path class="st0" d="M674.9,93.7L592.6,7.3h166.1L674.9,93.7z"/>
</svg>
