<?xml version="1.0" encoding="utf-8"?>
<!-- Generator: Adobe Illustrator 24.3.0, SVG Export Plug-In . SVG Version: 6.00 Build 0)  -->
<svg version="1.1" id="Layer_1" xmlns="http://www.w3.org/2000/svg" xmlns:xlink="http://www.w3.org/1999/xlink" x="0px" y="0px"
	 viewBox="0 0 522 794" style="enable-background:new 0 0 522 794;" xml:space="preserve">
<style type="text/css">
	.st0{fill:#DFDFDF;}
	.st1{fill:#FF029C;}
	.st2{fill:#12100B;stroke:#12100B;stroke-miterlimit:10;}
	.st3{fill:#FFFFFF;}
	.st4{fill:#231F20;stroke:#12100B;stroke-miterlimit:10;}
	.st5{fill:none;stroke:#FFFFFF;stroke-width:2;}
	.st6{fill:none;stroke:#FFFFFF;stroke-width:2;stroke-miterlimit:4;}
</style>
<rect y="40" class="st0" width="522" height="260"/>
<rect y="440" class="st1" width="522" height="342.86"/>
<path class="st2" d="M38,498c7.18,0,13-5.6,13-12.5S45.18,473,38,473s-13,5.6-13,12.5S30.82,498,38,498z"/>
<path class="st3" d="M50.5,523c22.37,0,40.5-17.91,40.5-40s-18.13-40-40.5-40S10,460.91,10,483S28.13,523,50.5,523z"/>
<path class="st2" d="M38,581c7.18,0,13-5.6,13-12.5S45.18,556,38,556s-13,5.6-13,12.5S30.82,581,38,581z"/>
<path class="st3" d="M50.5,607c22.37,0,40.5-17.91,40.5-40s-18.13-40-40.5-40S10,544.91,10,567S28.13,607,50.5,607z"/>
<path class="st3" d="M48.5,690c22.37,0,40.5-17.68,40.5-39.5S70.87,611,48.5,611S8,628.68,8,650.5S26.13,690,48.5,690z"/>
<path class="st3" d="M50,774c22.64,0,41-17.91,41-40s-18.36-40-41-40S9,711.91,9,734S27.36,774,50,774z"/>
<path class="st3" d="M134,525c22.64,0,41-17.91,41-40s-18.36-40-41-40c-22.64,0-41,17.91-41,40S111.36,525,134,525z"/>
<path class="st3" d="M134,609c22.64,0,41-17.91,41-40s-18.36-40-41-40c-22.64,0-41,17.91-41,40S111.36,609,134,609z"/>
<path class="st3" d="M132,692c22.64,0,41-17.68,41-39.5S154.64,613,132,613c-22.64,0-41,17.68-41,39.5S109.36,692,132,692z"/>
<path class="st2" d="M200,669c7.18,0,13-5.6,13-12.5s-5.82-12.5-13-12.5c-7.18,0-13,5.6-13,12.5S192.82,669,200,669z"/>
<path class="st3" d="M134,776c22.64,0,41-17.91,41-40s-18.36-40-41-40c-22.64,0-41,17.91-41,40S111.36,776,134,776z"/>
<path class="st4" d="M201.5,753c6.9,0,12.5-5.6,12.5-12.5s-5.6-12.5-12.5-12.5c-6.9,0-12.5,5.6-12.5,12.5S194.6,753,201.5,753z"/>
<path class="st2" d="M202,504c7.18,0,13-5.6,13-12.5s-5.82-12.5-13-12.5c-7.18,0-13,5.6-13,12.5S194.82,504,202,504z"/>
<path class="st3" d="M221,523c22.64,0,41-17.91,41-40s-18.36-40-41-40c-22.64,0-41,17.91-41,40S198.36,523,221,523z"/>
<path class="st3" d="M306.5,523c22.37,0,40.5-17.91,40.5-40s-18.13-40-40.5-40c-22.37,0-40.5,17.91-40.5,40S284.13,523,306.5,523z"
	/>
<path class="st3" d="M221,607c22.64,0,41-17.91,41-40s-18.36-40-41-40c-22.64,0-41,17.91-41,40S198.36,607,221,607z"/>
<path class="st3" d="M306.5,607c22.37,0,40.5-17.91,40.5-40s-18.13-40-40.5-40c-22.37,0-40.5,17.91-40.5,40S284.13,607,306.5,607z"
	/>
<path class="st3" d="M219,690c22.64,0,41-17.68,41-39.5S241.64,611,219,611c-22.64,0-41,17.68-41,39.5S196.36,690,219,690z"/>
<path class="st3" d="M304.5,690c22.37,0,40.5-17.68,40.5-39.5S326.87,611,304.5,611c-22.37,0-40.5,17.68-40.5,39.5
	S282.13,690,304.5,690z"/>
<path class="st3" d="M220.5,774c22.37,0,40.5-17.91,40.5-40s-18.13-40-40.5-40c-22.37,0-40.5,17.91-40.5,40S198.13,774,220.5,774z"
	/>
<path class="st3" d="M306,774c22.64,0,41-17.91,41-40s-18.36-40-41-40c-22.64,0-41,17.91-41,40S283.36,774,306,774z"/>
<path class="st3" d="M390,525c22.64,0,41-17.91,41-40s-18.36-40-41-40c-22.64,0-41,17.91-41,40S367.36,525,390,525z"/>
<path class="st3" d="M476,525c22.64,0,41-17.91,41-40s-18.36-40-41-40c-22.64,0-41,17.91-41,40S453.36,525,476,525z"/>
<path class="st3" d="M390,609c22.64,0,41-17.91,41-40s-18.36-40-41-40c-22.64,0-41,17.91-41,40S367.36,609,390,609z"/>
<path class="st3" d="M476,609c22.64,0,41-17.91,41-40s-18.36-40-41-40c-22.64,0-41,17.91-41,40S453.36,609,476,609z"/>
<path class="st3" d="M388,692c22.64,0,41-17.68,41-39.5S410.64,613,388,613c-22.64,0-41,17.68-41,39.5S365.36,692,388,692z"/>
<path class="st3" d="M474,692c22.64,0,41-17.68,41-39.5S496.64,613,474,613c-22.64,0-41,17.68-41,39.5S451.36,692,474,692z"/>
<path class="st3" d="M390,776c22.64,0,41-17.91,41-40s-18.36-40-41-40c-22.64,0-41,17.91-41,40S367.36,776,390,776z"/>
<path class="st3" d="M475.5,776c22.37,0,40.5-17.91,40.5-40s-18.13-40-40.5-40c-22.37,0-40.5,17.91-40.5,40S453.13,776,475.5,776z"
	/>
<rect x="44" y="5" class="st5" width="25" height="27"/>
<line class="st6" x1="10.63" y1="7.81" x2="37.42" y2="30.96"/>
<line class="st6" x1="37.06" y1="7.81" x2="10.27" y2="30.96"/>
<path class="st3" d="M120.23,7.07v10.87h10.18V7.07h3.57V32h-3.57V21.17h-10.18V32h-3.57V7.07H120.23z M147.01,32.46
	c-2.41,0-4.33-0.7-5.78-2.09c-1.44-1.39-2.17-3.24-2.17-5.55v-4.45c0-2.33,0.72-4.19,2.17-5.59s3.37-2.09,5.78-2.09
	c2.43,0,4.37,0.7,5.81,2.09c1.47,1.39,2.2,3.26,2.2,5.59v4.45c0,2.31-0.74,4.15-2.2,5.55C151.38,31.76,149.44,32.46,147.01,32.46z
	 M147.05,29.23c1.39,0,2.5-0.41,3.31-1.22c0.84-0.81,1.25-1.9,1.25-3.27v-4.26c0-1.42-0.41-2.53-1.22-3.34
	c-0.81-0.81-1.93-1.22-3.34-1.22c-1.39,0-2.51,0.41-3.34,1.22c-0.81,0.81-1.22,1.93-1.22,3.34v4.26c0,1.39,0.4,2.5,1.22,3.31
	C144.54,28.83,145.65,29.23,147.05,29.23z M179.52,12.7c2.2,0,3.93,0.65,5.17,1.94c1.27,1.29,1.9,3.09,1.9,5.4V32h-3.42V20.3
	c0-1.34-0.38-2.41-1.14-3.19c-0.74-0.79-1.72-1.18-2.96-1.18c-0.89,0-1.71,0.2-2.47,0.61s-1.37,0.96-1.82,1.67
	c0.1,0.51,0.15,1.11,0.15,1.82V32h-3.42V20.3c0-1.34-0.38-2.41-1.14-3.19c-0.74-0.79-1.72-1.18-2.96-1.18
	c-0.86,0-1.66,0.19-2.39,0.57c-0.71,0.38-1.29,0.9-1.75,1.56V32h-3.42V13.15h3.08l0.11,1.48c1.34-1.29,3.05-1.94,5.13-1.94
	c1.17,0,2.22,0.23,3.15,0.68c0.94,0.43,1.7,1.06,2.28,1.9c0.68-0.84,1.52-1.47,2.51-1.9C177.12,12.92,178.26,12.7,179.52,12.7z
	 M194.62,23.83v0.91c0,1.42,0.4,2.53,1.22,3.34c0.84,0.79,1.98,1.18,3.42,1.18c1.22,0,2.23-0.3,3.04-0.91
	c0.84-0.61,1.27-1.36,1.29-2.24h3.42c-0.1,1.87-0.86,3.41-2.28,4.6c-1.42,1.17-3.24,1.75-5.47,1.75c-2.43,0-4.38-0.68-5.85-2.05
	c-1.47-1.39-2.2-3.24-2.2-5.55v-4.52c0-1.52,0.33-2.85,0.99-3.99c0.66-1.17,1.6-2.06,2.81-2.7c1.22-0.63,2.61-0.95,4.18-0.95
	c2.38,0,4.28,0.7,5.7,2.09s2.13,3.23,2.13,5.51v3.53H194.62z M199.18,15.89c-1.39,0-2.51,0.42-3.34,1.25
	c-0.81,0.81-1.22,1.91-1.22,3.31v0.53h8.97v-0.53c0-1.39-0.41-2.5-1.22-3.31C201.58,16.31,200.52,15.89,199.18,15.89z M233.22,7.07
	c2.41,0,4.31,0.63,5.7,1.9c1.39,1.24,2.09,2.95,2.09,5.13v0.57c0,2.18-0.7,3.9-2.09,5.17c-1.39,1.24-3.29,1.86-5.7,1.86h-6.35V32
	h-3.57V7.07H233.22z M233.15,18.51c1.42,0,2.49-0.33,3.23-0.99c0.74-0.66,1.1-1.61,1.1-2.85V14.1c0-1.22-0.38-2.15-1.14-2.81
	c-0.74-0.66-1.8-0.99-3.19-0.99h-6.27v8.21H233.15z M260.26,13.15V32h-3.08l-0.15-1.71c-1.37,1.44-3.14,2.17-5.32,2.17
	c-2.13,0-3.81-0.66-5.05-1.98c-1.24-1.32-1.86-3.12-1.86-5.4V13.15h3.46v11.67c0,1.34,0.37,2.42,1.1,3.23
	c0.74,0.79,1.74,1.18,3,1.18c0.99,0,1.88-0.22,2.66-0.65c0.79-0.46,1.39-1.06,1.82-1.82v-13.6H260.26z M274.4,12.7
	c2.13,0,3.81,0.66,5.05,1.98c1.24,1.32,1.86,3.1,1.86,5.36V32h-3.46V20.3c0-1.34-0.38-2.41-1.14-3.19
	c-0.73-0.79-1.72-1.18-2.96-1.18c-0.99,0-1.87,0.23-2.66,0.68c-0.79,0.43-1.39,1.03-1.82,1.79V32h-3.42V13.15h3.08l0.15,1.71
	C270.45,13.42,272.23,12.7,274.4,12.7z M303.02,31.47V32h-3.65l-5.78-8.32l-3.42,3.72V32h-3.42V5.55h3.42v16.99l8.78-9.35h3.76v0.53
	l-6.84,7.45L303.02,31.47z"/>
<line class="st5" x1="76" y1="31" x2="102" y2="31"/>
<rect y="300" class="st3" width="19.92" height="20"/>
<rect x="19.92" y="320" class="st3" width="19.92" height="20"/>
<rect x="39.85" y="300" class="st3" width="19.92" height="20"/>
<rect y="340" class="st3" width="19.92" height="20"/>
<rect x="19.92" y="360" class="st3" width="19.92" height="20"/>
<rect x="39.85" y="340" class="st3" width="19.92" height="20"/>
<rect y="380" class="st3" width="19.92" height="20"/>
<rect x="19.92" y="400" class="st3" width="19.92" height="20"/>
<rect x="39.85" y="380" class="st3" width="19.92" height="20"/>
<rect y="420" class="st3" width="19.92" height="20"/>
<rect x="39.85" y="420" class="st3" width="19.92" height="20"/>
<rect x="39.85" y="300" class="st3" width="19.92" height="20"/>
<rect x="59.77" y="320" class="st3" width="19.92" height="20"/>
<rect x="79.69" y="300" class="st3" width="19.92" height="20"/>
<rect x="39.85" y="340" class="st3" width="19.92" height="20"/>
<rect x="59.77" y="360" class="st3" width="19.92" height="20"/>
<rect x="79.69" y="340" class="st3" width="19.92" height="20"/>
<rect x="39.85" y="380" class="st3" width="19.92" height="20"/>
<rect x="59.77" y="400" class="st3" width="19.92" height="20"/>
<rect x="79.69" y="380" class="st3" width="19.92" height="20"/>
<rect x="39.85" y="420" class="st3" width="19.92" height="20"/>
<rect x="79.69" y="420" class="st3" width="19.92" height="20"/>
<rect x="318.78" y="300" class="st3" width="19.92" height="20"/>
<rect x="338.7" y="320" class="st3" width="19.92" height="20"/>
<rect x="358.63" y="300" class="st3" width="19.92" height="20"/>
<rect x="318.78" y="340" class="st3" width="19.92" height="20"/>
<rect x="338.7" y="360" class="st3" width="19.92" height="20"/>
<rect x="358.63" y="340" class="st3" width="19.92" height="20"/>
<rect x="318.78" y="380" class="st3" width="19.92" height="20"/>
<rect x="338.7" y="400" class="st3" width="19.92" height="20"/>
<rect x="358.63" y="380" class="st3" width="19.92" height="20"/>
<rect x="318.78" y="420" class="st3" width="19.92" height="20"/>
<rect x="358.63" y="420" class="st3" width="19.92" height="20"/>
<rect x="358.63" y="300" class="st3" width="19.92" height="20"/>
<rect x="378.55" y="320" class="st3" width="19.92" height="20"/>
<rect x="398.47" y="300" class="st3" width="19.92" height="20"/>
<rect x="358.63" y="340" class="st3" width="19.92" height="20"/>
<rect x="378.55" y="360" class="st3" width="19.92" height="20"/>
<rect x="398.47" y="340" class="st3" width="19.92" height="20"/>
<rect x="358.63" y="380" class="st3" width="19.92" height="20"/>
<rect x="378.55" y="400" class="st3" width="19.92" height="20"/>
<rect x="398.47" y="380" class="st3" width="19.92" height="20"/>
<rect x="358.63" y="420" class="st3" width="19.92" height="20"/>
<rect x="398.47" y="420" class="st3" width="19.92" height="20"/>
<rect x="159.39" y="300" class="st3" width="19.92" height="20"/>
<rect x="179.31" y="320" class="st3" width="19.92" height="20"/>
<rect x="199.24" y="300" class="st3" width="19.92" height="20"/>
<rect x="159.39" y="340" class="st3" width="19.92" height="20"/>
<rect x="179.31" y="360" class="st3" width="19.92" height="20"/>
<rect x="199.24" y="340" class="st3" width="19.92" height="20"/>
<rect x="159.39" y="380" class="st3" width="19.92" height="20"/>
<rect x="179.31" y="400" class="st3" width="19.92" height="20"/>
<rect x="199.24" y="380" class="st3" width="19.92" height="20"/>
<rect x="159.39" y="420" class="st3" width="19.92" height="20"/>
<rect x="199.24" y="420" class="st3" width="19.92" height="20"/>
<rect x="199.24" y="300" class="st3" width="19.92" height="20"/>
<rect x="219.16" y="320" class="st3" width="19.92" height="20"/>
<rect x="239.08" y="300" class="st3" width="19.92" height="20"/>
<rect x="199.24" y="340" class="st3" width="19.92" height="20"/>
<rect x="219.16" y="360" class="st3" width="19.92" height="20"/>
<rect x="239.08" y="340" class="st3" width="19.92" height="20"/>
<rect x="199.24" y="380" class="st3" width="19.92" height="20"/>
<rect x="219.16" y="400" class="st3" width="19.92" height="20"/>
<rect x="239.08" y="380" class="st3" width="19.92" height="20"/>
<rect x="199.24" y="420" class="st3" width="19.92" height="20"/>
<rect x="239.08" y="420" class="st3" width="19.92" height="20"/>
<rect x="79.69" y="300" class="st3" width="19.92" height="20"/>
<rect x="99.62" y="320" class="st3" width="19.92" height="20"/>
<rect x="119.54" y="300" class="st3" width="19.92" height="20"/>
<rect x="79.69" y="340" class="st3" width="19.92" height="20"/>
<rect x="99.62" y="360" class="st3" width="19.92" height="20"/>
<rect x="119.54" y="340" class="st3" width="19.92" height="20"/>
<rect x="79.69" y="380" class="st3" width="19.92" height="20"/>
<rect x="99.62" y="400" class="st3" width="19.92" height="20"/>
<rect x="119.54" y="380" class="st3" width="19.92" height="20"/>
<rect x="79.69" y="420" class="st3" width="19.92" height="20"/>
<rect x="119.54" y="420" class="st3" width="19.92" height="20"/>
<rect x="119.54" y="300" class="st3" width="19.92" height="20"/>
<rect x="139.47" y="320" class="st3" width="19.92" height="20"/>
<rect x="159.39" y="300" class="st3" width="19.92" height="20"/>
<rect x="119.54" y="340" class="st3" width="19.92" height="20"/>
<rect x="139.47" y="360" class="st3" width="19.92" height="20"/>
<rect x="159.39" y="340" class="st3" width="19.92" height="20"/>
<rect x="119.54" y="380" class="st3" width="19.92" height="20"/>
<rect x="139.47" y="400" class="st3" width="19.92" height="20"/>
<rect x="159.39" y="380" class="st3" width="19.92" height="20"/>
<rect x="119.54" y="420" class="st3" width="19.92" height="20"/>
<rect x="159.39" y="420" class="st3" width="19.92" height="20"/>
<rect x="239.08" y="300" class="st3" width="19.92" height="20"/>
<rect x="259.01" y="320" class="st3" width="19.92" height="20"/>
<rect x="278.93" y="300" class="st3" width="19.92" height="20"/>
<rect x="239.08" y="340" class="st3" width="19.92" height="20"/>
<rect x="259.01" y="360" class="st3" width="19.92" height="20"/>
<rect x="278.93" y="340" class="st3" width="19.92" height="20"/>
<rect x="239.08" y="380" class="st3" width="19.92" height="20"/>
<rect x="259.01" y="400" class="st3" width="19.92" height="20"/>
<rect x="278.93" y="380" class="st3" width="19.92" height="20"/>
<rect x="239.08" y="420" class="st3" width="19.92" height="20"/>
<rect x="278.93" y="420" class="st3" width="19.92" height="20"/>
<rect x="278.93" y="300" class="st3" width="19.92" height="20"/>
<rect x="298.86" y="320" class="st3" width="19.92" height="20"/>
<rect x="318.78" y="300" class="st3" width="19.92" height="20"/>
<rect x="278.93" y="340" class="st3" width="19.92" height="20"/>
<rect x="298.86" y="360" class="st3" width="19.92" height="20"/>
<rect x="318.78" y="340" class="st3" width="19.92" height="20"/>
<rect x="278.93" y="380" class="st3" width="19.92" height="20"/>
<rect x="298.86" y="400" class="st3" width="19.92" height="20"/>
<rect x="318.78" y="380" class="st3" width="19.92" height="20"/>
<rect x="278.93" y="420" class="st3" width="19.92" height="20"/>
<rect x="318.78" y="420" class="st3" width="19.92" height="20"/>
<rect x="398.47" y="300" class="st3" width="19.92" height="20"/>
<rect x="418.4" y="320" class="st3" width="19.92" height="20"/>
<rect x="438.32" y="300" class="st3" width="19.92" height="20"/>
<rect x="398.47" y="340" class="st3" width="19.92" height="20"/>
<rect x="418.4" y="360" class="st3" width="19.92" height="20"/>
<rect x="438.32" y="340" class="st3" width="19.92" height="20"/>
<rect x="398.47" y="380" class="st3" width="19.92" height="20"/>
<rect x="418.4" y="400" class="st3" width="19.92" height="20"/>
<rect x="438.32" y="380" class="st3" width="19.92" height="20"/>
<rect x="398.47" y="420" class="st3" width="19.92" height="20"/>
<rect x="438.32" y="420" class="st3" width="19.92" height="20"/>
<rect x="438.32" y="300" class="st3" width="19.92" height="20"/>
<rect x="458.24" y="320" class="st3" width="19.92" height="20"/>
<rect x="478.17" y="300" class="st3" width="19.92" height="20"/>
<rect x="438.32" y="340" class="st3" width="19.92" height="20"/>
<rect x="458.24" y="360" class="st3" width="19.92" height="20"/>
<rect x="478.17" y="340" class="st3" width="19.92" height="20"/>
<rect x="438.32" y="380" class="st3" width="19.92" height="20"/>
<rect x="458.24" y="400" class="st3" width="19.92" height="20"/>
<rect x="478.17" y="380" class="st3" width="19.92" height="20"/>
<rect x="498.09" y="320" class="st3" width="23.91" height="20"/>
<rect x="438.32" y="420" class="st3" width="19.92" height="20"/>
<rect x="478.17" y="420" class="st3" width="19.92" height="20"/>
<rect x="498.09" y="400" class="st3" width="23.91" height="20"/>
<rect x="498.09" y="360" class="st3" width="23.91" height="20"/>
</svg>
