<svg width="522" height="444" viewBox="0 0 522 444" fill="none" xmlns="http://www.w3.org/2000/svg">
<ellipse cx="254.501" cy="247.5" rx="206.5" ry="196.5" fill="white"/>
<ellipse rx="90.833" ry="98.2032" transform="matrix(0.99182 0.127645 -0.125462 0.992099 102.411 109.022)" fill="white"/>
<ellipse rx="90.833" ry="98.2032" transform="matrix(0.99182 0.127645 -0.125462 0.992099 419.591 126.74)" fill="white"/>
<path d="M332.218 326.548C333.545 340.259 293.939 360.802 255.965 361.172C216.706 361.558 175.896 340.426 177.218 326.548C178.603 312.124 225.555 305.484 254.705 305.469C283.974 305.458 330.818 312.097 332.218 326.548Z" fill="black" stroke="black" stroke-miterlimit="10"/>
<path d="M336.851 296.583L388.509 374.127L371.586 313.51C371.586 313.51 455.06 347.487 453.846 346.919C452.632 346.351 402.704 297.021 402.704 297.021L501.03 269.266L388.839 232.454" fill="black"/>
<path d="M336.851 296.583L388.509 374.127L371.586 313.51C371.586 313.51 455.06 347.487 453.846 346.919C452.632 346.351 402.704 297.021 402.704 297.021L501.03 269.266L388.839 232.454" stroke="black" stroke-miterlimit="10"/>
<path d="M170.26 314.51C211.083 314.51 244.177 279.277 244.177 235.815C244.177 192.353 211.083 157.12 170.26 157.12C129.437 157.12 96.3428 192.353 96.3428 235.815C96.3428 279.277 129.437 314.51 170.26 314.51Z" fill="white" stroke="black" stroke-miterlimit="10"/>
<path d="M345.024 314.51C385.847 314.51 418.941 279.277 418.941 235.815C418.941 192.353 385.847 157.12 345.024 157.12C304.2 157.12 271.106 192.353 271.106 235.815C271.106 279.277 304.2 314.51 345.024 314.51Z" fill="white" stroke="black" stroke-miterlimit="10"/>
<path d="M254.721 314.51C272.038 314.51 286.077 299.564 286.077 281.127C286.077 262.69 272.038 247.744 254.721 247.744C237.403 247.744 223.364 262.69 223.364 281.127C223.364 299.564 237.403 314.51 254.721 314.51Z" fill="#FF029C"/>
<path d="M170.26 260.678C183.159 260.678 193.615 249.546 193.615 235.815C193.615 222.083 183.159 210.952 170.26 210.952C157.362 210.952 146.906 222.083 146.906 235.815C146.906 249.546 157.362 260.678 170.26 260.678Z" fill="black" stroke="black" stroke-miterlimit="10"/>
<path d="M370.723 267.682L351.811 254.805L344.745 277.489L338.029 254.68L318.916 267.218L327.548 245.153L305.335 241.678L325.265 230.682L310.351 212.818L332.259 218.034L331.618 194.14L345.251 213.13L359.183 194.391L358.165 218.263L380.151 213.443L364.953 231.036L384.712 242.386L362.448 245.466L370.723 267.682Z" fill="black" stroke="black" stroke-miterlimit="10"/>
</svg>
