<svg width="830" height="818" viewBox="0 0 830 818" fill="none" xmlns="http://www.w3.org/2000/svg">
<path d="M420.882 415.578L335.063 499.165L332.284 333.62L420.882 415.578Z" fill="#FF029C"/>
<path d="M0.943359 21H277.059V286.667H0.943359V21Z" fill="white"/>
<path d="M553.175 286.667H829.291V552.334H553.175V286.667Z" fill="black"/>
<path d="M269 21H553V287H269V21Z" fill="black"/>
<path d="M0.943359 286.667H277.059V552.334H0.943359V286.667Z" fill="black"/>
<path d="M277.06 552.333H553.175V818H277.06V552.333Z" fill="black"/>
<path d="M553.175 552.333H829.291V818H553.175V552.333Z" fill="white"/>
<path d="M0.943359 552.333H277.059V818H0.943359V552.333Z" fill="white"/>
<path d="M553.175 21H829.291V286.667H553.175V21Z" fill="white"/>
<path d="M277.06 286.667H553.175V552.334H277.06V286.667Z" fill="white"/>
<path d="M96.8828 144.554L9.67307 226.69V61.1207L96.8828 144.554Z" fill="#FF029C"/>
<path d="M181.883 145.554L94.6731 227.69V62.1207L181.883 145.554Z" fill="#FF029C"/>
<path d="M268.883 147.554L181.673 229.69V64.1207L268.883 147.554Z" fill="#FF029C"/>
<path d="M706.604 690.578L780.71 774.056L783.488 608.51L706.604 690.578Z" fill="#FF029C"/>
<path d="M628.604 691.578L704.937 775.077L707.715 609.531L628.604 691.578Z" fill="#FF029C"/>
<path d="M554.604 691.578L628.614 775.055L631.392 609.51L554.604 691.578Z" fill="#FF029C"/>
<path d="M674.495 196.245L592.15 112.053L758.282 112.053L674.495 196.245Z" fill="#FF029C"/>
<path d="M674.495 280.245L592.15 196.053L758.282 196.053L674.495 280.245Z" fill="#FF029C"/>
<path d="M139.374 722.754L57.0287 806.947H223.16L139.374 722.754Z" fill="#FF029C"/>
<path d="M135.935 638.858L53.5902 723.051H219.722L135.935 638.858Z" fill="#FF029C"/>
<path d="M133.495 553.989L51.1498 638.181H217.282L133.495 553.989Z" fill="#FF029C"/>
<path d="M427.341 82H488.941V158.2C488.941 172.2 485.541 184.933 478.741 196.4C472.074 207.867 463.074 217.067 451.741 224C440.407 230.8 427.807 234.2 413.941 234.2C400.207 234.2 387.674 230.8 376.341 224C365.007 217.067 355.941 207.867 349.141 196.4C342.474 184.933 339.141 172.2 339.141 158.2V82H400.741C400.741 82 401.274 84.2667 402.341 88.8C403.407 93.2 404.474 99.6 405.541 108C406.607 116.267 407.141 126.2 407.141 137.8C407.141 150.733 406.607 161 405.541 168.6C404.474 176.2 403.407 181.667 402.341 185C401.274 188.2 400.741 189.8 400.741 189.8C400.741 189.8 401.074 189.533 401.741 189C402.541 188.333 403.541 187.6 404.741 186.8C406.074 185.867 407.541 185.067 409.141 184.4C410.741 183.733 412.341 183.4 413.941 183.4C415.674 183.4 417.341 183.733 418.941 184.4C420.541 185.067 421.941 185.867 423.141 186.8C424.474 187.6 425.474 188.333 426.141 189C426.941 189.533 427.341 189.8 427.341 189.8C427.341 189.8 426.807 188.2 425.741 185C424.674 181.667 423.607 176.2 422.541 168.6C421.474 161 420.941 150.733 420.941 137.8C420.941 126.2 421.474 116.267 422.541 108C423.607 99.6 424.674 93.2 425.741 88.8C426.807 84.2667 427.341 82 427.341 82Z" fill="#FF029C"/>
<path d="M156.643 335.2C174.91 335.2 190.51 341.667 203.443 354.6C216.51 367.533 223.043 383.2 223.043 401.6C223.043 419.867 216.51 435.467 203.443 448.4C190.51 461.333 174.91 467.8 156.643 467.8C151.976 467.8 147.976 467.133 144.643 465.8C141.443 464.467 138.976 463.133 137.243 461.8C135.643 460.467 134.843 459.8 134.843 459.8C134.843 459.8 135.643 462.067 137.243 466.6C138.976 471 140.176 477.133 140.843 485H73.043V335.2C73.043 335.2 76.9096 335.2 84.6429 335.2C92.5096 335.2 101.71 335.2 112.243 335.2C122.776 335.2 132.243 335.2 140.643 335.2C149.176 335.2 154.51 335.2 156.643 335.2ZM161.443 431C161.443 431 160.91 429.733 159.843 427.2C158.776 424.667 157.71 421.067 156.643 416.4C155.576 411.733 155.043 406.2 155.043 399.8C155.043 393.4 155.576 387.867 156.643 383.2C157.71 378.533 158.776 374.933 159.843 372.4C160.91 369.867 161.443 368.6 161.443 368.6C161.443 368.6 161.043 368.933 160.243 369.6C159.443 370.133 158.376 370.867 157.043 371.8C155.71 372.6 154.243 373.333 152.643 374C151.176 374.533 149.643 374.8 148.043 374.8C146.443 374.8 144.843 374.533 143.243 374C141.776 373.333 140.376 372.6 139.043 371.8C137.71 370.867 136.643 370.133 135.843 369.6C135.176 368.933 134.843 368.6 134.843 368.6C134.843 368.6 135.31 369.867 136.243 372.4C137.31 374.933 138.376 378.533 139.443 383.2C140.51 387.867 141.043 393.4 141.043 399.8C141.043 406.2 140.51 411.733 139.443 416.4C138.376 421.067 137.31 424.667 136.243 427.2C135.31 429.733 134.843 431 134.843 431C134.843 431 135.176 430.733 135.843 430.2C136.643 429.533 137.643 428.8 138.843 428C140.176 427.067 141.576 426.333 143.043 425.8C144.643 425.133 146.31 424.8 148.043 424.8C149.776 424.8 151.376 425.133 152.843 425.8C154.443 426.333 155.843 427.067 157.043 428C158.376 428.8 159.443 429.533 160.243 430.2C161.043 430.733 161.443 431 161.443 431Z" fill="#FF029C"/>
<path d="M457.196 686.2C465.863 693.267 472.329 700.667 476.596 708.4C480.863 716.133 483.663 724.4 484.996 733.2C486.329 741.867 486.996 751.133 486.996 761H414.996C414.996 761 414.929 759.733 414.796 757.2C414.796 754.533 415.129 751.2 415.796 747.2C416.463 743.2 417.796 739 419.796 734.6C419.796 734.6 420.729 734.533 422.596 734.4C424.463 734.267 426.663 733.933 429.196 733.4C431.729 732.733 434.196 731.667 436.596 730.2C439.129 728.6 441.063 726.4 442.396 723.6C442.396 723.6 441.396 724.067 439.396 725C437.396 725.8 434.663 726.533 431.196 727.2C427.863 727.733 424.129 727.733 419.996 727.2C415.863 726.533 411.663 724.733 407.396 721.8C408.463 733.4 408.996 746.467 408.996 761H340.996V686.2V611.2H408.996C408.996 624.8 408.596 636.533 407.796 646.4C407.129 656.267 406.329 664.333 405.396 670.6C405.396 670.6 406.263 669.8 407.996 668.2C409.863 666.467 411.863 663.467 413.996 659.2C416.263 654.8 418.263 648.733 419.996 641C421.863 633.267 422.796 623.333 422.796 611.2H485.796C484.863 623.6 482.796 635.2 479.596 646C476.529 656.667 473.396 665.4 470.196 672.2C467.129 678.867 465.596 682.2 465.596 682.2C465.596 682.2 464.796 681.733 463.196 680.8C461.729 679.733 459.729 678.667 457.196 677.6C454.663 676.4 451.863 675.533 448.796 675C445.729 674.467 442.529 674.6 439.196 675.4C445.196 677.667 451.196 681.267 457.196 686.2Z" fill="#FF029C"/>
<path d="M705.443 348.2H756.043V498H683.443C683.176 498 682.31 497 680.843 495C679.376 493 677.576 489.333 675.443 484C673.443 478.667 671.243 471 668.843 461C666.71 450.733 665.776 441.867 666.043 434.4C666.31 426.933 666.91 421.2 667.843 417.2C668.91 413.2 669.443 411.2 669.443 411.2C669.443 411.2 669.043 411.533 668.243 412.2C667.576 412.867 666.576 413.6 665.243 414.4C664.043 415.2 662.643 415.933 661.043 416.6C659.443 417.267 657.843 417.6 656.243 417.6C654.51 417.6 652.843 417.267 651.243 416.6C649.643 415.933 648.176 415.2 646.843 414.4C645.643 413.6 644.643 412.867 643.843 412.2C643.176 411.533 642.843 411.2 642.843 411.2C642.843 411.2 644.776 415.267 648.643 423.4C652.51 431.4 655.31 442.8 657.043 457.6C658.243 472.4 658.51 482.867 657.843 489C657.31 495 656.91 498 656.643 498H606.043V348.2H678.843C679.376 348.467 680.376 349.733 681.843 352C683.31 354.133 685.043 357.867 687.043 363.2C689.043 368.4 691.11 375.733 693.243 385.2C695.376 395.467 696.31 404.333 696.043 411.8C695.91 419.133 695.31 424.867 694.243 429C693.176 433 692.643 435 692.643 435C692.643 435 692.976 434.667 693.643 434C694.443 433.333 695.443 432.6 696.643 431.8C697.976 431 699.443 430.267 701.043 429.6C702.643 428.933 704.31 428.6 706.043 428.6C707.643 428.6 709.243 428.933 710.843 429.6C712.443 430.267 713.843 431 715.043 431.8C716.376 432.6 717.376 433.333 718.043 434C718.843 434.667 719.243 435 719.243 435C719.243 435 717.31 431 713.443 423C709.576 414.867 706.776 403.4 705.043 388.6C703.843 374.467 703.51 364.333 704.043 358.2C704.576 352.067 705.043 348.733 705.443 348.2Z" fill="#FF029C"/>
<path d="M470.312 487.545L431.459 463.273L416.942 506L403.156 463.042L363.879 486.659L381.592 445.088L336 438.538L376.933 417.81L346.281 384.176L391.296 394L389.948 349L417.981 384.754L446.592 349.462L444.513 394.424L489.643 385.37L458.452 418.504L499 439.887L453.292 445.666L470.312 487.545Z" fill="#12100B"/>
<path fill-rule="evenodd" clip-rule="evenodd" d="M389.403 347.494L417.988 383.952L447.162 347.966L445.042 393.808L491.081 384.572L459.267 418.368L500.636 440.184L454 446.08L471.357 488.787L431.729 464.031L416.928 507.594L402.873 463.795L362.814 487.883L380.877 445.49L334.361 438.808L376.121 417.661L344.855 383.353L390.777 393.375L389.403 347.494ZM390.494 350.506L391.815 394.625L347.708 384.999L377.745 417.959L337.639 438.269L382.307 444.685L364.944 485.435L403.439 462.288L416.955 504.406L431.188 462.514L469.268 486.303L452.584 445.251L497.365 439.589L457.638 418.64L488.204 386.169L443.984 395.04L446.022 350.959L417.975 385.556L390.494 350.506Z" fill="#12100B"/>
<path d="M674.916 112.257L592.571 28.0642L758.703 28.0642L674.916 112.257Z" fill="#FF029C"/>
</svg>
