<svg width="458" height="213" viewBox="0 0 458 213" fill="none" xmlns="http://www.w3.org/2000/svg">
<path d="M0 39C0 32.3726 5.37258 27 12 27H446C452.627 27 458 32.3726 458 39V201C458 207.627 452.627 213 446 213H12C5.37259 213 0 207.627 0 201V39Z" fill="white"/>
<path d="M40.2 166V136H70.2V166H56.6C56.6 159.36 56.8133 153.92 57.24 149.68C57.6666 145.44 57.88 143.32 57.88 143.32C57.88 143.32 57.8 143.387 57.64 143.52C57.5066 143.653 57.3066 143.8 57.04 143.96C56.8 144.12 56.52 144.267 56.2 144.4C55.88 144.533 55.5466 144.6 55.2 144.6C54.88 144.6 54.56 144.533 54.24 144.4C53.92 144.267 53.6266 144.12 53.36 143.96C53.12 143.8 52.92 143.653 52.76 143.52C52.6266 143.387 52.56 143.32 52.56 143.32C52.56 143.32 52.7733 145.4 53.2 149.56C53.6266 153.72 53.84 159.2 53.84 166H40.2Z" fill="black"/>
<path d="M88.1428 135.28C90.9961 135.28 93.5961 135.987 95.9428 137.4C98.3161 138.787 100.196 140.653 101.583 143C102.996 145.347 103.703 147.96 103.703 150.84C103.703 153.693 102.996 156.307 101.583 158.68C100.196 161.027 98.3161 162.907 95.9428 164.32C93.5961 165.707 90.9961 166.4 88.1428 166.4C85.2628 166.4 82.6494 165.707 80.3028 164.32C77.9561 162.907 76.0761 161.027 74.6628 158.68C73.2761 156.307 72.5828 153.693 72.5828 150.84C72.5828 147.96 73.2761 145.347 74.6628 143C76.0761 140.653 77.9561 138.787 80.3028 137.4C82.6494 135.987 85.2628 135.28 88.1428 135.28ZM90.9028 157.32C90.9028 157.32 90.7828 157.053 90.5428 156.52C90.3294 155.987 90.1161 155.24 89.9028 154.28C89.6894 153.293 89.5828 152.147 89.5828 150.84C89.5828 149.507 89.6894 148.36 89.9028 147.4C90.1161 146.413 90.3294 145.653 90.5428 145.12C90.7828 144.587 90.9028 144.32 90.9028 144.32C90.9028 144.32 90.8094 144.387 90.6228 144.52C90.4628 144.653 90.2494 144.813 89.9828 145C89.7161 145.16 89.4228 145.307 89.1028 145.44C88.7828 145.573 88.4628 145.64 88.1428 145.64C87.7961 145.64 87.4628 145.573 87.1428 145.44C86.8228 145.307 86.5294 145.16 86.2628 145C85.9961 144.813 85.7828 144.653 85.6228 144.52C85.4628 144.387 85.3828 144.32 85.3828 144.32C85.3828 144.32 85.4894 144.587 85.7028 145.12C85.9161 145.653 86.1294 146.413 86.3428 147.4C86.5828 148.36 86.7028 149.507 86.7028 150.84C86.7028 152.147 86.5828 153.293 86.3428 154.28C86.1294 155.24 85.9161 155.987 85.7028 156.52C85.4894 157.053 85.3828 157.32 85.3828 157.32C85.3828 157.32 85.4494 157.253 85.5828 157.12C85.7428 156.987 85.9561 156.84 86.2228 156.68C86.4894 156.493 86.7828 156.333 87.1028 156.2C87.4228 156.067 87.7694 156 88.1428 156C88.4894 156 88.8228 156.067 89.1428 156.2C89.4628 156.333 89.7561 156.493 90.0228 156.68C90.2894 156.84 90.5028 156.987 90.6628 157.12C90.8228 157.253 90.9028 157.32 90.9028 157.32Z" fill="black"/>
<path d="M143.018 161.28C143.018 161.28 142.912 162.253 142.698 164.2C142.485 166.12 142.418 168.493 142.498 171.32H132.378C132.165 170.253 132.032 169.347 131.978 168.6C131.952 167.853 131.938 167.48 131.938 167.48C129.992 166.627 127.538 166.2 124.578 166.2C121.618 166.2 119.152 166.627 117.178 167.48C117.178 167.48 117.152 167.853 117.098 168.6C117.072 169.347 116.952 170.253 116.738 171.32H106.618C106.725 168.493 106.658 166.12 106.418 164.2C106.205 162.253 106.098 161.28 106.098 161.28C106.098 161.28 106.525 161.24 107.378 161.16C108.258 161.053 109.405 160.92 110.818 160.76L116.458 136H132.498L137.938 160.76C139.432 160.893 140.645 161.013 141.578 161.12C142.538 161.227 143.018 161.28 143.018 161.28ZM122.938 159.92C123.498 159.893 124.045 159.88 124.578 159.88C125.085 159.88 125.618 159.893 126.178 159.92C126.045 158.533 125.978 156.933 125.978 155.12C125.978 151.253 126.192 148.573 126.618 147.08C127.045 145.56 127.258 144.8 127.258 144.8C127.258 144.8 127.178 144.867 127.018 145C126.858 145.133 126.645 145.28 126.378 145.44C126.138 145.6 125.858 145.747 125.538 145.88C125.218 146.013 124.898 146.08 124.578 146.08C124.232 146.08 123.898 146.013 123.578 145.88C123.258 145.747 122.965 145.6 122.698 145.44C122.458 145.28 122.258 145.133 122.098 145C121.965 144.867 121.898 144.8 121.898 144.8C121.898 144.8 122.112 145.56 122.538 147.08C122.965 148.573 123.178 151.253 123.178 155.12C123.178 156.933 123.098 158.533 122.938 159.92Z" fill="black"/>
<path d="M168.674 151.04C170.408 152.453 171.701 153.933 172.554 155.48C173.408 157.027 173.968 158.68 174.234 160.44C174.501 162.173 174.634 164.027 174.634 166H160.234C160.234 166 160.221 165.747 160.194 165.24C160.194 164.707 160.261 164.04 160.394 163.24C160.528 162.44 160.794 161.6 161.194 160.72C161.194 160.72 161.381 160.707 161.754 160.68C162.128 160.653 162.568 160.587 163.074 160.48C163.581 160.347 164.074 160.133 164.554 159.84C165.061 159.52 165.448 159.08 165.714 158.52C165.714 158.52 165.514 158.613 165.114 158.8C164.714 158.96 164.168 159.107 163.474 159.24C162.808 159.347 162.061 159.347 161.234 159.24C160.408 159.107 159.568 158.747 158.714 158.16C158.928 160.48 159.034 163.093 159.034 166H145.434V151.04V136.04H159.034C159.034 138.76 158.954 141.107 158.794 143.08C158.661 145.053 158.501 146.667 158.314 147.92C158.314 147.92 158.488 147.76 158.834 147.44C159.208 147.093 159.608 146.493 160.034 145.64C160.488 144.76 160.888 143.547 161.234 142C161.608 140.453 161.794 138.467 161.794 136.04H174.394C174.208 138.52 173.794 140.84 173.154 143C172.541 145.133 171.914 146.88 171.274 148.24C170.661 149.573 170.354 150.24 170.354 150.24C170.354 150.24 170.194 150.147 169.874 149.96C169.581 149.747 169.181 149.533 168.674 149.32C168.168 149.08 167.608 148.907 166.994 148.8C166.381 148.693 165.741 148.72 165.074 148.88C166.274 149.333 167.474 150.053 168.674 151.04Z" fill="black"/>
<path d="M194.876 166C194.876 166 194.769 165.56 194.556 164.68C194.343 163.8 194.129 162.547 193.916 160.92C193.703 159.267 193.596 157.293 193.596 155C193.596 152.44 193.703 150.413 193.916 148.92C194.129 147.427 194.343 146.36 194.556 145.72C194.769 145.08 194.876 144.76 194.876 144.76C194.876 144.76 194.796 144.827 194.636 144.96C194.503 145.067 194.303 145.213 194.036 145.4C193.796 145.56 193.516 145.707 193.196 145.84C192.876 145.947 192.556 146 192.236 146C191.889 146 191.556 145.947 191.236 145.84C190.916 145.707 190.623 145.56 190.356 145.4C190.116 145.213 189.916 145.067 189.756 144.96C189.623 144.827 189.556 144.76 189.556 144.76C189.556 144.76 189.663 145.08 189.876 145.72C190.089 146.36 190.303 147.427 190.516 148.92C190.729 150.413 190.836 152.44 190.836 155C190.836 157.293 190.729 159.267 190.516 160.92C190.303 162.547 190.089 163.8 189.876 164.68C189.663 165.56 189.556 166 189.556 166H177.036L184.116 136H199.956L207.036 166H194.876Z" fill="black"/>
<path d="M239.579 134.84C244.032 134.84 247.832 136.413 250.979 139.56C254.152 142.707 255.739 146.52 255.739 151C255.739 155.453 254.152 159.267 250.979 162.44C247.832 165.587 244.032 167.16 239.579 167.16C235.845 167.16 232.552 166.04 229.699 163.8C226.872 161.56 224.965 158.667 223.979 155.12C223.259 155.04 222.552 154.947 221.859 154.84C222.019 158.227 222.245 160.933 222.539 162.96C222.859 164.96 223.019 165.96 223.019 165.96H209.419V136H223.019C223.019 136 222.859 137.013 222.539 139.04C222.245 141.04 222.019 143.733 221.859 147.12C222.552 147.013 223.259 146.92 223.979 146.84C224.965 143.32 226.872 140.44 229.699 138.2C232.552 135.96 235.845 134.84 239.579 134.84ZM242.459 157.72C242.459 157.72 242.219 157.12 241.739 155.92C241.285 154.693 241.059 153.053 241.059 151C241.059 148.947 241.285 147.307 241.739 146.08C242.219 144.853 242.459 144.24 242.459 144.24C242.459 144.24 242.365 144.32 242.179 144.48C242.019 144.613 241.792 144.773 241.499 144.96C241.232 145.12 240.925 145.267 240.579 145.4C240.259 145.533 239.925 145.6 239.579 145.6C239.232 145.6 238.885 145.533 238.539 145.4C238.219 145.267 237.912 145.12 237.619 144.96C237.352 144.773 237.125 144.613 236.939 144.48C236.779 144.32 236.699 144.24 236.699 144.24C236.699 144.24 236.925 144.853 237.379 146.08C237.859 147.307 238.099 148.947 238.099 151C238.099 153.053 237.859 154.693 237.379 155.92C236.925 157.12 236.699 157.72 236.699 157.72C236.699 157.72 236.779 157.653 236.939 157.52C237.099 157.387 237.312 157.227 237.579 157.04C237.872 156.853 238.179 156.693 238.499 156.56C238.845 156.427 239.205 156.36 239.579 156.36C239.952 156.36 240.299 156.427 240.619 156.56C240.965 156.693 241.272 156.853 241.539 157.04C241.832 157.227 242.059 157.387 242.219 157.52C242.379 157.653 242.459 157.72 242.459 157.72Z" fill="black"/>
<path d="M273.89 136H287.49V151V166H273.89C273.89 162.987 273.983 160.427 274.17 158.32C273.076 158.747 271.503 158.987 269.45 159.04C267.423 159.093 265.383 158.36 263.33 156.84C260.903 154.92 259.423 152.68 258.89 150.12C258.383 147.56 258.183 143.707 258.29 138.56C258.29 137.76 258.29 136.907 258.29 136H272.73C272.73 136 272.756 136.467 272.81 137.4C272.863 138.333 272.836 139.413 272.73 140.64C272.65 141.867 272.41 143 272.01 144.04C272.01 144.04 271.81 144.04 271.41 144.04C271.036 144.013 270.57 144.04 270.01 144.12C269.45 144.2 268.916 144.4 268.41 144.72C267.903 145.013 267.503 145.48 267.21 146.12C267.21 146.12 267.423 146.013 267.85 145.8C268.276 145.587 268.836 145.413 269.53 145.28C270.25 145.147 271.036 145.173 271.89 145.36C272.77 145.547 273.65 146.013 274.53 146.76C274.103 143.88 273.89 140.293 273.89 136Z" fill="black"/>
<path d="M312.807 136L319.847 166H306.247C306.247 166 306.247 165.987 306.247 165.96C306.247 164.707 306.354 163.613 306.567 162.68C306.781 161.72 306.994 160.987 307.207 160.48C307.421 159.973 307.527 159.72 307.527 159.72C307.527 159.72 307.447 159.787 307.287 159.92C307.127 160.053 306.914 160.2 306.647 160.36C306.407 160.52 306.127 160.667 305.807 160.8C305.514 160.933 305.207 161 304.887 161C304.567 161 304.247 160.933 303.927 160.8C303.607 160.667 303.314 160.52 303.047 160.36C302.807 160.2 302.607 160.053 302.447 159.92C302.287 159.787 302.207 159.72 302.207 159.72C302.207 159.72 302.314 159.973 302.527 160.48C302.741 160.987 302.954 161.72 303.167 162.68C303.381 163.613 303.487 164.707 303.487 165.96C303.487 165.987 303.487 166 303.487 166H289.887L296.967 136H312.807ZM307.527 156.72C307.527 156.72 307.421 156.467 307.207 155.96C306.994 155.453 306.781 154.733 306.567 153.8C306.354 152.84 306.247 151.733 306.247 150.48C306.247 149.2 306.354 148.093 306.567 147.16C306.781 146.227 306.994 145.507 307.207 145C307.421 144.467 307.527 144.2 307.527 144.2C307.527 144.2 307.447 144.267 307.287 144.4C307.127 144.533 306.914 144.68 306.647 144.84C306.407 145 306.127 145.147 305.807 145.28C305.514 145.413 305.207 145.48 304.887 145.48C304.567 145.48 304.247 145.413 303.927 145.28C303.607 145.147 303.314 145 303.047 144.84C302.807 144.68 302.607 144.533 302.447 144.4C302.287 144.267 302.207 144.2 302.207 144.2C302.207 144.2 302.314 144.467 302.527 145C302.741 145.507 302.954 146.227 303.167 147.16C303.381 148.093 303.487 149.2 303.487 150.48C303.487 151.733 303.381 152.84 303.167 153.8C302.954 154.733 302.741 155.453 302.527 155.96C302.314 156.467 302.207 156.72 302.207 156.72C302.207 156.72 302.274 156.653 302.407 156.52C302.567 156.387 302.767 156.24 303.007 156.08C303.274 155.92 303.567 155.773 303.887 155.64C304.207 155.507 304.541 155.44 304.887 155.44C305.207 155.44 305.527 155.507 305.847 155.64C306.167 155.773 306.447 155.92 306.687 156.08C306.954 156.24 307.154 156.387 307.287 156.52C307.447 156.653 307.527 156.72 307.527 156.72Z" fill="black"/>
<path d="M332.351 136.04C332.431 136.147 332.525 136.813 332.631 138.04C332.738 139.267 332.671 141.293 332.431 144.12C332.085 147.08 331.525 149.373 330.751 151C329.978 152.6 329.591 153.4 329.591 153.4C329.591 153.4 329.658 153.333 329.791 153.2C329.951 153.067 330.151 152.92 330.391 152.76C330.658 152.6 330.951 152.453 331.271 152.32C331.591 152.187 331.911 152.12 332.231 152.12C332.578 152.12 332.911 152.187 333.231 152.32C333.551 152.453 333.831 152.6 334.071 152.76C334.338 152.92 334.538 153.067 334.671 153.2C334.831 153.333 334.911 153.4 334.911 153.4C334.911 153.4 334.805 153 334.591 152.2C334.378 151.373 334.245 150.227 334.191 148.76C334.165 147.267 334.365 145.493 334.791 143.44C335.218 141.547 335.631 140.08 336.031 139.04C336.431 137.973 336.778 137.227 337.071 136.8C337.365 136.347 337.565 136.093 337.671 136.04H352.231V166H342.111C342.058 166 341.965 165.4 341.831 164.2C341.725 162.973 341.791 160.88 342.031 157.92C342.378 154.96 342.938 152.68 343.711 151.08C344.485 149.453 344.871 148.64 344.871 148.64C344.871 148.64 344.791 148.707 344.631 148.84C344.498 148.973 344.298 149.12 344.031 149.28C343.791 149.44 343.511 149.587 343.191 149.72C342.871 149.853 342.538 149.92 342.191 149.92C341.871 149.92 341.551 149.853 341.231 149.72C340.911 149.587 340.618 149.44 340.351 149.28C340.111 149.12 339.911 148.973 339.751 148.84C339.618 148.707 339.551 148.64 339.551 148.64C339.551 148.64 339.645 149.04 339.831 149.84C340.045 150.64 340.178 151.787 340.231 153.28C340.285 154.773 340.098 156.547 339.671 158.6C339.191 160.6 338.738 162.133 338.311 163.2C337.911 164.267 337.565 165 337.271 165.4C336.978 165.8 336.805 166 336.751 166H322.231V136.04H332.351ZM346.511 133.96C346.511 133.96 343.418 134.04 337.231 134.2C331.578 134.2 328.485 134.12 327.951 133.96C327.951 133.96 327.885 132.8 327.751 130.48C327.751 129.36 327.778 128.467 327.831 127.8C327.911 127.107 327.951 126.76 327.951 126.76C327.951 126.76 328.791 127.053 330.471 127.64C332.151 128.2 334.405 128.48 337.231 128.48C340.058 128.48 342.311 128.2 343.991 127.64C345.671 127.053 346.511 126.76 346.511 126.76C346.511 126.76 346.538 127.12 346.591 127.84C346.671 128.56 346.711 129.44 346.711 130.48C346.711 131.52 346.671 132.36 346.591 133C346.538 133.64 346.511 133.96 346.511 133.96Z" fill="black"/>
<path d="M378.414 152.28C380.121 152.28 381.561 152.36 382.734 152.52C383.907 152.653 384.854 152.813 385.574 153C384.961 156.867 383.214 160.067 380.334 162.6C377.481 165.133 374.094 166.4 370.174 166.4C367.294 166.4 364.681 165.707 362.334 164.32C359.987 162.907 358.107 161.027 356.694 158.68C355.307 156.333 354.614 153.72 354.614 150.84C354.614 147.987 355.307 145.387 356.694 143.04C358.107 140.667 359.987 138.787 362.334 137.4C364.681 135.987 367.294 135.28 370.174 135.28C374.094 135.28 377.481 136.547 380.334 139.08C383.214 141.613 384.961 144.813 385.574 148.68C384.854 148.867 383.907 149.04 382.734 149.2C381.561 149.333 380.121 149.4 378.414 149.4C376.894 149.4 375.574 149.347 374.454 149.24C373.361 149.107 372.454 148.96 371.734 148.8C371.921 147.413 372.161 146.333 372.454 145.56C372.774 144.76 372.934 144.36 372.934 144.36C372.934 144.36 372.854 144.427 372.694 144.56C372.534 144.693 372.307 144.853 372.014 145.04C371.747 145.2 371.454 145.347 371.134 145.48C370.814 145.613 370.494 145.68 370.174 145.68C369.854 145.68 369.521 145.613 369.174 145.48C368.854 145.347 368.561 145.2 368.294 145.04C368.027 144.853 367.814 144.693 367.654 144.56C367.494 144.427 367.414 144.36 367.414 144.36C367.414 144.36 367.521 144.627 367.734 145.16C367.947 145.693 368.161 146.453 368.374 147.44C368.614 148.4 368.734 149.533 368.734 150.84C368.734 152.173 368.614 153.333 368.374 154.32C368.161 155.28 367.947 156.027 367.734 156.56C367.521 157.093 367.414 157.36 367.414 157.36C367.414 157.36 367.481 157.293 367.614 157.16C367.774 157 367.987 156.84 368.254 156.68C368.521 156.52 368.814 156.373 369.134 156.24C369.481 156.08 369.827 156 370.174 156C370.521 156 370.854 156.08 371.174 156.24C371.521 156.373 371.814 156.52 372.054 156.68C372.321 156.84 372.534 157 372.694 157.16C372.854 157.293 372.934 157.36 372.934 157.36C372.934 157.36 372.774 156.96 372.454 156.16C372.161 155.36 371.921 154.267 371.734 152.88C372.454 152.72 373.361 152.587 374.454 152.48C375.574 152.347 376.894 152.28 378.414 152.28Z" fill="black"/>
<path d="M392.813 159.56C391.32 158.333 390.133 156.84 389.253 155.08C388.4 153.293 387.973 151.373 387.973 149.32C387.973 145.64 389.267 142.507 391.853 139.92C394.44 137.333 397.56 136.04 401.213 136.04C401.64 136.04 402.693 136.04 404.373 136.04C406.08 136.04 407.987 136.04 410.093 136.04C412.2 136.04 414.027 136.04 415.573 136.04C417.147 136.04 417.933 136.04 417.933 136.04V166H404.373C404.533 164.427 404.773 163.2 405.093 162.32C405.44 161.413 405.613 160.96 405.613 160.96C405.613 160.96 405.44 161.093 405.093 161.36C404.773 161.627 404.28 161.893 403.613 162.16C402.973 162.427 402.173 162.56 401.213 162.56C400.2 162.56 399.213 162.453 398.253 162.24C398.653 162.613 399.093 162.92 399.573 163.16C400.053 163.373 400.52 163.547 400.973 163.68C401.427 163.787 401.8 163.867 402.093 163.92C402.413 163.947 402.573 163.96 402.573 163.96C402.787 164.307 402.933 164.64 403.013 164.96C403.093 165.253 403.133 165.507 403.133 165.72C403.16 165.907 403.173 166 403.173 166H388.773C388.773 165.013 389.027 164.08 389.533 163.2C390.067 162.32 390.64 161.573 391.253 160.96C391.893 160.32 392.413 159.853 392.813 159.56ZM400.293 155.2C400.293 155.2 400.36 155.147 400.493 155.04C400.653 154.907 400.853 154.76 401.093 154.6C401.36 154.413 401.653 154.267 401.973 154.16C402.293 154.027 402.613 153.96 402.933 153.96C403.28 153.96 403.613 154.027 403.933 154.16C404.253 154.267 404.533 154.413 404.773 154.6C405.04 154.76 405.24 154.907 405.373 155.04C405.533 155.147 405.613 155.2 405.613 155.2C405.613 155.2 405.507 154.947 405.293 154.44C405.08 153.933 404.867 153.213 404.653 152.28C404.44 151.347 404.333 150.24 404.333 148.96C404.333 147.68 404.44 146.573 404.653 145.64C404.867 144.707 405.08 143.987 405.293 143.48C405.507 142.973 405.613 142.72 405.613 142.72C405.613 142.72 405.533 142.787 405.373 142.92C405.213 143.027 405 143.173 404.733 143.36C404.493 143.52 404.213 143.667 403.893 143.8C403.573 143.907 403.253 143.96 402.933 143.96C402.64 143.96 402.333 143.907 402.013 143.8C401.693 143.667 401.4 143.52 401.133 143.36C400.893 143.173 400.693 143.027 400.533 142.92C400.373 142.787 400.293 142.72 400.293 142.72C400.293 142.72 400.4 142.973 400.613 143.48C400.827 143.987 401.04 144.707 401.253 145.64C401.467 146.573 401.573 147.68 401.573 148.96C401.573 150.24 401.467 151.347 401.253 152.28C401.04 153.213 400.827 153.933 400.613 154.44C400.4 154.947 400.293 155.2 400.293 155.2Z" fill="black"/>
<path d="M0 15C0 6.71573 6.71573 0 15 0H443C451.284 0 458 6.71573 458 15V78C458 86.2843 451.284 93 443 93H15C6.71572 93 0 86.2843 0 78V15Z" fill="#141313"/>
<path d="M158.232 43.072V53.94H168.416V43.072H171.988V68H168.416V57.17H158.232V68H154.66V43.072H158.232Z" fill="white"/>
<path d="M185.011 68.456C182.604 68.456 180.679 67.7593 179.235 66.366C177.791 64.9727 177.069 63.1233 177.069 60.818V56.372C177.069 54.0413 177.791 52.1793 179.235 50.786C180.679 49.3927 182.604 48.696 185.011 48.696C187.443 48.696 189.381 49.3927 190.825 50.786C192.294 52.1793 193.029 54.0413 193.029 56.372V60.818C193.029 63.1233 192.294 64.9727 190.825 66.366C189.381 67.7593 187.443 68.456 185.011 68.456ZM185.049 65.226C186.442 65.226 187.544 64.8207 188.355 64.01C189.191 63.1993 189.609 62.11 189.609 60.742V56.486C189.609 55.0673 189.203 53.9527 188.393 53.142C187.582 52.3313 186.467 51.926 185.049 51.926C183.655 51.926 182.541 52.3313 181.705 53.142C180.894 53.9527 180.489 55.0673 180.489 56.486V60.742C180.489 62.1353 180.894 63.2373 181.705 64.048C182.541 64.8333 183.655 65.226 185.049 65.226Z" fill="white"/>
<path d="M217.523 48.696C219.727 48.696 221.449 49.342 222.691 50.634C223.957 51.926 224.591 53.7247 224.591 56.03V68H221.171V56.296C221.171 54.9533 220.791 53.8893 220.031 53.104C219.296 52.3187 218.308 51.926 217.067 51.926C216.18 51.926 215.357 52.1287 214.597 52.534C213.837 52.9393 213.229 53.4967 212.773 54.206C212.874 54.7127 212.925 55.3207 212.925 56.03V68H209.505V56.296C209.505 54.9533 209.125 53.8893 208.365 53.104C207.63 52.3187 206.642 51.926 205.401 51.926C204.539 51.926 203.741 52.116 203.007 52.496C202.297 52.876 201.715 53.3953 201.259 54.054V68H197.839V49.152H200.917L201.031 50.634C202.373 49.342 204.083 48.696 206.161 48.696C207.326 48.696 208.377 48.924 209.315 49.38C210.252 49.8107 211.012 50.444 211.595 51.28C212.279 50.444 213.115 49.8107 214.103 49.38C215.116 48.924 216.256 48.696 217.523 48.696Z" fill="white"/>
<path d="M232.617 59.83V60.742C232.617 62.1607 233.022 63.2753 233.833 64.086C234.669 64.8713 235.809 65.264 237.253 65.264C238.469 65.264 239.482 64.96 240.293 64.352C241.129 63.744 241.56 62.9967 241.585 62.11H245.005C244.904 63.9847 244.144 65.5173 242.725 66.708C241.306 67.8733 239.482 68.456 237.253 68.456C234.821 68.456 232.87 67.772 231.401 66.404C229.932 65.0107 229.197 63.1613 229.197 60.856V56.334C229.197 54.814 229.526 53.484 230.185 52.344C230.844 51.1787 231.781 50.2793 232.997 49.646C234.213 49.0127 235.606 48.696 237.177 48.696C239.558 48.696 241.458 49.3927 242.877 50.786C244.296 52.1793 245.005 54.016 245.005 56.296V59.83H232.617ZM237.177 51.888C235.784 51.888 234.669 52.306 233.833 53.142C233.022 53.9527 232.617 55.0547 232.617 56.448V56.98H241.585V56.448C241.585 55.0547 241.18 53.9527 240.369 53.142C239.584 52.306 238.52 51.888 237.177 51.888Z" fill="white"/>
<path d="M271.223 43.072C273.629 43.072 275.529 43.7053 276.923 44.972C278.316 46.2133 279.013 47.9233 279.013 50.102V50.672C279.013 52.8507 278.316 54.5733 276.923 55.84C275.529 57.0813 273.629 57.702 271.223 57.702H264.877V68H261.305V43.072H271.223ZM271.147 54.51C272.565 54.51 273.642 54.1807 274.377 53.522C275.111 52.8633 275.479 51.9133 275.479 50.672V50.102C275.479 48.886 275.099 47.9487 274.339 47.29C273.604 46.6313 272.54 46.302 271.147 46.302H264.877V54.51H271.147Z" fill="white"/>
<path d="M298.263 49.152V68H295.185L295.033 66.29C293.665 67.734 291.892 68.456 289.713 68.456C287.585 68.456 285.901 67.7973 284.659 66.48C283.418 65.1627 282.797 63.364 282.797 61.084V49.152H286.255V60.818C286.255 62.1607 286.623 63.2373 287.357 64.048C288.092 64.8333 289.093 65.226 290.359 65.226C291.347 65.226 292.234 65.0107 293.019 64.58C293.805 64.124 294.413 63.516 294.843 62.756V49.152H298.263Z" fill="white"/>
<path d="M312.405 48.696C314.533 48.696 316.218 49.3547 317.459 50.672C318.701 51.9893 319.321 53.7753 319.321 56.03V68H315.863V56.296C315.863 54.9533 315.483 53.8893 314.723 53.104C313.989 52.3187 313.001 51.926 311.759 51.926C310.771 51.926 309.885 52.154 309.099 52.61C308.314 53.0407 307.706 53.636 307.275 54.396V68H303.855V49.152H306.933L307.085 50.862C308.453 49.418 310.227 48.696 312.405 48.696Z" fill="white"/>
<path d="M341.025 67.468V68H337.377L331.601 59.678L328.181 63.402V68H324.761V41.552H328.181V58.538L336.959 49.19H340.721V49.722L333.881 57.17L341.025 67.468Z" fill="white"/>
<path fill-rule="evenodd" clip-rule="evenodd" d="M90 40H64V67H90V40ZM62 38V69H92V38H62Z" fill="white"/>
<path fill-rule="evenodd" clip-rule="evenodd" d="M54.9999 68.0001L24.9999 43.0001L26.2803 41.4636L56.2803 66.4636L54.9999 68.0001Z" fill="white"/>
<path fill-rule="evenodd" clip-rule="evenodd" d="M26.0001 68.0001L56.0001 43.0001L54.7197 41.4636L24.7197 66.4636L26.0001 68.0001Z" fill="white"/>
<path fill-rule="evenodd" clip-rule="evenodd" d="M128 68H99V66H128V68Z" fill="white"/>
</svg>
