<?xml version="1.0" encoding="utf-8"?>
<!-- Generator: Adobe Illustrator 24.3.0, SVG Export Plug-In . SVG Version: 6.00 Build 0)  -->
<svg version="1.1" id="Layer_1" xmlns="http://www.w3.org/2000/svg" xmlns:xlink="http://www.w3.org/1999/xlink" x="0px" y="0px"
	 viewBox="0 0 522 794" style="enable-background:new 0 0 522 794;" xml:space="preserve">
<style type="text/css">
	.st0{fill:#DFDFDF;}
	.st1{fill:#FF029C;}
	.st2{fill:#12100B;stroke:#12100B;stroke-miterlimit:10;}
	.st3{fill:#FFFFFF;}
	.st4{fill:#231F20;stroke:#12100B;stroke-miterlimit:10;}
	.st5{fill:none;stroke:#FFFFFF;stroke-width:2;}
</style>
<rect y="40" class="st0" width="522" height="260"/>
<rect y="440" class="st1" width="522" height="354"/>
<path class="st2" d="M38,498c7.2,0,13-5.6,13-12.5S45.2,473,38,473s-13,5.6-13,12.5S30.8,498,38,498z"/>
<path class="st3" d="M50.5,523c22.4,0,40.5-17.9,40.5-40s-18.1-40-40.5-40S10,460.9,10,483S28.1,523,50.5,523z"/>
<path class="st2" d="M38,581c7.2,0,13-5.6,13-12.5S45.2,556,38,556s-13,5.6-13,12.5S30.8,581,38,581z"/>
<path class="st3" d="M50.5,607c22.4,0,40.5-17.9,40.5-40s-18.1-40-40.5-40S10,544.9,10,567S28.1,607,50.5,607z"/>
<path class="st3" d="M48.5,690c22.4,0,40.5-17.7,40.5-39.5S70.9,611,48.5,611S8,628.7,8,650.5S26.1,690,48.5,690z"/>
<path class="st3" d="M50,774c22.6,0,41-17.9,41-40s-18.4-40-41-40S9,711.9,9,734S27.4,774,50,774z"/>
<path class="st3" d="M134,525c22.6,0,41-17.9,41-40s-18.4-40-41-40s-41,17.9-41,40S111.4,525,134,525z"/>
<path class="st3" d="M134,609c22.6,0,41-17.9,41-40s-18.4-40-41-40s-41,17.9-41,40S111.4,609,134,609z"/>
<path class="st3" d="M132,692c22.6,0,41-17.7,41-39.5S154.6,613,132,613s-41,17.7-41,39.5S109.4,692,132,692z"/>
<path class="st2" d="M200,669c7.2,0,13-5.6,13-12.5s-5.8-12.5-13-12.5s-13,5.6-13,12.5S192.8,669,200,669z"/>
<path class="st3" d="M134,776c22.6,0,41-17.9,41-40s-18.4-40-41-40s-41,17.9-41,40S111.4,776,134,776z"/>
<path class="st4" d="M201.5,753c6.9,0,12.5-5.6,12.5-12.5s-5.6-12.5-12.5-12.5s-12.5,5.6-12.5,12.5S194.6,753,201.5,753z"/>
<path class="st2" d="M202,504c7.2,0,13-5.6,13-12.5s-5.8-12.5-13-12.5s-13,5.6-13,12.5S194.8,504,202,504z"/>
<path class="st3" d="M221,523c22.6,0,41-17.9,41-40s-18.4-40-41-40s-41,17.9-41,40S198.4,523,221,523z"/>
<path class="st3" d="M306.5,523c22.4,0,40.5-17.9,40.5-40s-18.1-40-40.5-40S266,460.9,266,483S284.1,523,306.5,523z"/>
<path class="st3" d="M221,607c22.6,0,41-17.9,41-40s-18.4-40-41-40s-41,17.9-41,40S198.4,607,221,607z"/>
<path class="st3" d="M306.5,607c22.4,0,40.5-17.9,40.5-40s-18.1-40-40.5-40S266,544.9,266,567S284.1,607,306.5,607z"/>
<path class="st3" d="M219,690c22.6,0,41-17.7,41-39.5S241.6,611,219,611s-41,17.7-41,39.5S196.4,690,219,690z"/>
<path class="st3" d="M304.5,690c22.4,0,40.5-17.7,40.5-39.5S326.9,611,304.5,611S264,628.7,264,650.5S282.1,690,304.5,690z"/>
<path class="st3" d="M220.5,774c22.4,0,40.5-17.9,40.5-40s-18.1-40-40.5-40S180,711.9,180,734S198.1,774,220.5,774z"/>
<path class="st3" d="M306,774c22.6,0,41-17.9,41-40s-18.4-40-41-40s-41,17.9-41,40S283.4,774,306,774z"/>
<path class="st3" d="M390,525c22.6,0,41-17.9,41-40s-18.4-40-41-40s-41,17.9-41,40S367.4,525,390,525z"/>
<path class="st3" d="M476,525c22.6,0,41-17.9,41-40s-18.4-40-41-40s-41,17.9-41,40S453.4,525,476,525z"/>
<path class="st3" d="M390,609c22.6,0,41-17.9,41-40s-18.4-40-41-40s-41,17.9-41,40S367.4,609,390,609z"/>
<path class="st3" d="M476,609c22.6,0,41-17.9,41-40s-18.4-40-41-40s-41,17.9-41,40S453.4,609,476,609z"/>
<path class="st3" d="M388,692c22.6,0,41-17.7,41-39.5S410.6,613,388,613s-41,17.7-41,39.5S365.4,692,388,692z"/>
<path class="st3" d="M474,692c22.6,0,41-17.7,41-39.5S496.6,613,474,613s-41,17.7-41,39.5S451.4,692,474,692z"/>
<path class="st3" d="M390,776c22.6,0,41-17.9,41-40s-18.4-40-41-40s-41,17.9-41,40S367.4,776,390,776z"/>
<path class="st3" d="M475.5,776c22.4,0,40.5-17.9,40.5-40s-18.1-40-40.5-40S435,713.9,435,736S453.1,776,475.5,776z"/>
<rect x="44" y="5" class="st5" width="25" height="27"/>
<line class="st5" x1="10.6" y1="7.8" x2="37.4" y2="31"/>
<line class="st5" x1="37.1" y1="7.8" x2="10.3" y2="31"/>
<path class="st3" d="M120.2,7.1v10.9h10.2V7.1h3.6V32h-3.6V21.2h-10.2V32h-3.6V7.1H120.2z M147,32.5c-2.4,0-4.3-0.7-5.8-2.1
	c-1.4-1.4-2.2-3.2-2.2-5.5v-4.5c0-2.3,0.7-4.2,2.2-5.6s3.4-2.1,5.8-2.1c2.4,0,4.4,0.7,5.8,2.1c1.5,1.4,2.2,3.3,2.2,5.6v4.5
	c0,2.3-0.7,4.1-2.2,5.5C151.4,31.8,149.4,32.5,147,32.5z M147.1,29.2c1.4,0,2.5-0.4,3.3-1.2c0.8-0.8,1.2-1.9,1.2-3.3v-4.3
	c0-1.4-0.4-2.5-1.2-3.3s-1.9-1.2-3.3-1.2c-1.4,0-2.5,0.4-3.3,1.2c-0.8,0.8-1.2,1.9-1.2,3.3v4.3c0,1.4,0.4,2.5,1.2,3.3
	C144.5,28.8,145.6,29.2,147.1,29.2z M179.5,12.7c2.2,0,3.9,0.6,5.2,1.9c1.3,1.3,1.9,3.1,1.9,5.4v12h-3.4V20.3c0-1.3-0.4-2.4-1.1-3.2
	c-0.7-0.8-1.7-1.2-3-1.2c-0.9,0-1.7,0.2-2.5,0.6s-1.4,1-1.8,1.7c0.1,0.5,0.1,1.1,0.1,1.8v12h-3.4V20.3c0-1.3-0.4-2.4-1.1-3.2
	c-0.7-0.8-1.7-1.2-3-1.2c-0.9,0-1.7,0.2-2.4,0.6c-0.7,0.4-1.3,0.9-1.8,1.6V32h-3.4V13.1h3.1l0.1,1.5c1.3-1.3,3.1-1.9,5.1-1.9
	c1.2,0,2.2,0.2,3.1,0.7c0.9,0.4,1.7,1.1,2.3,1.9c0.7-0.8,1.5-1.5,2.5-1.9C177.1,12.9,178.3,12.7,179.5,12.7z M194.6,23.8v0.9
	c0,1.4,0.4,2.5,1.2,3.3c0.8,0.8,2,1.2,3.4,1.2c1.2,0,2.2-0.3,3-0.9c0.8-0.6,1.3-1.4,1.3-2.2h3.4c-0.1,1.9-0.9,3.4-2.3,4.6
	c-1.4,1.2-3.2,1.7-5.5,1.7c-2.4,0-4.4-0.7-5.9-2c-1.5-1.4-2.2-3.2-2.2-5.5v-4.5c0-1.5,0.3-2.9,1-4c0.7-1.2,1.6-2.1,2.8-2.7
	c1.2-0.6,2.6-0.9,4.2-0.9c2.4,0,4.3,0.7,5.7,2.1s2.1,3.2,2.1,5.5v3.5C207,23.8,194.6,23.8,194.6,23.8z M199.2,15.9
	c-1.4,0-2.5,0.4-3.3,1.2c-0.8,0.8-1.2,1.9-1.2,3.3V21h9v-0.5c0-1.4-0.4-2.5-1.2-3.3C201.6,16.3,200.5,15.9,199.2,15.9z M233.2,7.1
	c2.4,0,4.3,0.6,5.7,1.9c1.4,1.2,2.1,2.9,2.1,5.1v0.6c0,2.2-0.7,3.9-2.1,5.2c-1.4,1.2-3.3,1.9-5.7,1.9h-6.4V32h-3.6V7.1H233.2z
	 M233.1,18.5c1.4,0,2.5-0.3,3.2-1c0.7-0.7,1.1-1.6,1.1-2.9v-0.6c0-1.2-0.4-2.1-1.1-2.8c-0.7-0.7-1.8-1-3.2-1h-6.3v8.2
	C226.9,18.5,233.1,18.5,233.1,18.5z M260.3,13.1V32h-3.1l-0.1-1.7c-1.4,1.4-3.1,2.2-5.3,2.2c-2.1,0-3.8-0.7-5.1-2s-1.9-3.1-1.9-5.4
	V13.1h3.5v11.7c0,1.3,0.4,2.4,1.1,3.2c0.7,0.8,1.7,1.2,3,1.2c1,0,1.9-0.2,2.7-0.6c0.8-0.5,1.4-1.1,1.8-1.8V13.2L260.3,13.1
	L260.3,13.1z M274.4,12.7c2.1,0,3.8,0.7,5,2s1.9,3.1,1.9,5.4v12h-3.5V20.3c0-1.3-0.4-2.4-1.1-3.2c-0.7-0.8-1.7-1.2-3-1.2
	c-1,0-1.9,0.2-2.7,0.7c-0.8,0.4-1.4,1-1.8,1.8V32h-3.4V13.1h3.1l0.1,1.7C270.5,13.4,272.2,12.7,274.4,12.7z M303,31.5V32h-3.6
	l-5.8-8.3l-3.4,3.7V32h-3.4V5.6h3.4v17l8.8-9.4h3.8v0.5l-6.8,7.4L303,31.5z"/>
<line class="st5" x1="76" y1="31" x2="102" y2="31"/>
<rect y="300" class="st3" width="19.9" height="20"/>
<rect x="19.9" y="320" class="st3" width="19.9" height="20"/>
<rect x="39.8" y="300" class="st3" width="19.9" height="20"/>
<rect y="340" class="st3" width="19.9" height="20"/>
<rect x="19.9" y="360" class="st3" width="19.9" height="20"/>
<rect x="39.8" y="340" class="st3" width="19.9" height="20"/>
<rect y="380" class="st3" width="19.9" height="20"/>
<rect x="19.9" y="400" class="st3" width="19.9" height="20"/>
<rect x="39.8" y="380" class="st3" width="19.9" height="20"/>
<rect y="420" class="st3" width="19.9" height="20"/>
<rect x="39.8" y="420" class="st3" width="19.9" height="20"/>
<rect x="39.8" y="300" class="st3" width="19.9" height="20"/>
<rect x="59.8" y="320" class="st3" width="19.9" height="20"/>
<rect x="79.7" y="300" class="st3" width="19.9" height="20"/>
<rect x="39.8" y="340" class="st3" width="19.9" height="20"/>
<rect x="59.8" y="360" class="st3" width="19.9" height="20"/>
<rect x="79.7" y="340" class="st3" width="19.9" height="20"/>
<rect x="39.8" y="380" class="st3" width="19.9" height="20"/>
<rect x="59.8" y="400" class="st3" width="19.9" height="20"/>
<rect x="79.7" y="380" class="st3" width="19.9" height="20"/>
<rect x="39.8" y="420" class="st3" width="19.9" height="20"/>
<rect x="79.7" y="420" class="st3" width="19.9" height="20"/>
<rect x="318.8" y="300" class="st3" width="19.9" height="20"/>
<rect x="338.7" y="320" class="st3" width="19.9" height="20"/>
<rect x="358.6" y="300" class="st3" width="19.9" height="20"/>
<rect x="318.8" y="340" class="st3" width="19.9" height="20"/>
<rect x="338.7" y="360" class="st3" width="19.9" height="20"/>
<rect x="358.6" y="340" class="st3" width="19.9" height="20"/>
<rect x="318.8" y="380" class="st3" width="19.9" height="20"/>
<rect x="338.7" y="400" class="st3" width="19.9" height="20"/>
<rect x="358.6" y="380" class="st3" width="19.9" height="20"/>
<rect x="318.8" y="420" class="st3" width="19.9" height="20"/>
<rect x="358.6" y="420" class="st3" width="19.9" height="20"/>
<rect x="358.6" y="300" class="st3" width="19.9" height="20"/>
<rect x="378.5" y="320" class="st3" width="19.9" height="20"/>
<rect x="398.5" y="300" class="st3" width="19.9" height="20"/>
<rect x="358.6" y="340" class="st3" width="19.9" height="20"/>
<rect x="378.5" y="360" class="st3" width="19.9" height="20"/>
<rect x="398.5" y="340" class="st3" width="19.9" height="20"/>
<rect x="358.6" y="380" class="st3" width="19.9" height="20"/>
<rect x="378.5" y="400" class="st3" width="19.9" height="20"/>
<rect x="398.5" y="380" class="st3" width="19.9" height="20"/>
<rect x="358.6" y="420" class="st3" width="19.9" height="20"/>
<rect x="398.5" y="420" class="st3" width="19.9" height="20"/>
<rect x="159.4" y="300" class="st3" width="19.9" height="20"/>
<rect x="179.3" y="320" class="st3" width="19.9" height="20"/>
<rect x="199.2" y="300" class="st3" width="19.9" height="20"/>
<rect x="159.4" y="340" class="st3" width="19.9" height="20"/>
<rect x="179.3" y="360" class="st3" width="19.9" height="20"/>
<rect x="199.2" y="340" class="st3" width="19.9" height="20"/>
<rect x="159.4" y="380" class="st3" width="19.9" height="20"/>
<rect x="179.3" y="400" class="st3" width="19.9" height="20"/>
<rect x="199.2" y="380" class="st3" width="19.9" height="20"/>
<rect x="159.4" y="420" class="st3" width="19.9" height="20"/>
<rect x="199.2" y="420" class="st3" width="19.9" height="20"/>
<rect x="199.2" y="300" class="st3" width="19.9" height="20"/>
<rect x="219.2" y="320" class="st3" width="19.9" height="20"/>
<rect x="239.1" y="300" class="st3" width="19.9" height="20"/>
<rect x="199.2" y="340" class="st3" width="19.9" height="20"/>
<rect x="219.2" y="360" class="st3" width="19.9" height="20"/>
<rect x="239.1" y="340" class="st3" width="19.9" height="20"/>
<rect x="199.2" y="380" class="st3" width="19.9" height="20"/>
<rect x="219.2" y="400" class="st3" width="19.9" height="20"/>
<rect x="239.1" y="380" class="st3" width="19.9" height="20"/>
<rect x="199.2" y="420" class="st3" width="19.9" height="20"/>
<rect x="239.1" y="420" class="st3" width="19.9" height="20"/>
<rect x="79.7" y="300" class="st3" width="19.9" height="20"/>
<rect x="99.6" y="320" class="st3" width="19.9" height="20"/>
<rect x="119.5" y="300" class="st3" width="19.9" height="20"/>
<rect x="79.7" y="340" class="st3" width="19.9" height="20"/>
<rect x="99.6" y="360" class="st3" width="19.9" height="20"/>
<rect x="119.5" y="340" class="st3" width="19.9" height="20"/>
<rect x="79.7" y="380" class="st3" width="19.9" height="20"/>
<rect x="99.6" y="400" class="st3" width="19.9" height="20"/>
<rect x="119.5" y="380" class="st3" width="19.9" height="20"/>
<rect x="79.7" y="420" class="st3" width="19.9" height="20"/>
<rect x="119.5" y="420" class="st3" width="19.9" height="20"/>
<rect x="119.5" y="300" class="st3" width="19.9" height="20"/>
<rect x="139.5" y="320" class="st3" width="19.9" height="20"/>
<rect x="159.4" y="300" class="st3" width="19.9" height="20"/>
<rect x="119.5" y="340" class="st3" width="19.9" height="20"/>
<rect x="139.5" y="360" class="st3" width="19.9" height="20"/>
<rect x="159.4" y="340" class="st3" width="19.9" height="20"/>
<rect x="119.5" y="380" class="st3" width="19.9" height="20"/>
<rect x="139.5" y="400" class="st3" width="19.9" height="20"/>
<rect x="159.4" y="380" class="st3" width="19.9" height="20"/>
<rect x="119.5" y="420" class="st3" width="19.9" height="20"/>
<rect x="159.4" y="420" class="st3" width="19.9" height="20"/>
<rect x="239.1" y="300" class="st3" width="19.9" height="20"/>
<rect x="259" y="320" class="st3" width="19.9" height="20"/>
<rect x="278.9" y="300" class="st3" width="19.9" height="20"/>
<rect x="239.1" y="340" class="st3" width="19.9" height="20"/>
<rect x="259" y="360" class="st3" width="19.9" height="20"/>
<rect x="278.9" y="340" class="st3" width="19.9" height="20"/>
<rect x="239.1" y="380" class="st3" width="19.9" height="20"/>
<rect x="259" y="400" class="st3" width="19.9" height="20"/>
<rect x="278.9" y="380" class="st3" width="19.9" height="20"/>
<rect x="239.1" y="420" class="st3" width="19.9" height="20"/>
<rect x="278.9" y="420" class="st3" width="19.9" height="20"/>
<rect x="278.9" y="300" class="st3" width="19.9" height="20"/>
<rect x="298.9" y="320" class="st3" width="19.9" height="20"/>
<rect x="318.8" y="300" class="st3" width="19.9" height="20"/>
<rect x="278.9" y="340" class="st3" width="19.9" height="20"/>
<rect x="298.9" y="360" class="st3" width="19.9" height="20"/>
<rect x="318.8" y="340" class="st3" width="19.9" height="20"/>
<rect x="278.9" y="380" class="st3" width="19.9" height="20"/>
<rect x="298.9" y="400" class="st3" width="19.9" height="20"/>
<rect x="318.8" y="380" class="st3" width="19.9" height="20"/>
<rect x="278.9" y="420" class="st3" width="19.9" height="20"/>
<rect x="318.8" y="420" class="st3" width="19.9" height="20"/>
<rect x="398.5" y="300" class="st3" width="19.9" height="20"/>
<rect x="418.4" y="320" class="st3" width="19.9" height="20"/>
<rect x="438.3" y="300" class="st3" width="19.9" height="20"/>
<rect x="398.5" y="340" class="st3" width="19.9" height="20"/>
<rect x="418.4" y="360" class="st3" width="19.9" height="20"/>
<rect x="438.3" y="340" class="st3" width="19.9" height="20"/>
<rect x="398.5" y="380" class="st3" width="19.9" height="20"/>
<rect x="418.4" y="400" class="st3" width="19.9" height="20"/>
<rect x="438.3" y="380" class="st3" width="19.9" height="20"/>
<rect x="398.5" y="420" class="st3" width="19.9" height="20"/>
<rect x="438.3" y="420" class="st3" width="19.9" height="20"/>
<rect x="438.3" y="300" class="st3" width="19.9" height="20"/>
<rect x="458.2" y="320" class="st3" width="19.9" height="20"/>
<rect x="478.2" y="300" class="st3" width="19.9" height="20"/>
<rect x="438.3" y="340" class="st3" width="19.9" height="20"/>
<rect x="458.2" y="360" class="st3" width="19.9" height="20"/>
<rect x="478.2" y="340" class="st3" width="19.9" height="20"/>
<rect x="438.3" y="380" class="st3" width="19.9" height="20"/>
<rect x="458.2" y="400" class="st3" width="19.9" height="20"/>
<rect x="478.2" y="380" class="st3" width="19.9" height="20"/>
<rect x="498.1" y="320" class="st3" width="23.9" height="20"/>
<rect x="438.3" y="420" class="st3" width="19.9" height="20"/>
<rect x="478.2" y="420" class="st3" width="19.9" height="20"/>
<rect x="498.1" y="400" class="st3" width="23.9" height="20"/>
<rect x="498.1" y="360" class="st3" width="23.9" height="20"/>
</svg>
