<svg width="913" height="205" viewBox="0 0 913 205" fill="none" xmlns="http://www.w3.org/2000/svg">
<path d="M818.38 99.3995L731.173 182.987L728.35 17.4417L818.38 99.3995Z" fill="#FF029C"/>
<path d="M911.171 95.5777L816.318 179.236L813.494 13.6903L911.171 95.5777Z" fill="#FF029C"/>
<path d="M89.7878 107.4L-0.915855 191.019L-3.73919 25.4739L89.7878 107.4Z" fill="#FF029C"/>
<path d="M182.579 103.578L87.7257 187.236L84.9024 21.6903L182.579 103.578Z" fill="#FF029C"/>
<path d="M278.35 102.642L183.497 186.3L180.674 20.7542L278.35 102.642Z" fill="#FF029C"/>
<path d="M642.583 101.4L555.376 184.987L552.553 19.4417L642.583 101.4Z" fill="#FF029C"/>
<path d="M735.373 97.5777L640.521 181.236L637.697 15.6903L735.373 97.5777Z" fill="#FF029C"/>
<path d="M366.185 103.4L278.979 186.987L276.155 21.4417L366.185 103.4Z" fill="#FF029C"/>
<path d="M458.976 99.5777L364.123 183.236L361.3 17.6903L458.976 99.5777Z" fill="#FF029C"/>
<path d="M554.748 98.6417L459.895 182.3L457.072 16.7542L554.748 98.6417Z" fill="#FF029C"/>
</svg>
