<?xml version="1.0" encoding="utf-8"?>
<!-- Generator: Adobe Illustrator 24.3.0, SVG Export Plug-In . SVG Version: 6.00 Build 0)  -->
<svg version="1.1" id="Layer_1" xmlns="http://www.w3.org/2000/svg" xmlns:xlink="http://www.w3.org/1999/xlink" x="0px" y="0px"
	 viewBox="0 0 664 278" style="enable-background:new 0 0 664 278;" xml:space="preserve">
<style type="text/css">
	.st0{fill:#7D7C7C;}
</style>
<path class="st0" d="M396,62h263c2.76,0,5,2.24,5,5v35c0,2.76-2.24,5-5,5H396c-2.76,0-5-2.24-5-5V67C391,64.24,393.24,62,396,62z"/>
<path class="st0" d="M396,181h263c2.76,0,5,2.24,5,5v33c0,2.76-2.24,5-5,5H396c-2.76,0-5-2.24-5-5v-33
	C391,183.24,393.24,181,396,181z"/>
<path d="M301,0h178c12.15,0,22,9.85,22,22v234c0,12.15-9.85,22-22,22H301c-12.15,0-22-9.85-22-22V22C279,9.85,288.85,0,301,0z"/>
<rect x="230" y="107" width="49" height="67"/>
<path d="M0,127h283v21H0V127z"/>
</svg>
