<?xml version="1.0" encoding="utf-8"?>
<!-- Generator: Adobe Illustrator 23.1.1, SVG Export Plug-In . SVG Version: 6.00 Build 0)  -->
<svg version="1.1" id="Слой_1" xmlns="http://www.w3.org/2000/svg" xmlns:xlink="http://www.w3.org/1999/xlink" x="0px" y="0px"
	 viewBox="0 0 651 842" style="enable-background:new 0 0 651 842;" xml:space="preserve">
<style type="text/css">
	.st0{fill:none;stroke:#FFFFFF;stroke-width:2;}
	.st1{fill:#FF029C;}
	.st2{stroke:#000000;stroke-miterlimit:10;}
</style>
<line class="st0" x1="300" y1="-25.3" x2="329" y2="-25.3"/>
<rect y="31.2" class="st1" width="651" height="810.8"/>
<rect y="-8.2" width="650" height="225.1"/>
<path d="M99.2,331v-47.9H78.8V331H99.2z M132.8,283c4.2,0,7.9,1.1,11.3,3.3c3.4,2.2,6.1,5.1,8.1,8.7c2,3.6,3.1,7.6,3.1,12
	c0,4.4-1,8.5-3.1,12.1c-2,3.6-4.7,6.5-8.1,8.7c-3.4,2.1-7.2,3.2-11.3,3.2h-22.4v-48H132.8z M136.8,317c0,0-0.2-0.4-0.5-1.2
	c-0.3-0.8-0.6-2-1-3.5c-0.3-1.5-0.5-3.3-0.5-5.3c0-2,0.2-3.8,0.5-5.3c0.3-1.5,0.6-2.6,1-3.5c0.3-0.8,0.5-1.2,0.5-1.2
	s-0.1,0.1-0.4,0.3c-0.2,0.2-0.6,0.4-1,0.7c-0.4,0.3-0.8,0.5-1.3,0.7c-0.5,0.2-1,0.3-1.4,0.3c-0.4,0-0.9-0.1-1.4-0.3
	c-0.5-0.2-0.9-0.4-1.3-0.7c-0.4-0.3-0.7-0.5-0.9-0.7c-0.2-0.2-0.4-0.3-0.4-0.3s0.2,0.4,0.5,1.2c0.3,0.8,0.6,2,1,3.5
	c0.3,1.5,0.5,3.3,0.5,5.3c0,2-0.2,3.8-0.5,5.3c-0.3,1.5-0.6,2.6-1,3.5c-0.3,0.8-0.5,1.2-0.5,1.2s0.1-0.1,0.3-0.3
	c0.2-0.2,0.5-0.4,0.9-0.7c0.4-0.3,0.8-0.5,1.3-0.7c0.5-0.2,1-0.3,1.4-0.3c0.5,0,1,0.1,1.5,0.3c0.5,0.2,0.9,0.4,1.3,0.7
	c0.4,0.3,0.7,0.5,0.9,0.7C136.7,316.9,136.8,317,136.8,317z M192.6,317.2c2.2,0,4,0.1,5.6,0.3V331h-37.5v-47.9h20.7
	c0,8.7-0.2,15.7-0.5,21.1c-0.3,5.3-0.6,9.2-0.9,11.6c-0.3,2.4-0.4,3.6-0.4,3.6s0.4-0.2,1.3-0.5c0.9-0.3,2.3-0.7,4.2-1
	S189.5,317.2,192.6,317.2z M204.2,283.1h44.9v11.7c0,0-0.4,0.2-1.3,0.5c-0.8,0.3-2.2,0.7-4.1,1s-4.5,0.5-7.6,0.5
	c-3.1,0-5.6-0.2-7.6-0.5s-3.3-0.7-4.2-1c-0.8-0.3-1.3-0.5-1.3-0.5s0.1,0.1,0.3,0.4c0.2,0.3,0.4,0.6,0.7,1c0.2,0.4,0.5,0.8,0.7,1.3
	c0.2,0.5,0.3,1,0.3,1.6c0,0.5-0.1,1-0.3,1.5s-0.4,1-0.7,1.4c-0.2,0.4-0.5,0.7-0.7,1c-0.2,0.2-0.3,0.3-0.3,0.3s0.4-0.2,1.3-0.5
	c0.9-0.3,2.3-0.7,4.2-1s4.4-0.5,7.6-0.5c1.8,0,3.4,0.1,4.8,0.3c-0.2,0.3-0.5,0.9-0.9,1.8c-0.4,0.9-0.5,2.2-0.5,3.8
	c0,1.6,0.2,2.8,0.5,3.8c0.4,0.9,0.7,1.5,0.9,1.8c-1.4,0.1-3,0.2-4.8,0.2c-3.1,0-5.6-0.2-7.6-0.5c-1.9-0.3-3.3-0.7-4.2-1
	c-0.8-0.3-1.3-0.5-1.3-0.5s0.1,0.1,0.3,0.4c0.2,0.2,0.4,0.5,0.7,1c0.2,0.4,0.5,0.8,0.7,1.3s0.3,1,0.3,1.6c0,0.5-0.1,1-0.3,1.5
	c-0.2,0.5-0.4,1-0.7,1.4c-0.2,0.4-0.5,0.7-0.7,1c-0.2,0.2-0.3,0.3-0.3,0.3s0.4-0.2,1.3-0.5c0.9-0.3,2.3-0.7,4.2-1s4.4-0.5,7.6-0.5
	c3.2,0,5.7,0.2,7.6,0.5s3.3,0.7,4.1,1c0.9,0.3,1.3,0.5,1.3,0.5V331h-44.9V283.1z M294.7,306.7c1.2,2.3,1.9,4.6,1.9,7
	c0.1,2.4-0.2,4.5-1,6.3c-2,4.1-4.8,7.1-8.5,8.9c-3.7,1.8-7.9,2.7-12.5,2.7c-3.2,0-6.5-0.3-9.9-0.8c-3.4-0.6-6.5-1.8-9.4-3.8
	c1.8-3.2,2.8-6.9,3.1-11.3c2.3-0.3,5.1-0.3,8.3,0c2,0.3,3.8,0.7,5.5,1.2c1.7,0.5,3.1,1,4.2,1.5c1.1,0.5,1.6,0.7,1.6,0.7
	s-0.1-0.1-0.3-0.4c-0.2-0.3-0.4-0.6-0.7-1c-0.2-0.4-0.5-0.9-0.7-1.4c-0.2-0.5-0.3-1.1-0.3-1.7c0-0.6,0.1-1.1,0.3-1.6
	c0.2-0.5,0.4-1,0.7-1.4c0.3-0.4,0.5-0.8,0.7-1c0.2-0.3,0.3-0.4,0.3-0.4s-0.5,0.2-1.6,0.7c-1,0.5-2.4,0.9-4.1,1.3
	c-1.7,0.4-3.6,0.7-5.6,0.7c-2,0-4-0.4-5.9-1.2c-2.8-1.3-4.7-3-5.9-5.2c-1.2-2.2-1.9-4.5-2-6.9c0-2.4,0.3-4.5,1-6.3
	c2-4.1,4.8-7.1,8.5-8.9c3.7-1.8,7.9-2.8,12.5-2.8c3.2,0,6.5,0.3,9.9,0.8c3.4,0.6,6.6,1.8,9.4,3.8c-1.7,3.2-2.7,6.9-3.1,11.3
	c-2.3,0.3-5.1,0.3-8.3,0c-2-0.3-3.9-0.6-5.6-1.2c-1.7-0.6-3.1-1.1-4.1-1.5c-1.1-0.5-1.6-0.7-1.6-0.7s0.1,0.1,0.3,0.4
	c0.2,0.3,0.4,0.6,0.7,1c0.3,0.4,0.5,0.9,0.7,1.4c0.2,0.5,0.3,1,0.3,1.6c0,0.6-0.1,1.2-0.3,1.7c-0.2,0.5-0.4,1-0.7,1.4
	c-0.2,0.4-0.5,0.8-0.7,1c-0.2,0.2-0.3,0.3-0.3,0.3s0.5-0.2,1.6-0.6c1.1-0.5,2.5-0.9,4.1-1.3c1.7-0.4,3.6-0.6,5.6-0.6
	c2,0,4,0.3,5.9,1.1C291.5,302.9,293.5,304.6,294.7,306.7z"/>
<path d="M357.1,350.4c3.4,0,6.5,0.9,9.4,2.7c2.8,1.8,5.1,4.2,6.8,7.2c1.7,3,2.5,6.3,2.5,10c0,3.7-0.8,7-2.5,10
	c-1.7,3-3.9,5.4-6.8,7.2c-2.8,1.8-5.9,2.7-9.4,2.7c-3.5,0-6.6-0.9-9.4-2.7c-2.8-1.8-5.1-4.2-6.8-7.2c-1.7-3-2.5-6.4-2.5-10
	c0-3.7,0.8-7,2.5-10c1.7-3,4-5.4,6.8-7.2C350.5,351.3,353.7,350.4,357.1,350.4z M360.4,378.6c0,0-0.1-0.3-0.4-1
	c-0.3-0.7-0.5-1.6-0.8-2.9c-0.3-1.3-0.4-2.7-0.4-4.4c0-1.7,0.1-3.2,0.4-4.4c0.3-1.3,0.5-2.2,0.8-2.9c0.3-0.7,0.4-1,0.4-1
	s-0.1,0.1-0.3,0.3c-0.2,0.2-0.4,0.4-0.8,0.6c-0.3,0.2-0.7,0.4-1.1,0.6s-0.8,0.3-1.2,0.3c-0.4,0-0.8-0.1-1.2-0.3
	c-0.4-0.2-0.7-0.4-1.1-0.6c-0.3-0.2-0.6-0.4-0.8-0.6c-0.2-0.2-0.3-0.3-0.3-0.3s0.1,0.3,0.4,1c0.3,0.7,0.5,1.7,0.8,2.9
	c0.3,1.2,0.4,2.7,0.4,4.4c0,1.7-0.1,3.1-0.4,4.4c-0.3,1.2-0.5,2.2-0.8,2.9c-0.3,0.7-0.4,1-0.4,1s0.1-0.1,0.2-0.3
	c0.2-0.2,0.4-0.4,0.8-0.6c0.3-0.2,0.7-0.4,1.1-0.6c0.4-0.2,0.8-0.3,1.2-0.3c0.4,0,0.8,0.1,1.2,0.3c0.4,0.2,0.7,0.4,1.1,0.6
	c0.3,0.2,0.6,0.4,0.8,0.6C360.3,378.5,360.4,378.6,360.4,378.6z M398.3,365.8c5.5-0.5,10,0.2,13.4,2.2c3.5,2,5.2,5.4,5,10
	c-0.4,3.4-2.3,6.3-5.7,8.7c-3.4,2.3-7.7,3.5-12.8,3.5c-8.1,0-14-2.8-17.5-8.3c0,0,0,0.1,0,0.1c0-0.1,0-0.1,0-0.2c0,0,0-0.1,0-0.1
	c0,0,0,0,0-0.1c0,0,0-0.1,0-0.1c-1.3-2.8-1.9-6.2-1.9-10.2c0.1-4,1-7.8,2.6-11.3c3.8-6.1,9.3-9.2,16.6-9.2c5,0,10.1,1.2,15.3,3.6
	c-1.6,2.8-2.6,6.1-3,9.9c-2.3,0.4-6.2,0.4-11.6,0.1c-2.6-0.4-4.7-0.9-6.1-1.7c-1.4-0.8-2.2-1.2-2.2-1.2s0.1,0.3,0.3,0.8
	c0.2,0.5,0.4,1.2,0.6,2c0.2,0.8,0.3,1.7,0.3,2.7C393.7,366.4,396,366,398.3,365.8z M400.8,380.5c0,0-0.1-0.2-0.4-0.6
	c-0.3-0.4-0.5-0.9-0.8-1.5c-0.3-0.7-0.4-1.5-0.4-2.4c0-0.9,0.1-1.7,0.4-2.3c0.3-0.7,0.6-1.2,0.8-1.6c0.3-0.4,0.4-0.6,0.4-0.6
	s-0.2,0.1-0.5,0.3c-0.3,0.1-0.7,0.3-1.2,0.5c-0.5,0.1-1,0.2-1.5,0.2c-0.6,0-1.1-0.1-1.6-0.2c-0.5-0.2-0.9-0.3-1.2-0.5
	c-0.3-0.2-0.5-0.3-0.5-0.3s0.1,0.2,0.4,0.6c0.3,0.4,0.6,0.9,0.8,1.6c0.3,0.6,0.4,1.4,0.4,2.3c0,0.9-0.1,1.7-0.4,2.4
	c-0.3,0.6-0.5,1.2-0.8,1.5c-0.3,0.4-0.4,0.6-0.4,0.6s0.2-0.1,0.5-0.2c0.4-0.2,0.8-0.3,1.2-0.5c0.5-0.2,1-0.3,1.6-0.3
	c0.5,0,1,0.1,1.5,0.3c0.5,0.1,0.9,0.3,1.2,0.5C400.7,380.4,400.8,380.5,400.8,380.5z M428.3,385.3c0,1.2-0.4,2.3-1.2,3.1
	c-0.8,0.9-1.8,1.3-2.9,1.3c-1.2,0-2.1-0.4-3-1.3c-0.8-0.9-1.2-1.9-1.2-3.1c0-1.2,0.4-2.3,1.2-3.1c0.8-0.9,1.8-1.3,3-1.3
	c1.1,0,2.1,0.4,2.9,1.3C427.8,383,428.3,384,428.3,385.3z M439.7,351.3H456v38.4h-16.3v-20.7c0.9-0.6,1.6-1.3,2.2-1.9
	c0.5-0.7,0.9-1.3,1.1-1.8c0.2-0.5,0.4-1,0.4-1.3c0-0.3,0-0.5,0-0.5c-0.5,0.8-1.1,1.4-1.7,1.9c-0.5,0.5-1,1-1.4,1.3
	c-0.4,0.3-0.5,0.5-0.6,0.5v-0.1c-1.1,0.8-1.9,1.4-2.5,1.6c-0.6,0.3-0.9,0.4-0.9,0.4l-5.1-8.1c1.6-1.1,3.1-2.4,4.4-3.9s2.3-2.9,3-4
	C439.3,351.9,439.7,351.3,439.7,351.3z M487,374.1c-1.5,0.6-3.2,1-4.9,1c-1.8,0.1-3.4,0-5-0.2c-1.6-0.2-2.9-0.5-4-0.8
	c-1-0.3-1.5-0.4-1.5-0.4s0.1,0.1,0.2,0.3c0.2,0.2,0.3,0.4,0.5,0.8c0.2,0.3,0.4,0.7,0.5,1.1c0.2,0.4,0.2,0.8,0.2,1.3
	s-0.1,0.9-0.2,1.3c-0.1,0.4-0.3,0.8-0.5,1.1c-0.2,0.3-0.4,0.6-0.5,0.8c-0.1,0.2-0.2,0.3-0.2,0.3s0.5-0.2,1.4-0.6
	c1-0.4,2.2-0.8,3.6-1.2c1.5-0.4,3-0.8,4.5-0.9c1.5-0.2,2.9-0.2,4.3-0.2c1.4,0,3.1,0.2,5.2,0.5v11.4c0,0-0.8,0-2.5,0
	c-1.6,0-3.5,0-5.7,0s-4.2,0-6,0c-2.4,0-4.7,0-7,0c-2.3,0-4.2,0-5.8,0c-1.5,0-2.3,0-2.4,0c-1.1-1.6-1.8-3.9-2-6.8
	c-0.2-3,0.3-5.9,1.3-8.9c1.1-2.9,3-5.2,5.7-6.7c2-0.9,3.9-1.3,5.8-1.3c1.9,0,3.5,0.2,4.8,0.6c1.3,0.4,1.9,0.6,1.9,0.6
	s-0.1-0.1-0.2-0.3c-0.2-0.2-0.3-0.5-0.5-0.8c-0.2-0.3-0.4-0.7-0.5-1.1c-0.2-0.4-0.2-0.9-0.2-1.3c0-0.4,0.1-0.9,0.2-1.3
	c0.2-0.4,0.3-0.8,0.5-1.1c0.2-0.3,0.4-0.6,0.5-0.8c0.2-0.2,0.2-0.3,0.2-0.3s-0.4,0.2-1.2,0.6c-0.8,0.3-1.9,0.7-3.2,1.1
	c-1.3,0.4-2.7,0.7-4.3,0.9c-2.5,0.3-4.6,0.3-6.4,0c-0.2-3.4-1-6.4-2.4-8.9c2.2-1.5,4.6-2.5,7.2-2.9c2.6-0.4,5.2-0.7,7.6-0.7
	c3.6,0,6.8,0.7,9.6,2.2s5,3.8,6.5,7c0.6,1.4,0.8,3.1,0.8,5c0,1.9-0.5,3.7-1.5,5.5C490.6,371.7,489.1,373.1,487,374.1z"/>
<path d="M356,501.7h16.3v38.4H356v-20.7c0.9-0.6,1.6-1.3,2.2-1.9c0.5-0.7,0.9-1.3,1.1-1.8c0.2-0.5,0.4-1,0.4-1.3c0-0.3,0-0.5,0-0.5
	c-0.5,0.8-1.1,1.4-1.7,1.9c-0.5,0.5-1,1-1.4,1.3c-0.4,0.3-0.5,0.5-0.6,0.5v-0.1c-1.1,0.8-1.9,1.4-2.5,1.6c-0.6,0.3-0.9,0.4-0.9,0.4
	l-5.1-8.1c1.6-1.1,3.1-2.4,4.4-3.9c1.3-1.5,2.3-2.9,3-4C355.6,502.3,356,501.7,356,501.7z M393.3,501.7h13.1v38.4h-14.8
	c0,0,0-0.7,0.1-2.1c0.1-1.4,0.2-3.3,0.4-5.6h-16.8v-10.7c0,0,0.6-1.6,1.8-4.8c1.2-3.2,1.9-8.3,1.9-15.2h12.7c0,0,0,0.6,0,1.9
	c0,1.3,0,2.8-0.2,4.7c-0.2,1.8-0.5,3.8-1,5.7c-0.5,2-1.2,3.7-2.3,5.3v2.2h4.4C393.1,513.7,393.3,507.1,393.3,501.7z M417.6,535.7
	c0,1.2-0.4,2.3-1.2,3.1c-0.8,0.9-1.8,1.3-2.9,1.3c-1.2,0-2.1-0.4-3-1.3c-0.8-0.9-1.2-1.9-1.2-3.1c0-1.2,0.4-2.3,1.2-3.1
	c0.8-0.9,1.8-1.3,3-1.3c1.1,0,2.1,0.4,2.9,1.3C417.2,533.4,417.6,534.5,417.6,535.7z M439.1,500.8c3.4,0,6.5,0.9,9.4,2.7
	c2.8,1.8,5.1,4.2,6.8,7.2c1.7,3,2.5,6.3,2.5,10c0,3.7-0.8,7-2.5,10c-1.7,3-3.9,5.4-6.8,7.2c-2.8,1.8-5.9,2.7-9.4,2.7
	c-3.5,0-6.6-0.9-9.4-2.7c-2.8-1.8-5.1-4.2-6.8-7.2c-1.7-3-2.5-6.4-2.5-10c0-3.7,0.8-7,2.5-10c1.7-3,4-5.4,6.8-7.2
	C432.6,501.7,435.7,500.8,439.1,500.8z M442.5,529c0,0-0.1-0.3-0.4-1c-0.3-0.7-0.5-1.6-0.8-2.9c-0.3-1.3-0.4-2.7-0.4-4.4
	c0-1.7,0.1-3.2,0.4-4.4c0.3-1.3,0.5-2.2,0.8-2.9c0.3-0.7,0.4-1,0.4-1s-0.1,0.1-0.3,0.3c-0.2,0.2-0.4,0.4-0.8,0.6
	c-0.3,0.2-0.7,0.4-1.1,0.6c-0.4,0.2-0.8,0.3-1.2,0.3c-0.4,0-0.8-0.1-1.2-0.3c-0.4-0.2-0.7-0.4-1.1-0.6c-0.3-0.2-0.6-0.4-0.8-0.6
	c-0.2-0.2-0.3-0.3-0.3-0.3s0.1,0.3,0.4,1c0.3,0.7,0.5,1.7,0.8,2.9c0.3,1.2,0.4,2.7,0.4,4.4c0,1.7-0.1,3.1-0.4,4.4
	c-0.3,1.2-0.5,2.2-0.8,2.9c-0.3,0.7-0.4,1-0.4,1s0.1-0.1,0.2-0.3c0.2-0.2,0.4-0.4,0.8-0.6c0.3-0.2,0.7-0.4,1.1-0.6
	c0.4-0.2,0.8-0.3,1.2-0.3c0.4,0,0.8,0.1,1.2,0.3c0.4,0.2,0.7,0.4,1.1,0.6c0.3,0.2,0.6,0.4,0.8,0.6C442.4,528.9,442.5,529,442.5,529z
	 M469.2,501.7h16.3v38.4h-16.3v-20.7c0.9-0.6,1.6-1.3,2.2-1.9c0.5-0.7,0.9-1.3,1.1-1.8c0.2-0.5,0.4-1,0.4-1.3c0-0.3,0-0.5,0-0.5
	c-0.5,0.8-1.1,1.4-1.7,1.9c-0.5,0.5-1,1-1.4,1.3c-0.4,0.3-0.5,0.5-0.6,0.5v-0.1c-1.1,0.8-1.9,1.4-2.5,1.6c-0.6,0.3-0.9,0.4-0.9,0.4
	l-5.1-8.1c1.6-1.1,3.1-2.4,4.4-3.9c1.3-1.5,2.3-2.9,3-4C468.9,502.3,469.2,501.7,469.2,501.7z"/>
<path d="M373.5,670.7c-1.5,0.6-3.2,1-4.9,1c-1.8,0.1-3.4,0-5-0.2c-1.6-0.2-2.9-0.5-4-0.8c-1-0.3-1.5-0.4-1.5-0.4s0.1,0.1,0.2,0.3
	c0.2,0.2,0.3,0.4,0.5,0.8c0.2,0.3,0.4,0.7,0.5,1.1c0.2,0.4,0.2,0.8,0.2,1.3s-0.1,0.9-0.2,1.3c-0.1,0.4-0.3,0.8-0.5,1.1
	c-0.2,0.3-0.4,0.6-0.5,0.8c-0.1,0.2-0.2,0.3-0.2,0.3s0.5-0.2,1.4-0.6c1-0.4,2.2-0.8,3.6-1.2c1.5-0.4,3-0.8,4.5-0.9
	c1.5-0.2,2.9-0.2,4.3-0.2c1.4,0,3.1,0.2,5.2,0.5v11.4c0,0-0.8,0-2.5,0c-1.6,0-3.5,0-5.7,0s-4.2,0-6,0c-2.4,0-4.7,0-7,0
	c-2.3,0-4.2,0-5.8,0c-1.5,0-2.3,0-2.4,0c-1.1-1.6-1.8-3.9-2-6.8c-0.2-3,0.3-5.9,1.3-8.9c1.1-2.9,3-5.2,5.7-6.7
	c2-0.9,3.9-1.3,5.8-1.3s3.5,0.2,4.8,0.6s1.9,0.6,1.9,0.6s-0.1-0.1-0.2-0.3c-0.2-0.2-0.3-0.5-0.5-0.8c-0.2-0.3-0.4-0.7-0.5-1.1
	c-0.2-0.4-0.2-0.9-0.2-1.3c0-0.4,0.1-0.9,0.2-1.3c0.2-0.4,0.3-0.8,0.5-1.1c0.2-0.3,0.4-0.6,0.5-0.8c0.2-0.2,0.2-0.3,0.2-0.3
	s-0.4,0.2-1.2,0.6c-0.8,0.3-1.9,0.7-3.2,1.1c-1.3,0.4-2.7,0.7-4.3,0.9c-2.5,0.3-4.6,0.3-6.4,0c-0.2-3.4-1-6.4-2.4-8.9
	c2.2-1.5,4.6-2.5,7.2-2.9c2.6-0.4,5.2-0.7,7.6-0.7c3.6,0,6.8,0.7,9.6,2.2c2.8,1.4,5,3.8,6.5,7c0.6,1.4,0.8,3.1,0.8,5
	c0,1.9-0.5,3.7-1.5,5.5C377.2,668.3,375.6,669.7,373.5,670.7z M401.2,646.9c3.4,0,6.5,0.9,9.4,2.7c2.8,1.8,5.1,4.2,6.8,7.2
	c1.7,3,2.5,6.3,2.5,10c0,3.7-0.8,7-2.5,10c-1.7,3-3.9,5.4-6.8,7.2c-2.8,1.8-5.9,2.7-9.4,2.7c-3.5,0-6.6-0.9-9.4-2.7
	c-2.8-1.8-5.1-4.2-6.8-7.2c-1.7-3-2.5-6.4-2.5-10c0-3.7,0.8-7,2.5-10c1.7-3,4-5.4,6.8-7.2C394.6,647.8,397.8,646.9,401.2,646.9z
	 M404.5,675.1c0,0-0.1-0.3-0.4-1c-0.3-0.7-0.5-1.6-0.8-2.9c-0.3-1.3-0.4-2.7-0.4-4.4c0-1.7,0.1-3.2,0.4-4.4c0.3-1.3,0.5-2.2,0.8-2.9
	c0.3-0.7,0.4-1,0.4-1s-0.1,0.1-0.3,0.3c-0.2,0.2-0.4,0.4-0.8,0.6c-0.3,0.2-0.7,0.4-1.1,0.6s-0.8,0.3-1.2,0.3c-0.4,0-0.8-0.1-1.2-0.3
	c-0.4-0.2-0.7-0.4-1.1-0.6c-0.3-0.2-0.6-0.4-0.8-0.6c-0.2-0.2-0.3-0.3-0.3-0.3s0.1,0.3,0.4,1c0.3,0.7,0.5,1.7,0.8,2.9
	c0.3,1.2,0.4,2.7,0.4,4.4c0,1.7-0.1,3.1-0.4,4.4c-0.3,1.2-0.5,2.2-0.8,2.9c-0.3,0.7-0.4,1-0.4,1s0.1-0.1,0.2-0.3
	c0.2-0.2,0.4-0.4,0.8-0.6c0.3-0.2,0.7-0.4,1.1-0.6c0.4-0.2,0.8-0.3,1.2-0.3c0.4,0,0.8,0.1,1.2,0.3c0.4,0.2,0.7,0.4,1.1,0.6
	c0.3,0.2,0.6,0.4,0.8,0.6C404.5,675.1,404.5,675.1,404.5,675.1z M431.1,681.8c0,1.2-0.4,2.3-1.2,3.1c-0.8,0.9-1.8,1.3-2.9,1.3
	c-1.2,0-2.1-0.4-3-1.3c-0.8-0.9-1.2-1.9-1.2-3.1c0-1.2,0.4-2.3,1.2-3.1c0.8-0.9,1.8-1.3,3-1.3c1.1,0,2.1,0.4,2.9,1.3
	C430.7,679.6,431.1,680.6,431.1,681.8z M452.7,646.9c3.4,0,6.5,0.9,9.4,2.7c2.8,1.8,5.1,4.2,6.8,7.2c1.7,3,2.5,6.3,2.5,10
	c0,3.7-0.8,7-2.5,10c-1.7,3-3.9,5.4-6.8,7.2c-2.8,1.8-5.9,2.7-9.4,2.7c-3.5,0-6.6-0.9-9.4-2.7c-2.8-1.8-5.1-4.2-6.8-7.2
	c-1.7-3-2.5-6.4-2.5-10c0-3.7,0.8-7,2.5-10c1.7-3,4-5.4,6.8-7.2C446.1,647.8,449.2,646.9,452.7,646.9z M456,675.1c0,0-0.1-0.3-0.4-1
	c-0.3-0.7-0.5-1.6-0.8-2.9c-0.3-1.3-0.4-2.7-0.4-4.4c0-1.7,0.1-3.2,0.4-4.4c0.3-1.3,0.5-2.2,0.8-2.9c0.3-0.7,0.4-1,0.4-1
	s-0.1,0.1-0.3,0.3c-0.2,0.2-0.4,0.4-0.8,0.6c-0.3,0.2-0.7,0.4-1.1,0.6s-0.8,0.3-1.2,0.3c-0.4,0-0.8-0.1-1.2-0.3
	c-0.4-0.2-0.7-0.4-1.1-0.6c-0.3-0.2-0.6-0.4-0.8-0.6c-0.2-0.2-0.3-0.3-0.3-0.3s0.1,0.3,0.4,1c0.3,0.7,0.5,1.7,0.8,2.9
	c0.3,1.2,0.4,2.7,0.4,4.4c0,1.7-0.1,3.1-0.4,4.4c-0.3,1.2-0.5,2.2-0.8,2.9c-0.3,0.7-0.4,1-0.4,1s0.1-0.1,0.2-0.3
	c0.2-0.2,0.4-0.4,0.8-0.6c0.3-0.2,0.7-0.4,1.1-0.6c0.4-0.2,0.8-0.3,1.2-0.3c0.4,0,0.8,0.1,1.2,0.3c0.4,0.2,0.7,0.4,1.1,0.6
	c0.3,0.2,0.6,0.4,0.8,0.6C455.9,675.1,456,675.1,456,675.1z M502.3,670.7c-1.5,0.6-3.2,1-4.9,1c-1.8,0.1-3.4,0-5-0.2
	c-1.6-0.2-2.9-0.5-4-0.8c-1-0.3-1.5-0.4-1.5-0.4s0.1,0.1,0.2,0.3c0.2,0.2,0.3,0.4,0.5,0.8c0.2,0.3,0.4,0.7,0.5,1.1
	c0.2,0.4,0.2,0.8,0.2,1.3s-0.1,0.9-0.2,1.3c-0.1,0.4-0.3,0.8-0.5,1.1c-0.2,0.3-0.4,0.6-0.5,0.8c-0.1,0.2-0.2,0.3-0.2,0.3
	s0.5-0.2,1.4-0.6c1-0.4,2.2-0.8,3.6-1.2c1.5-0.4,3-0.8,4.5-0.9c1.5-0.2,2.9-0.2,4.3-0.2c1.4,0,3.1,0.2,5.2,0.5v11.4c0,0-0.8,0-2.5,0
	c-1.6,0-3.5,0-5.7,0s-4.2,0-6,0c-2.4,0-4.7,0-7,0c-2.3,0-4.2,0-5.8,0c-1.5,0-2.3,0-2.4,0c-1.1-1.6-1.8-3.9-2-6.8
	c-0.2-3,0.3-5.9,1.3-8.9c1.1-2.9,3-5.2,5.7-6.7c2-0.9,3.9-1.3,5.8-1.3s3.5,0.2,4.8,0.6c1.3,0.4,1.9,0.6,1.9,0.6s-0.1-0.1-0.2-0.3
	s-0.3-0.5-0.5-0.8c-0.2-0.3-0.4-0.7-0.5-1.1c-0.2-0.4-0.2-0.9-0.2-1.3c0-0.4,0.1-0.9,0.2-1.3c0.2-0.4,0.3-0.8,0.5-1.1
	c0.2-0.3,0.4-0.6,0.5-0.8c0.2-0.2,0.2-0.3,0.2-0.3s-0.4,0.2-1.2,0.6c-0.8,0.3-1.9,0.7-3.2,1.1c-1.3,0.4-2.7,0.7-4.3,0.9
	c-2.5,0.3-4.6,0.3-6.4,0c-0.2-3.4-1-6.4-2.4-8.9c2.2-1.5,4.6-2.5,7.2-2.9c2.6-0.4,5.2-0.7,7.6-0.7c3.6,0,6.8,0.7,9.6,2.2
	c2.8,1.4,5,3.8,6.5,7c0.6,1.4,0.8,3.1,0.8,5c0,1.9-0.5,3.7-1.5,5.5C505.9,668.3,504.4,669.7,502.3,670.7z"/>
<path d="M82,351.3h16.3v38.4H82v-20.7c0.9-0.6,1.6-1.3,2.2-1.9c0.5-0.7,0.9-1.3,1.1-1.8c0.2-0.5,0.4-1,0.4-1.3c0-0.3,0-0.5,0-0.5
	c-0.5,0.8-1.1,1.4-1.7,1.9c-0.5,0.5-1,1-1.4,1.3c-0.4,0.3-0.5,0.5-0.6,0.5v-0.1c-1.1,0.8-1.9,1.4-2.5,1.6c-0.6,0.3-0.9,0.4-0.9,0.4
	l-5.1-8.1c1.6-1.1,3.1-2.4,4.4-3.9s2.3-2.9,3-4C81.6,351.9,82,351.3,82,351.3z M120,375.2c-5.5,0.5-10-0.2-13.5-2.2
	c-3.5-2-5.2-5.4-5-10c0.4-3.4,2.2-6.3,5.7-8.7c3.5-2.4,7.7-3.5,12.9-3.5c8.1,0,14,2.8,17.5,8.3c0,0,0,0.1,0,0.2c0,0,0,0.1,0,0.1
	c0,0,0,0,0,0c0,0,0,0.1,0,0.1c1.3,2.8,1.9,6.3,1.8,10.3c-0.1,4-0.9,7.8-2.5,11.3c-3.8,6.1-9.3,9.2-16.7,9.2c-5,0-10.1-1.2-15.3-3.6
	c1.6-2.8,2.6-6.1,3-9.9c2.3-0.4,6.2-0.4,11.6-0.1c2.6,0.4,4.7,0.9,6.1,1.7c1.4,0.8,2.2,1.1,2.2,1.1s-0.1-0.3-0.3-0.8
	c-0.2-0.5-0.4-1.2-0.6-2c-0.2-0.9-0.3-1.8-0.3-2.7C124.6,374.6,122.3,375,120,375.2z M117.4,360.5c0,0,0.1,0.2,0.4,0.6
	c0.3,0.4,0.6,0.9,0.8,1.6c0.3,0.6,0.4,1.4,0.4,2.4c0,0.9-0.1,1.7-0.4,2.4c-0.3,0.6-0.5,1.2-0.8,1.5c-0.3,0.4-0.4,0.6-0.4,0.6
	s0.2-0.1,0.5-0.2c0.3-0.2,0.7-0.3,1.2-0.5c0.5-0.2,1-0.3,1.6-0.3s1.1,0.1,1.5,0.3c0.5,0.1,0.9,0.3,1.2,0.5c0.3,0.1,0.5,0.2,0.5,0.2
	s-0.1-0.2-0.4-0.6c-0.3-0.4-0.5-0.9-0.8-1.5c-0.3-0.7-0.4-1.5-0.4-2.4c0-0.9,0.1-1.7,0.4-2.4c0.3-0.7,0.5-1.2,0.8-1.6
	c0.3-0.4,0.4-0.6,0.4-0.6s-0.2,0.1-0.5,0.3c-0.3,0.1-0.7,0.3-1.2,0.5c-0.5,0.1-1,0.2-1.5,0.2s-1-0.1-1.5-0.2
	c-0.5-0.2-0.9-0.3-1.3-0.5C117.6,360.6,117.4,360.5,117.4,360.5z M150.8,385.3c0,1.2-0.4,2.3-1.2,3.1c-0.8,0.9-1.8,1.3-2.9,1.3
	c-1.2,0-2.1-0.4-3-1.3c-0.8-0.9-1.2-1.9-1.2-3.1c0-1.2,0.4-2.3,1.2-3.1c0.8-0.9,1.8-1.3,3-1.3c1.1,0,2.1,0.4,2.9,1.3
	C150.4,383,150.8,384,150.8,385.3z M150.8,365.8c0,1.2-0.4,2.3-1.2,3.2c-0.8,0.9-1.8,1.3-2.9,1.3c-1.2,0-2.1-0.4-3-1.3
	c-0.8-0.9-1.2-1.9-1.2-3.2s0.4-2.3,1.2-3.1c0.8-0.9,1.8-1.3,3-1.3c1.1,0,2.1,0.4,2.9,1.3C150.4,363.5,150.8,364.6,150.8,365.8z
	 M172.4,350.4c3.4,0,6.5,0.9,9.4,2.7c2.8,1.8,5.1,4.2,6.8,7.2c1.7,3,2.5,6.3,2.5,10c0,3.7-0.8,7-2.5,10c-1.7,3-3.9,5.4-6.8,7.2
	c-2.8,1.8-5.9,2.7-9.4,2.7c-3.5,0-6.6-0.9-9.4-2.7c-2.8-1.8-5.1-4.2-6.8-7.2c-1.7-3-2.5-6.4-2.5-10c0-3.7,0.8-7,2.5-10
	c1.7-3,4-5.4,6.8-7.2C165.8,351.3,169,350.4,172.4,350.4z M175.7,378.6c0,0-0.1-0.3-0.4-1c-0.3-0.7-0.5-1.6-0.8-2.9
	c-0.3-1.3-0.4-2.7-0.4-4.4c0-1.7,0.1-3.2,0.4-4.4c0.3-1.3,0.5-2.2,0.8-2.9c0.3-0.7,0.4-1,0.4-1s-0.1,0.1-0.3,0.3
	c-0.2,0.2-0.4,0.4-0.8,0.6c-0.3,0.2-0.7,0.4-1.1,0.6s-0.8,0.3-1.2,0.3c-0.4,0-0.8-0.1-1.2-0.3s-0.7-0.4-1.1-0.6
	c-0.3-0.2-0.6-0.4-0.8-0.6c-0.2-0.2-0.3-0.3-0.3-0.3s0.1,0.3,0.4,1c0.3,0.7,0.5,1.7,0.8,2.9c0.3,1.2,0.4,2.7,0.4,4.4
	c0,1.7-0.1,3.1-0.4,4.4c-0.3,1.2-0.5,2.2-0.8,2.9c-0.3,0.7-0.4,1-0.4,1s0.1-0.1,0.2-0.3c0.2-0.2,0.4-0.4,0.8-0.6
	c0.3-0.2,0.7-0.4,1.1-0.6c0.4-0.2,0.8-0.3,1.2-0.3c0.4,0,0.8,0.1,1.2,0.3c0.4,0.2,0.7,0.4,1.1,0.6c0.3,0.2,0.6,0.4,0.8,0.6
	S175.7,378.6,175.7,378.6z M212.6,350.4c3.4,0,6.5,0.9,9.4,2.7c2.8,1.8,5.1,4.2,6.8,7.2c1.7,3,2.5,6.3,2.5,10c0,3.7-0.8,7-2.5,10
	c-1.7,3-3.9,5.4-6.8,7.2c-2.8,1.8-5.9,2.7-9.4,2.7c-3.5,0-6.6-0.9-9.4-2.7c-2.8-1.8-5.1-4.2-6.8-7.2c-1.7-3-2.5-6.4-2.5-10
	c0-3.7,0.8-7,2.5-10c1.7-3,4-5.4,6.8-7.2C206,351.3,209.2,350.4,212.6,350.4z M215.9,378.6c0,0-0.1-0.3-0.4-1
	c-0.3-0.7-0.5-1.6-0.8-2.9c-0.3-1.3-0.4-2.7-0.4-4.4c0-1.7,0.1-3.2,0.4-4.4c0.3-1.3,0.5-2.2,0.8-2.9c0.3-0.7,0.4-1,0.4-1
	s-0.1,0.1-0.3,0.3c-0.2,0.2-0.4,0.4-0.8,0.6c-0.3,0.2-0.7,0.4-1.1,0.6s-0.8,0.3-1.2,0.3c-0.4,0-0.8-0.1-1.2-0.3
	c-0.4-0.2-0.7-0.4-1.1-0.6c-0.3-0.2-0.6-0.4-0.8-0.6c-0.2-0.2-0.3-0.3-0.3-0.3s0.1,0.3,0.4,1c0.3,0.7,0.5,1.7,0.8,2.9
	c0.3,1.2,0.4,2.7,0.4,4.4c0,1.7-0.1,3.1-0.4,4.4c-0.3,1.2-0.5,2.2-0.8,2.9c-0.3,0.7-0.4,1-0.4,1s0.1-0.1,0.2-0.3
	c0.2-0.2,0.4-0.4,0.8-0.6c0.3-0.2,0.7-0.4,1.1-0.6c0.4-0.2,0.8-0.3,1.2-0.3c0.4,0,0.8,0.1,1.2,0.3c0.4,0.2,0.7,0.4,1.1,0.6
	c0.3,0.2,0.6,0.4,0.8,0.6C215.8,378.5,215.9,378.6,215.9,378.6z"/>
<path d="M105.5,529.9c-1.5,0.6-3.2,1-4.9,1c-1.8,0.1-3.4,0-5-0.2c-1.6-0.2-2.9-0.5-4-0.8c-1-0.3-1.5-0.4-1.5-0.4s0.1,0.1,0.2,0.3
	c0.2,0.2,0.3,0.4,0.5,0.8c0.2,0.3,0.4,0.7,0.5,1.1c0.2,0.4,0.2,0.8,0.2,1.3c0,0.4-0.1,0.9-0.2,1.3c-0.1,0.4-0.3,0.8-0.5,1.1
	c-0.2,0.3-0.4,0.6-0.5,0.8c-0.1,0.2-0.2,0.3-0.2,0.3s0.5-0.2,1.4-0.6c1-0.4,2.2-0.8,3.6-1.2c1.5-0.4,3-0.8,4.5-0.9
	c1.5-0.2,2.9-0.2,4.3-0.2c1.4,0,3.1,0.2,5.2,0.5v11.4c0,0-0.8,0-2.5,0c-1.6,0-3.5,0-5.7,0c-2.2,0-4.2,0-6,0c-2.4,0-4.7,0-7,0
	s-4.2,0-5.8,0c-1.5,0-2.3,0-2.4,0c-1.1-1.6-1.8-3.9-2-6.8c-0.2-3,0.3-5.9,1.3-8.9c1.1-2.9,3-5.2,5.7-6.7c2-0.9,3.9-1.3,5.8-1.3
	s3.5,0.2,4.8,0.6c1.3,0.4,1.9,0.6,1.9,0.6s-0.1-0.1-0.2-0.3c-0.2-0.2-0.3-0.5-0.5-0.8c-0.2-0.3-0.4-0.7-0.5-1.1
	c-0.2-0.4-0.2-0.9-0.2-1.3c0-0.4,0.1-0.9,0.2-1.3c0.2-0.4,0.3-0.8,0.5-1.1c0.2-0.3,0.4-0.6,0.5-0.8c0.2-0.2,0.2-0.3,0.2-0.3
	s-0.4,0.2-1.2,0.6c-0.8,0.3-1.9,0.7-3.2,1.1c-1.3,0.4-2.7,0.7-4.3,0.9c-2.5,0.3-4.6,0.3-6.4,0c-0.2-3.4-1-6.4-2.4-8.9
	c2.2-1.5,4.6-2.5,7.2-2.9c2.6-0.4,5.2-0.7,7.6-0.7c3.6,0,6.8,0.7,9.6,2.2c2.8,1.4,5,3.8,6.5,7c0.6,1.4,0.8,3.1,0.8,5
	c0,1.9-0.5,3.7-1.5,5.5C109.2,527.5,107.6,528.8,105.5,529.9z M133.2,506.1c3.4,0,6.5,0.9,9.4,2.7c2.8,1.8,5.1,4.2,6.8,7.2
	c1.7,3,2.5,6.3,2.5,10c0,3.7-0.8,7-2.5,10c-1.7,3-3.9,5.4-6.8,7.2c-2.8,1.8-5.9,2.7-9.4,2.7c-3.5,0-6.6-0.9-9.4-2.7
	c-2.8-1.8-5.1-4.2-6.8-7.2c-1.7-3-2.5-6.4-2.5-10c0-3.7,0.8-7,2.5-10c1.7-3,4-5.4,6.8-7.2C126.6,507,129.8,506.1,133.2,506.1z
	 M136.5,534.3c0,0-0.1-0.3-0.4-1c-0.3-0.7-0.5-1.6-0.8-2.9c-0.3-1.3-0.4-2.7-0.4-4.4c0-1.7,0.1-3.2,0.4-4.4c0.3-1.3,0.5-2.2,0.8-2.9
	c0.3-0.7,0.4-1,0.4-1s-0.1,0.1-0.3,0.3c-0.2,0.2-0.4,0.4-0.8,0.6c-0.3,0.2-0.7,0.4-1.1,0.6c-0.4,0.2-0.8,0.3-1.2,0.3
	c-0.4,0-0.8-0.1-1.2-0.3s-0.7-0.4-1.1-0.6c-0.3-0.2-0.6-0.4-0.8-0.6s-0.3-0.3-0.3-0.3s0.1,0.3,0.4,1c0.3,0.7,0.5,1.7,0.8,2.9
	c0.3,1.2,0.4,2.7,0.4,4.4c0,1.7-0.1,3.1-0.4,4.4c-0.3,1.2-0.5,2.2-0.8,2.9c-0.3,0.7-0.4,1-0.4,1s0.1-0.1,0.2-0.3
	c0.2-0.2,0.4-0.4,0.8-0.6c0.3-0.2,0.7-0.4,1.1-0.6c0.4-0.2,0.8-0.3,1.2-0.3c0.4,0,0.8,0.1,1.2,0.3c0.4,0.2,0.7,0.4,1.1,0.6
	c0.3,0.2,0.6,0.4,0.8,0.6C136.5,534.2,136.5,534.3,136.5,534.3z M163.1,541c0,1.2-0.4,2.3-1.2,3.1c-0.8,0.9-1.8,1.3-2.9,1.3
	c-1.2,0-2.1-0.4-3-1.3c-0.8-0.9-1.2-1.9-1.2-3.1c0-1.2,0.4-2.3,1.2-3.1c0.8-0.9,1.8-1.3,3-1.3c1.1,0,2.1,0.4,2.9,1.3
	C162.7,538.8,163.1,539.8,163.1,541z M163.1,521.6c0,1.2-0.4,2.3-1.2,3.2c-0.8,0.9-1.8,1.3-2.9,1.3c-1.2,0-2.1-0.4-3-1.3
	c-0.8-0.9-1.2-1.9-1.2-3.2c0-1.2,0.4-2.3,1.2-3.1c0.8-0.9,1.8-1.3,3-1.3c1.1,0,2.1,0.4,2.9,1.3C162.7,519.3,163.1,520.3,163.1,521.6
	z M184.7,506.1c3.4,0,6.5,0.9,9.4,2.7c2.8,1.8,5.1,4.2,6.8,7.2c1.7,3,2.5,6.3,2.5,10c0,3.7-0.8,7-2.5,10c-1.7,3-3.9,5.4-6.8,7.2
	c-2.8,1.8-5.9,2.7-9.4,2.7c-3.5,0-6.6-0.9-9.4-2.7c-2.8-1.8-5.1-4.2-6.8-7.2c-1.7-3-2.5-6.4-2.5-10c0-3.7,0.8-7,2.5-10
	c1.7-3,4-5.4,6.8-7.2C178.1,507,181.2,506.1,184.7,506.1z M188,534.3c0,0-0.1-0.3-0.4-1c-0.3-0.7-0.5-1.6-0.8-2.9
	c-0.3-1.3-0.4-2.7-0.4-4.4c0-1.7,0.1-3.2,0.4-4.4c0.3-1.3,0.5-2.2,0.8-2.9c0.3-0.7,0.4-1,0.4-1s-0.1,0.1-0.3,0.3
	c-0.2,0.2-0.4,0.4-0.8,0.6c-0.3,0.2-0.7,0.4-1.1,0.6s-0.8,0.3-1.2,0.3c-0.4,0-0.8-0.1-1.2-0.3s-0.7-0.4-1.1-0.6
	c-0.3-0.2-0.6-0.4-0.8-0.6s-0.3-0.3-0.3-0.3s0.1,0.3,0.4,1c0.3,0.7,0.5,1.7,0.8,2.9c0.3,1.2,0.4,2.7,0.4,4.4c0,1.7-0.1,3.1-0.4,4.4
	c-0.3,1.2-0.5,2.2-0.8,2.9c-0.3,0.7-0.4,1-0.4,1s0.1-0.1,0.2-0.3c0.2-0.2,0.4-0.4,0.8-0.6c0.3-0.2,0.7-0.4,1.1-0.6
	c0.4-0.2,0.8-0.3,1.2-0.3c0.4,0,0.8,0.1,1.2,0.3c0.4,0.2,0.7,0.4,1.1,0.6c0.3,0.2,0.6,0.4,0.8,0.6C187.9,534.2,188,534.3,188,534.3z
	 M224.9,506.1c3.4,0,6.5,0.9,9.4,2.7c2.8,1.8,5.1,4.2,6.8,7.2c1.7,3,2.5,6.3,2.5,10c0,3.7-0.8,7-2.5,10c-1.7,3-3.9,5.4-6.8,7.2
	c-2.8,1.8-5.9,2.7-9.4,2.7c-3.5,0-6.6-0.9-9.4-2.7c-2.8-1.8-5.1-4.2-6.8-7.2c-1.7-3-2.5-6.4-2.5-10c0-3.7,0.8-7,2.5-10
	c1.7-3,4-5.4,6.8-7.2C218.3,507,221.4,506.1,224.9,506.1z M228.2,534.3c0,0-0.1-0.3-0.4-1c-0.3-0.7-0.5-1.6-0.8-2.9
	c-0.3-1.3-0.4-2.7-0.4-4.4c0-1.7,0.1-3.2,0.4-4.4c0.3-1.3,0.5-2.2,0.8-2.9c0.3-0.7,0.4-1,0.4-1s-0.1,0.1-0.3,0.3
	c-0.2,0.2-0.4,0.4-0.8,0.6c-0.3,0.2-0.7,0.4-1.1,0.6s-0.8,0.3-1.2,0.3c-0.4,0-0.8-0.1-1.2-0.3c-0.4-0.2-0.7-0.4-1.1-0.6
	c-0.3-0.2-0.6-0.4-0.8-0.6s-0.3-0.3-0.3-0.3s0.1,0.3,0.4,1c0.3,0.7,0.5,1.7,0.8,2.9c0.3,1.2,0.4,2.7,0.4,4.4c0,1.7-0.1,3.1-0.4,4.4
	c-0.3,1.2-0.5,2.2-0.8,2.9c-0.3,0.7-0.4,1-0.4,1s0.1-0.1,0.2-0.3c0.2-0.2,0.4-0.4,0.8-0.6c0.3-0.2,0.7-0.4,1.1-0.6
	c0.4-0.2,0.8-0.3,1.2-0.3c0.4,0,0.8,0.1,1.2,0.3c0.4,0.2,0.7,0.4,1.1,0.6c0.3,0.2,0.6,0.4,0.8,0.6
	C228.1,534.2,228.2,534.3,228.2,534.3z"/>
<path d="M79,647.8h16.3v38.4H79v-20.7c0.9-0.6,1.6-1.3,2.2-1.9c0.5-0.7,0.9-1.3,1.1-1.8c0.2-0.5,0.4-1,0.4-1.3c0-0.3,0-0.5,0-0.5
	c-0.5,0.8-1.1,1.4-1.7,1.9c-0.5,0.5-1,1-1.4,1.3c-0.4,0.3-0.5,0.5-0.6,0.5v-0.1c-1.1,0.8-1.9,1.4-2.5,1.6c-0.6,0.3-0.9,0.4-0.9,0.4
	l-5.1-8.1c1.6-1.1,3.1-2.4,4.4-3.9c1.3-1.5,2.3-2.9,3-4C78.6,648.4,79,647.8,79,647.8z M130.6,665.8c3,2.8,4.5,5.8,4.5,9.1
	c0,3.6-1.8,6.5-5.3,8.7c-3.5,2.2-7.9,3.2-13.1,3.3c0,0,0,0,0,0c-5.2,0-9.6-1.1-13.2-3.3c-3.5-2.2-5.3-5-5.3-8.7
	c0-3.3,1.5-6.3,4.5-9.1c-2.1-2.5-3.1-5.1-3-8c1.2-6.8,6.9-10.3,16.9-10.4c0,0,0,0,0,0c10,0.1,15.6,3.6,16.9,10.4
	C133.7,660.6,132.7,663.3,130.6,665.8z M113.6,654.9c0.3,0.3,0.5,0.8,0.7,1.5c0.3,0.7,0.4,1.4,0.4,2.2c0,0.7-0.1,1.4-0.4,2.2
	c-0.2,0.8-0.5,1.3-0.8,1.5c0.4-0.2,0.8-0.4,1.4-0.6s1.1-0.3,1.7-0.3c0.6,0,1.1,0.1,1.7,0.3s1,0.4,1.3,0.6c-0.3-0.3-0.5-0.8-0.8-1.5
	c-0.3-0.8-0.4-1.5-0.4-2.2c0-0.7,0.1-1.4,0.3-2.2c0.3-0.8,0.5-1.3,0.8-1.5c-0.4,0.2-0.8,0.4-1.3,0.6c-0.5,0.2-1.1,0.3-1.7,0.3
	c-0.6,0-1.1-0.1-1.7-0.3C114.4,655.3,114,655.1,113.6,654.9z M119.9,677c0,0-0.1-0.2-0.4-0.5c-0.3-0.4-0.5-0.9-0.8-1.5
	c-0.3-0.7-0.4-1.5-0.4-2.4c0-0.9,0.1-1.7,0.4-2.3c0.3-0.7,0.5-1.2,0.8-1.6c0.3-0.4,0.4-0.6,0.4-0.6s-0.2,0.1-0.5,0.3
	c-0.3,0.1-0.7,0.3-1.2,0.5c-0.5,0.1-1,0.2-1.5,0.2s-1.1-0.1-1.6-0.2c-0.5-0.2-0.9-0.3-1.2-0.5c-0.3-0.2-0.4-0.3-0.4-0.3
	s0.1,0.2,0.4,0.6c0.3,0.4,0.5,0.9,0.8,1.6c0.3,0.6,0.4,1.4,0.4,2.3c0,0.9-0.1,1.7-0.4,2.4c-0.3,0.6-0.5,1.2-0.8,1.5
	c-0.3,0.3-0.4,0.5-0.4,0.5s0.2-0.1,0.5-0.2c0.3-0.1,0.7-0.3,1.2-0.4c0.5-0.2,1-0.3,1.5-0.3s1,0.1,1.5,0.3c0.5,0.1,0.9,0.3,1.2,0.4
	C119.8,677,119.9,677,119.9,677z M146.3,681.8c0,1.2-0.4,2.3-1.2,3.1c-0.8,0.9-1.8,1.3-2.9,1.3c-1.2,0-2.1-0.4-3-1.3
	c-0.8-0.9-1.2-1.9-1.2-3.1c0-1.2,0.4-2.3,1.2-3.1c0.8-0.9,1.8-1.3,3-1.3c1.1,0,2.1,0.4,2.9,1.3C145.9,679.6,146.3,680.6,146.3,681.8
	z M146.3,662.4c0,1.2-0.4,2.3-1.2,3.2c-0.8,0.9-1.8,1.3-2.9,1.3c-1.2,0-2.1-0.4-3-1.3c-0.8-0.9-1.2-1.9-1.2-3.2
	c0-1.2,0.4-2.3,1.2-3.1c0.8-0.9,1.8-1.3,3-1.3c1.1,0,2.1,0.4,2.9,1.3C145.9,660.1,146.3,661.2,146.3,662.4z M167.9,646.9
	c3.4,0,6.5,0.9,9.4,2.7c2.8,1.8,5.1,4.2,6.8,7.2c1.7,3,2.5,6.3,2.5,10c0,3.7-0.8,7-2.5,10c-1.7,3-3.9,5.4-6.8,7.2
	c-2.8,1.8-5.9,2.7-9.4,2.7c-3.5,0-6.6-0.9-9.4-2.7c-2.8-1.8-5.1-4.2-6.8-7.2c-1.7-3-2.5-6.4-2.5-10c0-3.7,0.8-7,2.5-10
	c1.7-3,4-5.4,6.8-7.2C161.3,647.8,164.4,646.9,167.9,646.9z M171.2,675.1c0,0-0.1-0.3-0.4-1c-0.3-0.7-0.5-1.6-0.8-2.9
	c-0.3-1.3-0.4-2.7-0.4-4.4c0-1.7,0.1-3.2,0.4-4.4c0.3-1.3,0.5-2.2,0.8-2.9c0.3-0.7,0.4-1,0.4-1s-0.1,0.1-0.3,0.3
	c-0.2,0.2-0.4,0.4-0.8,0.6c-0.3,0.2-0.7,0.4-1.1,0.6c-0.4,0.2-0.8,0.3-1.2,0.3c-0.4,0-0.8-0.1-1.2-0.3s-0.7-0.4-1.1-0.6
	c-0.3-0.2-0.6-0.4-0.8-0.6c-0.2-0.2-0.3-0.3-0.3-0.3s0.1,0.3,0.4,1c0.3,0.7,0.5,1.7,0.8,2.9c0.3,1.2,0.4,2.7,0.4,4.4
	c0,1.7-0.1,3.1-0.4,4.4c-0.3,1.2-0.5,2.2-0.8,2.9c-0.3,0.7-0.4,1-0.4,1s0.1-0.1,0.2-0.3c0.2-0.2,0.4-0.4,0.8-0.6
	c0.3-0.2,0.7-0.4,1.1-0.6c0.4-0.2,0.8-0.3,1.2-0.3c0.4,0,0.8,0.1,1.2,0.3c0.4,0.2,0.7,0.4,1.1,0.6c0.3,0.2,0.6,0.4,0.8,0.6
	C171.1,675.1,171.2,675.1,171.2,675.1z M208.1,646.9c3.4,0,6.5,0.9,9.4,2.7c2.8,1.8,5.1,4.2,6.8,7.2c1.7,3,2.5,6.3,2.5,10
	c0,3.7-0.8,7-2.5,10c-1.7,3-3.9,5.4-6.8,7.2c-2.8,1.8-5.9,2.7-9.4,2.7c-3.5,0-6.6-0.9-9.4-2.7c-2.8-1.8-5.1-4.2-6.8-7.2
	c-1.7-3-2.5-6.4-2.5-10c0-3.7,0.8-7,2.5-10c1.7-3,4-5.4,6.8-7.2C201.5,647.8,204.6,646.9,208.1,646.9z M211.4,675.1
	c0,0-0.1-0.3-0.4-1c-0.3-0.7-0.5-1.6-0.8-2.9c-0.3-1.3-0.4-2.7-0.4-4.4c0-1.7,0.1-3.2,0.4-4.4c0.3-1.3,0.5-2.2,0.8-2.9
	c0.3-0.7,0.4-1,0.4-1s-0.1,0.1-0.3,0.3c-0.2,0.2-0.4,0.4-0.8,0.6c-0.3,0.2-0.7,0.4-1.1,0.6s-0.8,0.3-1.2,0.3c-0.4,0-0.8-0.1-1.2-0.3
	s-0.7-0.4-1.1-0.6c-0.3-0.2-0.6-0.4-0.8-0.6c-0.2-0.2-0.3-0.3-0.3-0.3s0.1,0.3,0.4,1c0.3,0.7,0.5,1.7,0.8,2.9
	c0.3,1.2,0.4,2.7,0.4,4.4c0,1.7-0.1,3.1-0.4,4.4c-0.3,1.2-0.5,2.2-0.8,2.9s-0.4,1-0.4,1s0.1-0.1,0.2-0.3c0.2-0.2,0.4-0.4,0.8-0.6
	c0.3-0.2,0.7-0.4,1.1-0.6c0.4-0.2,0.8-0.3,1.2-0.3c0.4,0,0.8,0.1,1.2,0.3c0.4,0.2,0.7,0.4,1.1,0.6c0.3,0.2,0.6,0.4,0.8,0.6
	C211.3,675.1,211.4,675.1,211.4,675.1z"/>
<path d="M105.5,601.4c2.6,0,4.7,0.1,6.5,0.4c1.8,0.2,3.2,0.5,4.3,0.8c-0.9,6.2-3.5,11.3-7.9,15.4c-4.3,4.1-9.4,6.1-15.2,6.1
	c-4.3,0-8.2-1.1-11.8-3.3c-3.5-2.3-6.3-5.3-8.5-9c-2.1-3.8-3.1-7.9-3.1-12.5c0-4.6,1-8.7,3.1-12.5c2.1-3.8,4.9-6.8,8.5-9
	c3.5-2.3,7.4-3.4,11.8-3.4c5.9,0,11,2,15.2,6.1c4.3,4.1,6.9,9.2,7.9,15.4c-1.1,0.3-2.5,0.6-4.3,0.8c-1.8,0.2-3.9,0.3-6.5,0.3
	c-2.3,0-4.3-0.1-5.9-0.3c-1.6-0.2-3-0.4-4.1-0.7c0.3-2.2,0.6-3.9,1.1-5.2c0.5-1.3,0.7-1.9,0.7-1.9s-0.1,0.1-0.4,0.3
	c-0.2,0.2-0.6,0.5-1,0.8c-0.4,0.3-0.8,0.5-1.3,0.7c-0.5,0.2-1,0.3-1.4,0.3c-0.5,0-1-0.1-1.5-0.3c-0.5-0.2-0.9-0.4-1.3-0.7
	c-0.4-0.3-0.7-0.6-1-0.8c-0.2-0.2-0.4-0.3-0.4-0.3s0.2,0.4,0.5,1.3c0.3,0.9,0.6,2.1,1,3.6c0.4,1.5,0.5,3.3,0.5,5.4
	c0,2.1-0.2,4-0.5,5.6c-0.3,1.5-0.6,2.7-1,3.6s-0.5,1.3-0.5,1.3s0.1-0.1,0.3-0.3c0.2-0.3,0.6-0.5,1-0.8c0.4-0.3,0.8-0.5,1.3-0.7
	c0.5-0.3,1-0.4,1.6-0.4c0.5,0,1,0.1,1.5,0.4c0.5,0.2,1,0.4,1.3,0.7c0.4,0.3,0.7,0.5,1,0.8c0.2,0.2,0.4,0.3,0.4,0.3s-0.2-0.6-0.7-1.9
	c-0.4-1.3-0.8-3-1.1-5.2c1.1-0.3,2.4-0.5,4.1-0.6C101.2,601.5,103.2,601.4,105.5,601.4z M151.4,575.3l10.6,48h-20.4c0,0,0,0,0-0.1
	c0-2,0.2-3.8,0.5-5.2c0.3-1.5,0.6-2.7,1-3.5c0.3-0.8,0.5-1.2,0.5-1.2s-0.1,0.1-0.4,0.3s-0.6,0.4-1,0.7c-0.4,0.3-0.8,0.5-1.3,0.7
	c-0.4,0.2-0.9,0.3-1.4,0.3c-0.5,0-1-0.1-1.4-0.3c-0.5-0.2-0.9-0.4-1.3-0.7c-0.4-0.3-0.7-0.5-0.9-0.7c-0.2-0.2-0.4-0.3-0.4-0.3
	s0.2,0.4,0.5,1.2c0.3,0.8,0.6,2,1,3.5c0.3,1.5,0.5,3.2,0.5,5.2c0,0,0,0.1,0,0.1H117l10.6-48H151.4z M143.5,608.5
	c0,0-0.2-0.4-0.5-1.2c-0.3-0.8-0.6-2-1-3.5c-0.3-1.5-0.5-3.3-0.5-5.3c0-2,0.2-3.8,0.5-5.3c0.3-1.5,0.6-2.6,1-3.5
	c0.3-0.9,0.5-1.3,0.5-1.3s-0.1,0.1-0.4,0.3c-0.2,0.2-0.6,0.4-1,0.7c-0.4,0.3-0.8,0.5-1.3,0.7c-0.4,0.2-0.9,0.3-1.4,0.3
	c-0.5,0-1-0.1-1.4-0.3c-0.5-0.2-0.9-0.4-1.3-0.7c-0.4-0.3-0.7-0.5-0.9-0.7c-0.2-0.2-0.4-0.3-0.4-0.3s0.2,0.4,0.5,1.3
	c0.3,0.8,0.6,2,1,3.5c0.3,1.5,0.5,3.3,0.5,5.3c0,2-0.2,3.8-0.5,5.3c-0.3,1.5-0.6,2.6-1,3.5c-0.3,0.8-0.5,1.2-0.5,1.2
	s0.1-0.1,0.3-0.3c0.2-0.2,0.5-0.4,0.9-0.7c0.4-0.3,0.8-0.5,1.3-0.7c0.5-0.2,1-0.3,1.5-0.3c0.5,0,1,0.1,1.4,0.3
	c0.5,0.2,0.9,0.4,1.3,0.7c0.4,0.3,0.7,0.5,0.9,0.7C143.4,608.4,143.5,608.5,143.5,608.5z M210.7,606.7c0.2,3.9-0.6,7.1-2.4,9.5
	c-1.8,2.4-4.2,4.2-7.3,5.4c-3.1,1.1-6.5,1.7-10.2,1.7c-0.4,0-1.9,0-4.4,0c-2.5,0-5.4,0-8.5,0s-5.9,0-8.3,0c-2.3,0-3.6,0-3.8,0v-47.9
	h20.3c3.2,0,6,0.2,8.4,0.6c2.4,0.4,4.5,1.1,6.1,2.2c1.6,1.1,2.9,2.6,3.7,4.7c0.9,2.7,1,5,0.3,6.7c-0.7,1.7-1.7,3.1-3.1,4.1
	c-1.5-0.2-2.7-0.2-3.5,0.1c-0.9,0.2-1.5,0.6-1.8,1c3.2-0.1,6.4,0.7,9.4,2.4C208.5,598.7,210.2,601.9,210.7,606.7z M184.6,584.5
	c0.3,0.3,0.6,0.9,0.9,1.9c0.3,0.9,0.5,1.7,0.5,2.6c0,0.9-0.2,1.7-0.5,2.7c-0.3,0.9-0.6,1.5-1,1.8c0.4-0.2,1-0.4,1.7-0.7
	c0.7-0.3,1.4-0.4,2-0.4c0.7,0,1.4,0.1,2,0.4c0.7,0.3,1.2,0.5,1.7,0.7c-0.4-0.3-0.7-0.9-1-1.8c-0.3-0.9-0.4-1.8-0.4-2.7
	c0-0.8,0.1-1.7,0.4-2.6c0.3-0.9,0.6-1.6,1-1.9c-0.4,0.3-1,0.5-1.6,0.8c-0.6,0.2-1.3,0.3-2,0.3s-1.4-0.1-2.1-0.3
	C185.5,585,185,584.7,184.6,584.5z M192.2,609.4c0,0-0.2-0.2-0.5-0.6c-0.3-0.5-0.6-1.1-0.9-1.9c-0.3-0.8-0.5-1.8-0.5-2.9
	s0.2-2.1,0.5-2.9c0.3-0.8,0.6-1.4,0.9-1.9c0.3-0.5,0.5-0.7,0.5-0.7s-0.2,0.1-0.6,0.3c-0.4,0.2-0.8,0.4-1.4,0.6
	c-0.6,0.2-1.2,0.3-1.9,0.3c-0.7,0-1.3-0.1-1.9-0.3c-0.6-0.2-1.1-0.4-1.5-0.6c-0.4-0.2-0.6-0.3-0.6-0.3s0.2,0.2,0.5,0.7
	c0.3,0.4,0.6,1,1,1.9c0.3,0.8,0.5,1.8,0.5,2.9s-0.2,2.1-0.5,2.9c-0.3,0.8-0.6,1.5-1,1.9c-0.3,0.4-0.5,0.6-0.5,0.6s0.2-0.1,0.6-0.3
	c0.4-0.2,1-0.4,1.6-0.6c0.6-0.2,1.2-0.3,1.9-0.3s1.3,0.1,1.9,0.3c0.6,0.2,1.1,0.4,1.5,0.6C192,609.3,192.2,609.4,192.2,609.4z
	 M260.8,606.7c0.2,3.9-0.6,7.1-2.4,9.5c-1.8,2.4-4.2,4.2-7.3,5.4c-3.1,1.1-6.5,1.7-10.2,1.7c-0.4,0-1.9,0-4.4,0c-2.5,0-5.4,0-8.5,0
	c-3.2,0-5.9,0-8.3,0c-2.3,0-3.6,0-3.8,0v-47.9h20.3c3.2,0,6,0.2,8.4,0.6c2.4,0.4,4.5,1.1,6.1,2.2c1.6,1.1,2.9,2.6,3.7,4.7
	c0.9,2.7,1,5,0.3,6.7c-0.7,1.7-1.7,3.1-3.1,4.1c-1.5-0.2-2.7-0.2-3.5,0.1c-0.9,0.2-1.5,0.6-1.8,1c3.2-0.1,6.4,0.7,9.4,2.4
	C258.6,598.7,260.3,601.9,260.8,606.7z M234.7,584.5c0.3,0.3,0.6,0.9,0.9,1.9c0.3,0.9,0.5,1.7,0.5,2.6c0,0.9-0.2,1.7-0.5,2.7
	c-0.3,0.9-0.6,1.5-1,1.8c0.4-0.2,1-0.4,1.7-0.7c0.7-0.3,1.4-0.4,2-0.4c0.7,0,1.4,0.1,2,0.4c0.7,0.3,1.2,0.5,1.7,0.7
	c-0.4-0.3-0.7-0.9-1-1.8c-0.3-0.9-0.4-1.8-0.4-2.7c0-0.8,0.1-1.7,0.4-2.6c0.3-0.9,0.6-1.6,1-1.9c-0.4,0.3-1,0.5-1.6,0.8
	c-0.6,0.2-1.3,0.3-2,0.3s-1.4-0.1-2.1-0.3C235.6,585,235.1,584.7,234.7,584.5z M242.3,609.4c0,0-0.2-0.2-0.5-0.6
	c-0.3-0.5-0.6-1.1-0.9-1.9c-0.3-0.8-0.5-1.8-0.5-2.9s0.2-2.1,0.5-2.9c0.3-0.8,0.6-1.4,0.9-1.9c0.3-0.5,0.5-0.7,0.5-0.7
	s-0.2,0.1-0.6,0.3c-0.4,0.2-0.8,0.4-1.4,0.6c-0.6,0.2-1.2,0.3-1.9,0.3c-0.7,0-1.3-0.1-1.9-0.3c-0.6-0.2-1.1-0.4-1.5-0.6
	c-0.4-0.2-0.6-0.3-0.6-0.3s0.2,0.2,0.5,0.7c0.3,0.4,0.6,1,1,1.9c0.3,0.8,0.5,1.8,0.5,2.9s-0.2,2.1-0.5,2.9c-0.3,0.8-0.6,1.5-1,1.9
	c-0.3,0.4-0.5,0.6-0.5,0.6s0.2-0.1,0.6-0.3c0.4-0.2,1-0.4,1.6-0.6c0.6-0.2,1.2-0.3,1.9-0.3s1.3,0.1,1.9,0.3c0.6,0.2,1.1,0.4,1.5,0.6
	C242.1,609.3,242.3,609.4,242.3,609.4z M297.2,575.3l10.6,48h-20.4c0,0,0,0,0-0.1c0-2,0.2-3.8,0.5-5.2c0.3-1.5,0.6-2.7,1-3.5
	c0.3-0.8,0.5-1.2,0.5-1.2s-0.1,0.1-0.4,0.3c-0.2,0.2-0.6,0.4-1,0.7c-0.4,0.3-0.8,0.5-1.3,0.7c-0.4,0.2-0.9,0.3-1.4,0.3
	c-0.5,0-1-0.1-1.4-0.3c-0.5-0.2-0.9-0.4-1.3-0.7c-0.4-0.3-0.7-0.5-0.9-0.7c-0.2-0.2-0.4-0.3-0.4-0.3s0.2,0.4,0.5,1.2
	c0.3,0.8,0.6,2,1,3.5c0.3,1.5,0.5,3.2,0.5,5.2c0,0,0,0.1,0,0.1h-20.4l10.6-48H297.2z M289.3,608.5c0,0-0.2-0.4-0.5-1.2
	c-0.3-0.8-0.6-2-1-3.5c-0.3-1.5-0.5-3.3-0.5-5.3c0-2,0.2-3.8,0.5-5.3c0.3-1.5,0.6-2.6,1-3.5c0.3-0.9,0.5-1.3,0.5-1.3
	s-0.1,0.1-0.4,0.3c-0.2,0.2-0.6,0.4-1,0.7c-0.4,0.3-0.8,0.5-1.3,0.7c-0.4,0.2-0.9,0.3-1.4,0.3c-0.5,0-1-0.1-1.4-0.3
	c-0.5-0.2-0.9-0.4-1.3-0.7c-0.4-0.3-0.7-0.5-0.9-0.7c-0.2-0.2-0.4-0.3-0.4-0.3s0.2,0.4,0.5,1.3c0.3,0.8,0.6,2,1,3.5
	c0.3,1.5,0.5,3.3,0.5,5.3c0,2-0.2,3.8-0.5,5.3c-0.3,1.5-0.6,2.6-1,3.5c-0.3,0.8-0.5,1.2-0.5,1.2s0.1-0.1,0.3-0.3
	c0.2-0.2,0.5-0.4,0.9-0.7c0.4-0.3,0.8-0.5,1.3-0.7c0.5-0.2,1-0.3,1.5-0.3c0.5,0,1,0.1,1.4,0.3c0.5,0.2,0.9,0.4,1.3,0.7
	c0.4,0.3,0.7,0.5,0.9,0.7C289.1,608.4,289.3,608.5,289.3,608.5z M345.2,599.1c4.7,1.1,8,2.2,9.8,3.3c0.1,0,0.2,0.1,0.3,0.1
	c-0.9,6.2-3.5,11.4-7.9,15.4c-4.3,4.1-9.4,6.1-15.2,6.1c-4.3,0-8.2-1.1-11.8-3.3c-3.5-2.3-6.3-5.3-8.5-9c-2.1-3.8-3.1-8-3.1-12.5
	c0-4.6,1-8.8,3.1-12.5c2.1-3.8,4.9-6.7,8.5-9c3.5-2.3,7.4-3.4,11.8-3.4c5.9,0,11,2,15.2,6.1c4.3,4.1,6.9,9.2,7.9,15.4
	c-1.1,0.3-2.5,0.6-4.3,0.8c-1.8,0.2-3.9,0.3-6.5,0.3c-2.3,0-4.3-0.1-5.9-0.3c-1.6-0.2-3-0.4-4.1-0.7c0.3-2.2,0.6-4,1.1-5.2
	c0.5-1.3,0.7-1.9,0.7-1.9s-0.1,0.1-0.4,0.3c-0.2,0.2-0.6,0.5-1,0.8c-0.4,0.3-0.8,0.5-1.3,0.7c-0.5,0.2-1,0.3-1.4,0.3
	c-0.5,0-1-0.1-1.5-0.3c-0.5-0.2-0.9-0.4-1.3-0.7c-0.4-0.3-0.7-0.6-1-0.8c-0.2-0.2-0.4-0.3-0.4-0.3s0.2,0.4,0.5,1.3
	c0.3,0.9,0.6,2.1,1,3.6c0.4,1.5,0.5,3.4,0.5,5.5c0,2.1-0.2,3.9-0.5,5.5c-0.3,1.5-0.6,2.7-1,3.6c-0.3,0.9-0.5,1.3-0.5,1.3
	s0.1-0.1,0.3-0.3c0.2-0.2,0.6-0.4,1-0.7c0.4-0.3,0.8-0.6,1.3-0.8c0.5-0.2,1-0.3,1.6-0.3c0.5,0,1,0.1,1.5,0.3c0.5,0.2,1,0.5,1.3,0.8
	c0.4,0.3,0.7,0.5,1,0.7c0.2,0.2,0.4,0.3,0.4,0.3s0-0.1-0.1-0.4c0-0.3-0.1-0.6-0.2-1c-0.1-0.4-0.4-0.9-0.7-1.3
	c-0.4-0.4-0.9-0.8-1.6-1.1c-0.7-0.3-1.6-0.6-2.6-0.6c0,0,0.1-0.3,0.2-0.9c0.2-0.6,0.3-1.4,0.5-2.3c0.2-1,0.2-2.1,0.2-3.3
	C336.6,598,341,598.2,345.2,599.1z M360.7,575.4h44.9v11.7c0,0-0.4,0.2-1.3,0.5c-0.8,0.3-2.2,0.7-4.1,1c-1.9,0.3-4.5,0.5-7.6,0.5
	c-3.1,0-5.6-0.2-7.6-0.5c-1.9-0.3-3.3-0.7-4.2-1c-0.8-0.3-1.3-0.5-1.3-0.5s0.1,0.1,0.3,0.4c0.2,0.3,0.4,0.6,0.7,1s0.5,0.8,0.7,1.3
	c0.2,0.5,0.3,1,0.3,1.6c0,0.5-0.1,1-0.3,1.5c-0.2,0.5-0.4,1-0.7,1.4c-0.2,0.4-0.5,0.7-0.7,1c-0.2,0.2-0.3,0.3-0.3,0.3
	s0.4-0.2,1.3-0.5c0.9-0.3,2.3-0.7,4.2-1c1.9-0.3,4.4-0.5,7.6-0.5c1.8,0,3.4,0.1,4.8,0.3c-0.2,0.3-0.5,0.9-0.9,1.8
	c-0.4,0.9-0.5,2.2-0.5,3.8s0.2,2.8,0.5,3.8c0.4,0.9,0.7,1.5,0.9,1.8c-1.4,0.1-3,0.2-4.8,0.2c-3.1,0-5.6-0.2-7.6-0.5
	c-1.9-0.3-3.3-0.7-4.2-1c-0.8-0.3-1.3-0.5-1.3-0.5s0.1,0.1,0.3,0.4c0.2,0.2,0.4,0.5,0.7,1c0.2,0.4,0.5,0.8,0.7,1.3
	c0.2,0.5,0.3,1,0.3,1.6c0,0.5-0.1,1-0.3,1.5c-0.2,0.5-0.4,1-0.7,1.4c-0.2,0.4-0.5,0.7-0.7,1c-0.2,0.2-0.3,0.3-0.3,0.3
	s0.4-0.2,1.3-0.5c0.9-0.3,2.3-0.7,4.2-1c1.9-0.3,4.4-0.5,7.6-0.5c3.2,0,5.7,0.2,7.6,0.5c1.9,0.3,3.3,0.7,4.1,1
	c0.9,0.3,1.3,0.5,1.3,0.5v11.7h-44.9V575.4z"/>
<path class="st2" d="M50,322.9l-9.5-6.4l-3.6,11.3l-3.4-11.4l-9.6,6.3l4.3-11L17,309.9l10-5.5l-7.5-8.9l11,2.6l-0.3-11.9l6.9,9.5
	l7-9.4l-0.5,11.9l11.1-2.4l-7.7,8.8l10,5.7l-11.2,1.5L50,322.9z"/>
<path class="st2" d="M50,471.2l-9.5-6.4l-3.6,11.3l-3.4-11.4l-9.6,6.3l4.3-11L17,458.2l10-5.5l-7.5-8.9l11,2.6l-0.3-11.9l6.9,9.5
	l7-9.4l-0.5,11.9l11.1-2.4l-7.7,8.8l10,5.7l-11.2,1.5L50,471.2z"/>
<path class="st2" d="M50,619.5l-9.5-6.4l-3.6,11.3L33.5,613l-9.6,6.3l4.3-11L17,606.5l10-5.5l-7.5-8.9l11,2.6l-0.3-11.9l6.9,9.5
	l7-9.4l-0.5,11.9l11.1-2.4l-7.7,8.8l10,5.7l-11.2,1.5L50,619.5z"/>
<path d="M100.3,432.4h20.4v47.9h-20.4c0-3.6,0.2-6.7,0.5-9.5s0.6-4.9,1-6.4c0.3-1.5,0.5-2.3,0.5-2.3s-0.1,0.1-0.4,0.3
	c-0.2,0.2-0.5,0.4-0.9,0.7c-0.4,0.3-0.8,0.5-1.3,0.7c-0.5,0.2-1,0.3-1.5,0.3c-0.5,0-1-0.1-1.4-0.3c-0.5-0.2-0.9-0.4-1.3-0.7
	c-0.4-0.3-0.7-0.5-0.9-0.7c-0.2-0.2-0.3-0.3-0.3-0.3s0.2,0.8,0.5,2.3c0.3,1.5,0.6,3.7,1,6.4s0.5,5.9,0.5,9.5H75.8v-47.9h20.4
	c0,3.6-0.2,6.8-0.5,9.5c-0.3,2.7-0.6,4.9-1,6.4c-0.3,1.5-0.5,2.3-0.5,2.3s0.1-0.1,0.3-0.3c0.2-0.2,0.5-0.4,0.9-0.7
	c0.4-0.3,0.8-0.5,1.3-0.7c0.5-0.2,1-0.3,1.4-0.3c0.5,0,1,0.1,1.5,0.3c0.5,0.2,0.9,0.4,1.3,0.7c0.4,0.3,0.7,0.5,0.9,0.7
	c0.2,0.2,0.4,0.3,0.4,0.3s-0.2-0.8-0.5-2.3c-0.3-1.5-0.6-3.7-1-6.4C100.5,439.2,100.3,436,100.3,432.4z M183.4,432.4h7.3v23.9v24
	h-16.9h-1.4c0,0,0,0,0-0.1h0.2c0,0-0.1-0.4-0.2-1.2c-0.1-0.8-0.2-2.1-0.2-4c0-1.9,0.1-4.5,0.4-7.9c0.5-4.7,1.4-8.4,2.5-10.9
	c1.2-2.6,1.7-3.9,1.7-3.9s-0.1,0.1-0.4,0.3c-0.2,0.2-0.5,0.5-0.9,0.8c-0.4,0.3-0.8,0.5-1.3,0.7c-0.5,0.2-1,0.3-1.5,0.3
	c-0.5,0-1-0.1-1.4-0.3c-0.5-0.2-0.9-0.4-1.3-0.7c-0.4-0.3-0.7-0.6-0.9-0.8c-0.2-0.2-0.3-0.3-0.3-0.3s0.1,0.7,0.4,2
	c0.3,1.3,0.5,3.1,0.6,5.5c0.1,2.3-0.2,5.2-0.8,8.4c-0.4,1.7-0.7,3.1-1.1,4.4c-1-0.2-2.2-0.4-3.5-0.5c-1.3-0.1-2.4-0.2-3.1-0.2
	c-0.7,0-1.7,0.1-3.1,0.2c-1.3,0.1-2.5,0.3-3.5,0.5c-0.3-1.2-0.7-2.7-1-4.4c-0.6-3.3-0.9-6.1-0.8-8.4c0.1-2.4,0.3-4.2,0.5-5.5
	c0.3-1.3,0.5-2,0.5-2s-0.1,0.1-0.4,0.3c-0.2,0.2-0.5,0.5-0.9,0.8c-0.4,0.3-0.8,0.5-1.3,0.7c-0.5,0.2-1,0.3-1.4,0.3
	c-0.5,0-1-0.1-1.5-0.3c-0.5-0.2-0.9-0.4-1.3-0.7c-0.4-0.3-0.7-0.6-0.9-0.8c-0.2-0.2-0.3-0.3-0.3-0.3s0.6,1.3,1.7,3.9
	c1.2,2.6,2,6.2,2.5,10.9c0.3,3.3,0.4,6,0.4,7.9c0,1.9-0.1,3.2-0.3,4c-0.1,0.8-0.2,1.2-0.2,1.2h0.2c0,0,0,0.1-0.1,0.1h-1.4h-16.9v-24
	v-23.9h7.3h9.6h4.6c2.4,1.5,4.2,3.6,5.5,6.1c1.3,2.5,2.2,4.5,2.5,6c0.4-1.5,1.2-3.5,2.5-6c1.3-2.5,3.1-4.5,5.5-6.1h4.6H183.4z
	 M233.7,466.6c2.2,0,4,0.1,5.6,0.3v13.4h-37.5v-47.9h20.7c0,8.7-0.2,15.7-0.5,21.1c-0.3,5.3-0.6,9.2-0.9,11.6
	c-0.3,2.4-0.4,3.6-0.4,3.6s0.4-0.2,1.3-0.5c0.9-0.3,2.3-0.7,4.2-1C228.1,466.8,230.6,466.6,233.7,466.6z M245.7,480.4L245.7,480.4
	c0-0.3,0-1.7,0.1-4.3c0-2.8,0.1-6.1,0.2-10c0.2-3.9,0.5-9.8,0.9-17.7c1.4-1.1,2.3-2.1,2.8-2.9c0.3-0.6,0.5-1,0.7-1.2
	c0,0,0-0.1,0.1-0.1v-0.1h-0.1l-0.1,0.1c-0.2,0-0.8,0.2-1.6,0.4c-1.2,0.4-3,0.8-5.5,1.2c-2.5,0.3-5.8,0.5-9.8,0.5v-13.9h44.5v13.9
	c-4,0-7.3-0.2-9.8-0.5c-2.5-0.4-4.4-0.8-5.5-1.2c-0.8-0.3-1.4-0.4-1.6-0.4l-0.1-0.1v0.1c0.1,0.2,0.4,0.6,0.7,1.2
	c0.5,0.9,1.4,1.8,2.8,2.9c0.4,7.9,0.7,13.8,0.8,17.7c0.2,3.8,0.3,7.2,0.4,10c0,2.6,0.1,4,0.1,4.2v0.1H245.7z M306,432.4
	c4.2,0,7.9,1.1,11.3,3.3s6.1,5.1,8.1,8.7c2,3.6,3.1,7.6,3.1,12c0,4.4-1,8.5-3.1,12.1c-2,3.6-4.7,6.5-8.1,8.7
	c-3.4,2.1-7.2,3.2-11.3,3.2h-22.4v-48H306z M310,466.3c0,0-0.2-0.4-0.5-1.2c-0.3-0.8-0.6-2-1-3.5c-0.3-1.5-0.5-3.3-0.5-5.3
	c0-2,0.2-3.8,0.5-5.3c0.3-1.5,0.6-2.6,1-3.5c0.3-0.8,0.5-1.2,0.5-1.2s-0.1,0.1-0.4,0.3c-0.2,0.2-0.6,0.4-1,0.7
	c-0.4,0.3-0.8,0.5-1.3,0.7c-0.5,0.2-1,0.3-1.4,0.3c-0.4,0-0.9-0.1-1.4-0.3c-0.5-0.2-0.9-0.4-1.3-0.7c-0.4-0.3-0.7-0.5-0.9-0.7
	c-0.2-0.2-0.4-0.3-0.4-0.3s0.2,0.4,0.5,1.2c0.3,0.8,0.6,2,1,3.5c0.3,1.5,0.5,3.3,0.5,5.3c0,2-0.2,3.8-0.5,5.3
	c-0.3,1.5-0.6,2.6-1,3.5c-0.3,0.8-0.5,1.2-0.5,1.2s0.1-0.1,0.3-0.3c0.2-0.2,0.5-0.4,0.9-0.7c0.4-0.3,0.8-0.5,1.3-0.7
	c0.5-0.2,1-0.3,1.4-0.3c0.5,0,1,0.1,1.5,0.3c0.5,0.2,0.9,0.4,1.3,0.7c0.4,0.3,0.7,0.5,0.9,0.7C309.9,466.3,310,466.3,310,466.3z"/>
</svg>
