<svg width="709" height="586" viewBox="0 0 709 586" fill="none" xmlns="http://www.w3.org/2000/svg">
<rect x="675" y="586" width="46" height="34" transform="rotate(-90 675 586)" fill="#F1F0F0"/>
<rect x="675" y="128" width="44" height="34" transform="rotate(-90 675 128)" fill="#F1F0F0"/>
<rect x="675" y="218" width="44" height="34" transform="rotate(-90 675 218)" fill="#F1F0F0"/>
<rect x="675" y="310" width="46" height="34" transform="rotate(-90 675 310)" fill="#F1F0F0"/>
<rect x="45" y="586" width="46" height="45" transform="rotate(-90 45 586)" fill="#F1F0F0"/>
<rect x="135" y="586" width="46" height="45" transform="rotate(-90 135 586)" fill="#F1F0F0"/>
<rect x="225" y="586" width="46" height="45" transform="rotate(-90 225 586)" fill="#F1F0F0"/>
<rect x="405" y="586" width="46" height="45" transform="rotate(-90 405 586)" fill="#F1F0F0"/>
<rect x="585" y="586" width="46" height="45" transform="rotate(-90 585 586)" fill="#F1F0F0"/>
<rect x="495" y="586" width="46" height="45" transform="rotate(-90 495 586)" fill="#F1F0F0"/>
<rect x="315" y="586" width="46" height="45" transform="rotate(-90 315 586)" fill="#F1F0F0"/>
<rect x="46" y="2" width="28" height="29" stroke="white" stroke-width="2"/>
<line y1="-1" x2="39.3483" y2="-1" transform="matrix(0.772224 0.635351 -0.645004 0.764179 7.1543 6)" stroke="white" stroke-width="2"/>
<line y1="-1" x2="39.3483" y2="-1" transform="matrix(-0.772224 0.635351 0.645004 0.764179 38.5527 6)" stroke="white" stroke-width="2"/>
<path d="M126.232 7.072V17.94H136.416V7.072H139.988V32H136.416V21.17H126.232V32H122.66V7.072H126.232ZM153.011 32.456C150.604 32.456 148.679 31.7593 147.235 30.366C145.791 28.9727 145.069 27.1233 145.069 24.818V20.372C145.069 18.0413 145.791 16.1793 147.235 14.786C148.679 13.3927 150.604 12.696 153.011 12.696C155.443 12.696 157.381 13.3927 158.825 14.786C160.294 16.1793 161.029 18.0413 161.029 20.372V24.818C161.029 27.1233 160.294 28.9727 158.825 30.366C157.381 31.7593 155.443 32.456 153.011 32.456ZM153.049 29.226C154.442 29.226 155.544 28.8207 156.355 28.01C157.191 27.1993 157.609 26.11 157.609 24.742V20.486C157.609 19.0673 157.203 17.9527 156.393 17.142C155.582 16.3313 154.467 15.926 153.049 15.926C151.655 15.926 150.541 16.3313 149.705 17.142C148.894 17.9527 148.489 19.0673 148.489 20.486V24.742C148.489 26.1353 148.894 27.2373 149.705 28.048C150.541 28.8333 151.655 29.226 153.049 29.226ZM185.523 12.696C187.727 12.696 189.449 13.342 190.691 14.634C191.957 15.926 192.591 17.7247 192.591 20.03V32H189.171V20.296C189.171 18.9533 188.791 17.8893 188.031 17.104C187.296 16.3187 186.308 15.926 185.067 15.926C184.18 15.926 183.357 16.1287 182.597 16.534C181.837 16.9393 181.229 17.4967 180.773 18.206C180.874 18.7127 180.925 19.3207 180.925 20.03V32H177.505V20.296C177.505 18.9533 177.125 17.8893 176.365 17.104C175.63 16.3187 174.642 15.926 173.401 15.926C172.539 15.926 171.741 16.116 171.007 16.496C170.297 16.876 169.715 17.3953 169.259 18.054V32H165.839V13.152H168.917L169.031 14.634C170.373 13.342 172.083 12.696 174.161 12.696C175.326 12.696 176.377 12.924 177.315 13.38C178.252 13.8107 179.012 14.444 179.595 15.28C180.279 14.444 181.115 13.8107 182.103 13.38C183.116 12.924 184.256 12.696 185.523 12.696ZM200.617 23.83V24.742C200.617 26.1607 201.022 27.2753 201.833 28.086C202.669 28.8713 203.809 29.264 205.253 29.264C206.469 29.264 207.482 28.96 208.293 28.352C209.129 27.744 209.56 26.9967 209.585 26.11H213.005C212.904 27.9847 212.144 29.5173 210.725 30.708C209.306 31.8733 207.482 32.456 205.253 32.456C202.821 32.456 200.87 31.772 199.401 30.404C197.932 29.0107 197.197 27.1613 197.197 24.856V20.334C197.197 18.814 197.526 17.484 198.185 16.344C198.844 15.1787 199.781 14.2793 200.997 13.646C202.213 13.0127 203.606 12.696 205.177 12.696C207.558 12.696 209.458 13.3927 210.877 14.786C212.296 16.1793 213.005 18.016 213.005 20.296V23.83H200.617ZM205.177 15.888C203.784 15.888 202.669 16.306 201.833 17.142C201.022 17.9527 200.617 19.0547 200.617 20.448V20.98H209.585V20.448C209.585 19.0547 209.18 17.9527 208.369 17.142C207.584 16.306 206.52 15.888 205.177 15.888ZM239.223 7.072C241.63 7.072 243.53 7.70533 244.923 8.972C246.316 10.2133 247.013 11.9233 247.013 14.102V14.672C247.013 16.8507 246.316 18.5733 244.923 19.84C243.53 21.0813 241.63 21.702 239.223 21.702H232.877V32H229.305V7.072H239.223ZM239.147 18.51C240.566 18.51 241.642 18.1807 242.377 17.522C243.112 16.8633 243.479 15.9133 243.479 14.672V14.102C243.479 12.886 243.099 11.9487 242.339 11.29C241.604 10.6313 240.54 10.302 239.147 10.302H232.877V18.51H239.147ZM266.263 13.152V32H263.185L263.033 30.29C261.665 31.734 259.892 32.456 257.713 32.456C255.585 32.456 253.901 31.7973 252.659 30.48C251.418 29.1627 250.797 27.364 250.797 25.084V13.152H254.255V24.818C254.255 26.1607 254.623 27.2373 255.357 28.048C256.092 28.8333 257.093 29.226 258.359 29.226C259.347 29.226 260.234 29.0107 261.019 28.58C261.805 28.124 262.413 27.516 262.843 26.756V13.152H266.263ZM280.405 12.696C282.533 12.696 284.218 13.3547 285.459 14.672C286.701 15.9893 287.321 17.7753 287.321 20.03V32H283.863V20.296C283.863 18.9533 283.483 17.8893 282.723 17.104C281.989 16.3187 281.001 15.926 279.759 15.926C278.771 15.926 277.885 16.154 277.099 16.61C276.314 17.0407 275.706 17.636 275.275 18.396V32H271.855V13.152H274.933L275.085 14.862C276.453 13.418 278.227 12.696 280.405 12.696ZM309.025 31.468V32H305.377L299.601 23.678L296.181 27.402V32H292.761V5.552H296.181V22.538L304.959 13.19H308.721V13.722L301.881 21.17L309.025 31.468Z" fill="white"/>
<line x1="82" y1="30" x2="111" y2="30" stroke="white" stroke-width="2"/>
<rect x="450" y="84" width="46" height="45" transform="rotate(-90 450 84)" fill="#F1F0F0"/>
<rect x="405.05" y="130.051" width="46" height="45" transform="rotate(-90 405.05 130.051)" fill="#F1F0F0"/>
<rect x="450.102" y="176" width="46" height="45" transform="rotate(-90 450.102 176)" fill="#F1F0F0"/>
<rect y="130" width="46" height="45" transform="rotate(-90 0 130)" fill="#C4C4C4"/>
<rect x="135" y="84" width="46" height="45" transform="rotate(-90 135 84)" fill="#C4C4C4"/>
<rect x="45" y="84" width="46" height="45" transform="rotate(-90 45 84)" fill="#C4C4C4"/>
<rect x="90" y="130" width="46" height="45" transform="rotate(-90 90 130)" fill="#C4C4C4"/>
<rect x="45" y="176" width="46" height="45" transform="rotate(-90 45 176)" fill="#C4C4C4"/>
<rect x="495" y="130" width="46" height="45" transform="rotate(-90 495 130)" fill="#F1F0F0"/>
<rect x="180" y="84.3047" width="46" height="45" transform="rotate(-90 180 84.3047)" fill="#F1F0F0"/>
<rect x="135" y="130" width="46" height="45" transform="rotate(-90 135 130)" fill="#F1F0F0"/>
<rect x="180" y="176" width="46" height="45" transform="rotate(-90 180 176)" fill="#F1F0F0"/>
<rect x="270" y="84.2031" width="46" height="45" transform="rotate(-90 270 84.2031)" fill="#F1F0F0"/>
<rect x="225" y="130" width="46" height="45" transform="rotate(-90 225 130)" fill="#F1F0F0"/>
<rect x="270" y="176" width="46" height="45" transform="rotate(-90 270 176)" fill="#F1F0F0"/>
<rect x="353" y="84" width="46" height="52" transform="rotate(-90 353 84)" fill="#F1F0F0"/>
<rect x="315" y="130" width="46" height="45" transform="rotate(-90 315 130)" fill="#F1F0F0"/>
<rect x="360" y="176" width="46" height="45" transform="rotate(-90 360 176)" fill="#F1F0F0"/>
<rect x="90" y="84" width="46" height="45" transform="rotate(-90 90 84)" fill="#F1F0F0"/>
<rect x="45" y="130" width="46" height="45" transform="rotate(-90 45 130)" fill="#F1F0F0"/>
<rect x="90" y="176" width="46" height="45" transform="rotate(-90 90 176)" fill="#F1F0F0"/>
<rect y="84" width="46" height="45" transform="rotate(-90 0 84)" fill="#F1F0F0"/>
<rect y="176" width="46" height="45" transform="rotate(-90 0 176)" fill="#F1F0F0"/>
<rect x="180" y="130" width="46" height="45" transform="rotate(-90 180 130)" fill="#C4C4C4"/>
<rect x="225" y="84" width="46" height="45" transform="rotate(-90 225 84)" fill="#C4C4C4"/>
<rect x="270" y="130" width="46" height="45" transform="rotate(-90 270 130)" fill="#C4C4C4"/>
<rect x="360" y="130" width="46" height="46" transform="rotate(-90 360 130)" fill="#C4C4C4"/>
<rect x="495" y="176" width="46" height="45" transform="rotate(-90 495 176)" fill="#C4C4C4"/>
<rect x="405" y="176" width="46" height="45" transform="rotate(-90 405 176)" fill="#C4C4C4"/>
<rect x="450" y="130" width="46" height="45" transform="rotate(-90 450 130)" fill="#C4C4C4"/>
<rect x="540" y="128" width="44" height="45" transform="rotate(-90 540 128)" fill="#C4C4C4"/>
<rect x="315" y="176" width="46" height="45" transform="rotate(-90 315 176)" fill="#C4C4C4"/>
<rect x="495" y="84" width="46" height="45" transform="rotate(-90 495 84)" fill="#C4C4C4"/>
<rect x="585" y="84" width="46" height="45" transform="rotate(-90 585 84)" fill="#C4C4C4"/>
<rect x="405" y="84" width="46" height="45" transform="rotate(-90 405 84)" fill="#C4C4C4"/>
<rect x="315" y="84" width="46" height="45" transform="rotate(-90 315 84)" fill="#C4C4C4"/>
<rect x="135" y="176" width="46" height="45" transform="rotate(-90 135 176)" fill="#C4C4C4"/>
<rect x="225" y="176" width="46" height="45" transform="rotate(-90 225 176)" fill="#C4C4C4"/>
<rect x="450" y="174" width="46" height="45" transform="rotate(-90 450 174)" fill="#F1F0F0"/>
<rect x="405.05" y="220.051" width="46" height="45" transform="rotate(-90 405.05 220.051)" fill="#F1F0F0"/>
<rect x="450.102" y="266" width="46" height="45" transform="rotate(-90 450.102 266)" fill="#F1F0F0"/>
<rect y="220" width="46" height="45" transform="rotate(-90 0 220)" fill="#C4C4C4"/>
<rect x="135" y="174" width="46" height="45" transform="rotate(-90 135 174)" fill="#C4C4C4"/>
<rect x="45" y="174" width="46" height="45" transform="rotate(-90 45 174)" fill="#C4C4C4"/>
<rect x="90" y="220" width="46" height="45" transform="rotate(-90 90 220)" fill="#C4C4C4"/>
<rect x="45" y="266" width="46" height="45" transform="rotate(-90 45 266)" fill="#C4C4C4"/>
<rect x="495" y="220" width="46" height="45" transform="rotate(-90 495 220)" fill="#F1F0F0"/>
<rect x="180" y="174.305" width="46" height="45" transform="rotate(-90 180 174.305)" fill="#F1F0F0"/>
<rect x="135" y="220" width="46" height="45" transform="rotate(-90 135 220)" fill="#F1F0F0"/>
<rect x="180" y="266" width="46" height="45" transform="rotate(-90 180 266)" fill="#F1F0F0"/>
<rect x="270" y="174.203" width="46" height="45" transform="rotate(-90 270 174.203)" fill="#F1F0F0"/>
<rect x="225" y="220" width="46" height="45" transform="rotate(-90 225 220)" fill="#F1F0F0"/>
<rect x="270" y="266" width="46" height="45" transform="rotate(-90 270 266)" fill="#F1F0F0"/>
<rect x="353" y="174" width="46" height="52" transform="rotate(-90 353 174)" fill="#F1F0F0"/>
<rect x="315" y="220" width="46" height="45" transform="rotate(-90 315 220)" fill="#F1F0F0"/>
<rect x="360" y="266" width="46" height="45" transform="rotate(-90 360 266)" fill="#F1F0F0"/>
<rect x="90" y="174" width="46" height="45" transform="rotate(-90 90 174)" fill="#F1F0F0"/>
<rect x="45" y="220" width="46" height="45" transform="rotate(-90 45 220)" fill="#F1F0F0"/>
<rect x="90" y="266" width="46" height="45" transform="rotate(-90 90 266)" fill="#F1F0F0"/>
<rect y="174" width="46" height="45" transform="rotate(-90 0 174)" fill="#F1F0F0"/>
<rect y="266" width="46" height="45" transform="rotate(-90 0 266)" fill="#F1F0F0"/>
<rect x="180" y="220" width="46" height="45" transform="rotate(-90 180 220)" fill="#C4C4C4"/>
<rect x="225" y="174" width="46" height="45" transform="rotate(-90 225 174)" fill="#C4C4C4"/>
<rect x="270" y="220" width="46" height="45" transform="rotate(-90 270 220)" fill="#C4C4C4"/>
<rect x="360" y="220" width="46" height="46" transform="rotate(-90 360 220)" fill="#C4C4C4"/>
<rect x="495" y="266" width="46" height="45" transform="rotate(-90 495 266)" fill="#C4C4C4"/>
<rect x="405" y="266" width="46" height="45" transform="rotate(-90 405 266)" fill="#C4C4C4"/>
<rect x="450" y="220" width="46" height="45" transform="rotate(-90 450 220)" fill="#C4C4C4"/>
<rect x="315" y="266" width="46" height="45" transform="rotate(-90 315 266)" fill="#C4C4C4"/>
<rect x="495" y="174" width="46" height="45" transform="rotate(-90 495 174)" fill="#C4C4C4"/>
<rect x="405" y="174" width="46" height="45" transform="rotate(-90 405 174)" fill="#C4C4C4"/>
<rect x="315" y="174" width="46" height="45" transform="rotate(-90 315 174)" fill="#C4C4C4"/>
<rect x="135" y="266" width="46" height="45" transform="rotate(-90 135 266)" fill="#C4C4C4"/>
<rect x="225" y="266" width="46" height="45" transform="rotate(-90 225 266)" fill="#C4C4C4"/>
<rect x="540" y="174" width="46" height="45" transform="rotate(-90 540 174)" fill="#F1F0F0"/>
<rect x="630" y="174" width="46" height="45" transform="rotate(-90 630 174)" fill="#F1F0F0"/>
<rect x="540" y="84" width="46" height="45" transform="rotate(-90 540 84)" fill="#F1F0F0"/>
<rect x="630" y="84" width="46" height="45" transform="rotate(-90 630 84)" fill="#F1F0F0"/>
<rect x="450" y="264" width="46" height="45" transform="rotate(-90 450 264)" fill="#F1F0F0"/>
<rect x="405.05" y="310.051" width="46" height="45" transform="rotate(-90 405.05 310.051)" fill="#F1F0F0"/>
<rect x="450.102" y="356" width="46" height="45" transform="rotate(-90 450.102 356)" fill="#F1F0F0"/>
<rect y="310" width="46" height="45" transform="rotate(-90 0 310)" fill="#C4C4C4"/>
<rect x="135" y="264" width="46" height="45" transform="rotate(-90 135 264)" fill="#C4C4C4"/>
<rect x="45" y="264" width="46" height="45" transform="rotate(-90 45 264)" fill="#C4C4C4"/>
<rect x="90" y="310" width="46" height="45" transform="rotate(-90 90 310)" fill="#C4C4C4"/>
<rect x="45" y="356" width="46" height="45" transform="rotate(-90 45 356)" fill="#C4C4C4"/>
<rect x="495" y="310" width="46" height="45" transform="rotate(-90 495 310)" fill="#F1F0F0"/>
<rect x="180" y="264.305" width="46" height="45" transform="rotate(-90 180 264.305)" fill="#F1F0F0"/>
<rect x="135" y="310" width="46" height="45" transform="rotate(-90 135 310)" fill="#F1F0F0"/>
<rect x="180" y="356" width="46" height="45" transform="rotate(-90 180 356)" fill="#F1F0F0"/>
<rect x="270" y="264.203" width="46" height="45" transform="rotate(-90 270 264.203)" fill="#F1F0F0"/>
<rect x="225" y="310" width="46" height="45" transform="rotate(-90 225 310)" fill="#F1F0F0"/>
<rect x="270" y="356" width="46" height="45" transform="rotate(-90 270 356)" fill="#F1F0F0"/>
<rect x="353" y="264" width="46" height="52" transform="rotate(-90 353 264)" fill="#F1F0F0"/>
<rect x="315" y="310" width="46" height="45" transform="rotate(-90 315 310)" fill="#F1F0F0"/>
<rect x="360" y="356" width="46" height="45" transform="rotate(-90 360 356)" fill="#F1F0F0"/>
<rect x="90" y="264" width="46" height="45" transform="rotate(-90 90 264)" fill="#F1F0F0"/>
<rect x="45" y="310" width="46" height="45" transform="rotate(-90 45 310)" fill="#F1F0F0"/>
<rect x="90" y="356" width="46" height="45" transform="rotate(-90 90 356)" fill="#F1F0F0"/>
<rect y="264" width="46" height="45" transform="rotate(-90 0 264)" fill="#F1F0F0"/>
<rect y="356" width="46" height="45" transform="rotate(-90 0 356)" fill="#F1F0F0"/>
<rect x="180" y="310" width="46" height="45" transform="rotate(-90 180 310)" fill="#C4C4C4"/>
<rect x="225" y="264" width="46" height="45" transform="rotate(-90 225 264)" fill="#C4C4C4"/>
<rect x="270" y="310" width="46" height="45" transform="rotate(-90 270 310)" fill="#C4C4C4"/>
<rect x="360" y="310" width="46" height="46" transform="rotate(-90 360 310)" fill="#C4C4C4"/>
<rect x="495" y="356" width="46" height="45" transform="rotate(-90 495 356)" fill="#C4C4C4"/>
<rect x="405" y="356" width="46" height="45" transform="rotate(-90 405 356)" fill="#C4C4C4"/>
<rect x="450" y="310" width="46" height="45" transform="rotate(-90 450 310)" fill="#C4C4C4"/>
<rect x="315" y="356" width="46" height="45" transform="rotate(-90 315 356)" fill="#C4C4C4"/>
<rect x="495" y="264" width="46" height="45" transform="rotate(-90 495 264)" fill="#C4C4C4"/>
<rect x="405" y="264" width="46" height="45" transform="rotate(-90 405 264)" fill="#C4C4C4"/>
<rect x="315" y="264" width="46" height="45" transform="rotate(-90 315 264)" fill="#C4C4C4"/>
<rect x="135" y="356" width="46" height="45" transform="rotate(-90 135 356)" fill="#C4C4C4"/>
<rect x="225" y="356" width="46" height="45" transform="rotate(-90 225 356)" fill="#C4C4C4"/>
<rect x="450" y="356" width="46" height="45" transform="rotate(-90 450 356)" fill="#F1F0F0"/>
<rect x="405.05" y="402.051" width="46" height="45" transform="rotate(-90 405.05 402.051)" fill="#F1F0F0"/>
<rect x="450.102" y="448" width="46" height="45" transform="rotate(-90 450.102 448)" fill="#F1F0F0"/>
<rect y="402" width="46" height="45" transform="rotate(-90 0 402)" fill="#C4C4C4"/>
<rect x="135" y="356" width="46" height="45" transform="rotate(-90 135 356)" fill="#C4C4C4"/>
<rect x="45" y="356" width="46" height="45" transform="rotate(-90 45 356)" fill="#C4C4C4"/>
<rect x="90" y="402" width="46" height="45" transform="rotate(-90 90 402)" fill="#C4C4C4"/>
<rect x="45" y="448" width="46" height="45" transform="rotate(-90 45 448)" fill="#C4C4C4"/>
<rect x="495" y="402" width="46" height="45" transform="rotate(-90 495 402)" fill="#F1F0F0"/>
<rect x="180" y="356.305" width="46" height="45" transform="rotate(-90 180 356.305)" fill="#F1F0F0"/>
<rect x="135" y="402" width="46" height="45" transform="rotate(-90 135 402)" fill="#F1F0F0"/>
<rect x="180" y="448" width="46" height="45" transform="rotate(-90 180 448)" fill="#F1F0F0"/>
<rect x="270" y="356.203" width="46" height="45" transform="rotate(-90 270 356.203)" fill="#F1F0F0"/>
<rect x="225" y="402" width="46" height="45" transform="rotate(-90 225 402)" fill="#F1F0F0"/>
<rect x="270" y="448" width="46" height="45" transform="rotate(-90 270 448)" fill="#F1F0F0"/>
<rect x="353" y="356" width="46" height="52" transform="rotate(-90 353 356)" fill="#F1F0F0"/>
<rect x="315" y="402" width="46" height="45" transform="rotate(-90 315 402)" fill="#F1F0F0"/>
<rect x="360" y="448" width="46" height="45" transform="rotate(-90 360 448)" fill="#F1F0F0"/>
<rect x="90" y="356" width="46" height="45" transform="rotate(-90 90 356)" fill="#F1F0F0"/>
<rect x="45" y="402" width="46" height="45" transform="rotate(-90 45 402)" fill="#F1F0F0"/>
<rect x="90" y="448" width="46" height="45" transform="rotate(-90 90 448)" fill="#F1F0F0"/>
<rect y="356" width="46" height="45" transform="rotate(-90 0 356)" fill="#F1F0F0"/>
<rect y="448" width="46" height="45" transform="rotate(-90 0 448)" fill="#F1F0F0"/>
<rect x="180" y="402" width="46" height="45" transform="rotate(-90 180 402)" fill="#C4C4C4"/>
<rect x="225" y="356" width="46" height="45" transform="rotate(-90 225 356)" fill="#C4C4C4"/>
<rect x="270" y="402" width="46" height="45" transform="rotate(-90 270 402)" fill="#C4C4C4"/>
<rect x="360" y="402" width="46" height="46" transform="rotate(-90 360 402)" fill="#C4C4C4"/>
<rect x="495" y="448" width="46" height="45" transform="rotate(-90 495 448)" fill="#C4C4C4"/>
<rect x="405" y="448" width="46" height="45" transform="rotate(-90 405 448)" fill="#C4C4C4"/>
<rect x="450" y="402" width="46" height="45" transform="rotate(-90 450 402)" fill="#C4C4C4"/>
<rect x="315" y="448" width="46" height="45" transform="rotate(-90 315 448)" fill="#C4C4C4"/>
<rect x="495" y="356" width="46" height="45" transform="rotate(-90 495 356)" fill="#C4C4C4"/>
<rect x="405" y="356" width="46" height="45" transform="rotate(-90 405 356)" fill="#C4C4C4"/>
<rect x="315" y="356" width="46" height="45" transform="rotate(-90 315 356)" fill="#C4C4C4"/>
<rect x="135" y="448" width="46" height="45" transform="rotate(-90 135 448)" fill="#C4C4C4"/>
<rect x="225" y="448" width="46" height="45" transform="rotate(-90 225 448)" fill="#C4C4C4"/>
<rect x="90" y="586" width="46" height="45" transform="rotate(-90 90 586)" fill="#C4C4C4"/>
<rect y="586" width="46" height="45" transform="rotate(-90 0 586)" fill="#C4C4C4"/>
<rect x="450" y="448" width="46" height="45" transform="rotate(-90 450 448)" fill="#F1F0F0"/>
<rect x="405.05" y="494.051" width="46" height="45" transform="rotate(-90 405.05 494.051)" fill="#F1F0F0"/>
<rect x="448" y="540" width="46" height="47" transform="rotate(-90 448 540)" fill="#F1F0F0"/>
<rect y="494" width="46" height="45" transform="rotate(-90 0 494)" fill="#C4C4C4"/>
<rect x="135" y="448" width="46" height="45" transform="rotate(-90 135 448)" fill="#C4C4C4"/>
<rect x="45" y="448" width="46" height="45" transform="rotate(-90 45 448)" fill="#C4C4C4"/>
<rect x="90" y="494" width="46" height="45" transform="rotate(-90 90 494)" fill="#C4C4C4"/>
<rect x="45" y="540" width="46" height="45" transform="rotate(-90 45 540)" fill="#C4C4C4"/>
<rect x="495" y="494" width="46" height="45" transform="rotate(-90 495 494)" fill="#F1F0F0"/>
<rect x="180" y="448.305" width="46" height="45" transform="rotate(-90 180 448.305)" fill="#F1F0F0"/>
<rect x="135" y="494" width="46" height="45" transform="rotate(-90 135 494)" fill="#F1F0F0"/>
<rect x="180" y="540" width="46" height="45" transform="rotate(-90 180 540)" fill="#F1F0F0"/>
<rect x="270" y="448.203" width="46" height="45" transform="rotate(-90 270 448.203)" fill="#F1F0F0"/>
<rect x="225" y="494" width="46" height="45" transform="rotate(-90 225 494)" fill="#F1F0F0"/>
<rect x="270" y="540" width="46" height="45" transform="rotate(-90 270 540)" fill="#F1F0F0"/>
<rect x="353" y="448" width="46" height="52" transform="rotate(-90 353 448)" fill="#F1F0F0"/>
<rect x="315" y="494" width="46" height="45" transform="rotate(-90 315 494)" fill="#F1F0F0"/>
<rect x="360" y="540" width="46" height="45" transform="rotate(-90 360 540)" fill="#F1F0F0"/>
<rect x="90" y="448" width="46" height="45" transform="rotate(-90 90 448)" fill="#F1F0F0"/>
<rect x="45" y="494" width="46" height="45" transform="rotate(-90 45 494)" fill="#F1F0F0"/>
<rect x="90" y="540" width="46" height="45" transform="rotate(-90 90 540)" fill="#F1F0F0"/>
<rect y="448" width="46" height="45" transform="rotate(-90 0 448)" fill="#F1F0F0"/>
<rect y="540" width="46" height="45" transform="rotate(-90 0 540)" fill="#F1F0F0"/>
<rect x="180" y="494" width="46" height="45" transform="rotate(-90 180 494)" fill="#C4C4C4"/>
<rect x="225" y="448" width="46" height="45" transform="rotate(-90 225 448)" fill="#C4C4C4"/>
<rect x="270" y="494" width="46" height="45" transform="rotate(-90 270 494)" fill="#C4C4C4"/>
<rect x="360" y="494" width="46" height="46" transform="rotate(-90 360 494)" fill="#C4C4C4"/>
<rect x="495" y="540" width="46" height="45" transform="rotate(-90 495 540)" fill="#C4C4C4"/>
<rect x="405" y="540" width="46" height="45" transform="rotate(-90 405 540)" fill="#C4C4C4"/>
<rect x="450" y="494" width="46" height="45" transform="rotate(-90 450 494)" fill="#C4C4C4"/>
<rect x="315" y="540" width="46" height="45" transform="rotate(-90 315 540)" fill="#C4C4C4"/>
<rect x="495" y="448" width="46" height="45" transform="rotate(-90 495 448)" fill="#C4C4C4"/>
<rect x="405" y="448" width="46" height="45" transform="rotate(-90 405 448)" fill="#C4C4C4"/>
<rect x="315" y="448" width="46" height="45" transform="rotate(-90 315 448)" fill="#C4C4C4"/>
<rect x="135" y="540" width="46" height="45" transform="rotate(-90 135 540)" fill="#C4C4C4"/>
<rect x="225" y="540" width="46" height="45" transform="rotate(-90 225 540)" fill="#C4C4C4"/>
<rect x="585" y="448" width="46" height="45" transform="rotate(-90 585 448)" fill="#C4C4C4"/>
<rect x="180" y="586" width="46" height="45" transform="rotate(-90 180 586)" fill="#C4C4C4"/>
<rect x="540" y="264" width="46" height="45" transform="rotate(-90 540 264)" fill="#F1F0F0"/>
<rect x="540" y="356" width="46" height="45" transform="rotate(-90 540 356)" fill="#F1F0F0"/>
<rect x="540" y="448" width="46" height="45" transform="rotate(-90 540 448)" fill="#F1F0F0"/>
<rect x="540" y="540" width="46" height="45" transform="rotate(-90 540 540)" fill="#F1F0F0"/>
<rect x="630" y="540" width="46" height="45" transform="rotate(-90 630 540)" fill="#F1F0F0"/>
<rect x="585" y="494" width="46" height="45" transform="rotate(-90 585 494)" fill="#F1F0F0"/>
<rect x="585" y="402" width="46" height="45" transform="rotate(-90 585 402)" fill="#F1F0F0"/>
<rect x="585" y="310" width="46" height="45" transform="rotate(-90 585 310)" fill="#F1F0F0"/>
<rect x="630" y="448" width="46" height="45" transform="rotate(-90 630 448)" fill="#F1F0F0"/>
<rect x="630" y="356" width="46" height="45" transform="rotate(-90 630 356)" fill="#F1F0F0"/>
<rect x="630" y="264" width="46" height="45" transform="rotate(-90 630 264)" fill="#F1F0F0"/>
<rect x="585" y="218" width="44" height="45" transform="rotate(-90 585 218)" fill="#F1F0F0"/>
<rect x="585" y="128" width="44" height="45" transform="rotate(-90 585 128)" fill="#F1F0F0"/>
<rect x="675" y="402" width="46" height="34" transform="rotate(-90 675 402)" fill="#F1F0F0"/>
<rect x="675" y="494" width="46" height="34" transform="rotate(-90 675 494)" fill="#F1F0F0"/>
<rect x="675" y="84" width="46" height="34" transform="rotate(-90 675 84)" fill="#C4C4C4"/>
<rect x="675" y="174" width="46" height="34" transform="rotate(-90 675 174)" fill="#C4C4C4"/>
<rect x="675" y="264" width="46" height="34" transform="rotate(-90 675 264)" fill="#C4C4C4"/>
<rect x="675" y="356" width="46" height="34" transform="rotate(-90 675 356)" fill="#C4C4C4"/>
<rect x="675" y="448" width="46" height="34" transform="rotate(-90 675 448)" fill="#C4C4C4"/>
<rect x="675" y="540" width="46" height="34" transform="rotate(-90 675 540)" fill="#C4C4C4"/>
<rect x="270" y="586" width="46" height="45" transform="rotate(-90 270 586)" fill="#C4C4C4"/>
<rect x="360" y="586" width="46" height="45" transform="rotate(-90 360 586)" fill="#C4C4C4"/>
<rect x="450" y="586" width="46" height="45" transform="rotate(-90 450 586)" fill="#C4C4C4"/>
<rect x="540" y="586" width="46" height="45" transform="rotate(-90 540 586)" fill="#C4C4C4"/>
<rect x="630" y="586" width="46" height="45" transform="rotate(-90 630 586)" fill="#C4C4C4"/>
<rect x="540" y="310" width="46" height="45" transform="rotate(-90 540 310)" fill="#C4C4C4"/>
<rect x="540" y="494" width="46" height="45" transform="rotate(-90 540 494)" fill="#C4C4C4"/>
<rect x="630" y="402" width="46" height="45" transform="rotate(-90 630 402)" fill="#C4C4C4"/>
<rect x="540" y="402" width="46" height="45" transform="rotate(-90 540 402)" fill="#C4C4C4"/>
<rect x="585" y="356" width="46" height="45" transform="rotate(-90 585 356)" fill="#C4C4C4"/>
<rect x="630" y="310" width="46" height="45" transform="rotate(-90 630 310)" fill="#C4C4C4"/>
<rect x="585" y="264" width="46" height="45" transform="rotate(-90 585 264)" fill="#C4C4C4"/>
<rect x="540" y="218" width="44" height="45" transform="rotate(-90 540 218)" fill="#C4C4C4"/>
<rect x="630" y="218" width="44" height="45" transform="rotate(-90 630 218)" fill="#C4C4C4"/>
<rect x="585" y="174" width="46" height="45" transform="rotate(-90 585 174)" fill="#C4C4C4"/>
<rect x="630" y="128" width="44" height="45" transform="rotate(-90 630 128)" fill="#C4C4C4"/>
<rect x="585" y="540" width="46" height="45" transform="rotate(-90 585 540)" fill="#C4C4C4"/>
<rect x="630" y="494" width="46" height="45" transform="rotate(-90 630 494)" fill="#C4C4C4"/>
</svg>
