<svg width="700" height="54" viewBox="0 0 700 54" fill="none" xmlns="http://www.w3.org/2000/svg">
<path d="M0 0H700V54H0V0Z" fill="#141313"/>
<rect x="50" y="15" width="28" height="29" stroke="white" stroke-width="2"/>
<line x1="12.6402" y1="18.2318" x2="42.6402" y2="43.2318" stroke="white" stroke-width="2"/>
<line y1="-1" x2="39.0513" y2="-1" transform="matrix(-0.768221 0.640184 0.640184 0.768221 43 19)" stroke="white" stroke-width="2"/>
<path d="M129.232 20.072V30.94H139.416V20.072H142.988V45H139.416V34.17H129.232V45H125.66V20.072H129.232ZM156.011 45.456C153.604 45.456 151.679 44.7593 150.235 43.366C148.791 41.9727 148.069 40.1233 148.069 37.818V33.372C148.069 31.0413 148.791 29.1793 150.235 27.786C151.679 26.3927 153.604 25.696 156.011 25.696C158.443 25.696 160.381 26.3927 161.825 27.786C163.294 29.1793 164.029 31.0413 164.029 33.372V37.818C164.029 40.1233 163.294 41.9727 161.825 43.366C160.381 44.7593 158.443 45.456 156.011 45.456ZM156.049 42.226C157.442 42.226 158.544 41.8207 159.355 41.01C160.191 40.1993 160.609 39.11 160.609 37.742V33.486C160.609 32.0673 160.203 30.9527 159.393 30.142C158.582 29.3313 157.467 28.926 156.049 28.926C154.655 28.926 153.541 29.3313 152.705 30.142C151.894 30.9527 151.489 32.0673 151.489 33.486V37.742C151.489 39.1353 151.894 40.2373 152.705 41.048C153.541 41.8333 154.655 42.226 156.049 42.226ZM188.523 25.696C190.727 25.696 192.449 26.342 193.691 27.634C194.957 28.926 195.591 30.7247 195.591 33.03V45H192.171V33.296C192.171 31.9533 191.791 30.8893 191.031 30.104C190.296 29.3187 189.308 28.926 188.067 28.926C187.18 28.926 186.357 29.1287 185.597 29.534C184.837 29.9393 184.229 30.4967 183.773 31.206C183.874 31.7127 183.925 32.3207 183.925 33.03V45H180.505V33.296C180.505 31.9533 180.125 30.8893 179.365 30.104C178.63 29.3187 177.642 28.926 176.401 28.926C175.539 28.926 174.741 29.116 174.007 29.496C173.297 29.876 172.715 30.3953 172.259 31.054V45H168.839V26.152H171.917L172.031 27.634C173.373 26.342 175.083 25.696 177.161 25.696C178.326 25.696 179.377 25.924 180.315 26.38C181.252 26.8107 182.012 27.444 182.595 28.28C183.279 27.444 184.115 26.8107 185.103 26.38C186.116 25.924 187.256 25.696 188.523 25.696ZM203.617 36.83V37.742C203.617 39.1607 204.022 40.2753 204.833 41.086C205.669 41.8713 206.809 42.264 208.253 42.264C209.469 42.264 210.482 41.96 211.293 41.352C212.129 40.744 212.56 39.9967 212.585 39.11H216.005C215.904 40.9847 215.144 42.5173 213.725 43.708C212.306 44.8733 210.482 45.456 208.253 45.456C205.821 45.456 203.87 44.772 202.401 43.404C200.932 42.0107 200.197 40.1613 200.197 37.856V33.334C200.197 31.814 200.526 30.484 201.185 29.344C201.844 28.1787 202.781 27.2793 203.997 26.646C205.213 26.0127 206.606 25.696 208.177 25.696C210.558 25.696 212.458 26.3927 213.877 27.786C215.296 29.1793 216.005 31.016 216.005 33.296V36.83H203.617ZM208.177 28.888C206.784 28.888 205.669 29.306 204.833 30.142C204.022 30.9527 203.617 32.0547 203.617 33.448V33.98H212.585V33.448C212.585 32.0547 212.18 30.9527 211.369 30.142C210.584 29.306 209.52 28.888 208.177 28.888ZM242.223 20.072C244.63 20.072 246.53 20.7053 247.923 21.972C249.316 23.2133 250.013 24.9233 250.013 27.102V27.672C250.013 29.8507 249.316 31.5733 247.923 32.84C246.53 34.0813 244.63 34.702 242.223 34.702H235.877V45H232.305V20.072H242.223ZM242.147 31.51C243.566 31.51 244.642 31.1807 245.377 30.522C246.112 29.8633 246.479 28.9133 246.479 27.672V27.102C246.479 25.886 246.099 24.9487 245.339 24.29C244.604 23.6313 243.54 23.302 242.147 23.302H235.877V31.51H242.147ZM269.263 26.152V45H266.185L266.033 43.29C264.665 44.734 262.892 45.456 260.713 45.456C258.585 45.456 256.901 44.7973 255.659 43.48C254.418 42.1627 253.797 40.364 253.797 38.084V26.152H257.255V37.818C257.255 39.1607 257.623 40.2373 258.357 41.048C259.092 41.8333 260.093 42.226 261.359 42.226C262.347 42.226 263.234 42.0107 264.019 41.58C264.805 41.124 265.413 40.516 265.843 39.756V26.152H269.263ZM283.405 25.696C285.533 25.696 287.218 26.3547 288.459 27.672C289.701 28.9893 290.321 30.7753 290.321 33.03V45H286.863V33.296C286.863 31.9533 286.483 30.8893 285.723 30.104C284.989 29.3187 284.001 28.926 282.759 28.926C281.771 28.926 280.885 29.154 280.099 29.61C279.314 30.0407 278.706 30.636 278.275 31.396V45H274.855V26.152H277.933L278.085 27.862C279.453 26.418 281.227 25.696 283.405 25.696ZM312.025 44.468V45H308.377L302.601 36.678L299.181 40.402V45H295.761V18.552H299.181V35.538L307.959 26.19H311.721V26.722L304.881 34.17L312.025 44.468Z" fill="white"/>
<line x1="86" y1="43" x2="115" y2="43" stroke="white" stroke-width="2"/>
</svg>
