<svg width="747" height="680" viewBox="0 0 747 680" fill="none" xmlns="http://www.w3.org/2000/svg">
<g clip-path="url(#clip0_88_4970)">
<path d="M750.611 -2.84436H0V680H750.611V-2.84436Z" fill="black"/>
<path d="M370.541 247.198L241.05 15.7525L268.609 296.432L69.4127 188.38L205.851 412.823L0.17749 462.468L202.187 559.417L109.758 680H557.253L553.269 667.709L638.405 680H745.128L587.882 530.676L752.208 418.226V403.273L560.305 386.412L658.386 144.492L479.278 280.736L460.618 -0.605469L370.541 247.198Z" fill="#FF029C"/>
<path d="M0 -5.57452V298.534L113.413 413.417L25.7669 141.088L247.935 169.463L63.5388 -1.93052L68.8625 -5.57452H0Z" fill="#FF029C"/>
<path d="M636.355 418.911L539.862 602.768L709.033 680L564.174 720.804L705.395 862.451L539.685 831.06L611.555 1047.59L474.167 898.48L453.893 1121.23L388.42 901.678L282.451 1059.84L309.664 839.605L151.655 883.013L262.922 732.01L108.4 681.748L263.019 613.049L127.574 458.538L309.921 520.486L292.513 235.135C324.591 317.991 356.67 400.844 388.748 483.692C410.711 405.649 432.678 327.591 454.647 249.517C461.249 337.788 467.856 426.058 474.469 514.329L636.355 418.877" fill="black"/>
<path d="M598.024 -447.23L703.7 -194.194L481.106 -178.168L675.964 -44.6533L491.567 126.74L713.735 98.3652L626.08 370.694L805.029 189.431L841.949 476.245L920.855 199.632L1070.62 409.864L1024.44 125.735L1239.51 192.641L1082.9 -8.79584L1294.98 -106.464L1077.67 -161.25L1219.44 -392.478L1010.41 -283.227L1036.85 -574.61L902.48 -336.002L805.197 -595.023L788.135 -302.806L598.024 -447.23Z" fill="#FF029C"/>
</g>
<defs>
<clipPath id="clip0_88_4970">
<rect width="747" height="680" fill="white"/>
</clipPath>
</defs>
</svg>
