<svg width="509" height="450" viewBox="0 0 509 450" fill="none" xmlns="http://www.w3.org/2000/svg">
<path d="M168.2 250C163.217 249.988 158.264 249.157 153.507 247.533C150.183 246.321 147.227 244.136 144.958 241.215C141.065 236.003 138.977 229.455 139.061 222.724C138.87 217.639 139.127 212.545 139.829 207.514C140.46 202.677 142.05 198.05 144.488 193.957C145.66 192.287 146.642 190.465 147.411 188.534C148.5 185.414 149.329 182.193 149.889 178.909C150.756 173.486 149.096 168.064 149.121 162.641C148.927 159.186 149.11 155.718 149.666 152.311C150.943 147.045 153.514 142.263 157.099 138.483C158.487 136.965 159.726 135.338 161.113 133.82C164.558 130.024 168.076 126.282 171.545 122.514C177.046 116.549 182.844 117.091 189.137 120.697C192.537 122.734 195.299 125.842 197.066 129.617C199.321 134.308 201.452 139.053 203.781 143.662C205.243 146.536 207.002 149.274 208.736 152.04C211.56 156.564 213.663 161.578 214.956 166.871C216.119 171.684 216.313 176.717 215.525 181.62C214.946 186.854 213.581 191.948 211.487 196.695C209.48 200.518 207.72 204.477 205.813 208.354C204.25 211.099 202.819 213.932 201.526 216.841C200.665 219.466 200.108 222.198 199.866 224.975C199.378 229.505 198.197 233.914 196.372 238.016C195.111 240.449 193.411 242.577 191.375 244.269C189.338 245.961 187.009 247.182 184.528 247.858C183.357 248.334 182.145 248.679 180.911 248.888C176.699 249.105 172.536 249.539 168.2 250ZM174.939 167.332C174.32 170.043 173.8 172.402 173.081 174.842C172.619 176.824 171.936 178.736 171.049 180.536C169.018 184.169 166.763 187.694 164.458 191.164C161.287 195.909 161.089 201.359 160.99 206.781C160.99 208.896 162.129 209.764 164.136 210.062C166.025 210.047 167.87 209.442 169.455 208.318C171.039 207.194 172.297 205.598 173.081 203.718C174.097 200.708 174.89 197.59 175.732 194.499C176.575 191.408 177.541 188.236 178.21 185.064C179.08 181.778 179.669 178.41 179.969 175.005C180.161 173.281 179.76 171.54 178.844 170.122C177.928 168.704 176.563 167.709 175.014 167.332H174.939Z" fill="#FF029C"/>
<path d="M86.7786 152.949C86.2808 148.801 86.0318 144.626 85.2104 140.56C84.7286 138.543 83.8425 136.669 82.6158 135.07C81.3892 133.472 79.8524 132.189 78.1162 131.315C76.6924 130.748 75.1303 130.751 73.7079 131.322C72.2856 131.893 71.0955 132.995 70.35 134.433C68.5856 137.43 67.6204 140.903 67.5622 144.463C67.2542 149.855 67.699 155.266 68.8815 160.512C69.9519 165.501 70.9475 170.543 72.441 175.423C74.2394 181.726 75.0144 188.322 74.731 194.915C74.4305 201.424 72.67 207.754 69.6033 213.35C67.03 218.414 63.5715 222.881 59.4227 226.498C53.3492 231.92 46.6533 235.661 38.3395 234.902C35.8428 234.73 33.4085 233.981 31.1982 232.705C28.9879 231.429 27.0524 229.655 25.5204 227.501C23.683 224.72 22.2863 221.622 21.3883 218.338C19.9185 212.867 19.5534 207.115 20.318 201.476C20.7411 195.43 21.8861 189.412 22.4337 183.366C23.1187 177.821 22.7459 172.183 21.3385 166.802C20.0441 162.437 18.3515 158.181 16.8829 153.871C16.3604 152.417 15.9118 150.932 15.5388 149.425C14.2752 145.534 13.4397 141.493 13.0497 137.388C12.8511 134.287 13.2495 131.175 14.2195 128.252C14.8667 126.625 15.2152 124.836 15.7877 123.155C17.5301 118.167 19.4966 113.287 21.015 108.217C21.7661 105.587 22.1026 102.837 22.0106 100.084C22.0321 93.4353 21.6914 86.7906 20.9901 80.1856C20.1439 73.4921 20.0185 66.7139 20.6167 59.9888C21.1319 54.2103 22.2254 48.5105 23.8775 42.9908C25.6347 37.177 27.8414 31.5359 30.4738 26.1283C33.4723 19.7862 37.2766 13.9362 41.7745 8.75084C43.3178 6.98869 44.7615 5.14521 46.3048 3.32885C47.7396 1.55335 49.7068 0.390716 51.8556 0.0484794C52.8089 -0.067562 53.7739 0.0252288 54.6937 0.321333C55.6136 0.617437 56.4697 1.111 57.2119 1.7728C57.9541 2.43461 58.5672 3.25135 59.0153 4.17504C59.4633 5.09873 59.7373 6.11059 59.8209 7.15128C59.8751 11.2152 59.7172 15.2794 59.348 19.3238C58.5764 27.9448 57.6056 36.5657 56.7344 45.1867C56.2615 50.0122 56.0872 54.8921 55.2657 59.6363C54.2276 65.0403 54.0675 70.6007 54.7928 76.065C55.3229 82.0453 57.62 87.6768 61.3393 92.114C62.6464 93.5355 64.1995 94.6603 65.9086 95.4235C67.6177 96.1867 69.4488 96.5731 71.2959 96.5601C74.955 96.5601 78.6142 97.2921 82.2732 97.6174C82.9889 97.7328 83.7182 97.5488 84.3143 97.1023C86.6896 94.3036 88.8774 91.3228 90.8608 88.183C93.1817 83.4001 94.4272 78.0855 94.4949 72.6762C94.7418 68.2512 95.4347 63.8692 96.561 59.6092C98.3547 53.4351 100.594 47.4251 103.257 41.6353C105.688 36.1887 108.87 31.1789 112.691 26.779C115.501 23.2864 119.067 20.6137 123.066 19.004C127.066 17.3942 131.371 16.8984 135.591 17.5616C138.775 17.9468 141.834 19.1254 144.532 21.0059C147.23 22.8865 149.494 25.4185 151.148 28.4056C154.31 34.5121 155.576 41.5675 154.758 48.5211C154.365 55.1573 153.483 61.7483 152.119 68.2301C150.551 75.3058 148.211 82.1918 146.046 89.1049C143.556 97.0481 140.793 104.856 138.429 112.826C136.985 117.706 135.939 122.775 134.944 127.764C132.649 139.908 131.589 152.29 131.783 164.687C131.783 172.116 131.783 179.571 131.31 186.972C130.788 193.096 129.763 199.156 128.248 205.081C127.037 209.997 124.872 214.573 121.901 218.501C116.176 225.983 109.181 230.836 99.4982 229.833C98.7721 229.817 98.0706 229.544 97.5 229.055C96.9295 228.566 96.521 227.887 96.3369 227.122C94.8932 221.456 93.4994 215.79 92.2548 210.097C91.4582 206.356 91.1097 202.533 90.3132 198.792C88.1763 186.925 86.9771 174.88 86.7288 162.79C86.5545 159.455 86.2559 156.148 86.007 152.813L86.7786 152.949Z" fill="#FF029C"/>
<path d="M374.476 140.79C374.326 143.85 374.326 146.91 374.002 149.942C373.054 158.878 372.181 167.867 370.859 176.748C370.126 181.227 368.99 185.617 367.466 189.854C366.185 193.043 364.727 196.144 363.1 199.141C362.872 199.685 362.68 200.246 362.526 200.82C360.482 207.637 358.815 214.581 357.536 221.615C356.637 227.309 354.574 232.712 351.498 237.427C349.314 240.52 346.188 242.67 342.679 243.493C339.169 244.317 335.504 243.76 332.338 241.922C330.788 240.934 329.475 239.563 328.504 237.921C327.534 236.28 326.932 234.413 326.749 232.472C326.105 227.512 326.982 222.46 329.244 218.095C330.118 216.416 330.542 214.493 331.265 212.679C333.211 207.378 333.755 201.592 332.837 195.973C332.438 192.29 332.014 188.635 331.714 184.98C331.19 178.454 333.785 172.606 335.556 166.595C336.779 162.425 338.051 158.282 339.049 154.085C339.63 152.045 339.859 149.906 339.723 147.776C339.417 145.674 338.73 143.658 337.702 141.846C336.829 140.168 335.506 140.086 333.835 140.926C331.142 142.354 328.939 144.678 327.548 147.56C324.342 153.29 322.859 159.962 323.307 166.649C323.756 172.443 320.936 177.019 318.541 181.866C317.385 184.308 316.697 186.979 316.521 189.718C316.098 197.788 314.636 205.753 312.18 213.383C310.175 219.676 306.672 225.282 302.025 229.629C300.136 231.588 297.848 233.035 295.347 233.853C292.846 234.672 290.202 234.839 287.63 234.341C283.439 233.42 280.944 231.146 281.268 226.651C281.468 223.943 281.967 221.073 282.092 218.284C282.083 211.597 281.498 204.925 280.345 198.356C279.684 193.263 279.684 188.096 280.345 183.003C281.144 176.884 283.139 170.981 284.412 164.916C285.394 161.521 285.523 157.904 284.786 154.437C284.118 152.729 283.19 151.155 282.042 149.78C281.368 148.805 280.57 149.401 280.071 150.105C277.887 153.075 276.012 156.299 274.482 159.717C272.816 164.736 271.972 170.033 271.987 175.368C271.513 181.676 271.613 188.039 271.164 194.321C270.938 197.086 270.113 199.754 268.756 202.107C267.399 204.46 265.548 206.431 263.355 207.86C259.649 210.302 256.136 213.073 252.852 216.145C250.686 218.743 248.909 221.694 247.588 224.891C245.605 229.681 243.146 234.22 240.253 238.429C235.488 244.603 228.876 248.339 221.267 246.552C219.012 246.125 216.961 244.87 215.457 242.997C213.954 241.123 213.089 238.746 213.009 236.263C212.913 230.7 213.578 225.152 214.98 219.8C215.192 218.994 215.342 218.17 215.429 217.337C216.576 211.689 218.803 206.367 221.966 201.713C223.762 198.87 225.508 196 227.155 193.076C229.149 189.749 230.941 186.285 232.519 182.705C234.665 177.523 235.384 171.777 234.59 166.161C233.92 162.116 232.935 158.139 231.646 154.275C228.914 146.208 228.914 137.35 231.646 129.283C233.143 124.788 235.138 120.483 236.635 115.988C237.608 113.01 238.182 109.869 238.881 106.782C241.001 97.1697 239.978 87.395 240.253 77.6744C240.253 75.4541 240.403 73.2609 240.627 71.0406C241.251 65.0566 245.617 62.1323 251.081 62.9175C256.727 63.9477 261.806 67.2554 265.301 72.1779C268.521 76.7189 270.431 82.1926 270.79 87.9095C271.449 92.664 273.784 96.9549 277.301 99.8774C282.665 104.277 288.669 107.673 295.065 109.923C297.41 110.898 299.755 111.845 302.125 112.63C303.546 113.151 305.097 113.056 306.455 112.365C307.812 111.674 308.871 110.44 309.41 108.921C311.232 104.859 312.629 100.608 314.6 96.6282C317.094 91.8356 319.839 87.3138 322.433 82.6295C324.105 79.5699 325.727 76.483 327.423 73.3691C329.357 69.1586 331.771 65.2288 334.608 61.6721C336.482 59.3427 338.92 57.6288 341.644 56.7245C344.369 55.8201 347.273 55.7613 350.027 56.5546C352.307 57.2662 354.341 58.6955 355.873 60.6619C357.405 62.6282 358.366 65.0433 358.634 67.6019C359.463 76.0499 360.898 84.4149 362.925 92.6209C364.048 96.7907 365.769 100.744 367.241 104.833C367.965 106.89 368.588 109.029 369.486 111.033C371.558 115.614 372.915 120.537 373.503 125.6C374.052 130.501 374.501 135.402 375 140.303L374.476 140.79Z" fill="#FF029C"/>
<path d="M439.184 30C447.5 30.7606 455.442 31.3854 463.336 32.2546C471.8 33.151 480.264 34.2374 488.728 35.351C493.123 35.5459 497.443 36.6521 501.461 38.6106C503.176 39.4184 504.663 40.7132 505.767 42.3608C506.871 44.0085 507.552 45.9492 507.741 47.9819C508.337 54.5554 505.532 59.4446 501.263 63.6821C498.929 66.0181 496.547 68.3541 494.04 70.5C491.998 72.1045 489.662 73.2051 487.194 73.7256C484.725 74.2462 482.183 74.1744 479.742 73.5152C476.724 72.8392 473.661 72.4304 470.583 72.2929C468.185 72.4095 465.804 72.8102 463.484 73.4881C459.637 74.1757 455.697 73.8876 451.967 72.646C449.655 71.9815 447.31 71.4645 444.943 71.0977C441.294 70.6359 440.624 71.6137 438.961 75.0634C438.393 76.5058 437.961 78.0075 437.67 79.5454C436.728 83.9075 434.932 87.9942 432.408 91.5242C432.041 91.9767 431.823 92.5504 431.788 93.1541C431.521 96.8659 431.605 100.598 432.036 104.291C433.109 109.617 435.993 114.298 440.103 117.383C443.82 120.282 448.032 122.332 452.488 123.41C456.945 124.488 461.554 124.572 466.041 123.658C470.261 122.979 474.431 121.838 478.601 120.942C483.96 119.499 489.596 119.907 494.735 122.11C503.199 125.967 507.145 134.333 503.348 143.623C502.307 146.013 500.693 148.048 498.678 149.512C496.662 150.976 494.321 151.814 491.905 151.935C489.066 152.211 486.214 152.283 483.366 152.152C479.645 151.973 475.988 153.265 473.066 155.792C471.033 157.49 468.597 158.51 466.048 158.732C463.499 158.953 460.946 158.367 458.694 157.042C455.244 155.357 452.017 153.157 448.641 151.256C447.334 150.525 445.961 149.943 444.546 149.517C443.931 149.271 443.279 149.16 442.625 149.19C441.971 149.221 441.33 149.393 440.737 149.696C440.144 149.999 439.612 150.427 439.171 150.955C438.73 151.484 438.388 152.103 438.167 152.777C436.474 156.819 436.191 161.398 437.372 165.652C438.117 168.369 439.234 171.085 439.855 173.801C440.318 176.022 440.658 178.272 440.872 180.538C441.195 183.037 441.542 185.536 441.766 188.035C441.94 189.99 443.007 190.615 444.645 190.479C447.375 190.235 450.106 189.827 452.836 189.61C458.942 189.148 465.048 188.632 471.154 188.333C476.317 188.062 481.455 187.926 486.618 187.953C491.658 187.805 496.652 189.048 501.139 191.566C504.054 193.061 506.38 195.655 507.691 198.873C508.212 199.979 508.62 201.145 508.908 202.35C509.652 207.782 505.78 212.536 501.461 214.709C497.254 216.656 492.724 217.627 488.157 217.561C483.473 217.231 478.77 217.615 474.183 218.702C472.537 219.184 470.971 219.944 469.541 220.956C467.283 222.769 464.717 224.07 461.993 224.784C459.27 225.497 456.443 225.609 453.68 225.112C448.547 224.648 443.38 225.005 438.34 226.171C430.419 228.08 422.38 229.351 414.288 229.974C405.986 230.253 397.752 228.255 390.336 224.161C384.528 221.01 383.014 216.175 384.577 209.575C385.024 207.701 385.173 205.772 385.595 203.925C387.337 197.158 390.547 190.951 394.953 185.834C397.212 183.557 398.918 180.701 399.917 177.522C400.496 173.996 399.971 170.36 398.428 167.201C397.187 163.992 396.408 160.593 396.119 157.123C395.102 148.811 396.392 140.608 397.311 132.405C398.346 126.326 398.729 120.136 398.452 113.961C398.019 108.365 396.823 102.871 394.903 97.6631C393.079 93.7726 391.559 89.72 390.361 85.5485C388.801 78.1286 389.196 70.3765 391.502 63.1932C391.974 61.6449 392.247 60.0423 392.744 58.494C394.528 53.0629 397.336 48.1027 400.984 43.9347C406.614 37.5457 414.064 33.4453 422.107 32.3088C427.915 31.1679 433.724 30.6519 439.184 30Z" fill="#FF029C"/>
<path d="M324.071 324.153C323.795 322.173 323.62 320.194 323.194 318.242C322.81 316.387 322.273 314.572 321.59 312.82C319.636 307.94 317.532 303.114 315.502 298.234C313.197 292.812 310.667 287.119 312.17 280.829C313.76 273.408 317.705 266.827 323.319 262.231C327.505 258.859 332.328 256.53 337.443 255.41C342.558 254.29 347.838 254.406 352.907 255.751C356.864 256.737 360.723 258.135 364.431 259.926C366.409 261.022 367.905 262.921 368.59 265.208C369.276 267.495 369.096 269.983 368.089 272.126C365.802 276.416 364.828 281.38 365.308 286.305C365.809 291.972 366.836 297.611 367.012 303.277C367.086 310.242 365.912 317.156 363.554 323.637C361.224 330.497 359.07 337.437 357.166 344.432C355.615 351.265 355.183 358.34 355.888 365.335C356.364 373.631 356.99 381.954 356.915 390.277C356.766 394.421 355.917 398.5 354.41 402.314C352.666 407.342 349.217 411.462 344.764 413.836C342.254 415.198 339.47 415.864 336.662 415.774C333.855 415.684 331.112 414.841 328.68 413.321C324.819 410.878 321.315 407.826 318.283 404.266C313.799 399.386 309.414 394.398 305.08 389.382C303.61 387.667 302.238 385.856 300.972 383.96C297.562 379.101 294.726 373.8 292.529 368.181C291.735 366.379 290.733 364.694 289.547 363.166C288.194 361.295 287.042 361.241 285.664 363.166C284.311 365.066 283.073 367.058 281.956 369.13C279.432 374.218 277.673 379.709 276.745 385.397C276.219 387.593 276.169 389.952 275.518 392.093C274.331 396.462 272.849 400.73 271.083 404.863C269.401 408.481 267.287 411.844 264.795 414.866C260.085 420.614 254.398 424.437 246.606 422.485C242.815 421.502 239.443 419.161 237.036 415.842C233.378 411.098 233.604 405.649 234.731 400.281C235.746 395.554 237.103 390.922 238.79 386.427C240.919 380.571 243.424 374.85 245.855 369.13C247.809 364.548 250.013 360.102 251.968 355.574C255.541 347.757 256.308 338.783 254.122 330.388C253.12 326.674 251.466 323.149 250.189 319.544C249.799 318.501 249.538 317.407 249.412 316.29C248.81 309.964 250.37 303.618 253.796 298.451C255.926 295.117 257.805 291.619 259.985 288.312C262.344 284.963 263.971 281.079 264.745 276.952C265.07 274.892 264.745 272.777 264.995 270.689C265.088 266.564 265.448 262.451 266.073 258.381C266.537 256.393 267.583 254.622 269.055 253.331C270.528 252.041 272.347 251.302 274.24 251.224C277.14 250.765 280.099 251.014 282.899 251.952C285.699 252.89 288.27 254.494 290.424 256.646C294.118 260.196 296.782 264.829 298.09 269.985C299.439 275.728 299.644 281.717 298.692 287.553C298.241 291.755 297.514 295.93 297.138 300.159C297.01 302.19 297.12 304.231 297.464 306.232C297.669 307.511 298.207 308.701 299.015 309.661C299.823 310.621 300.866 311.313 302.024 311.654C305.431 312.929 308.938 313.932 312.371 315.179C316.166 316.54 319.476 319.146 321.841 322.634C322.367 323.393 323.018 324.017 323.595 324.722L324.071 324.153Z" fill="#FF029C"/>
<path d="M47.5803 262.076C59.8002 262.369 71.8374 265.372 82.9575 270.902C89.6592 274.323 96.2613 277.962 102.888 281.601C106.775 283.773 110.611 286.054 114.348 288.471C118.59 291.076 122.05 294.961 124.314 299.659C125.237 301.579 125.795 303.682 125.953 305.843C126.112 308.004 125.867 310.177 125.236 312.232C124.18 315.395 122.757 318.398 121 321.166C117.463 327.358 113.526 333.277 111.558 340.392C110.703 343.902 108.92 347.061 106.43 349.475C103.941 351.89 100.855 353.452 97.5567 353.97C87.4277 356.205 77.1231 357.36 66.7887 357.419C65.4184 357.419 64.0481 357.419 62.653 357.419C60.7808 357.497 58.9504 358.045 57.3041 359.02C55.6578 359.995 54.24 361.37 53.1609 363.04C48.8044 369.201 46.5576 376.827 46.808 384.601C46.808 392.205 47.1569 399.835 47.0074 407.466C47.0192 411.905 46.5253 416.329 45.5374 420.636C42.0994 434.214 31.6856 444.37 16.7624 442.849C13.9098 442.763 11.1162 441.943 8.60942 440.456C6.10266 438.97 3.95356 436.859 2.33742 434.295C1.13734 432.269 0.374867 429.972 0.107308 427.578C-0.16025 425.184 0.0740982 422.754 0.792793 420.473C2.49216 415.072 4.73119 409.89 7.46958 405.022C8.16716 403.637 8.66556 402.306 9.31331 400.758C11.6937 395.526 13.1875 389.869 13.7229 384.058C14.271 378.111 14.3208 372.137 14.5201 366.162C14.3948 360.803 15.2414 355.469 17.0115 350.467C18.1824 347.751 19.9015 345.036 21.2468 342.32C23.215 338.301 25.3077 334.174 26.9769 330.128C30.5146 321.248 30.0661 311.988 28.8204 302.701C28.4884 300.082 28.3302 297.441 28.3471 294.798C28.3471 288.2 28.4966 281.601 28.3471 275.002C28.1478 269.761 30.9631 266.856 34.7997 264.683C38.7797 262.618 43.1847 261.72 47.5803 262.076ZM90.1574 313.373C90.1574 308.783 89.0114 306.882 86.0218 305.66C84.3277 304.954 82.5588 304.384 80.8148 303.841C75.9582 302.114 70.7234 302.114 65.8667 303.841C62.5034 305.117 60.7097 307.86 61.7561 311.39C62.9267 314.692 64.2487 317.928 65.7173 321.085C66.0457 321.7 66.2497 322.386 66.3153 323.094C66.3153 325.104 66.3152 327.14 66.0661 329.177C65.6532 330.974 65.74 332.865 66.3153 334.608C66.4311 335.077 66.6709 335.498 67.0049 335.819C67.3389 336.14 67.7522 336.347 68.1933 336.414C68.6344 336.48 69.0837 336.403 69.4852 336.193C69.8866 335.983 70.2226 335.65 70.4509 335.233C71.203 334.121 72.0362 333.076 72.9422 332.11C77.4267 328.118 82.0107 324.262 86.4952 320.27C87.5099 319.453 88.3589 318.416 88.9891 317.224C89.6193 316.033 90.0169 314.712 90.1574 313.345V313.373Z" fill="#FF029C"/>
<path d="M176.687 372.469C179.368 369.449 181.263 365.712 182.177 361.639C183.625 356.847 182.027 352.407 181.528 347.859C180.342 340.35 180.443 332.667 181.828 325.198C183.001 319.946 184.723 314.829 186.17 309.631C186.744 307.681 187.169 305.678 187.818 303.756C189.493 298.09 191.95 292.731 195.105 287.863C198.405 283.011 202.985 279.36 208.239 277.393C213.493 275.425 219.173 275.234 224.53 276.845C227.91 277.727 230.901 279.858 232.991 282.871C235.081 285.884 236.14 289.592 235.985 293.36C235.535 299.12 233.549 304.614 230.27 309.171C228.298 312.176 226.277 315.154 224.13 318.024C221.235 321.841 217.941 325.388 215.271 329.368C212.581 333.342 210.202 337.553 208.158 341.957C205.088 348.617 205.363 355.764 206.161 362.885C207.135 371.548 208.258 380.185 209.206 388.821C209.893 393.047 210.185 397.337 210.079 401.627C209.602 408.929 208.558 416.174 206.96 423.286C205.289 430.053 201.743 436.101 196.802 440.613C189.604 447.107 180.423 450.44 171.071 449.953C162.72 450.012 154.505 447.667 147.262 443.158C144.048 441.011 141.075 438.468 138.402 435.577C133.037 429.758 129.285 422.423 127.571 414.406C125.703 406.69 125.498 398.612 126.972 390.798C128.181 385.412 129.792 380.143 131.788 375.041C133.361 370.438 135.108 365.863 137.004 361.504C139.652 355.656 141.341 349.353 141.996 342.877C142.387 337.663 142.496 332.429 142.32 327.202C142.196 322.897 141.671 318.619 141.372 314.342C141.048 309.577 140.449 304.812 140.548 300.074C140.465 294.121 141.598 288.222 143.868 282.801C147.237 275.464 151.729 271.565 160.914 273.487C164.137 274.096 167.216 275.4 169.967 277.32C172.719 279.24 175.089 281.739 176.936 284.669C178.501 287.224 179.47 290.153 179.762 293.204C180.053 296.255 179.657 299.337 178.608 302.186C178.084 303.945 177.835 305.786 177.41 307.6C175.763 314.287 174.091 321.002 172.419 327.716C171.221 332.67 170.073 337.679 168.975 342.66C168.476 344.799 168.002 346.938 167.702 349.104C167.316 352.295 167.545 355.537 168.375 358.627C169.204 361.717 170.615 364.586 172.519 367.054C173.817 368.787 175.239 370.519 176.687 372.469Z" fill="#FF029C"/>
<path d="M376 404.72C376.149 396.981 377.395 389.312 379.693 381.986C381.44 376.554 383.985 371.312 386.231 366.015C387.154 363.897 388.402 361.914 389.151 359.741C389.712 357.812 389.8 355.757 389.406 353.779C389.012 351.802 388.15 349.971 386.905 348.469C384.641 345.251 382.77 341.726 381.34 337.984C378.43 329.498 377.892 320.266 379.793 311.448C380.522 307.377 381.704 303.419 383.312 299.659C385.15 295.721 387.366 292.006 389.924 288.577C392.389 285.048 393.666 280.705 393.543 276.273C393.533 273.352 393.902 270.444 394.641 267.636C395.447 265.521 396.786 263.698 398.504 262.376C400.221 261.055 402.247 260.289 404.348 260.166C406.337 259.832 408.37 260.003 410.288 260.668C412.206 261.332 413.957 262.472 415.402 263.996C416.782 265.534 417.838 267.38 418.497 269.406C419.156 271.432 419.403 273.59 419.22 275.73C418.645 279.694 417.151 283.434 414.878 286.595C412.969 289.983 411.76 293.783 411.335 297.731C411.185 299.252 412.233 299.361 413.256 299.388C417.052 299.376 420.79 298.38 424.161 296.481C428.848 293.745 433.13 290.257 436.863 286.133C441.854 281.108 446.72 275.757 452.01 271.004C456.187 267.183 461.048 264.349 466.284 262.679C471.52 261.01 477.018 260.543 482.429 261.307C484.145 261.336 485.829 261.821 487.334 262.721C488.839 263.62 490.119 264.907 491.063 266.468C491.967 268.442 492.297 270.668 492.011 272.851C491.508 275.604 490.669 278.271 489.516 280.782C488.064 284.514 486.397 288.143 484.525 291.647C480.463 299.941 473.806 306.378 465.759 309.791C462.702 310.803 459.559 311.477 456.377 311.801C453.881 312.127 453.607 312.398 454.48 314.761C456.618 320.103 459.695 324.938 463.539 328.994C466.234 332 468.895 335.051 471.524 338.147C476.098 343.31 480.093 349.045 483.427 355.232C485.748 359.822 488.218 364.331 490.339 369.03C492.46 373.729 494.606 378.808 496.403 383.833C497.436 386.471 497.978 389.305 498 392.172C497.865 395.075 497.14 397.909 495.875 400.469C494.611 403.029 492.839 405.251 490.689 406.975C485.726 411.295 479.575 413.676 473.221 413.738C466.427 414.131 459.681 412.295 453.856 408.469C449.315 405.403 445.61 401.07 443.126 395.92C441.206 391.989 439.962 387.708 439.458 383.29C438.999 380.723 438.798 378.109 438.859 375.495C439.159 369.356 438.363 363.213 436.513 357.405C435.749 355.346 434.76 353.395 433.569 351.592C433.468 351.36 433.313 351.161 433.12 351.015C432.926 350.868 432.701 350.779 432.466 350.757C432.231 350.735 431.995 350.781 431.781 350.889C431.568 350.998 431.384 351.165 431.248 351.375C429.579 352.871 428.426 354.939 427.979 357.242C427.28 363.435 426.407 369.6 425.484 375.766C424.56 381.932 423.338 387.5 422.165 393.34C421.56 396.744 420.776 400.109 419.819 403.416C418.832 407.205 417.433 410.853 415.652 414.281C413.145 418.468 409.261 421.452 404.797 422.62C398.95 424.342 392.801 424.454 386.905 422.946C384.688 422.552 382.625 421.464 380.967 419.814C379.31 418.165 378.13 416.025 377.572 413.656C376.848 410.044 376.324 406.513 376 404.72Z" fill="#FF029C"/>
</svg>
