<svg width="200" height="1080" viewBox="0 0 200 1080" fill="none" xmlns="http://www.w3.org/2000/svg">
<rect width="66" height="60" fill="white"/>
<rect x="133" width="67" height="60" fill="white"/>
<rect width="66" height="60" fill="white"/>
<rect x="66" y="60" width="67" height="60" fill="white"/>
<rect x="133" width="67" height="60" fill="white"/>
<rect y="360" width="66" height="59" fill="white"/>
<rect x="66" y="419" width="67" height="61" fill="white"/>
<rect x="133" y="360" width="67" height="59" fill="white"/>
<rect y="239" width="66" height="61" fill="white"/>
<rect x="66" y="300" width="67" height="60" fill="white"/>
<rect x="133" y="239" width="67" height="61" fill="white"/>
<rect y="120" width="66" height="60" fill="white"/>
<rect x="66" y="180" width="67" height="59" fill="white"/>
<rect x="133" y="120" width="67" height="60" fill="white"/>
<rect y="480" width="66" height="59" fill="white"/>
<rect x="66" y="539" width="67" height="60" fill="white"/>
<rect x="133" y="480" width="67" height="59" fill="white"/>
<rect y="599" width="66" height="61" fill="white"/>
<rect x="66" y="660" width="67" height="59" fill="white"/>
<rect x="133" y="599" width="67" height="61" fill="white"/>
<rect y="719" width="66" height="60" fill="white"/>
<rect x="66" y="779" width="67" height="60" fill="white"/>
<rect x="133" y="719" width="67" height="60" fill="white"/>
<rect y="839" width="66" height="60" fill="white"/>
<rect x="66" y="899" width="67" height="60" fill="white"/>
<rect x="133" y="839" width="67" height="60" fill="white"/>
<rect y="959" width="66" height="60" fill="white"/>
<rect x="66" y="1020" width="67" height="60" fill="white"/>
<rect x="133" y="959" width="67" height="60" fill="white"/>
</svg>
